<svg width="213" height="207" viewBox="0 0 213 207" fill="none" xmlns="http://www.w3.org/2000/svg">
<path fill-rule="evenodd" clip-rule="evenodd" d="M129.496 92.6826C129.148 92.8589 128.713 93.1213 128.375 93.3749C128.343 93.3993 128.309 93.4216 128.274 93.4418L51.5533 137.554C52.815 137.804 54.1138 138.321 55.4761 139.109L55.4785 139.111L68.1743 146.508L68.1785 146.511L118.665 175.603C121.966 177.416 124.776 180.568 126.926 184.049L126.931 184.057C129.295 187.964 130.875 192.543 130.875 196.675C130.875 198.239 130.66 199.646 130.242 200.869L207.176 156.608C207.193 156.598 207.21 156.589 207.228 156.58L207.802 156.294C209.452 155.336 210.575 153.173 210.575 149.775C210.575 146.008 209.155 141.786 206.818 137.889L206.813 137.882C204.886 134.606 202.204 131.844 199.382 130.245L199.375 130.241L136.175 93.7409L136.174 93.7403C134.384 92.7042 132.856 92.2749 131.475 92.2749C130.739 92.2749 130.081 92.4353 129.496 92.6826ZM46.8622 137.944C46.7488 138.001 46.635 138.066 46.5204 138.143C46.0716 138.442 45.9409 139.043 46.2251 139.502C46.5093 139.96 47.1059 140.111 47.5735 139.842L47.8017 139.711C47.9202 139.656 48.0688 139.608 48.2949 139.551C48.7708 139.456 49.2841 139.375 49.7751 139.375C51.1559 139.375 52.6836 139.804 54.4726 140.839C54.473 140.84 54.4735 140.84 54.474 140.84L67.1716 148.239L67.1758 148.241L117.676 177.341L117.694 177.352C120.588 178.939 123.175 181.783 125.222 185.097C127.456 188.789 128.875 193.009 128.875 196.675C128.875 200.065 127.753 202.181 126.13 203.236C125.676 203.532 125.539 204.135 125.822 204.597C126.105 205.059 126.704 205.212 127.174 204.942L208.148 158.356L208.722 158.069C208.739 158.061 208.755 158.052 208.771 158.043C211.308 156.593 212.575 153.561 212.575 149.775C212.575 145.543 210.996 140.967 208.535 136.864C206.463 133.343 203.547 130.308 200.372 128.507C200.371 128.506 200.369 128.506 200.368 128.505L137.176 92.0095C135.166 90.8456 133.294 90.2749 131.475 90.2749C130.423 90.2749 129.489 90.5096 128.681 90.8558C128.663 90.8635 128.645 90.8717 128.628 90.8805C128.197 91.0959 127.669 91.4107 127.226 91.7372L46.8622 137.944Z" fill="#54DF6C"/>
<path fill-rule="evenodd" clip-rule="evenodd" d="M49.6749 139.475C49.0241 139.475 48.633 139.489 48.3463 139.603C48.3281 139.611 48.3097 139.617 48.2911 139.624C48.2238 139.646 48.1502 139.669 48.0851 139.69C48.0675 139.695 48.0506 139.7 48.0346 139.705C47.9529 139.731 47.8802 139.755 47.8112 139.779C47.7162 139.813 47.6459 139.843 47.5945 139.87L47.582 139.882C47.506 139.958 47.4183 140.021 47.3221 140.069L46.975 140.243C45.3761 141.308 44.2749 143.416 44.2749 146.775C44.2749 150.534 45.789 154.852 48.1266 158.651L48.1301 158.657C50.0595 161.84 52.6444 164.505 55.4679 166.105L55.475 166.109L118.676 202.61C120.466 203.646 121.994 204.075 123.375 204.075C124.427 204.075 125.421 203.809 126.12 203.343L126.13 203.336C127.753 202.281 128.875 200.165 128.875 196.775C128.875 192.992 127.545 188.778 125.236 185.219L125.224 185.2C123.184 181.897 120.494 179.039 117.682 177.445L117.676 177.441L54.3744 140.941C52.5848 139.905 51.0562 139.475 49.6749 139.475ZM49.6022 137.475C49.6269 137.475 49.6511 137.475 49.6749 137.475C51.4937 137.475 53.3656 138.046 55.3759 139.21L118.668 175.705C118.669 175.706 118.67 175.706 118.671 175.707C121.855 177.512 124.762 180.649 126.92 184.14C129.408 187.979 130.875 192.562 130.875 196.775C130.875 200.582 129.598 203.465 127.225 205.01C126.125 205.742 124.721 206.075 123.375 206.075C121.556 206.075 119.685 205.504 117.675 204.341C117.674 204.341 117.675 204.341 117.675 204.341L54.4819 167.845C54.4807 167.844 54.4794 167.844 54.4782 167.843C51.3042 166.043 48.4911 163.11 46.4215 159.696C43.96 155.695 42.2749 151.015 42.2749 146.775C42.2749 142.965 43.5531 140.081 45.9299 138.537C45.9614 138.516 45.9941 138.497 46.0277 138.481L46.2832 138.353C46.3255 138.312 46.3714 138.275 46.4202 138.243C46.8 137.99 47.2975 137.838 47.55 137.76C47.5836 137.75 47.6129 137.741 47.637 137.733C48.3111 137.474 49.0648 137.474 49.6022 137.475Z" fill="#54DF6C"/>
<path fill-rule="evenodd" clip-rule="evenodd" d="M203.042 131.376C203.317 131.855 203.152 132.466 202.674 132.742L121.474 179.442C120.995 179.717 120.384 179.552 120.108 179.073C119.833 178.595 119.998 177.983 120.476 177.708L201.676 131.008C202.155 130.733 202.767 130.898 203.042 131.376Z" fill="#54DF6C"/>
<path fill-rule="evenodd" clip-rule="evenodd" d="M110.769 185.651C110.763 186.807 111.145 188.254 111.97 189.683C112.794 191.111 113.857 192.165 114.861 192.738C115.889 193.324 116.671 193.319 117.144 193.046C117.618 192.772 118.013 192.098 118.019 190.914C118.026 189.758 117.644 188.311 116.819 186.883C115.994 185.454 114.932 184.4 113.928 183.828C112.899 183.241 112.118 183.246 111.644 183.52C111.171 183.793 110.776 184.468 110.769 185.651ZM108.769 185.641C108.778 184.099 109.301 182.564 110.644 181.788C111.988 181.012 113.58 181.327 114.918 182.09C116.282 182.867 117.581 184.202 118.551 185.883C119.521 187.563 120.028 189.356 120.019 190.925C120.011 192.466 119.488 194.002 118.144 194.778C116.801 195.554 115.209 195.239 113.87 194.475C112.507 193.698 111.208 192.363 110.238 190.683C109.267 189.002 108.761 187.21 108.769 185.641Z" fill="#54DF6C"/>
<path fill-rule="evenodd" clip-rule="evenodd" d="M102.557 181.221C102.557 181.559 102.674 182.035 102.961 182.533C103.249 183.03 103.603 183.37 103.895 183.539C104.045 183.626 104.138 183.649 104.186 183.655C104.206 183.61 104.232 183.518 104.232 183.345C104.232 183.007 104.115 182.53 103.827 182.033C103.54 181.535 103.186 181.196 102.893 181.026C102.744 180.94 102.651 180.916 102.602 180.911C102.583 180.956 102.557 181.048 102.557 181.221ZM102.623 180.876C102.623 180.876 102.622 180.877 102.621 180.879C102.622 180.877 102.623 180.876 102.623 180.876ZM102.565 180.911C102.563 180.911 102.562 180.912 102.562 180.911C102.562 180.911 102.563 180.911 102.565 180.911ZM104.166 183.69C104.166 183.69 104.166 183.689 104.168 183.687C104.167 183.689 104.166 183.69 104.166 183.69ZM104.224 183.655C104.226 183.654 104.227 183.654 104.227 183.654C104.227 183.654 104.226 183.655 104.224 183.655ZM100.557 181.221C100.556 180.504 100.795 179.627 101.594 179.165C102.394 178.704 103.273 178.936 103.894 179.295C104.542 179.669 105.129 180.287 105.559 181.033C105.99 181.779 106.232 182.596 106.232 183.344C106.232 184.062 105.994 184.939 105.194 185.4C104.395 185.862 103.516 185.63 102.895 185.271C102.247 184.897 101.66 184.279 101.229 183.533C100.799 182.787 100.557 181.97 100.557 181.221Z" fill="#54DF6C"/>
<path fill-rule="evenodd" clip-rule="evenodd" d="M52.0962 149.618C51.8278 149.772 51.4751 150.22 51.4751 151.275C51.4751 152.302 51.8519 153.503 52.4998 154.606C53.1478 155.709 54.009 156.614 54.8712 157.107L54.8745 157.109L83.6712 173.707C83.6718 173.707 83.6723 173.707 83.6729 173.708C84.526 174.195 85.1128 174.127 85.4231 173.953C85.7257 173.783 86.0751 173.337 86.0751 172.375C86.0751 171.348 85.6983 170.147 85.0504 169.044C84.4024 167.941 83.5412 167.036 82.679 166.543L82.6757 166.541L53.8663 149.936C52.9333 149.385 52.3632 149.466 52.0962 149.618ZM54.879 148.211C53.6134 147.465 52.2355 147.235 51.104 147.882C49.9724 148.528 49.4751 149.83 49.4751 151.275C49.4751 152.748 49.9983 154.297 50.7754 155.619C51.552 156.941 52.6402 158.135 53.8774 158.842C53.8779 158.843 53.8784 158.843 53.879 158.843L82.6757 175.441L82.679 175.443C83.925 176.155 85.2876 176.323 86.4021 175.697C87.5245 175.067 88.0751 173.813 88.0751 172.375C88.0751 170.902 87.5519 169.353 86.7748 168.031C85.9982 166.709 84.9101 165.515 83.6731 164.808C83.6725 164.807 83.6718 164.807 83.6712 164.807L54.8838 148.214C54.8822 148.213 54.8806 148.212 54.879 148.211Z" fill="#54DF6C"/>
<path fill-rule="evenodd" clip-rule="evenodd" d="M141.652 125.163C141.77 125.702 141.427 126.235 140.888 126.352L122.544 130.34L126.417 132.834C126.687 133.009 126.858 133.303 126.874 133.624C126.89 133.946 126.751 134.256 126.499 134.457L116.599 142.357C116.167 142.701 115.538 142.63 115.193 142.199C114.849 141.767 114.92 141.138 115.351 140.793L124.163 133.762L119.434 130.716C119.094 130.497 118.919 130.095 118.991 129.697C119.063 129.299 119.368 128.984 119.763 128.898L140.463 124.398C141.002 124.28 141.535 124.623 141.652 125.163Z" fill="#54DF6C"/>
<path fill-rule="evenodd" clip-rule="evenodd" d="M141.47 124.768C141.805 125.207 141.721 125.835 141.282 126.17L133.116 132.404L138.615 135.933C138.956 136.152 139.131 136.554 139.059 136.952C138.987 137.351 138.683 137.666 138.287 137.752L116.187 142.552C115.648 142.669 115.115 142.327 114.998 141.787C114.881 141.248 115.223 140.715 115.763 140.598L135.5 136.311L130.835 133.317C130.56 133.14 130.389 132.842 130.376 132.516C130.363 132.19 130.509 131.878 130.768 131.68L140.068 124.58C140.507 124.245 141.135 124.329 141.47 124.768Z" fill="#54DF6C"/>
<path fill-rule="evenodd" clip-rule="evenodd" d="M112.45 124.172C108.166 126.637 105.775 129.892 105.775 133.275C105.775 136.659 108.166 139.913 112.45 142.379C116.706 144.828 122.652 146.375 129.275 146.375C135.897 146.375 141.844 144.828 146.1 142.379C150.383 139.913 152.775 136.659 152.775 133.275C152.775 129.892 150.383 126.637 146.1 124.172C141.844 121.722 135.897 120.175 129.275 120.175C122.652 120.175 116.706 121.722 112.45 124.172ZM111.452 122.438C116.063 119.784 122.366 118.175 129.275 118.175C136.183 118.175 142.487 119.784 147.098 122.438C151.682 125.076 154.775 128.871 154.775 133.275C154.775 137.679 151.682 141.474 147.098 144.112C142.487 146.766 136.183 148.375 129.275 148.375C122.366 148.375 116.063 146.766 111.452 144.112C106.868 141.474 103.775 137.679 103.775 133.275C103.775 128.871 106.868 125.076 111.452 122.438Z" fill="#54DF6C"/>
<path fill-rule="evenodd" clip-rule="evenodd" d="M131.275 2C129.535 2 127.844 2.39697 126.581 3.1377L126.575 3.1411L41.6749 52.1411L41.6581 52.1506C40.3965 52.8466 40 53.6422 40 54.2375C40 54.84 40.4047 55.6614 41.6711 56.4067L42.5606 56.9008L42.576 56.9096L88.1807 83.3123C89.4443 84.053 91.1351 84.45 92.875 84.45C94.6149 84.45 96.3057 84.053 97.5693 83.3123L97.575 83.309L181.575 34.809L181.589 34.8008L182.479 34.3067C183.743 33.5627 184.15 32.7418 184.15 32.125C184.15 31.5071 183.742 30.6842 182.472 29.9391C182.471 29.9386 182.47 29.9382 182.469 29.9377L177.975 27.3412L138.982 4.84502L138.975 4.84119L135.982 3.14502L135.969 3.1377C134.706 2.39697 133.015 2 131.275 2ZM136.974 1.40854C135.339 0.451849 133.283 0 131.275 0C129.266 0 127.208 0.452501 125.572 1.41061C125.571 1.41117 125.57 1.41174 125.569 1.4123L40.6831 50.4043C39.0497 51.3082 38 52.6606 38 54.2375C38 55.8085 39.0432 57.1845 40.6693 58.1377L40.6894 58.1492L41.5817 58.6449L87.1693 85.0377C87.1699 85.0381 87.1706 85.0385 87.1712 85.0388C88.8073 85.9973 90.8657 86.45 92.875 86.45C94.8841 86.45 96.9423 85.9974 98.5783 85.0391C98.5791 85.0386 98.5799 85.0382 98.5807 85.0377L182.561 36.5492L182.575 36.541L183.461 36.0492L183.481 36.0377C185.109 35.0832 186.15 33.7067 186.15 32.125C186.15 30.5433 185.109 29.1668 183.481 28.2123L178.975 25.6091L139.975 3.10879L136.981 1.4123C136.979 1.41105 136.976 1.40979 136.974 1.40854Z" fill="#54DF6C"/>
<path fill-rule="evenodd" clip-rule="evenodd" d="M185.175 38.075C185.727 38.075 186.175 38.5227 186.175 39.075V39.2744C186.175 40.8801 185.129 42.1487 183.489 43.1324L183.475 43.1411L98.5807 92.1376C98.5796 92.1383 98.5786 92.1389 98.5775 92.1395C96.9416 93.0975 94.8838 93.5499 92.875 93.5499C90.8657 93.5499 88.8074 93.0973 87.1713 92.1389C87.1706 92.1385 87.1699 92.1381 87.1692 92.1376L65.3716 79.439C64.8944 79.161 64.7329 78.5488 65.0109 78.0716C65.2889 77.5944 65.9011 77.4329 66.3783 77.7109L88.1807 90.4122C89.4443 91.153 91.1351 91.5499 92.875 91.5499C94.6148 91.5499 96.3056 91.153 97.5692 90.4123L97.5751 90.4088L182.46 41.4175C182.463 41.4161 182.465 41.4147 182.467 41.4133C183.822 40.5988 184.175 39.8682 184.175 39.2749V39.0755C184.175 38.5233 184.623 38.075 185.175 38.075ZM38.6078 60.3908C38.9355 60.2176 39.3322 60.2399 39.6384 60.4488L56.9384 72.2488C57.3828 72.5519 57.5078 73.1523 57.2213 73.6076C56.9348 74.0629 56.3395 74.2099 55.8739 73.9404L40.6788 65.1432C40.6779 65.1427 40.677 65.1421 40.676 65.1416C39.0704 64.2231 38.075 62.8387 38.075 61.275C38.075 60.9043 38.28 60.564 38.6078 60.3908Z" fill="#54DF6C"/>
<path fill-rule="evenodd" clip-rule="evenodd" d="M58.9606 70.4174C59.2725 70.2303 59.6614 70.2272 59.9761 70.4095L69.4761 75.9095C69.7825 76.0869 69.9723 76.4131 69.9751 76.7671C69.9778 77.1211 69.7932 77.4502 69.4896 77.6324L66.4896 79.4324L66.4698 79.444L59.9712 83.1431C59.9709 83.1433 59.9706 83.1435 59.9704 83.1437C59.0772 83.6537 57.9427 83.8749 56.8751 83.8749C55.8071 83.8749 54.6722 83.6536 53.779 83.1431L53.7729 83.1397L50.6759 81.3414C49.4378 80.6329 48.6001 79.5539 48.6001 78.2749C48.6001 76.9949 49.4392 75.9151 50.679 75.2067L50.6825 75.2046L55.9715 72.2109L58.9606 70.4174ZM59.4842 72.4357L56.9896 73.9324C56.9823 73.9367 56.975 73.941 56.9677 73.9452L51.6696 76.9441C50.8107 77.4354 50.6001 77.9551 50.6001 78.2749C50.6001 78.5949 50.811 79.1151 51.6712 79.6067L51.6772 79.6101L54.7739 81.4082C55.2807 81.6969 56.0446 81.8749 56.8751 81.8749C57.7071 81.8749 58.4722 81.6962 58.979 81.4067L65.4704 77.7115L67.0058 76.7903L59.4842 72.4357Z" fill="#54DF6C"/>
<path fill-rule="evenodd" clip-rule="evenodd" d="M39.075 53.2749C39.6272 53.2749 40.075 53.7226 40.075 54.2749V61.0742L39.075 61.0749L38.075 61.0748V54.2749C38.075 53.7226 38.5227 53.2749 39.075 53.2749ZM39.075 62.0749C38.5227 62.0749 38.075 61.6271 38.075 61.0748L39.075 61.0749L40.075 61.0742C40.075 61.6265 39.6272 62.0749 39.075 62.0749Z" fill="#54DF6C"/>
<path fill-rule="evenodd" clip-rule="evenodd" d="M185.175 31.4751C185.727 31.4751 186.175 31.9228 186.175 32.4751V39.1744L185.175 39.1751L184.175 39.175V32.4751C184.175 31.9228 184.623 31.4751 185.175 31.4751ZM185.175 40.1751C184.623 40.1751 184.175 39.7273 184.175 39.175L185.175 39.1751L186.175 39.1744C186.175 39.7267 185.727 40.1751 185.175 40.1751Z" fill="#54DF6C"/>
<path fill-rule="evenodd" clip-rule="evenodd" d="M174.133 43.7606C174.417 44.2341 174.263 44.8484 173.79 45.1325L163.79 51.1325C163.316 51.4167 162.702 51.2631 162.418 50.7895C162.133 50.316 162.287 49.7017 162.761 49.4176L172.761 43.4176C173.234 43.1334 173.848 43.287 174.133 43.7606Z" fill="#54DF6C"/>
<path fill-rule="evenodd" clip-rule="evenodd" d="M138.981 3.20527C139.29 3.03027 139.668 3.0316 139.975 3.20877L178.975 25.7088C179.285 25.888 179.476 26.2198 179.475 26.5785C179.474 26.9371 179.281 27.2676 178.969 27.4446L175.274 29.5418C173.886 30.3499 172.128 30.725 170.425 30.725C168.721 30.725 166.962 30.3492 165.573 29.5398C165.572 29.5395 165.572 29.5391 165.571 29.5387L135.271 12.0387C133.898 11.2376 132.975 10.0622 132.975 8.67495C132.975 7.28767 133.898 6.11233 135.271 5.31117L135.281 5.3052L138.981 3.20527ZM136.274 7.04158C135.252 7.63955 134.975 8.26289 134.975 8.67495C134.975 9.08743 135.252 9.71161 136.277 10.3101C136.278 10.3105 136.278 10.3108 136.279 10.3112L166.579 27.8112C167.59 28.401 168.98 28.725 170.425 28.725C171.87 28.725 173.26 28.401 174.271 27.8112L174.281 27.8052L176.462 26.5679L139.471 5.2271L136.274 7.04158Z" fill="#54DF6C"/>
<path d="M77.175 166.175L67.675 171.675C65.275 173.075 61.375 173.075 58.975 171.675L53.175 168.375C49.675 166.375 49.675 163.075 53.175 161.075L60.675 156.775L77.175 166.175Z" fill="white"/>
<path fill-rule="evenodd" clip-rule="evenodd" d="M60.1777 155.907C60.4849 155.731 60.8624 155.731 61.1701 155.906L77.67 165.306C77.9812 165.483 78.1738 165.813 78.175 166.171C78.1763 166.53 77.986 166.861 77.6761 167.04L68.1789 172.539C68.1785 172.539 68.1781 172.539 68.1777 172.539C66.7891 173.349 65.0298 173.725 63.325 173.725C61.6218 173.725 59.8641 173.35 58.476 172.541L52.6789 169.243C50.7428 168.137 49.55 166.533 49.55 164.725C49.55 162.917 50.7425 161.313 52.6783 160.207C52.6785 160.207 52.6781 160.207 52.6783 160.207L60.1777 155.907ZM60.6766 157.927L53.6712 161.943C52.1073 162.837 51.55 163.883 51.55 164.725C51.55 165.567 52.1072 166.613 53.6705 167.506C53.6707 167.506 53.6702 167.506 53.6705 167.506L59.4789 170.811C60.4901 171.401 61.8803 171.725 63.325 171.725C64.7698 171.725 66.16 171.401 67.1712 170.811L67.174 170.809L75.1671 166.182L60.6766 157.927Z" fill="#54DF6C"/>
<path fill-rule="evenodd" clip-rule="evenodd" d="M53.1375 80.569C53.417 81.0453 53.2574 81.6581 52.7811 81.9376L19.3735 101.542C16.0422 103.458 16.0422 108.293 19.3735 110.208L19.376 110.21L40.2688 122.306C43.6438 124.188 43.6437 129.062 40.2687 130.945L3.9848 151.935C1.31886 153.559 1.36159 157.404 3.97397 158.908L3.97736 158.91L32.3774 175.41C36.3666 177.73 41.3831 177.73 45.3724 175.411L55.8727 169.31C56.3502 169.033 56.9622 169.195 57.2397 169.673C57.5171 170.15 57.3549 170.762 56.8773 171.04L46.3776 177.14C46.3775 177.14 46.3777 177.14 46.3776 177.14C41.7669 179.82 35.983 179.82 31.3724 177.14L2.97604 160.642C2.9754 160.641 2.97476 160.641 2.97412 160.641C-1.00879 158.346 -0.968134 152.599 2.9567 150.22L2.97425 150.21L39.2742 129.21L39.2894 129.201C41.3036 128.082 41.3036 125.168 39.2894 124.049L39.274 124.041L18.3765 111.942C18.3761 111.942 18.3756 111.942 18.3752 111.941C13.7091 109.257 13.7083 102.496 18.3726 99.8105C18.3739 99.8097 18.3752 99.809 18.3765 99.8082L51.7689 80.2126C52.2452 79.9331 52.8579 80.0927 53.1375 80.569Z" fill="#54DF6C"/>
<path d="M92 58.9L90.2 58.4L87.4 60L88.3 61.1L86.7 62L82 56.3L83.7 55.3L93.5 58L92 58.9ZM86.6 59.2001L88.7 58L84.6 56.9L86.6 59.2001Z" fill="#828282"/>
<path d="M95.9999 56.6001L94.4999 57.4001L86.8999 53.0001L88.3999 52.2001L92.7999 54.7001L92.2999 52.2001L94.2999 51.1001L94.6999 54.3001L100.1 54.5001L98.0999 55.6001L93.6999 55.4001L95.9999 56.6001Z" fill="#828282"/>
<path d="M102.3 53L100.8 53.8L93.1001 49.4L94.6001 48.6L99.0001 51.1L98.5001 48.6L100.5 47.5L100.9 50.7L106.3 50.9L104.3 52L99.9001 51.8L102.3 53Z" fill="#828282"/>
<path d="M105.3 44.6L106.8 43.8L112.6 47.1L111 48L110.1 47.5C110.4 48.1 110.1 48.6 109.2 49.1C108.5 49.5 107.8 49.7 107 49.6C106.2 49.6 105.3 49.4 104.6 48.9L101.2 47L102.7 46.2L105.9 48C106.4 48.3 106.8 48.4 107.3 48.4C107.8 48.4 108.2 48.3 108.6 48.1C109 47.9 109.2 47.6 109.2 47.3C109.2 47 109 46.8 108.5 46.5L105.3 44.6Z" fill="#828282"/>
<path d="M117.2 44.4L109.5 40L111 39.2L118.7 43.6L117.2 44.4Z" fill="#828282"/>
<path d="M122.7 41.3001C121.9 41.8001 120.9 42.0001 119.8 42.0001C118.7 42.0001 117.7 41.7001 116.9 41.2001C116 40.7001 115.6 40.1001 115.5 39.5001C115.5 38.9001 115.9 38.3001 116.8 37.8001C117.7 37.3001 118.6 37.1001 119.7 37.1001C120.8 37.1001 121.7 37.3001 122.6 37.8001C122.8 37.9001 123 38.0001 123.1 38.1001L118.9 40.5001C119.3 40.7001 119.7 40.8001 120.2 40.8001C120.7 40.8001 121.1 40.7001 121.5 40.5001C122 40.2001 122.2 39.9001 122 39.5001L123.6 38.6001C124 39.0001 124.1 39.5001 124 39.9001C123.8 40.5001 123.4 40.9001 122.7 41.3001ZM119.3 38.3001C118.8 38.3001 118.4 38.4001 118 38.6001C117.6 38.8001 117.4 39.1001 117.4 39.3001C117.4 39.5001 117.5 39.8001 117.9 40.1001L120.6 38.5001C120.3 38.3001 119.8 38.2001 119.3 38.3001Z" fill="#828282"/>
<path d="M129.2 37.5999C128.4 38.0999 127.4 38.2999 126.3 38.2999C125.2 38.2999 124.2 37.9999 123.4 37.4999C122.5 36.9999 122 36.3999 122 35.7999C122 35.1999 122.4 34.5999 123.3 34.0999C124.2 33.5999 125.1 33.3999 126.2 33.3999C127.3 33.3999 128.2 33.5999 129.1 34.0999C129.3 34.1999 129.5 34.2999 129.6 34.3999L125.4 36.7999C125.8 36.9999 126.2 37.0999 126.7 37.0999C127.2 37.0999 127.6 36.9999 128 36.7999C128.5 36.4999 128.7 36.1999 128.5 35.7999L130 34.8999C130.4 35.2999 130.5 35.7999 130.4 36.1999C130.3 36.7999 129.9 37.1999 129.2 37.5999ZM125.8 34.4999C125.3 34.4999 124.9 34.5999 124.5 34.7999C124.1 34.9999 123.9 35.2999 123.9 35.4999C123.9 35.7999 124 35.9999 124.4 36.2999L127.1 34.6999C126.7 34.5999 126.3 34.4999 125.8 34.4999Z" fill="#828282"/>
<path d="M128.9 31L129.9 31.6C129.5 31 129.7 30.4 130.5 30L132 30.9L131.6 31.1C131.2 31.4 130.9 31.6 130.9 31.9C130.9 32.2 131.2 32.4 131.7 32.7L134.6 34.4L133.1 35.2L127.3 31.9L128.9 31Z" fill="#828282"/>
</svg>
