<svg width="263" height="65" viewBox="0 0 263 65" fill="none" xmlns="http://www.w3.org/2000/svg">
<path d="M37.0312 26.3939C37.0312 24.4242 38.4656 23.3737 40.0303 23.3737H47.2018C52.4175 23.3737 55.938 26.6565 55.938 31.5151C55.938 35.3232 53.591 38.212 49.94 38.8686L55.0253 44.5151C55.8076 45.4343 56.3292 46.0908 56.3292 47.1413C56.3292 47.9292 55.5469 49.8989 53.3302 49.8989C51.7655 49.8989 51.2439 49.3737 50.4616 48.4545L43.1597 39.2625H43.0293V46.7474C43.0293 48.8484 41.7254 49.8989 40.0303 49.8989C38.3352 49.8989 37.0312 48.8484 37.0312 46.7474V26.3939ZM42.8989 34.6666H46.8106C48.7665 34.6666 49.8096 33.3535 49.8096 31.7777C49.8096 30.0706 48.5057 28.8888 46.8106 28.8888H42.8989V34.6666Z" fill="#231F20"/>
<path d="M63.24 41.6262C63.24 42.808 64.1527 44.7777 67.8037 44.7777C70.6723 44.7777 72.3674 42.9393 73.6713 42.9393C74.9752 42.9393 76.0184 43.9898 76.0184 45.4342C76.0184 48.1918 71.3243 50.0302 67.0213 50.0302C60.8929 50.0302 57.1116 45.4342 57.1116 39.6565C57.1116 34.1413 61.2841 29.2827 67.0213 29.2827C72.6282 29.2827 76.2792 34.01 76.2792 38.9999C76.2792 40.9696 75.3664 41.4948 73.5409 41.4948H63.24V41.6262ZM70.5419 37.6868C70.5419 36.3736 69.1076 34.2726 66.8909 34.2726C64.6743 34.2726 63.24 36.5049 63.24 37.6868H70.5419Z" fill="#231F20"/>
<path d="M86.9712 29.4141C89.5791 29.4141 93.7516 30.2019 93.7516 33.2221C93.7516 34.7979 92.7085 35.8484 91.4045 35.8484C89.9702 35.8484 89.5791 34.9292 87.3624 34.9292C84.4938 34.9292 83.1899 37.1615 83.1899 39.7878C83.1899 42.4141 84.6242 44.6464 87.1016 44.6464C89.5791 44.6464 90.6222 43.5959 91.5349 43.5959C92.8389 43.5959 93.882 44.909 93.882 46.0908C93.882 48.9797 89.4487 50.0302 87.1016 50.0302C81.3644 50.0302 77.4526 45.4343 77.4526 39.6565C77.4526 33.8787 81.234 29.4141 86.9712 29.4141Z" fill="#231F20"/>
<path d="M95.0557 24.1616C95.0557 22.4545 96.2292 21.1414 97.9243 21.1414C99.6194 21.1414 100.793 22.4545 100.793 24.1616V30.7272H100.923C102.097 29.9393 103.531 29.2828 105.748 29.2828C109.66 29.2828 112.789 31.3838 112.789 36.1111V46.7474C112.789 48.4545 111.615 49.7676 109.92 49.7676C108.225 49.7676 107.052 48.4545 107.052 46.7474V37.6868C107.052 35.7171 105.878 34.2727 103.922 34.2727C101.966 34.2727 100.793 35.7171 100.793 37.6868V46.7474C100.793 48.4545 99.6194 49.7676 97.9243 49.7676C96.2292 49.7676 95.0557 48.4545 95.0557 46.7474V24.1616Z" fill="#231F20"/>
<path d="M133.782 46.7474C133.782 48.4545 132.608 49.7676 130.913 49.7676C129.479 49.7676 128.697 48.8484 128.305 47.9292C127.001 49.505 125.567 50.1615 123.35 50.1615C118.396 50.1615 114.614 45.5656 114.614 39.7878C114.614 34.01 118.396 29.4141 123.35 29.4141C125.567 29.4141 127.001 30.0706 128.305 31.6464C128.697 30.7272 129.609 29.808 130.913 29.808C132.608 29.808 133.782 31.1211 133.782 32.8282V46.7474ZM120.351 39.7878C120.351 42.4141 121.786 44.6464 124.263 44.6464C126.741 44.6464 128.175 42.4141 128.175 39.7878C128.175 37.1615 126.741 34.9292 124.263 34.9292C121.786 34.9292 120.351 37.1615 120.351 39.7878Z" fill="#231F20"/>
<path d="M136.259 32.6969C136.259 30.9898 137.433 29.6767 139.128 29.6767C140.693 29.6767 141.605 30.7272 141.997 31.515C142.909 30.3332 144.344 29.2827 145.908 29.2827C147.343 29.2827 148.777 30.4645 148.777 32.3029C148.777 34.2726 147.343 34.7979 145.256 35.4544C142.779 36.2423 141.997 36.8989 141.997 39.7878V46.7474C141.997 48.4544 140.823 49.7676 139.128 49.7676C137.433 49.7676 136.259 48.4544 136.259 46.7474V32.6969Z" fill="#231F20"/>
<path d="M167.553 47.6666C167.553 55.0202 162.859 57.7777 157.252 57.7777C154.253 57.7777 148.777 56.5959 148.777 53.5757C148.777 52.2626 150.081 51.0808 151.124 51.0808C152.819 51.0808 153.862 52.7878 157.122 52.7878C160.643 52.7878 161.816 50.9494 161.816 47.6666H161.686C160.382 49.3737 158.426 49.8989 156.47 49.8989C150.994 49.8989 148.255 45.0404 148.255 39.9191C148.255 34.1414 152.037 29.5454 156.992 29.5454C159.208 29.5454 160.643 30.202 161.946 31.7777C162.338 30.8585 163.25 29.9393 164.554 29.9393C166.249 29.9393 167.423 31.2525 167.423 32.9596V47.6666H167.553ZM158.035 34.9292C155.557 34.9292 154.123 37.1616 154.123 39.7878C154.123 42.5454 155.557 44.7777 158.035 44.7777C160.512 44.7777 161.946 42.6767 161.946 39.7878C161.946 37.1616 160.512 34.9292 158.035 34.9292Z" fill="#231F20"/>
<path d="M175.507 41.6262C175.507 42.808 176.42 44.7777 180.071 44.7777C182.94 44.7777 184.635 42.9393 185.939 42.9393C187.243 42.9393 188.286 43.9898 188.286 45.4342C188.286 48.1918 183.592 50.0302 179.289 50.0302C173.16 50.0302 169.379 45.4342 169.379 39.6565C169.379 34.1413 173.551 29.2827 179.289 29.2827C184.896 29.2827 188.546 34.01 188.546 38.9999C188.546 40.9696 187.634 41.4948 185.808 41.4948H175.507V41.6262ZM182.809 37.6868C182.809 36.3736 181.375 34.2726 179.158 34.2726C176.942 34.2726 175.507 36.5049 175.507 37.6868H182.809Z" fill="#231F20"/>
<path d="M190.502 26.2626C190.502 24.1616 191.806 23.1111 193.501 23.1111C195.066 23.1111 195.587 23.7676 197.543 26.2626L207.323 38.606H207.453V26.2626C207.453 24.1616 208.757 23.1111 210.452 23.1111C212.147 23.1111 213.451 24.1616 213.451 26.2626V46.6161C213.451 48.7171 212.147 49.7676 210.452 49.7676C208.887 49.7676 208.235 49.1111 206.41 46.6161L196.631 34.2727H196.5V46.7474C196.5 48.8485 195.196 49.899 193.501 49.899C191.806 49.899 190.502 48.8485 190.502 46.7474V26.2626Z" fill="#54DF6C"/>
<path d="M234.575 39.7878C234.575 45.5656 230.793 50.1615 224.926 50.1615C219.058 50.1615 215.277 45.5656 215.277 39.7878C215.277 34.01 219.058 29.4141 224.926 29.4141C230.793 29.4141 234.575 34.01 234.575 39.7878ZM221.014 39.7878C221.014 42.4141 222.448 44.6464 224.926 44.6464C227.403 44.6464 228.837 42.4141 228.837 39.7878C228.837 37.1615 227.403 34.9292 224.926 34.9292C222.448 34.9292 221.014 37.1615 221.014 39.7878Z" fill="#54DF6C"/>
<path d="M235.748 35.7171C235.227 34.4039 234.966 33.4847 234.835 32.5656C234.835 31.1211 235.879 29.808 237.704 29.808C239.008 29.808 240.051 30.5959 240.442 31.7777L243.181 41.1009H243.311L245.919 33.0908C246.44 31.6464 246.962 29.808 249.048 29.808C251.134 29.808 251.656 31.5151 252.178 33.0908L254.785 41.1009H254.916L257.654 31.7777C258.045 30.4645 258.958 29.808 260.392 29.808C262.348 29.808 263.261 31.1211 263.261 32.5656C263.13 33.6161 262.87 34.5353 262.348 35.7171L258.306 46.8787C257.654 48.7171 256.741 49.7676 254.785 49.7676C252.699 49.7676 252.047 48.7171 251.395 46.7474L249.179 39.9191H249.048L246.831 46.7474C246.18 48.7171 245.528 49.7676 243.441 49.7676C241.485 49.7676 240.573 48.8484 239.921 46.8787L235.748 35.7171Z" fill="#54DF6C"/>
<path d="M32.3371 64.9999H10.0402C4.56371 64.9999 0 60.5353 0 54.8888V15.4949C0 9.97975 4.43332 5.38379 10.0402 5.38379H32.3371C37.8136 5.38379 42.3773 9.84844 42.3773 15.4949C42.3773 16.9393 41.2038 18.1212 39.7695 18.1212C38.3352 18.1212 37.1616 16.9393 37.1616 15.4949C37.1616 12.8686 35.0754 10.6363 32.3371 10.6363H10.0402C7.43233 10.6363 5.21567 12.7373 5.21567 15.4949V54.8888C5.21567 57.5151 7.30193 59.7474 10.0402 59.7474H32.3371C33.7714 59.7474 37.1616 59.3535 37.1616 56.202C37.1616 54.7575 38.3352 53.5757 39.7695 53.5757C41.2038 53.5757 42.3773 54.7575 42.3773 56.202C42.2469 61.4545 38.2048 64.9999 32.3371 64.9999Z" fill="#54DF6C"/>
<path d="M28.9471 9.19192H13.3V3.67677C13.3 1.70707 14.9951 0 16.951 0H25.1657C27.252 0 28.8167 1.70707 28.8167 3.67677V9.19192H28.9471Z" fill="#54DF6C"/>
<path d="M25.2959 19.697L11.0833 38.2122H19.1675L17.2117 50.5556L31.4244 32.0405H23.3401L25.2959 19.697Z" fill="#54DF6C"/>
</svg>
