<svg width="21" height="25" viewBox="0 0 21 25" fill="none" xmlns="http://www.w3.org/2000/svg">
<path d="M16.7559 13.2C16.7559 10.1 19.3559 8.60004 19.4559 8.50004C17.9559 6.40004 15.7559 6.10004 14.9559 6.00004C13.0559 5.80004 11.1559 7.10004 10.2559 7.10004C9.25587 7.10004 7.75586 6.00004 6.15586 6.00004C4.05586 6.00004 2.15586 7.20004 1.05586 9.10004C-1.14414 12.9 0.455865 18.5 2.55587 21.6C3.65587 23.1 4.85587 24.8 6.45587 24.7C8.05587 24.6 8.65586 23.7 10.5559 23.7C12.4559 23.7 12.9559 24.7 14.6559 24.7C16.3559 24.7 17.4559 23.2 18.4559 21.7C19.6559 20 20.1559 18.3 20.1559 18.2C20.0559 18.1 16.7559 16.9 16.7559 13.2Z" fill="#191C24"/>
<path d="M13.6559 4C14.4559 2.9 15.0559 1.5 14.9559 0C13.7559 0.1 12.1559 0.8 11.3559 1.9C10.5559 2.8 9.85588 4.3 10.0559 5.7C11.3559 5.8 12.7559 5 13.6559 4Z" fill="#191C24"/>
</svg>
