<svg width="16" height="10" viewBox="0 0 16 10" fill="none" xmlns="http://www.w3.org/2000/svg">
<path fill-rule="evenodd" clip-rule="evenodd" d="M5.1585 0.247437C5.57414 0.611119 5.61626 1.24288 5.25258 1.65852L2.32877 5.00001L5.25258 8.34151C5.61626 8.75715 5.57414 9.38891 5.1585 9.75259C4.74287 10.1163 4.11111 10.0742 3.74742 9.65852L0.247423 5.65852C-0.0824744 5.28149 -0.0824744 4.71853 0.247423 4.34151L3.74742 0.341509C4.11111 -0.0741276 4.74287 -0.116245 5.1585 0.247437Z" fill="black"/>
<path fill-rule="evenodd" clip-rule="evenodd" d="M1 5C1 4.44772 1.44772 4 2 4H14.4C14.9523 4 15.4 4.44772 15.4 5C15.4 5.55228 14.9523 6 14.4 6H2C1.44772 6 1 5.55228 1 5Z" fill="black"/>
</svg>
