<svg width="18" height="24" viewBox="0 0 18 24" fill="none" xmlns="http://www.w3.org/2000/svg">
<path d="M12 2H6C5.4 2 5 1.6 5 1C5 0.4 5.4 0 6 0H12C12.6 0 13 0.4 13 1C13 1.6 12.6 2 12 2Z" fill="#54DF6C"/>
<path d="M15 24H3C1.3 24 0 22.7 0 21V6C0 4.3 1.3 3 3 3H15C16.7 3 18 4.3 18 6V21C18 22.7 16.7 24 15 24ZM3 5C2.4 5 2 5.4 2 6V21C2 21.6 2.4 22 3 22H15C15.6 22 16 21.6 16 21V6C16 5.4 15.6 5 15 5H3Z" fill="#54DF6C"/>
<path d="M9 16C8.4 16 8 15.6 8 15V9C8 8.4 8.4 8 9 8C9.6 8 10 8.4 10 9V15C10 15.6 9.6 16 9 16Z" fill="#54DF6C"/>
<path d="M9 19C8.9 19 8.7 19 8.6 18.9C8.5 18.9 8.4 18.8 8.3 18.7C8.1 18.5 8 18.3 8 18C8 17.7 8.1 17.5 8.3 17.3C8.7 16.9 9.3 16.9 9.7 17.3C9.8 17.4 9.9 17.5 9.9 17.6C9.9 17.7 10 17.9 10 18C10 18.3 9.9 18.5 9.7 18.7C9.5 18.9 9.3 19 9 19Z" fill="#54DF6C"/>
</svg>
