<svg width="10" height="16" viewBox="0 0 10 16" fill="none" xmlns="http://www.w3.org/2000/svg">
<path fill-rule="evenodd" clip-rule="evenodd" d="M2.5 1C2.5 0.447715 2.94772 0 3.5 0H6.5C7.05228 0 7.5 0.447715 7.5 1C7.5 1.55228 7.05228 2 6.5 2H3.5C2.94772 2 2.5 1.55228 2.5 1Z" fill="#54DF6C"/>
<path fill-rule="evenodd" clip-rule="evenodd" d="M3 12C3 11.4477 3.44772 11 4 11H6C6.55228 11 7 11.4477 7 12C7 12.5523 6.55228 13 6 13H4C3.44772 13 3 12.5523 3 12Z" fill="#54DF6C"/>
<path fill-rule="evenodd" clip-rule="evenodd" d="M3 9C3 8.44772 3.44772 8 4 8H6C6.55228 8 7 8.44772 7 9C7 9.55228 6.55228 10 6 10H4C3.44772 10 3 9.55228 3 9Z" fill="#54DF6C"/>
<path fill-rule="evenodd" clip-rule="evenodd" d="M3 6C3 5.44772 3.44772 5 4 5H6C6.55228 5 7 5.44772 7 6C7 6.55228 6.55228 7 6 7H4C3.44772 7 3 6.55228 3 6Z" fill="#54DF6C"/>
<path fill-rule="evenodd" clip-rule="evenodd" d="M2.07161 4C2.0399 4.04452 2 4.13475 2 4.26316V13.7368C2 13.8652 2.0399 13.9555 2.07161 14H7.92839C7.9601 13.9555 8 13.8652 8 13.7368V4.26316C8 4.13475 7.9601 4.04452 7.92839 4H2.07161ZM0 4.26316C0 3.24655 0.692544 2 2 2H8C9.30746 2 10 3.24655 10 4.26316V13.7368C10 14.7535 9.30746 16 8 16H2C0.692544 16 0 14.7535 0 13.7368V4.26316Z" fill="#54DF6C"/>
</svg>
