<svg width="229" height="128" viewBox="0 0 229 128" fill="none" xmlns="http://www.w3.org/2000/svg">
<path d="M195.463 89.7828V75.9592L165.753 70.2195L72.4688 16.7033C68.1546 14.1972 61.0728 14.1972 56.7587 16.7033L14.5937 40.8745L1 38.2876L1.0814 50.5753C1 51.1412 1 51.6262 1.0814 52.1921V52.273C1.407 53.6473 2.46519 54.8599 4.25598 55.9108L123.995 124.544C128.309 127.05 135.391 127.05 139.705 124.544L192.207 94.4716C194.487 93.1781 195.545 91.4805 195.463 89.7828Z" fill="white"/>
<path fill-rule="evenodd" clip-rule="evenodd" d="M72.9683 15.837C72.9692 15.8375 72.9701 15.838 72.9711 15.8386L166.106 69.2692L195.653 74.9773C196.124 75.0682 196.463 75.48 196.463 75.9592V89.7602C196.557 91.9553 195.167 93.9414 192.703 95.3404C192.702 95.3407 192.702 95.341 192.701 95.3413L140.207 125.409C140.206 125.409 140.205 125.41 140.204 125.41C137.858 126.773 134.825 127.424 131.85 127.424C128.874 127.424 125.841 126.772 123.494 125.41C123.494 125.41 123.493 125.409 123.492 125.409L3.74982 56.7733C1.83467 55.6494 0.52136 54.2468 0.108337 52.5035C0.0904395 52.428 0.0813996 52.3506 0.0813996 52.273V52.2613C0.000152886 51.6564 4.17233e-07 51.1142 0.0809422 50.5096L2.19905e-05 38.2942C-0.00195951 37.9951 0.130059 37.7108 0.359857 37.5194C0.589655 37.3279 0.893102 37.2493 1.18695 37.3052L14.4173 39.823L56.2564 15.8386C56.2572 15.8381 56.2581 15.8376 56.2589 15.8371C58.6054 14.4749 61.638 13.8237 64.6137 13.8237C67.5894 13.8237 70.6219 14.4748 72.9683 15.837ZM64.6137 15.8237C61.8926 15.8237 59.2283 16.4251 57.2609 17.568L57.256 17.5708L15.091 41.7421C14.884 41.8608 14.6413 41.9015 14.4068 41.8569L2.00804 39.4974L2.08138 50.5687C2.08171 50.6185 2.07831 50.6684 2.07121 50.7177C2.0034 51.1891 2.0034 51.5783 2.07121 52.0497C2.07566 52.0807 2.07865 52.1118 2.08018 52.1431C2.34691 53.115 3.14981 54.1012 4.75778 55.0458C4.75922 55.0466 4.76067 55.0475 4.76211 55.0483L124.492 123.677L124.497 123.679C126.464 124.822 129.129 125.424 131.85 125.424C134.571 125.424 137.235 124.822 139.202 123.679L139.208 123.676L191.71 93.6038L191.714 93.6019C193.798 92.4193 194.522 91.0205 194.465 89.8307C194.464 89.8188 194.464 89.8068 194.463 89.7949C194.463 89.7909 194.463 89.7868 194.463 89.7828V76.7845L165.563 71.2013C165.455 71.1804 165.351 71.1418 165.255 71.0869L71.9711 17.5707L71.9665 17.568C69.9991 16.4251 67.3348 15.8237 64.6137 15.8237Z" fill="#828282"/>
<path d="M192.207 80.567L139.705 110.64C135.39 113.146 128.309 113.146 123.995 110.64L4.25589 42.0062C-0.0582795 39.5002 -0.0582795 35.4581 4.25589 32.9521L56.7586 2.87954C61.0727 0.373488 68.1545 0.373488 72.4687 2.87954L192.207 71.5129C196.603 74.0189 196.603 78.061 192.207 80.567Z" fill="white"/>
<path fill-rule="evenodd" clip-rule="evenodd" d="M64.6136 2C61.8925 2 59.2282 2.6014 57.2609 3.74423L57.2556 3.74727L4.75819 33.8168C4.75727 33.8173 4.75635 33.8179 4.75544 33.8184C2.78207 34.9655 2.02026 36.3243 2.02026 37.4792C2.02026 38.634 2.78218 39.993 4.75586 41.1402C4.75664 41.1406 4.75741 41.1411 4.75819 41.1415L124.497 109.775C126.464 110.918 129.128 111.519 131.85 111.519C134.571 111.519 137.235 110.918 139.202 109.775L139.208 109.772L191.71 79.6993L191.712 79.6983C193.732 78.5464 194.504 77.1858 194.504 76.0399C194.504 74.8941 193.732 73.5335 191.712 72.3816L71.9714 3.74712L71.9664 3.74423C69.999 2.6014 67.3347 2 64.6136 2ZM72.9682 2.01326C70.6218 0.65112 67.5893 0 64.6136 0C61.6379 0 58.6054 0.651124 56.259 2.01328C56.2581 2.0138 56.2572 2.01432 56.2563 2.01484L3.75887 32.0844L3.7536 32.0874C1.41484 33.446 0.0202637 35.3605 0.0202637 37.4792C0.0202637 39.5978 1.41484 41.5124 3.7536 42.8709L3.7586 42.8738L123.492 111.504C123.493 111.505 123.494 111.505 123.494 111.505C125.841 112.868 128.874 113.519 131.85 113.519C134.825 113.519 137.858 112.868 140.204 111.506C140.205 111.505 140.206 111.505 140.207 111.504L192.703 81.4357C195.078 80.0815 196.504 78.1681 196.504 76.0399C196.504 73.9118 195.078 71.9984 192.703 70.6442L72.971 2.01484C72.9701 2.01431 72.9691 2.01379 72.9682 2.01326Z" fill="#828282"/>
<path d="M186.509 79.2738L137.426 107.406C134.414 109.185 129.448 109.185 126.437 107.406L9.9539 40.6322C6.94212 38.8537 6.94212 36.0243 9.9539 34.3266L59.0378 6.19422C62.0496 4.41573 67.015 4.41573 70.0267 6.19422L186.428 72.9682C189.603 74.6659 189.603 77.4953 186.509 79.2738Z" fill="white"/>
<path fill-rule="evenodd" clip-rule="evenodd" d="M64.5323 5.86035C62.6677 5.86035 60.8607 6.27912 59.5463 7.05529L59.5351 7.06189L10.445 35.1978C9.12747 35.9404 8.69507 36.7927 8.69507 37.4491C8.69507 38.1111 9.13404 38.9851 10.4571 39.768C10.4589 39.769 10.4606 39.77 10.4624 39.7711L126.945 106.545C128.26 107.321 130.066 107.74 131.931 107.74C133.796 107.74 135.603 107.321 136.917 106.545L136.928 106.539L186.011 78.4069C187.387 77.6158 187.825 76.7418 187.819 76.0996C187.813 75.463 187.367 74.6041 185.956 73.8501C185.951 73.847 185.945 73.8439 185.939 73.8407L185.93 73.8356L69.5182 7.05536C68.2038 6.27919 66.3969 5.86035 64.5323 5.86035ZM70.5296 5.32981C68.833 4.32978 66.6539 3.86035 64.5323 3.86035C62.4107 3.86035 60.2316 4.32977 58.5351 5.32976L9.46287 33.4555C9.46183 33.4561 9.46079 33.4566 9.45975 33.4572C7.76725 34.4122 6.69507 35.8227 6.69507 37.4491C6.69507 39.0699 7.76083 40.4985 9.44543 41.4932L125.928 108.267C125.93 108.268 125.932 108.27 125.934 108.271C127.631 109.271 129.81 109.74 131.931 109.74C134.052 109.74 136.231 109.271 137.928 108.271C137.93 108.27 137.932 108.268 137.934 108.267L187.007 80.1414L187.008 80.1407C188.725 79.1532 189.834 77.7234 189.819 76.0818C189.804 74.4389 188.67 73.0372 186.913 72.0937L70.5352 5.33314C70.5333 5.33203 70.5315 5.33092 70.5296 5.32981Z" fill="#828282"/>
<path d="M141.496 73.6147L127.658 81.5371C124.972 83.073 120.739 83.073 118.053 81.5371L60.9101 48.7968C58.224 47.2608 58.224 44.8356 60.9101 43.2997L74.7481 35.3773C77.4342 33.8414 81.667 33.8414 84.3532 35.3773L141.496 68.1176C144.1 69.6536 144.1 72.1596 141.496 73.6147Z" fill="white"/>
<path fill-rule="evenodd" clip-rule="evenodd" d="M75.2444 36.2454C75.2443 36.2455 75.2446 36.2453 75.2444 36.2454L61.407 44.1675C60.2344 44.838 59.8955 45.5539 59.8955 46.0482C59.8955 46.5426 60.2339 47.2582 61.4065 47.9287L118.549 80.669C119.708 81.3319 121.258 81.6891 122.855 81.6891C124.453 81.6891 126.002 81.3319 127.161 80.669L140.999 72.7469L141.008 72.7417C142.112 72.1251 142.449 71.4173 142.449 70.8965C142.449 70.3692 142.104 69.639 140.993 68.982C140.991 68.981 140.989 68.98 140.988 68.979L83.8568 36.2454C83.8566 36.2453 83.8571 36.2456 83.8568 36.2454C82.6976 35.5828 81.1477 35.2253 79.5506 35.2253C77.9534 35.2253 76.4037 35.5827 75.2444 36.2454ZM79.5506 33.2253C81.4127 33.2253 83.3227 33.6362 84.8496 34.5092L142.004 67.2561C143.493 68.1344 144.449 69.4238 144.449 70.8965C144.449 72.3749 143.486 73.6465 141.988 74.4851C141.987 74.486 141.985 74.4869 141.983 74.4878L128.155 82.4049C126.628 83.278 124.717 83.6891 122.855 83.6891C120.993 83.6891 119.083 83.2782 117.556 82.4052L60.4138 49.6649C60.4135 49.6648 60.414 49.665 60.4138 49.6649C58.9006 48.7994 57.8955 47.5342 57.8955 46.0482C57.8955 44.562 58.9002 43.297 60.4138 42.4316L74.2512 34.5095C75.7781 33.6364 77.6886 33.2253 79.5506 33.2253Z" fill="#828282"/>
<path d="M157.613 114.278L151.019 118.077V107.245L157.613 103.445V114.278Z" fill="white"/>
<path fill-rule="evenodd" clip-rule="evenodd" d="M158.113 102.579C158.422 102.758 158.613 103.088 158.613 103.445V114.278C158.613 114.635 158.422 114.966 158.112 115.144L151.519 118.944C151.209 119.122 150.828 119.122 150.519 118.943C150.21 118.764 150.019 118.434 150.019 118.077V107.245C150.019 106.887 150.21 106.557 150.52 106.378L157.113 102.579C157.423 102.4 157.804 102.401 158.113 102.579ZM152.019 107.822V116.347L156.613 113.7V105.175L152.019 107.822Z" fill="#828282"/>
<path d="M170.067 107.163L163.473 110.963V99.8879L170.067 96.0884V107.163Z" fill="white"/>
<path fill-rule="evenodd" clip-rule="evenodd" d="M170.567 95.2226C170.876 95.4012 171.067 95.7313 171.067 96.0884V107.163C171.067 107.521 170.876 107.851 170.566 108.03L163.973 111.829C163.663 112.008 163.282 112.007 162.973 111.829C162.664 111.65 162.473 111.32 162.473 110.963V99.8879C162.473 99.5303 162.664 99.2 162.974 99.0214L169.567 95.2219C169.877 95.0436 170.258 95.0439 170.567 95.2226ZM164.473 100.466V109.233L169.067 106.586V97.8188L164.473 100.466Z" fill="#828282"/>
<path d="M182.44 100.05L175.846 103.849V92.9357L182.44 89.1362V100.05Z" fill="white"/>
<path fill-rule="evenodd" clip-rule="evenodd" d="M182.94 88.2704C183.249 88.4491 183.44 88.7791 183.44 89.1362V100.05C183.44 100.407 183.249 100.738 182.939 100.916L176.345 104.716C176.036 104.894 175.655 104.894 175.346 104.715C175.037 104.536 174.846 104.206 174.846 103.849V92.9357C174.846 92.5782 175.037 92.2478 175.347 92.0693L181.94 88.2698C182.25 88.0915 182.631 88.0917 182.94 88.2704ZM176.846 93.5136V102.119L181.44 99.4718V90.8666L176.846 93.5136Z" fill="#828282"/>
<path d="M202.464 89.5404C216.22 89.5404 227.372 78.4652 227.372 64.8033C227.372 51.1413 216.22 40.0662 202.464 40.0662C188.707 40.0662 177.555 51.1413 177.555 64.8033C177.555 78.4652 188.707 89.5404 202.464 89.5404Z" fill="white"/>
<path fill-rule="evenodd" clip-rule="evenodd" d="M202.464 41.0662C189.253 41.0662 178.555 51.7001 178.555 64.8033C178.555 77.9064 189.253 88.5404 202.464 88.5404C215.674 88.5404 226.372 77.9064 226.372 64.8033C226.372 51.7001 215.674 41.0662 202.464 41.0662ZM176.555 64.8033C176.555 50.5826 188.161 39.0662 202.464 39.0662C216.766 39.0662 228.372 50.5826 228.372 64.8033C228.372 79.024 216.766 90.5404 202.464 90.5404C188.161 90.5404 176.555 79.024 176.555 64.8033Z" fill="#54DF6C"/>
<path fill-rule="evenodd" clip-rule="evenodd" d="M212.211 57.7955C212.599 58.1887 212.595 58.8218 212.201 59.2097L199.91 71.3357C199.52 71.7208 198.892 71.7197 198.503 71.3334L192.805 65.6746C192.413 65.2854 192.411 64.6522 192.8 64.2604C193.189 63.8685 193.823 63.8663 194.214 64.2555L199.21 69.2168L210.797 57.7859C211.19 57.3981 211.823 57.4023 212.211 57.7955Z" fill="#54DF6C"/>
</svg>
