<svg width="20" height="19" viewBox="0 0 20 19" fill="none" xmlns="http://www.w3.org/2000/svg">
<path fill-rule="evenodd" clip-rule="evenodd" d="M3.5 6C2.65228 6 2 6.65228 2 7.5V15.5C2 16.3477 2.65228 17 3.5 17H16.5C17.3477 17 18 16.3477 18 15.5V7.5C18 6.65228 17.3477 6 16.5 6H3.5ZM0 7.5C0 5.54772 1.54772 4 3.5 4H16.5C18.4523 4 20 5.54772 20 7.5V15.5C20 17.4523 18.4523 19 16.5 19H3.5C1.54772 19 0 17.4523 0 15.5V7.5Z" fill="#54DF6C"/>
<path fill-rule="evenodd" clip-rule="evenodd" d="M6 1C6 0.447715 6.44772 0 7 0H14C14.5523 0 15 0.447715 15 1V5C15 5.55228 14.5523 6 14 6H7C6.44772 6 6 5.55228 6 5V1ZM8 2V4H13V2H8Z" fill="#54DF6C"/>
<path fill-rule="evenodd" clip-rule="evenodd" d="M10 10C8.89543 10 8 10.8954 8 12C8 13.1046 8.89543 14 10 14C11.1046 14 12 13.1046 12 12C12 10.8954 11.1046 10 10 10ZM6 12C6 9.79086 7.79086 8 10 8C12.2091 8 14 9.79086 14 12C14 14.2091 12.2091 16 10 16C7.79086 16 6 14.2091 6 12Z" fill="#54DF6C"/>
</svg>
