<svg width="42" height="40" viewBox="0 0 42 40" fill="none" xmlns="http://www.w3.org/2000/svg">
<path fill-rule="evenodd" clip-rule="evenodd" d="M3.2 2C2.55228 2 2 2.55228 2 3.2V28.8C2 29.4477 2.55229 30 3.2 30H31C31.2271 30 31.4474 30.0773 31.6247 30.2191L40 36.9194V3.2C40 2.55229 39.4477 2 38.8 2H3.2ZM0 3.2C0 1.44772 1.44772 0 3.2 0H38.8C40.5523 0 42 1.44771 42 3.2V39C42 39.3844 41.7797 39.7348 41.4332 39.9013C41.0867 40.0678 40.6755 40.021 40.3753 39.7809L30.6492 32H3.2C1.44771 32 0 30.5523 0 28.8V3.2Z" fill="#54DF6C"/>
<path fill-rule="evenodd" clip-rule="evenodd" d="M12 11C12 10.4477 12.4477 10 13 10H29C29.5523 10 30 10.4477 30 11C30 11.5523 29.5523 12 29 12H13C12.4477 12 12 11.5523 12 11Z" fill="#54DF6C"/>
<path fill-rule="evenodd" clip-rule="evenodd" d="M12 19C12 18.4477 12.4477 18 13 18H21C21.5523 18 22 18.4477 22 19C22 19.5523 21.5523 20 21 20H13C12.4477 20 12 19.5523 12 19Z" fill="#54DF6C"/>
</svg>
