<svg width="12" height="12" viewBox="0 0 12 12" fill="none" xmlns="http://www.w3.org/2000/svg">
<path fill-rule="evenodd" clip-rule="evenodd" d="M11.6071 0.292893C11.9976 0.683417 11.9976 1.31658 11.6071 1.70711L1.70711 11.6071C1.31658 11.9976 0.683417 11.9976 0.292893 11.6071C-0.0976311 11.2166 -0.0976311 10.5834 0.292893 10.1929L10.1929 0.292893C10.5834 -0.0976311 11.2166 -0.0976311 11.6071 0.292893Z" fill="white"/>
<path fill-rule="evenodd" clip-rule="evenodd" d="M0.292893 0.292893C0.683417 -0.0976311 1.31658 -0.0976311 1.70711 0.292893L11.6071 10.1929C11.9976 10.5834 11.9976 11.2166 11.6071 11.6071C11.2166 11.9976 10.5834 11.9976 10.1929 11.6071L0.292893 1.70711C-0.0976311 1.31658 -0.0976311 0.683417 0.292893 0.292893Z" fill="white"/>
</svg>
