<svg width="43" height="30" viewBox="0 0 43 30" fill="none" xmlns="http://www.w3.org/2000/svg">
<path d="M35.6 3.3C27.5 -1.1 14.4 -1.1 6.4 3.3C2.3 5.6 0 8.7 0 12V18C0 19.2 0.3 20.4 0.9 21.5C1.9 23.5 3.8 25.2 6.4 26.7C7.2 27.2 8.1 27.6 9.2 28C12.7 29.3 16.8 30 21 30C25.2 30 29.3 29.3 32.9 27.9C33.9 27.5 34.8 27.1 35.7 26.6C38.3 25.1 40.2 23.4 41.2 21.4C41.8 20.3 42.1 19.1 42.1 17.9V11.9C42 8.7 39.7 5.6 35.6 3.3ZM7.3 5.1C14.8 1 27.1 1 34.6 5.1C38.1 7 40 9.4 40 12C40 12.9 39.8 13.7 39.4 14.5L39.3 14.6C39.2 14.7 39.2 14.8 39.1 14.9C39 15 39 15.1 38.9 15.2C38.8 15.3 38.7 15.4 38.7 15.5C38.6 15.6 38.6 15.7 38.5 15.7C38.4 15.8 38.3 15.9 38.2 16C38.1 16.1 38.1 16.1 38 16.2C37.9 16.3 37.8 16.4 37.7 16.5C37.6 16.6 37.6 16.6 37.5 16.7C37.4 16.8 37.2 16.9 37.1 17C37 17.1 36.9 17.1 36.9 17.2C36.8 17.3 36.6 17.4 36.5 17.5C36.4 17.6 36.3 17.6 36.3 17.7C36.1 17.8 36 17.9 35.8 18C35.7 18 35.7 18.1 35.6 18.1C35.3 18.3 35.1 18.4 34.8 18.6C33.9 19.1 32.8 19.6 31.8 20C31.5 20.1 31.2 20.2 30.8 20.3C30.6 20.4 30.3 20.5 30.1 20.5C29.9 20.6 29.6 20.6 29.4 20.7C29.1 20.8 28.8 20.9 28.4 20.9C28 21 27.6 21.1 27.1 21.1C26.9 21.1 26.8 21.2 26.6 21.2C25 21.5 23.3 21.6 21.7 21.6C21.5 21.6 21.3 21.6 21.1 21.6C19.9 21.6 18.7 21.5 17.5 21.4H17.4C17.1 21.4 16.8 21.3 16.4 21.3C16.1 21.3 15.8 21.2 15.6 21.2C15.4 21.2 15.3 21.1 15.1 21.1C14.7 21 14.2 20.9 13.8 20.9C13.7 20.9 13.6 20.8 13.5 20.8C12.5 20.6 11.4 20.3 10.5 19.9C9.4 19.5 8.4 19.1 7.5 18.6C7.2 18.4 7 18.3 6.7 18.1C6.6 18 6.5 18 6.4 17.9C6.1 18.1 6 18 5.8 17.9C5.7 17.8 5.6 17.8 5.5 17.7C5.4 17.6 5.2 17.5 5.1 17.4C5 17.3 4.9 17.2 4.8 17.2C4.7 17.1 4.6 17 4.5 16.9C4.4 16.8 4.3 16.7 4.2 16.7C4.1 16.6 4 16.5 3.9 16.4C3.8 16.3 3.7 16.2 3.7 16.1C3.6 16 3.5 15.9 3.4 15.8C3.3 15.7 3.3 15.6 3.2 15.5C3.1 15.4 3.1 15.3 3 15.2C3 15.2 3 15.1 2.9 15C2.8 14.9 2.8 14.8 2.7 14.7L2.6 14.6C2.2 13.7 2 12.8 2 12C2 9.4 3.9 7 7.3 5.1ZM40 18C40 18.9 39.8 19.7 39.4 20.6C38.6 22.2 37 23.7 34.7 25C33.9 25.4 33.1 25.8 32.2 26.2C25.5 28.8 16.6 28.8 9.9 26.2C9 25.8 8.1 25.5 7.4 25C5.2 23.8 3.5 22.2 2.7 20.6C2.2 19.7 2 18.8 2 18V17.2L2.1 17.3C2.3 17.5 2.5 17.8 2.7 18C2.8 18.1 2.8 18.1 2.9 18.2C3.2 18.5 3.5 18.7 3.8 19C3.9 19 4 19.1 4.1 19.1C4.4 19.3 4.7 19.5 4.9 19.7C5 19.8 5.1 19.8 5.2 19.9C5.6 20.1 6 20.4 6.4 20.6C10.4 22.8 15.7 23.9 21 23.9C26.3 23.9 31.6 22.8 35.6 20.6C36 20.4 36.4 20.1 36.8 19.9C36.9 19.8 37 19.8 37.1 19.7C37.4 19.5 37.7 19.3 37.9 19.1C38 19 38 19 38.1 18.9C38.4 18.6 38.7 18.4 39 18.1C39.1 18 39.1 18 39.2 17.9C39.4 17.7 39.6 17.5 39.8 17.2L39.9 17.1V18H40Z" fill="white"/>
<path d="M12.6001 14.2001C13.1001 14.5001 13.9001 14.5001 14.3001 14.2001L15.2001 13.7001C15.4001 13.9001 15.7001 14.1001 16.0001 14.2001C16.3001 14.3001 16.6001 14.5001 16.9001 14.7001L16.0001 15.2001C15.5001 15.5001 15.5001 15.9001 16.0001 16.2001C16.5001 16.5001 17.3001 16.5001 17.7001 16.2001L19.1001 15.4001C22.7001 16.3001 26.9001 15.9001 29.8001 14.2001C30.3001 13.9001 30.3001 13.5001 29.8001 13.2001C29.3001 12.9001 28.5001 12.9001 28.1001 13.2001C26.2001 14.3001 23.5001 14.7001 21.0001 14.3001L24.6001 12.2001C25.1001 11.9001 25.1001 11.5001 24.6001 11.2001C24.1001 10.9001 23.3001 10.9001 22.9001 11.2001L18.6001 13.7001C18.3001 13.6001 18.0001 13.4001 17.7001 13.2001C17.4001 13.0001 17.1001 12.8001 16.9001 12.7001L21.2001 10.2001C21.7001 9.9001 21.7001 9.5001 21.2001 9.2001C20.7001 8.9001 19.9001 8.9001 19.5001 9.2001L15.9001 11.3001C15.2001 9.9001 15.9001 8.3001 17.8001 7.2001C18.3001 6.9001 18.3001 6.5001 17.8001 6.2001C17.3001 5.9001 16.5001 5.9001 16.1001 6.2001C13.2001 7.9001 12.5001 10.3001 14.0001 12.4001L12.6001 13.2001C12.1001 13.5001 12.1001 13.9001 12.6001 14.2001Z" fill="white"/>
</svg>
