<svg width="36" height="36" viewBox="0 0 36 36" fill="none" xmlns="http://www.w3.org/2000/svg">
<path fill-rule="evenodd" clip-rule="evenodd" d="M14.9441 0.0333172C15.2885 -0.0578275 15.6553 0.0410558 15.9071 0.292916L24.1071 8.49292C24.3609 8.74667 24.4592 9.11693 24.3648 9.46314L22.7175 15.5033L34.1071 26.8929C36.0616 28.8474 36.1414 32.1031 34.0837 33.9304C32.1272 35.8618 28.8911 35.9331 27.0708 33.8851L15.7033 22.5175L9.66314 24.1648C9.32533 24.2569 8.96393 24.1656 8.71037 23.9242L0.310372 15.9242C0.044187 15.6707 -0.0614558 15.2915 0.0352632 14.9369L1.83526 8.33691C1.92906 7.993 2.19883 7.72502 2.54336 7.63352C2.88789 7.54203 3.25507 7.64085 3.50713 7.89292L9.8814 14.2672L11.9059 13.6442C11.9314 13.6364 11.9571 13.6296 11.9831 13.6238L13.1619 13.3619L13.4238 12.1831C13.4296 12.1571 13.4364 12.1314 13.4442 12.1059L14.0701 10.072L7.68275 3.49681C7.43524 3.24202 7.34147 2.87505 7.43641 2.53275C7.53134 2.19046 7.80074 1.92421 8.14413 1.83332L14.9441 0.0333172ZM10.3084 3.32932L15.9173 9.10324C16.1718 9.3652 16.2632 9.74505 16.1558 10.0941L15.3675 12.6559L14.9762 14.417C14.892 14.796 14.596 15.092 14.217 15.1762L12.4559 15.5675L9.89411 16.3558C9.54008 16.4647 9.15484 16.369 8.89292 16.1071L3.31139 10.5256L2.1218 14.8874L9.68117 22.0868L15.7369 20.4353C16.0831 20.3408 16.4534 20.4392 16.7071 20.6929L28.5071 32.4929C28.5158 32.5016 28.5243 32.5104 28.5327 32.5194C28.5394 32.5267 28.5461 32.5341 28.5526 32.5415C29.5296 33.6581 31.4553 33.7305 32.6929 32.4929C32.7086 32.4772 32.7248 32.4621 32.7415 32.4474C33.8581 31.4705 33.9305 29.5447 32.6929 28.3071L20.8929 16.5071C20.6392 16.2534 20.5408 15.8831 20.6353 15.5369L22.2826 9.49678L14.8997 2.11395L10.3084 3.32932Z" fill="#54DF6C"/>
</svg>
