<svg width="18" height="17" viewBox="0 0 18 17" fill="none" xmlns="http://www.w3.org/2000/svg">
<path fill-rule="evenodd" clip-rule="evenodd" d="M4 2C2.85228 2 2 2.85228 2 4V13C2 14.1477 2.85228 15 4 15H14C15.1477 15 16 14.1477 16 13V10C16 9.44771 16.4477 9 17 9C17.5523 9 18 9.44771 18 10V13C18 15.2523 16.2523 17 14 17H4C1.74772 17 0 15.2523 0 13V4C0 1.74772 1.74772 0 4 0H8C8.55228 0 9 0.447715 9 1C9 1.55228 8.55228 2 8 2H4Z" fill="#54DF6C"/>
<path fill-rule="evenodd" clip-rule="evenodd" d="M14.0085 3.59532e-05C14.2766 0.0023082 14.5326 0.112178 14.719 0.304978L17.619 3.30498C17.9963 3.6953 17.9933 4.31538 17.6122 4.702L10.7122 11.702C10.5242 11.8927 10.2677 12 10 12H7C6.44772 12 6 11.5523 6 11V8C6 7.73478 6.10536 7.48043 6.29289 7.29289L13.2929 0.292893C13.4825 0.10328 13.7403 -0.0022363 14.0085 3.59532e-05ZM8 8.41421V10H9.58157L15.5026 3.99319L13.9879 2.4263L8 8.41421Z" fill="#54DF6C"/>
</svg>
