<svg width="340" height="293" viewBox="0 0 340 293" fill="none" xmlns="http://www.w3.org/2000/svg">
<path fill-rule="evenodd" clip-rule="evenodd" d="M50.5431 198.096C50.8521 197.918 51.2326 197.918 51.5417 198.096L64.3023 205.45C64.6121 205.628 64.803 205.959 64.803 206.316V221.023C64.803 221.38 64.6121 221.711 64.3023 221.889L51.5417 229.242C51.2326 229.421 50.8521 229.421 50.5431 229.242L37.7825 221.889C37.4727 221.711 37.2817 221.38 37.2817 221.023V206.316C37.2817 205.959 37.4727 205.628 37.7825 205.45L50.5431 198.096ZM39.2817 206.894V220.445L51.0424 227.222L62.803 220.445V206.894L51.0424 200.117L39.2817 206.894Z" fill="#54DF6C"/>
<path fill-rule="evenodd" clip-rule="evenodd" d="M50.5431 198.096C50.8521 197.918 51.2326 197.918 51.5417 198.096L64.3023 205.45C64.6121 205.628 64.803 205.959 64.803 206.316V206.882C64.803 207.239 64.6121 207.57 64.3023 207.748L51.5417 215.102C51.2326 215.28 50.8521 215.28 50.5431 215.102L37.7825 207.748C37.4727 207.57 37.2817 207.239 37.2817 206.882V206.316C37.2817 205.959 37.4727 205.628 37.7825 205.45L50.5431 198.096ZM39.7938 206.599L51.0424 213.081L62.2909 206.599L51.0424 200.117L39.7938 206.599Z" fill="#54DF6C"/>
<path fill-rule="evenodd" clip-rule="evenodd" d="M39.2817 215.637C39.2751 215.09 38.8299 214.649 38.2817 214.649C37.7295 214.649 37.2817 215.097 37.2817 215.649V216.215C37.2817 216.572 37.4726 216.903 37.7825 217.081L50.5431 224.435C50.8521 224.613 51.2326 224.613 51.5417 224.435L64.3023 217.081C64.6121 216.903 64.803 216.572 64.803 216.215V215.649C64.803 215.097 64.3553 214.649 63.803 214.649C63.2548 214.649 62.8097 215.09 62.8031 215.637L51.0424 222.414L39.2817 215.637Z" fill="#54DF6C"/>
<path fill-rule="evenodd" clip-rule="evenodd" d="M51.0425 214.083C51.5948 214.083 52.0425 214.531 52.0425 215.083V226.396C52.0425 226.949 51.5948 227.396 51.0425 227.396C50.4902 227.396 50.0425 226.949 50.0425 226.396V215.083C50.0425 214.531 50.4902 214.083 51.0425 214.083Z" fill="#54DF6C"/>
<path fill-rule="evenodd" clip-rule="evenodd" d="M97.3254 226.948C97.6313 226.768 98.0095 226.764 98.3192 226.937L105.405 230.895L111.073 234.004C111.393 234.18 111.592 234.516 111.592 234.881V257.506C111.592 257.86 111.405 258.188 111.1 258.368C110.795 258.548 110.417 258.553 110.108 258.381L97.3469 251.31C97.0289 251.134 96.8315 250.799 96.8315 250.436V227.81C96.8315 227.456 97.0195 227.127 97.3254 226.948ZM98.8315 229.514V249.847L109.592 255.809V235.473L104.433 232.643L98.8315 229.514Z" fill="#54DF6C"/>
<path fill-rule="evenodd" clip-rule="evenodd" d="M96.9584 242.878C97.2277 242.396 97.8369 242.223 98.3191 242.492L105.405 246.45L111.073 249.559C111.557 249.825 111.734 250.433 111.469 250.917C111.203 251.401 110.595 251.578 110.111 251.313L104.433 248.198L97.3439 244.238C96.8617 243.969 96.6891 243.36 96.9584 242.878Z" fill="#54DF6C"/>
<path fill-rule="evenodd" clip-rule="evenodd" d="M104.046 223.083C104.314 222.6 104.922 222.426 105.405 222.693L118.166 229.764C118.484 229.94 118.681 230.275 118.681 230.639V253.264C118.681 253.816 118.234 254.264 117.681 254.264C117.129 254.264 116.681 253.816 116.681 253.264V231.228L104.436 224.443C103.953 224.175 103.778 223.566 104.046 223.083Z" fill="#54DF6C"/>
<path fill-rule="evenodd" clip-rule="evenodd" d="M118.54 252.751C118.823 253.224 118.669 253.839 118.195 254.122L111.106 258.364C110.632 258.648 110.018 258.494 109.734 258.02C109.451 257.546 109.605 256.932 110.079 256.648L117.168 252.406C117.642 252.122 118.256 252.277 118.54 252.751Z" fill="#54DF6C"/>
<path fill-rule="evenodd" clip-rule="evenodd" d="M105.779 223.055C106.062 223.528 105.908 224.143 105.434 224.426L98.3449 228.668C97.871 228.952 97.257 228.798 96.9734 228.324C96.6898 227.85 96.844 227.236 97.318 226.952L104.407 222.71C104.881 222.426 105.495 222.581 105.779 223.055Z" fill="#54DF6C"/>
<path fill-rule="evenodd" clip-rule="evenodd" d="M118.54 230.125C118.823 230.599 118.669 231.213 118.195 231.497L111.106 235.739C110.632 236.023 110.018 235.868 109.734 235.394C109.451 234.92 109.605 234.306 110.079 234.023L117.168 229.78C117.642 229.497 118.256 229.651 118.54 230.125Z" fill="#54DF6C"/>
<path fill-rule="evenodd" clip-rule="evenodd" d="M118.54 245.68C118.823 246.154 118.669 246.768 118.195 247.052L111.106 251.294C110.632 251.577 110.018 251.423 109.734 250.949C109.451 250.475 109.605 249.861 110.079 249.578L117.168 245.335C117.642 245.052 118.256 245.206 118.54 245.68Z" fill="#54DF6C"/>
<path fill-rule="evenodd" clip-rule="evenodd" d="M81.7292 174.626C82.0351 174.447 82.4133 174.443 82.723 174.616L89.8089 178.573L95.4769 181.682C95.797 181.858 95.996 182.194 95.996 182.559V205.185C95.996 205.539 95.8087 205.867 95.5036 206.046C95.1985 206.226 94.8211 206.231 94.5113 206.059L81.7507 198.989C81.4327 198.813 81.2354 198.478 81.2354 198.114V175.489C81.2354 175.134 81.4233 174.806 81.7292 174.626ZM83.2354 177.193V197.525L93.996 203.487V183.151L88.837 180.321L83.2354 177.193Z" fill="#54DF6C"/>
<path fill-rule="evenodd" clip-rule="evenodd" d="M81.3622 190.556C81.6315 190.074 82.2407 189.902 82.7229 190.171L89.8088 194.128L95.4769 197.238C95.9611 197.503 96.1383 198.111 95.8727 198.595C95.6071 199.08 94.9992 199.257 94.515 198.991L88.8369 195.876L81.7477 191.917C81.2655 191.648 81.0929 191.038 81.3622 190.556Z" fill="#54DF6C"/>
<path fill-rule="evenodd" clip-rule="evenodd" d="M88.4497 170.762C88.7174 170.279 89.326 170.104 89.8091 170.372L102.57 177.442C102.888 177.618 103.085 177.953 103.085 178.317V200.942C103.085 201.495 102.637 201.942 102.085 201.942C101.533 201.942 101.085 201.495 101.085 200.942V178.906L88.8397 172.121C88.3567 171.854 88.182 171.245 88.4497 170.762Z" fill="#54DF6C"/>
<path fill-rule="evenodd" clip-rule="evenodd" d="M102.943 200.429C103.227 200.903 103.073 201.517 102.599 201.801L95.5095 206.043C95.0356 206.327 94.4215 206.172 94.1379 205.698C93.8543 205.224 94.0086 204.61 94.4825 204.327L101.572 200.084C102.046 199.801 102.66 199.955 102.943 200.429Z" fill="#54DF6C"/>
<path fill-rule="evenodd" clip-rule="evenodd" d="M90.1826 170.733C90.4662 171.207 90.3119 171.821 89.838 172.105L82.7488 176.347C82.2748 176.63 81.6608 176.476 81.3772 176.002C81.0936 175.528 81.2479 174.914 81.7218 174.631L88.811 170.388C89.2849 170.105 89.899 170.259 90.1826 170.733Z" fill="#54DF6C"/>
<path fill-rule="evenodd" clip-rule="evenodd" d="M102.943 177.804C103.227 178.277 103.073 178.892 102.599 179.175L95.5095 183.417C95.0356 183.701 94.4215 183.547 94.1379 183.073C93.8543 182.599 94.0086 181.985 94.4825 181.701L101.572 177.459C102.046 177.175 102.66 177.33 102.943 177.804Z" fill="#54DF6C"/>
<path fill-rule="evenodd" clip-rule="evenodd" d="M102.943 193.358C103.227 193.832 103.073 194.446 102.599 194.73L95.5095 198.972C95.0356 199.256 94.4215 199.102 94.1379 198.628C93.8543 198.154 94.0086 197.54 94.4825 197.256L101.572 193.014C102.046 192.73 102.66 192.885 102.943 193.358Z" fill="#54DF6C"/>
<path fill-rule="evenodd" clip-rule="evenodd" d="M182.39 179.297C182.692 179.116 183.067 179.108 183.377 179.275L190.466 183.093C190.79 183.267 190.992 183.605 190.992 183.973V206.599C190.992 206.951 190.807 207.277 190.504 207.457C190.202 207.638 189.827 207.646 189.517 207.479L182.428 203.661C182.104 203.487 181.902 203.149 181.902 202.781V180.155C181.902 179.803 182.087 179.477 182.39 179.297ZM183.902 181.83V202.184L188.992 204.924V184.571L183.902 181.83Z" fill="#54DF6C"/>
<path fill-rule="evenodd" clip-rule="evenodd" d="M189.517 175.033C189.813 174.873 190.17 174.873 190.466 175.033L197.54 178.843C197.7 178.925 197.84 179.052 197.939 179.218C198.038 179.384 198.084 179.567 198.081 179.748V202.357C198.081 202.708 197.896 203.034 197.594 203.215L190.505 207.457C190.031 207.741 189.417 207.586 189.133 207.112C188.85 206.638 189.004 206.024 189.478 205.741L196.081 201.79V181.495L190.505 184.832C190.189 185.021 189.794 185.021 189.478 184.832L182.389 180.589C182.08 180.404 181.894 180.068 181.903 179.709C181.911 179.349 182.111 179.021 182.428 178.851L189.517 175.033ZM195.057 179.777L189.992 177.049L184.926 179.777L189.992 182.808L195.057 179.777Z" fill="#54DF6C"/>
<path fill-rule="evenodd" clip-rule="evenodd" d="M234.85 160.913C235.152 160.733 235.527 160.725 235.837 160.892L242.926 164.71C243.25 164.884 243.452 165.222 243.452 165.59V188.216C243.452 188.568 243.267 188.894 242.965 189.074C242.663 189.255 242.288 189.263 241.978 189.096L234.889 185.278C234.565 185.103 234.363 184.765 234.363 184.397V161.772C234.363 161.42 234.548 161.094 234.85 160.913ZM236.363 163.446V183.8L241.452 186.541V166.187L236.363 163.446Z" fill="#54DF6C"/>
<path fill-rule="evenodd" clip-rule="evenodd" d="M241.978 156.649C242.274 156.49 242.63 156.49 242.926 156.649L250.001 160.46C250.16 160.542 250.299 160.667 250.398 160.832C250.399 160.834 250.4 160.836 250.401 160.837C250.499 161.003 250.544 161.185 250.541 161.364V183.973C250.541 184.325 250.357 184.651 250.055 184.831L242.966 189.074C242.492 189.357 241.878 189.203 241.594 188.729C241.31 188.255 241.465 187.641 241.939 187.358L248.541 183.406V163.112L242.966 166.448C242.649 166.637 242.255 166.637 241.939 166.448L234.849 162.206C234.541 162.021 234.355 161.685 234.363 161.325C234.371 160.966 234.572 160.638 234.889 160.467L241.978 156.649ZM247.517 161.394L242.452 158.666L237.387 161.394L242.452 164.425L247.517 161.394Z" fill="#54DF6C"/>
<path fill-rule="evenodd" clip-rule="evenodd" d="M145.046 157.399C134.111 157.399 125.345 166.145 125.345 177.044V178.843C125.482 180.569 125.883 182.289 126.544 183.871C126.553 183.893 126.562 183.916 126.57 183.939C126.612 184.066 126.649 184.182 126.683 184.289C126.795 184.643 126.878 184.902 127.02 185.115C127.054 185.166 127.083 185.219 127.107 185.276C127.501 186.191 128.03 187.119 128.703 188.058C128.733 188.1 128.76 188.145 128.784 188.192C128.824 188.272 128.863 188.332 128.934 188.438L128.94 188.446C128.992 188.525 129.06 188.627 129.132 188.755C129.272 188.906 129.402 189.068 129.506 189.198L129.521 189.216C129.671 189.404 129.777 189.534 129.872 189.629C129.919 189.675 129.961 189.726 129.997 189.781C130.22 190.115 130.44 190.337 130.723 190.619C133.174 193.063 136.151 194.945 139.37 195.882C139.566 195.938 139.74 196.054 139.868 196.212L145.046 202.606L150.224 196.212C150.352 196.054 150.526 195.938 150.721 195.882C157.192 193.999 162.32 188.749 164.072 182.297C164.077 182.279 164.083 182.261 164.089 182.242C164.342 181.486 164.474 180.716 164.615 179.731C164.623 179.671 164.637 179.613 164.656 179.556C164.736 179.317 164.746 178.93 164.746 178.459V177.044C164.746 170.309 161.511 164.536 156.392 161.043C156.38 161.035 156.368 161.026 156.357 161.017C154.221 159.42 151.668 158.343 148.962 157.804L148.941 157.799C147.745 157.534 146.401 157.399 145.046 157.399ZM123.345 177.044C123.345 165.035 133.011 155.399 145.046 155.399C146.523 155.399 148.01 155.545 149.364 155.844C152.317 156.435 155.143 157.616 157.537 159.403C163.184 163.264 166.746 169.647 166.746 177.044V178.459C166.746 178.475 166.746 178.493 166.746 178.511C166.747 178.881 166.748 179.531 166.583 180.093C166.445 181.049 166.295 181.942 165.995 182.849C164.081 189.858 158.572 195.563 151.583 197.711L145.823 204.824C145.633 205.059 145.347 205.195 145.046 205.195C144.744 205.195 144.459 205.059 144.269 204.824L138.508 197.711C135.041 196.641 131.889 194.606 129.31 192.035L129.298 192.022C129.03 191.755 128.709 191.435 128.388 190.971C128.233 190.808 128.089 190.628 127.975 190.486L127.96 190.468C127.81 190.28 127.704 190.15 127.609 190.055C127.533 189.979 127.469 189.891 127.421 189.795C127.381 189.715 127.342 189.655 127.271 189.549L127.265 189.541C127.204 189.449 127.121 189.324 127.035 189.163C126.326 188.167 125.747 187.159 125.303 186.142C125.015 185.676 124.838 185.104 124.731 184.756C124.713 184.699 124.697 184.649 124.683 184.605C123.94 182.815 123.497 180.885 123.348 178.96C123.346 178.934 123.345 178.908 123.345 178.883V177.044Z" fill="#54DF6C"/>
<path fill-rule="evenodd" clip-rule="evenodd" d="M180.281 108.197C180.28 108.197 180.279 108.198 180.278 108.198L6.31222 208.455L6.30805 208.458C3.51063 210.052 2.34668 212.002 2.34668 213.74C2.34668 215.476 3.50761 217.423 6.29717 219.016L8.12923 220C8.13369 220.003 8.13813 220.005 8.14255 220.007C8.14674 220.01 8.15091 220.012 8.15506 220.015L101.738 273.895C104.454 275.48 108.131 276.304 111.868 276.304C115.605 276.304 119.282 275.48 121.998 273.895L122.002 273.892L294.129 174.623C294.138 174.618 294.147 174.613 294.155 174.608L295.992 173.621C295.993 173.621 295.994 173.62 295.995 173.62C298.782 172.097 299.938 170.185 299.938 168.454C299.938 166.71 298.768 164.723 295.963 163.057C295.963 163.057 295.962 163.057 295.961 163.056L286.758 157.69L286.752 157.687L206.796 111.735L206.791 111.732L200.546 108.193C197.83 106.607 194.187 105.784 190.47 105.784C186.755 105.784 183.073 106.606 180.281 108.197ZM201.549 106.462C198.453 104.657 194.442 103.784 190.47 103.784C186.494 103.784 182.45 104.659 179.288 106.461L179.284 106.463L5.31775 206.72C5.31691 206.72 5.31607 206.721 5.31523 206.721C2.15924 208.521 0.34668 211.024 0.34668 213.74C0.34668 216.456 2.16021 218.961 5.31775 220.76C5.32504 220.764 5.33239 220.768 5.33978 220.772L7.16991 221.755L100.73 275.622C100.731 275.622 100.732 275.623 100.733 275.624C103.831 277.431 107.879 278.304 111.868 278.304C115.857 278.304 119.905 277.431 123.003 275.624C123.004 275.623 123.005 275.622 123.006 275.622L295.102 176.37L295.128 176.355L296.945 175.38L296.951 175.377C300.117 173.647 301.938 171.176 301.938 168.454C301.938 165.743 300.132 163.206 296.982 161.336L287.76 155.959L207.787 109.998L201.555 106.466C201.553 106.465 201.551 106.464 201.549 106.462Z" fill="#BDBDBD"/>
<path fill-rule="evenodd" clip-rule="evenodd" d="M301.009 181.418C301.561 181.418 302.009 181.866 302.009 182.418V182.7C302.009 185.469 300.103 187.859 297.127 189.639L297.112 189.648L123.006 289.904C123.005 289.905 123.004 289.905 123.003 289.906C119.905 291.713 115.857 292.586 111.868 292.586C107.878 292.586 103.83 291.713 100.732 289.905C100.731 289.905 100.731 289.905 100.73 289.904L56.0725 264.17L5.31766 235.043C5.31714 235.042 5.31661 235.042 5.31609 235.042C2.3416 233.346 0.637049 231.003 0.437299 228.575C0.424302 228.511 0.41748 228.444 0.41748 228.376V213.669C0.41748 213.117 0.865196 212.669 1.41748 212.669C1.96977 212.669 2.41748 213.117 2.41748 213.669V228.093C2.41748 229.737 3.52489 231.719 6.30796 233.305L6.31056 233.306L57.0695 262.437L57.0711 262.438L101.738 288.177C104.453 289.762 108.131 290.586 111.868 290.586C115.605 290.586 119.282 289.762 121.998 288.177L122.003 288.174L296.1 187.923C296.102 187.922 296.104 187.921 296.107 187.919C298.798 186.307 300.009 184.456 300.009 182.701V182.418C300.009 181.866 300.457 181.418 301.009 181.418Z" fill="#BDBDBD"/>
<path fill-rule="evenodd" clip-rule="evenodd" d="M301.009 168.125C301.561 168.125 302.009 168.573 302.009 169.125V182.842C302.009 182.842 302.009 182.842 301.009 182.842C300.009 182.842 300.009 182.842 300.009 182.842V169.125C300.009 168.573 300.457 168.125 301.009 168.125ZM301.009 183.842C300.457 183.842 300.009 183.394 300.009 182.842L301.009 182.842L302.009 182.842C302.009 183.394 301.561 183.842 301.009 183.842Z" fill="#BDBDBD"/>
<path fill-rule="evenodd" clip-rule="evenodd" d="M277.48 192.651C277.764 193.125 277.609 193.739 277.135 194.023L256.577 206.326C256.103 206.609 255.489 206.455 255.205 205.981C254.921 205.507 255.076 204.893 255.55 204.609L276.108 192.307C276.582 192.023 277.196 192.178 277.48 192.651Z" fill="#BDBDBD"/>
<path fill-rule="evenodd" clip-rule="evenodd" d="M206.927 110.142C207.237 109.962 207.619 109.961 207.93 110.139L287.755 156.097C288.064 156.275 288.255 156.605 288.256 156.961C288.257 157.318 288.068 157.648 287.76 157.828L280.245 162.212L280.236 162.217C277.57 163.736 274.164 164.469 270.827 164.469C267.492 164.469 264.117 163.737 261.516 162.212C261.515 162.212 261.513 162.211 261.512 162.21L199.421 126.44C199.421 126.44 199.42 126.439 199.419 126.439C196.765 124.925 195.195 122.812 195.195 120.481C195.195 118.15 196.764 116.037 199.417 114.524L206.927 110.142ZM207.434 112.162L200.412 116.259C198.105 117.573 197.195 119.136 197.195 120.481C197.195 121.825 198.105 123.388 200.412 124.702L200.416 124.705L262.517 160.481L262.524 160.485C264.743 161.787 267.747 162.469 270.827 162.469C273.903 162.469 276.946 161.789 279.241 160.482C279.243 160.481 279.245 160.48 279.246 160.479L285.262 156.97L207.434 112.162Z" fill="#BDBDBD"/>
<path d="M281.726 1.41406C281.585 1.55547 281.301 1.69688 281.159 1.83829C275.204 6.92902 262.585 10.4643 255.638 14.1409C245.146 19.5144 223.453 28.8475 212.535 33.3726C208.991 34.9281 201.618 37.6148 198.073 39.0289C190.559 41.8571 173.545 44.5439 167.731 50.2003C166.03 51.8972 165.321 55.998 163.903 57.9778C162.202 60.2403 155.963 63.3513 154.545 65.8967C152.844 68.8663 153.836 72.4015 154.12 75.2297C154.262 76.5024 154.262 77.6337 153.978 78.4821C152.844 81.3103 148.732 80.8861 146.747 86.5424C145.613 89.9363 151.71 98.138 153.269 101.39C155.112 104.926 159.933 114.4 159.933 114.4C159.933 114.4 154.12 121.188 152.277 123.45C150.15 125.996 146.747 129.814 143.486 133.632C143.486 133.632 144.479 134.622 145.471 135.329C146.18 135.894 146.889 136.601 146.889 137.167C147.031 140.278 141.785 145.227 138.949 146.5C138.524 146.641 138.24 146.783 137.957 146.783C138.807 147.631 139.658 148.48 140.225 148.763C143.77 150.177 151.001 147.348 154.829 144.096C156.956 142.258 160.642 138.015 162.769 136.319C165.037 134.622 169.575 132.218 171.701 130.662C173.403 129.389 176.097 126.844 178.507 124.582C179.783 123.309 181.201 122.178 182.052 121.471C184.037 119.915 188.007 118.077 191.126 116.521C192.26 115.956 193.253 115.39 194.103 114.966C197.364 112.986 203.461 108.037 206.864 106.198C211.543 103.653 221.184 99.5521 226.288 98.138C228.699 97.431 235.504 95.3098 236.072 96.5825C236.072 96.5825 228.841 100.825 226.288 102.097C220.901 104.643 208.424 107.895 203.603 111.43C198.499 115.249 188.715 126.278 188.432 132.5C188.29 134.197 189.424 136.319 190.984 137.874C189.283 135.47 190.984 132.359 191.977 130.804C193.82 127.693 188.574 136.601 191.977 137.874C193.253 138.44 193.678 137.727 194.103 139C194.529 139.99 196.558 139.783 195.849 140.49C195.282 141.197 197.992 139.793 197 140.5C197.142 140.5 206.722 135.47 206.864 135.47C211.401 133.349 220.192 129.672 224.729 127.41C229.124 125.147 237.489 120.339 242.027 118.36C248.123 115.814 261.593 113.834 267.264 110.441C279.883 102.805 305.404 79.6134 309.516 70.139C311.218 66.3209 315.613 59.3919 317.74 55.998C320.575 51.6143 327.097 43.6954 330.784 39.8774C331.351 39.3117 331.776 38.8875 332.343 38.6047C333.194 38.0391 333.903 37.6148 334.754 37.1906C335.888 36.625 337.022 35.7765 338.582 34.221L281.726 1.41406ZM172.836 98.7036L181.201 87.3909L190.417 86.9667L172.836 98.7036Z" fill="white"/>
<path fill-rule="evenodd" clip-rule="evenodd" d="M282.434 0.707894C282.824 1.09894 282.824 1.7321 282.433 2.12211C282.344 2.21078 282.252 2.28127 282.185 2.32959C282.12 2.3771 282.052 2.42219 282.003 2.45489L281.996 2.4589C281.94 2.49662 281.904 2.52048 281.875 2.5417C281.865 2.54919 281.858 2.5542 281.855 2.55687C281.84 2.57118 281.825 2.58503 281.809 2.5984C278.695 5.26049 273.909 7.46906 269.154 9.44342C267.825 9.9955 266.498 10.5293 265.202 11.0508C261.787 12.4248 258.584 13.7133 256.106 15.0248L256.094 15.031C245.564 20.4237 223.846 29.7667 212.928 34.2924C210.642 35.2948 206.757 36.7727 203.347 38.0696C201.444 38.7935 199.689 39.4609 198.444 39.9577L198.426 39.9648C196.495 40.6915 193.977 41.4011 191.239 42.1378C190.579 42.3156 189.904 42.4951 189.221 42.6773C187.051 43.2548 184.785 43.8584 182.545 44.5138C179.601 45.3754 176.739 46.3166 174.264 47.3844C171.778 48.4569 169.757 49.626 168.433 50.9125C167.764 51.5832 167.229 52.8121 166.645 54.3398C166.582 54.5051 166.518 54.6742 166.453 54.8459C166.167 55.6061 165.862 56.4152 165.514 57.1545C167.518 56.1826 170.227 54.8782 173.064 53.5383C175.912 52.1935 178.894 50.8107 181.424 49.6922C183.924 48.5867 186.061 47.7041 187.174 47.3978C187.707 47.2512 188.257 47.5642 188.404 48.0966C188.55 48.6291 188.237 49.1796 187.705 49.3261C186.762 49.5854 184.769 50.3997 182.232 51.5214C179.724 52.6301 176.76 54.0048 173.918 55.3468C171.078 56.6882 168.365 57.9947 166.362 58.9659C165.361 59.4515 164.537 59.8532 163.964 60.1334C163.677 60.2735 163.453 60.3832 163.301 60.4579L163.069 60.5716C163.069 60.5716 163.069 60.572 162.931 60.2924L163.069 60.5716C162.873 60.6682 162.659 60.6948 162.459 60.6605C161.77 61.1857 160.997 61.7302 160.232 62.2693C160.052 62.3958 159.873 62.522 159.695 62.6476C158.72 63.3372 157.786 64.0134 157.012 64.6676C156.221 65.3358 155.682 65.9118 155.419 66.3833L155.413 66.3939C154.694 67.6484 154.521 69.059 154.587 70.5722C154.621 71.3287 154.713 72.0913 154.818 72.86C154.843 73.0399 154.869 73.2217 154.894 73.4041C154.976 73.9834 155.059 74.5696 155.114 75.1245C155.166 75.5908 155.203 76.0588 155.211 76.5164L188.214 57.3953C188.692 57.1184 189.304 57.2814 189.581 57.7593C189.858 58.2371 189.695 58.849 189.217 59.1258L155.047 78.9231C154.98 78.962 154.91 78.9922 154.839 79.0141C154.462 79.8561 153.883 80.4483 153.262 80.9297C152.862 81.239 152.377 81.5487 151.916 81.843C151.679 81.9939 151.449 82.1407 151.24 82.2812C149.942 83.1553 148.594 84.3057 147.694 86.8656C147.522 87.3872 147.594 88.2641 148.016 89.5179C148.425 90.7319 149.096 92.1167 149.875 93.5392C150.612 94.8842 151.424 96.2278 152.168 97.4585L152.289 97.6583C153.048 98.9142 153.747 100.078 154.164 100.943C155.089 102.718 156.752 105.964 158.183 108.766C158.901 110.172 159.561 111.467 160.042 112.41L160.824 113.945L160.824 113.946C160.824 113.946 160.824 113.947 159.933 114.4L160.693 115.051L160.44 115.346C160.277 115.536 160.043 115.81 159.756 116.146C159.183 116.817 158.399 117.735 157.558 118.725C155.872 120.707 153.966 122.96 153.052 124.082L153.044 124.091C151.892 125.471 150.351 127.239 148.667 129.173C147.484 130.531 146.229 131.971 144.989 133.415C145.344 133.752 145.799 134.171 146.25 134.558C146.625 134.857 147.032 135.219 147.355 135.607C147.648 135.958 148.031 136.511 148.031 137.167C148.031 138.195 147.619 139.266 147.059 140.252C146.489 141.256 145.712 142.267 144.863 143.197C143.306 144.901 141.398 146.451 139.862 147.238C139.865 147.24 139.867 147.242 139.869 147.244C140.23 147.572 140.486 147.766 140.64 147.851C141.319 148.11 142.244 148.198 143.37 148.092C144.509 147.984 145.786 147.683 147.096 147.233C149.724 146.331 152.373 144.869 154.178 143.337C155.117 142.524 156.389 141.209 157.733 139.818C157.848 139.699 157.964 139.579 158.08 139.459C159.517 137.973 161.02 136.434 162.145 135.537C162.153 135.53 162.162 135.524 162.17 135.518C163.354 134.632 165.106 133.578 166.775 132.579L166.977 132.458C168.604 131.485 170.131 130.572 171.107 129.858C172.683 128.678 175.172 126.342 177.517 124.139L177.812 123.863C177.848 123.827 177.884 123.791 177.92 123.755C177.928 123.747 177.935 123.74 177.943 123.732C179.073 122.604 180.313 121.584 181.166 120.881C181.307 120.765 181.437 120.658 181.554 120.56C181.582 120.537 181.61 120.516 181.64 120.496C181.774 120.407 181.916 120.316 182.063 120.223C183.075 119.524 184.365 118.805 185.702 118.109C186.757 117.56 187.878 117.007 188.953 116.479C189.586 116.147 190.205 115.82 190.79 115.501C190.904 115.439 191.027 115.401 191.153 115.386C191.533 115.191 191.897 114.997 192.25 114.808L192.359 114.75C192.797 114.516 193.222 114.289 193.619 114.09C195.013 113.24 196.944 111.832 199 110.334C199.279 110.131 199.56 109.926 199.842 109.72C202.182 108.018 204.615 106.277 206.387 105.319C211.116 102.747 220.821 98.6166 226.014 97.1763C226.171 97.1304 226.347 97.0781 226.541 97.0207C227.815 96.6428 229.822 96.0478 231.655 95.6415C232.707 95.4084 233.756 95.2247 234.602 95.19C235.019 95.173 235.452 95.1886 235.834 95.2859C236.193 95.3773 236.729 95.601 236.985 96.1755C237.192 96.6406 237.017 97.1873 236.578 97.445L236.072 96.5825C236.578 97.445 236.578 97.445 236.578 97.445L236.261 97.6306C236.057 97.7494 235.764 97.9204 235.405 98.1296C234.686 98.5479 233.7 99.1191 232.635 99.7302C230.515 100.946 228.042 102.34 226.735 102.992L226.716 103.002C224.647 103.979 221.558 105.058 218.31 106.193C217.237 106.568 216.147 106.949 215.07 107.334C210.644 108.918 206.471 110.569 204.199 112.234C201.736 114.076 198.078 117.717 194.999 121.678C193.463 123.654 192.09 125.685 191.089 127.586C190.078 129.507 189.492 131.208 189.431 132.546C189.43 132.559 189.43 132.571 189.428 132.584C189.402 132.899 189.437 133.258 189.535 133.649C189.743 132.905 190.047 132.205 190.362 131.597C190.669 130.966 190.999 130.417 191.267 129.996C192.318 128.233 194.747 126.155 197.27 124.689C198.552 123.944 199.915 123.323 201.209 122.973C202.479 122.63 203.811 122.513 204.946 122.938C204.957 122.942 204.967 122.946 204.978 122.951C204.986 122.954 204.993 122.957 205.001 122.96C205.603 123.227 206.029 123.771 206.324 124.249C206.637 124.756 206.902 125.357 207.125 125.939C207.423 126.721 207.691 127.608 207.886 128.254C207.963 128.509 208.029 128.727 208.081 128.885C208.147 129.024 208.292 129.249 208.532 129.588C208.591 129.672 208.655 129.762 208.722 129.855C208.917 130.128 209.137 130.436 209.332 130.734C209.59 131.129 209.865 131.598 210.014 132.066C210.086 132.29 210.149 132.582 210.131 132.894C211.237 132.404 212.417 131.886 213.619 131.357C217.489 129.658 221.597 127.854 224.277 126.518C225.726 125.772 227.648 124.725 229.735 123.589C233.847 121.351 238.597 118.765 241.627 117.443L241.641 117.437C244.263 116.342 248.19 115.354 252.198 114.346C252.985 114.148 253.774 113.95 254.557 113.749C259.434 112.502 264.063 111.19 266.749 109.583C272.972 105.817 282.446 98.1661 290.897 90.2494C295.116 86.2964 299.061 82.295 302.201 78.7013C305.363 75.0826 307.637 71.9561 308.599 69.7409L308.603 69.7319C310.228 66.0847 314.223 59.72 316.455 56.1647C316.609 55.918 316.756 55.6848 316.892 55.467L316.9 55.4549C319.779 51.0041 326.345 43.0349 330.064 39.1828L330.078 39.1693L330.131 39.1157C330.641 38.6069 331.154 38.0951 331.838 37.7398C332.693 37.1731 333.428 36.7345 334.308 36.2957C335.31 35.7956 336.358 35.0267 337.876 33.513C338.267 33.123 338.9 33.1238 339.29 33.5148C339.68 33.9059 339.679 34.5391 339.288 34.9291C337.687 36.5263 336.466 37.4543 335.2 38.0855C334.395 38.4869 333.723 38.8885 332.897 39.4374C332.863 39.4604 332.827 39.4811 332.79 39.4996C332.395 39.6962 332.085 39.9925 331.497 40.5784C327.844 44.3632 321.376 52.2199 318.583 56.5353C318.453 56.7429 318.315 56.9631 318.17 57.1942C315.918 60.7831 311.997 67.0322 310.432 70.5409C309.337 73.0624 306.88 76.3862 303.707 80.0173C300.511 83.6752 296.516 87.7253 292.264 91.7089C283.772 99.6642 274.179 107.425 267.782 111.296L267.778 111.299C264.793 113.085 259.852 114.46 255.053 115.687C254.241 115.895 253.433 116.098 252.635 116.299C248.623 117.309 244.889 118.249 242.419 119.279C239.462 120.57 234.899 123.056 230.843 125.264C228.716 126.423 226.729 127.505 225.187 128.299L225.175 128.305C222.482 129.648 218.237 131.513 214.304 133.242C211.624 134.42 209.088 135.534 207.287 136.376C207.285 136.377 207.282 136.379 207.279 136.38C207.25 136.402 207.216 136.425 207.178 136.447C207.098 136.495 207.004 136.538 206.896 136.569C206.815 136.591 206.734 136.604 206.655 136.609C204.423 138.16 201.784 139.443 199.281 140.364C198.637 140.619 197.981 140.775 197.486 140.892C197.376 140.918 197.273 140.942 197.181 140.965C197.102 140.985 197.021 140.995 196.939 140.995L196.044 140.995C195.675 140.995 195.166 140.996 194.634 140.845C194.271 140.809 193.944 140.674 193.716 140.566C193.617 140.555 193.519 140.53 193.427 140.49C192.559 140.119 191.691 139.56 190.964 138.874C190.714 138.869 190.467 138.771 190.278 138.582C189.428 137.734 188.686 136.726 188.173 135.682C187.667 134.654 187.348 133.521 187.434 132.437C187.503 131.002 188.004 129.413 188.756 127.791C188.748 127.799 188.741 127.806 188.735 127.812L188.721 127.827L188.716 127.832L188.714 127.834L188.713 127.834C188.713 127.835 188.713 127.835 188.007 127.127L188.713 127.834C188.456 128.091 188.08 128.188 187.731 128.088L178.926 125.56C178.893 125.591 178.86 125.622 178.827 125.653C176.53 127.81 173.97 130.214 172.3 131.463L172.292 131.469C171.238 132.24 169.638 133.197 168.056 134.144L167.802 134.295C166.109 135.308 164.463 136.302 163.379 137.111C162.378 137.912 160.98 139.337 159.518 140.849C159.396 140.976 159.273 141.102 159.151 141.229C157.832 142.594 156.495 143.977 155.483 144.853L155.476 144.858C153.453 146.577 150.574 148.154 147.745 149.125C146.327 149.612 144.892 149.957 143.558 150.083C142.236 150.208 140.943 150.126 139.855 149.691C139.829 149.681 139.804 149.67 139.779 149.657C139.361 149.449 138.918 149.081 138.526 148.726C138.208 148.438 137.872 148.109 137.542 147.781C136.276 147.698 135.299 146.948 134.775 145.99C134.201 144.939 134.125 143.555 134.845 142.427L134.852 142.416C137.142 138.923 141.143 134.603 142.398 133.31C142.488 133.043 142.69 132.821 142.96 132.709C144.396 131.031 145.84 129.373 147.184 127.83C148.847 125.922 150.356 124.19 151.506 122.814C152.437 121.671 154.355 119.403 156.034 117.429C156.877 116.438 157.662 115.519 158.236 114.846C158.429 114.62 158.599 114.422 158.739 114.258L158.26 113.318C157.78 112.375 157.12 111.081 156.402 109.676C154.966 106.865 153.302 103.616 152.383 101.853C152.377 101.843 152.372 101.833 152.368 101.823C152.003 101.063 151.36 99.9881 150.577 98.6928L150.451 98.4841C149.711 97.2608 148.879 95.8835 148.121 94.4997C147.322 93.041 146.585 91.5357 146.121 90.1558C145.671 88.8206 145.406 87.4016 145.799 86.2255L145.804 86.2113C146.888 83.1204 148.587 81.6563 150.123 80.6222C150.434 80.4128 150.709 80.2383 150.962 80.0782C151.36 79.8255 151.701 79.6089 152.037 79.3488C152.519 78.9746 152.843 78.6101 153.039 78.1372C153.242 77.5056 153.263 76.5669 153.126 75.3404L153.125 75.3295C153.074 74.8167 152.999 74.285 152.918 73.714C152.891 73.5245 152.864 73.3306 152.837 73.1317C152.73 72.3494 152.627 71.5123 152.589 70.6602C152.514 68.958 152.695 67.1181 153.675 65.4045C154.122 64.6053 154.892 63.8398 155.721 63.1398C156.568 62.4241 157.566 61.7039 158.541 61.0147C158.727 60.8832 158.911 60.7529 159.095 60.6239C159.885 60.0671 160.643 59.5331 161.314 59.0184C162.147 58.3788 162.758 57.8329 163.097 57.3859C163.64 56.6237 164.077 55.4715 164.585 54.1302C164.648 53.965 164.712 53.7968 164.777 53.6261C165.326 52.1874 165.995 50.5194 167.025 49.4922L167.034 49.4835C168.617 47.9435 170.901 46.6572 173.472 45.548C176.057 44.4328 179.008 43.4649 181.983 42.5943C184.249 41.9313 186.549 41.3189 188.723 40.7401C189.402 40.5591 190.07 40.3814 190.72 40.2065C193.463 39.4685 195.886 38.7827 197.712 38.0964C199.024 37.5733 200.818 36.8909 202.742 36.1596C206.116 34.8765 209.886 33.4432 212.134 32.4568L212.152 32.4488C223.07 27.9236 244.723 18.6071 255.176 13.2538C257.753 11.8908 261.106 10.5421 264.557 9.15355C265.832 8.64083 267.12 8.12267 268.387 7.59634C273.156 5.61631 277.645 3.51757 280.488 1.09679C280.565 1.02372 280.643 0.964838 280.701 0.922765C280.766 0.875252 280.834 0.830168 280.883 0.79746L280.889 0.793457C280.946 0.755729 280.981 0.731873 281.011 0.710651C281.021 0.703164 281.028 0.698156 281.031 0.695479C281.423 0.31606 282.048 0.320407 282.434 0.707894ZM143.529 135.166C140.907 138.323 138.663 141.26 137.441 143.82C137.437 143.829 137.432 143.838 137.428 143.847C137.428 143.858 137.43 143.872 137.433 143.891C137.449 144.001 137.504 144.179 137.628 144.426C137.806 144.782 138.083 145.194 138.426 145.623C138.475 145.605 138.527 145.587 138.582 145.568C139.835 144.993 141.724 143.553 143.301 141.844C144.09 140.99 144.768 140.103 145.235 139.27C145.712 138.418 145.913 137.72 145.89 137.212C145.89 137.21 145.89 137.208 145.89 137.205C145.887 137.197 145.881 137.185 145.873 137.169C145.841 137.104 145.78 137.01 145.679 136.889C145.565 136.753 145.424 136.61 145.263 136.464C145.142 136.38 144.999 136.292 144.834 136.197C144.805 136.181 144.777 136.163 144.749 136.143C144.311 135.831 143.882 135.475 143.529 135.166ZM137.428 143.823C137.428 143.823 137.428 143.824 137.427 143.826ZM180.632 123.969L187.677 125.992C187.74 125.915 187.81 125.828 187.884 125.731C188.248 125.26 188.726 124.567 189.17 123.688C189.911 122.224 190.55 120.269 190.443 117.975C190.285 118.052 190.127 118.13 189.967 118.209C189.941 118.222 189.915 118.234 189.889 118.247C189.398 118.504 188.906 118.76 188.418 119.014C186.438 120.043 184.535 121.032 183.169 121.89C182.993 122.012 182.83 122.132 182.679 122.249C182.557 122.351 182.425 122.46 182.284 122.575C181.804 122.971 181.23 123.444 180.632 123.969ZM192.37 117.008C192.621 119.183 192.288 121.12 191.741 122.726C192.274 121.961 192.838 121.199 193.42 120.45C196.578 116.388 200.362 112.606 203.004 110.63L203.012 110.624C205.561 108.754 210.034 107.013 214.396 105.451C215.529 105.046 216.656 104.652 217.751 104.269C220.958 103.148 223.887 102.125 225.852 101.198C227.1 100.575 229.512 99.2156 231.64 97.9952C231.929 97.8293 232.213 97.6662 232.486 97.5084C232.356 97.5356 232.223 97.5642 232.088 97.5942C230.33 97.9837 228.401 98.5554 227.12 98.9351C226.92 98.9944 226.735 99.049 226.57 99.0976L226.555 99.1017C221.539 100.491 211.969 104.56 207.342 107.077L207.339 107.078C205.709 107.959 203.393 109.611 201.019 111.338C200.738 111.542 200.457 111.747 200.177 111.951C198.122 113.449 196.097 114.925 194.622 115.821C194.599 115.835 194.574 115.848 194.55 115.861C194.168 116.051 193.755 116.272 193.295 116.517L193.192 116.572C192.931 116.712 192.656 116.858 192.37 117.008ZM235.384 97.2375C235.383 97.2375 235.38 97.2363 235.374 97.2337C235.381 97.2361 235.384 97.2375 235.384 97.2375ZM194.042 138.574C193.312 138.227 192.634 137.676 191.897 136.947C191.323 136.089 191.292 135.076 191.579 133.994C191.716 133.474 191.92 132.966 192.148 132.497C192.371 132.066 192.607 131.674 192.82 131.341C192.826 131.332 192.831 131.323 192.837 131.313C193.634 129.969 195.735 128.095 198.133 126.701C199.314 126.015 200.512 125.478 201.589 125.187C202.662 124.897 203.497 124.883 204.063 125.079C204.117 125.112 204.267 125.237 204.48 125.582C204.698 125.936 204.912 126.405 205.115 126.936C205.391 127.659 205.603 128.365 205.786 128.975C205.883 129.297 205.972 129.591 206.057 129.848C206.066 129.874 206.076 129.9 206.087 129.926C206.239 130.278 206.51 130.686 206.748 131.033C206.822 131.141 206.897 131.249 206.97 131.355C207.157 131.625 207.34 131.889 207.51 132.155C207.696 132.446 207.83 132.686 207.911 132.871C207.355 133.422 206.801 133.956 206.17 134.487C205.462 134.846 204.634 135.321 203.764 135.82C203.398 136.03 203.025 136.244 202.651 136.455C201.311 137.211 199.906 137.961 198.554 138.501C197.97 138.733 197.378 138.859 196.698 138.995H196.088C195.516 138.995 194.932 138.882 194.332 138.642C194.239 138.605 194.141 138.582 194.042 138.574ZM206.387 105.319C206.388 105.319 206.388 105.319 206.389 105.319L206.864 106.198L206.386 105.32C206.387 105.32 206.387 105.319 206.387 105.319ZM159.933 114.4L160.693 115.051C160.956 114.743 161.008 114.307 160.824 113.946L159.933 114.4ZM191.367 86.6546C191.507 87.0813 191.346 87.549 190.972 87.7984L173.391 99.5353C172.987 99.8052 172.447 99.7453 172.112 99.3935C171.776 99.0417 171.743 98.4998 172.032 98.1091L180.397 86.7963C180.576 86.5543 180.854 86.4058 181.155 86.392L190.371 85.9677C190.82 85.9471 191.227 86.228 191.367 86.6546ZM181.722 88.368L177.048 94.6894L186.872 88.1309L181.722 88.368Z" fill="#54DF6C"/>
</svg>
