<svg width="14" height="21" viewBox="0 0 14 21" fill="none" xmlns="http://www.w3.org/2000/svg">
<path fill-rule="evenodd" clip-rule="evenodd" d="M0 4.9C0 2.24772 2.24772 0 4.9 0C7.75229 0 10 2.24772 10 5.1V13C10 14.6523 8.65228 16 7 16C5.34772 16 4 14.6523 4 13V8.1C4 7.54772 4.44772 7.1 5 7.1C5.55228 7.1 6 7.54772 6 8.1V13C6 13.5477 6.45228 14 7 14C7.54772 14 8 13.5477 8 13V5.1C8 3.35228 6.64772 2 4.9 2C3.35228 2 2 3.35228 2 4.9V14C2 16.7477 4.25228 19 7 19C9.74771 19 12 16.7477 12 14V8.1C12 7.54772 12.4477 7.1 13 7.1C13.5523 7.1 14 7.54772 14 8.1V14C14 17.8523 10.8523 21 7 21C3.14772 21 0 17.8523 0 14V4.9Z" fill="#54DF6C"/>
</svg>
