<svg width="23" height="23" viewBox="0 0 23 23" fill="none" xmlns="http://www.w3.org/2000/svg">
<g clip-path="url(#clip0)">
<path d="M17.2 9.8C17.8 12.9 16 15.8 13.3 16.7V20C13.3 21.1 12.4 22 11.3 22C10.2 22 9.29999 21.1 9.29999 20V16.6C6.99999 15.8 5.29999 13.6 5.29999 11C5.29999 7.3 8.69999 4.3 12.6 5.1C14.9 5.6 16.7 7.50001 17.2 9.8Z" stroke="#231F20" stroke-width="2" stroke-miterlimit="10" stroke-linecap="round" stroke-linejoin="round"/>
<path d="M11.3 1V2" stroke="#231F20" stroke-width="2" stroke-miterlimit="10" stroke-linecap="round" stroke-linejoin="round"/>
<path d="M4.29999 5L3.29999 4" stroke="#231F20" stroke-width="2" stroke-miterlimit="10" stroke-linecap="round" stroke-linejoin="round"/>
<path d="M18.3 5L19.3 4" stroke="#231F20" stroke-width="2" stroke-miterlimit="10" stroke-linecap="round" stroke-linejoin="round"/>
<path d="M20.2 11H21.6" stroke="#231F20" stroke-width="2" stroke-miterlimit="10" stroke-linecap="round" stroke-linejoin="round"/>
<path d="M1 11H2.4" stroke="#231F20" stroke-width="2" stroke-miterlimit="10" stroke-linecap="round" stroke-linejoin="round"/>
</g>
<defs>
<clipPath id="clip0">
<rect width="22.6" height="23" fill="white"/>
</clipPath>
</defs>
</svg>
