<svg width="252" height="255" viewBox="0 0 252 255" fill="none" xmlns="http://www.w3.org/2000/svg">
<path opacity="0.5" d="M252 128.651C252 198.239 195.588 254.651 126 254.651C56.4121 254.651 0 198.239 0 128.651C0 59.0628 56.4121 2.65063 126 2.65063C195.588 2.65063 252 59.0628 252 128.651Z" fill="#F2F2F2"/>
<path fill-rule="evenodd" clip-rule="evenodd" d="M151.426 107.009C149.028 107.009 146.679 107.555 144.906 108.592L144.9 108.596L30.2 174.711L30.1832 174.721C28.4124 175.697 27.7622 176.868 27.7622 177.842C27.7622 178.824 28.4204 180.03 30.1963 181.072L31.4017 181.741L31.4157 181.749L93.0275 217.239C94.8001 218.277 97.1492 218.822 99.5474 218.822C101.946 218.822 104.295 218.277 106.067 217.239L106.073 217.236L219.557 151.795L219.572 151.787L220.79 151.111C222.561 150.135 223.211 148.964 223.211 147.989C223.211 147.006 222.551 145.799 220.77 144.755C220.769 144.754 220.768 144.754 220.767 144.754L214.694 141.249L162.012 110.893L162.005 110.89L157.959 108.6L157.946 108.592C156.173 107.555 153.824 107.009 151.426 107.009ZM158.95 106.863C156.806 105.609 154.091 105.009 151.426 105.009C148.759 105.009 146.043 105.61 143.899 106.865C143.898 106.865 143.897 106.866 143.895 106.866L29.2093 172.974C27.0674 174.157 25.7622 175.885 25.7622 177.842C25.7622 179.794 27.0607 181.554 29.1954 182.804L29.2155 182.815L30.424 183.486L92.017 218.965C92.0181 218.966 92.0193 218.966 92.0204 218.967C94.1652 220.222 96.8808 220.822 99.5474 220.822C102.214 220.822 104.93 220.222 107.075 218.967C107.076 218.966 107.077 218.966 107.078 218.965L220.542 153.535L220.556 153.527L221.755 152.862C221.755 152.862 221.756 152.862 221.755 152.862C223.902 151.679 225.211 149.949 225.211 147.989C225.211 146.038 223.913 144.277 221.778 143.028L221.773 143.024L215.693 139.516L163.003 109.157L158.956 106.866C158.954 106.865 158.952 106.864 158.95 106.863Z" fill="#BDBDBD"/>
<path fill-rule="evenodd" clip-rule="evenodd" d="M224.245 156.249C224.797 156.249 225.245 156.696 225.245 157.249V157.518C225.245 159.494 223.97 161.11 221.948 162.408C221.935 162.417 221.921 162.425 221.907 162.433L107.213 228.545C107.212 228.546 107.211 228.546 107.21 228.547C105.065 229.802 102.349 230.403 99.6825 230.403C97.0159 230.403 94.3002 229.802 92.1555 228.547C92.1543 228.546 92.1532 228.546 92.1521 228.545L62.7056 211.547C62.2272 211.271 62.0633 210.659 62.3394 210.181C62.6155 209.703 63.2271 209.539 63.7054 209.815L93.1626 226.819C94.9352 227.857 97.2843 228.403 99.6825 228.403C102.081 228.403 104.43 227.857 106.203 226.819L106.208 226.816L220.887 160.712C222.634 159.586 223.245 158.507 223.245 157.519V157.25C223.245 156.697 223.693 156.249 224.245 156.249Z" fill="#BDBDBD"/>
<path fill-rule="evenodd" clip-rule="evenodd" d="M26.8635 176.893C27.4158 176.893 27.8635 177.341 27.8635 177.893V187.338C27.8635 188.343 28.4954 189.539 30.3059 190.503C30.3161 190.509 30.3262 190.515 30.3363 190.52L63.706 209.815C64.1842 210.092 64.3476 210.703 64.0712 211.182C63.7947 211.66 63.183 211.823 62.7049 211.547L29.3498 192.26C27.3116 191.17 26.0893 189.601 25.8919 187.845C25.8733 187.769 25.8635 187.69 25.8635 187.608V177.893C25.8635 177.341 26.3112 176.893 26.8635 176.893Z" fill="#BDBDBD"/>
<path fill-rule="evenodd" clip-rule="evenodd" d="M224.245 147.343C224.797 147.343 225.245 147.791 225.245 148.343V157.383L224.245 157.384L223.245 157.383V148.343C223.245 147.791 223.693 147.343 224.245 147.343ZM224.245 158.384C223.693 158.384 223.245 157.936 223.245 157.383L224.245 157.384L225.245 157.383C225.245 157.935 224.797 158.384 224.245 158.384Z" fill="#BDBDBD"/>
<path fill-rule="evenodd" clip-rule="evenodd" d="M209.026 163.751C209.31 164.225 209.156 164.839 208.682 165.123L195.172 173.219C194.698 173.502 194.084 173.349 193.8 172.875C193.516 172.401 193.67 171.787 194.144 171.503L207.654 163.407C208.128 163.123 208.742 163.277 209.026 163.751Z" fill="#BDBDBD"/>
<path d="M215.193 140.382L210.195 143.216C206.952 145.105 201.683 145.105 198.441 143.216L157.506 119.603C154.263 117.714 154.263 114.746 157.506 112.857L162.504 110.023L215.193 140.382Z" fill="#F2F2F2"/>
<path fill-rule="evenodd" clip-rule="evenodd" d="M162.011 109.153C162.319 108.979 162.697 108.98 163.003 109.157L215.693 139.516C216.003 139.695 216.195 140.027 216.193 140.386C216.192 140.745 215.999 141.075 215.686 141.252L210.693 144.083C208.884 145.135 206.573 145.633 204.318 145.633C202.061 145.633 199.749 145.135 197.94 144.081C197.939 144.081 197.938 144.08 197.938 144.08L157.006 120.469L157.002 120.467C155.208 119.422 154.074 117.932 154.074 116.23C154.074 114.528 155.208 113.038 157.002 111.993L157.012 111.987L162.011 109.153ZM158.004 113.724C156.56 114.567 156.074 115.504 156.074 116.23C156.074 116.956 156.56 117.895 158.007 118.738C158.008 118.738 158.008 118.739 158.009 118.739L198.944 142.352C200.377 143.186 202.32 143.633 204.318 143.633C206.316 143.633 208.259 143.186 209.691 142.352L209.701 142.346L213.178 140.375L162.5 111.175L158.004 113.724Z" fill="#BDBDBD"/>
<path fill-rule="evenodd" clip-rule="evenodd" d="M81.6531 52.5449C80.5797 51.3753 78.671 51.3292 77.4223 52.5762C77.4121 52.5865 77.4016 52.5965 77.3909 52.6063C76.2206 53.6777 76.1743 55.5818 77.4223 56.8282C77.8131 57.2185 77.8135 57.8516 77.4232 58.2424C77.0329 58.6332 76.3998 58.6336 76.009 58.2433C74.0197 56.2565 73.9686 53.0448 76.0243 51.1459C78.0193 49.1697 81.2327 49.129 83.1266 51.1925C83.5001 51.5994 83.4729 52.232 83.0661 52.6054C82.6592 52.9788 82.0266 52.9517 81.6531 52.5449Z" fill="#54DF6C"/>
<path fill-rule="evenodd" clip-rule="evenodd" d="M30.6863 145.933C29.9635 144.386 28.1143 143.692 26.6107 144.392C26.1101 144.626 25.5152 144.409 25.2818 143.909C25.0485 143.408 25.2652 142.813 25.7658 142.58C28.3152 141.391 31.3296 142.586 32.4982 145.087C33.6891 147.635 32.4912 150.647 29.9882 151.814C29.4876 152.047 28.8927 151.83 28.6593 151.33C28.426 150.829 28.6427 150.234 29.1433 150.001C30.6933 149.278 31.3867 147.432 30.6863 145.933Z" fill="#54DF6C"/>
<path fill-rule="evenodd" clip-rule="evenodd" d="M209.458 202.317C208.384 201.148 206.476 201.101 205.227 202.348C205.217 202.359 205.206 202.369 205.196 202.378C204.025 203.45 203.979 205.354 205.227 206.6C205.618 206.991 205.618 207.624 205.228 208.015C204.838 208.405 204.204 208.406 203.814 208.015C201.824 206.029 201.773 202.817 203.829 200.918C205.824 198.942 209.037 198.901 210.931 200.965C211.305 201.372 211.278 202.004 210.871 202.378C210.464 202.751 209.831 202.724 209.458 202.317Z" fill="#54DF6C"/>
<path fill-rule="evenodd" clip-rule="evenodd" d="M150.014 48.4968C148.94 47.3272 147.032 47.2811 145.783 48.5281C145.773 48.5384 145.762 48.5484 145.752 48.5582C144.581 49.6296 144.535 51.5337 145.783 52.7801C146.174 53.1704 146.174 53.8035 145.784 54.1943C145.394 54.5851 144.76 54.5855 144.37 54.1952C142.38 52.2084 142.329 48.9967 144.385 47.0978C146.38 45.1216 149.593 45.0809 151.487 47.1444C151.861 47.5513 151.834 48.1839 151.427 48.5573C151.02 48.9308 150.387 48.9036 150.014 48.4968Z" fill="#54DF6C"/>
<path fill-rule="evenodd" clip-rule="evenodd" d="M39.6983 79.9895C38.7633 79.9895 37.9963 80.7573 37.9963 81.6881C37.9963 82.6188 38.7633 83.3867 39.6983 83.3867C40.2506 83.3867 40.6983 83.8344 40.6983 84.3867C40.6983 84.939 40.2506 85.3867 39.6983 85.3867C37.6611 85.3867 35.9963 83.7258 35.9963 81.6881C35.9963 79.6504 37.6611 77.9895 39.6983 77.9895C40.2506 77.9895 40.6983 78.4372 40.6983 78.9895C40.6983 79.5418 40.2506 79.9895 39.6983 79.9895Z" fill="#54DF6C"/>
<path fill-rule="evenodd" clip-rule="evenodd" d="M221.423 59.5375C221.882 59.8441 222.006 60.4651 221.699 60.9244C221.274 61.5618 221.485 62.5923 222.368 63.18C223.062 63.6423 224.057 63.4626 224.604 62.5529C224.888 62.0795 225.503 61.9262 225.976 62.2106C226.45 62.4951 226.603 63.1094 226.318 63.5828C225.244 65.3717 222.997 66.0016 221.259 64.8447C219.71 63.8133 218.84 61.6054 220.036 59.8141C220.343 59.3547 220.964 59.2309 221.423 59.5375Z" fill="#54DF6C"/>
<path fill-rule="evenodd" clip-rule="evenodd" d="M57.8336 112.96C58.2239 113.351 58.2235 113.984 57.8327 114.374L54.4552 117.747C54.0644 118.138 53.4313 118.137 53.041 117.746C52.6507 117.356 52.6511 116.722 53.0419 116.332L56.4194 112.959C56.8102 112.569 57.4433 112.569 57.8336 112.96Z" fill="#54DF6C"/>
<path fill-rule="evenodd" clip-rule="evenodd" d="M22.6435 36.0497C23.0338 35.6589 23.667 35.6585 24.0577 36.0488L27.4352 39.422C27.826 39.8123 27.8264 40.4455 27.4361 40.8363C27.0459 41.227 26.4127 41.2274 26.0219 40.8371L22.6444 37.4639C22.2536 37.0736 22.2532 36.4405 22.6435 36.0497Z" fill="#54DF6C"/>
<path fill-rule="evenodd" clip-rule="evenodd" d="M230.357 108.237C230.747 108.628 230.746 109.261 230.356 109.651L226.978 113.025C226.587 113.415 225.954 113.415 225.564 113.024C225.174 112.633 225.174 112 225.565 111.61L228.942 108.236C229.333 107.846 229.966 107.846 230.357 108.237Z" fill="#54DF6C"/>
<path fill-rule="evenodd" clip-rule="evenodd" d="M131.733 0.293339C132.124 0.684109 132.123 1.31727 131.733 1.70755L128.355 5.0808C127.964 5.47108 127.331 5.47068 126.941 5.07991C126.551 4.68914 126.551 4.05597 126.942 3.6657L130.319 0.292448C130.71 -0.0978304 131.343 -0.0974313 131.733 0.293339Z" fill="#54DF6C"/>
<path fill-rule="evenodd" clip-rule="evenodd" d="M51.0787 222.253C51.469 222.644 51.4686 223.277 51.0778 223.667L47.7003 227.041C47.3095 227.431 46.6764 227.43 46.2861 227.04C45.8958 226.649 45.8962 226.016 46.287 225.625L49.6645 222.252C50.0553 221.862 50.6884 221.862 51.0787 222.253Z" fill="#54DF6C"/>
<path fill-rule="evenodd" clip-rule="evenodd" d="M184.963 71.2665C185.353 71.6573 185.353 72.2904 184.962 72.6807L182.936 74.7046C182.545 75.0949 181.912 75.0945 181.521 74.7038C181.131 74.313 181.132 73.6798 181.522 73.2895L183.549 71.2656C183.94 70.8753 184.573 70.8757 184.963 71.2665Z" fill="#54DF6C"/>
<path fill-rule="evenodd" clip-rule="evenodd" d="M217.387 22.6918C217.777 23.0825 217.777 23.7157 217.386 24.106L215.36 26.1299C214.969 26.5202 214.336 26.5198 213.946 26.129C213.555 25.7383 213.556 25.1051 213.946 24.7148L215.973 22.6909C216.364 22.3006 216.997 22.301 217.387 22.6918Z" fill="#54DF6C"/>
<path d="M71.5818 126.755V166.019L122.65 195.434L173.582 166.019V126.89" fill="white"/>
<path fill-rule="evenodd" clip-rule="evenodd" d="M71.5818 125.755C72.1341 125.755 72.5818 126.202 72.5818 126.755V165.441L122.649 194.28L172.582 165.442V126.89C172.582 126.337 173.03 125.89 173.582 125.89C174.135 125.89 174.582 126.337 174.582 126.89V166.019C174.582 166.376 174.392 166.707 174.083 166.885L123.15 196.3C122.841 196.478 122.46 196.479 122.151 196.3L71.0827 166.886C70.7728 166.707 70.5818 166.377 70.5818 166.019V126.755C70.5818 126.202 71.0295 125.755 71.5818 125.755Z" fill="#54DF6C"/>
<path d="M180.202 101.793V122.167L122.65 155.36L64.9619 122.167V101.793L122.65 68.5999L180.202 101.793Z" fill="white"/>
<path fill-rule="evenodd" clip-rule="evenodd" d="M122.151 67.7331C122.46 67.5553 122.84 67.5555 123.149 67.7336L180.702 100.926C181.012 101.105 181.202 101.435 181.202 101.793V122.167C181.202 122.524 181.012 122.855 180.702 123.033L123.149 156.226C122.84 156.404 122.46 156.404 122.151 156.227L64.4632 123.034C64.1531 122.855 63.9619 122.525 63.9619 122.167V101.793C63.9619 101.435 64.1531 101.104 64.4632 100.926L122.151 67.7331ZM65.9619 102.371V121.589L122.649 154.206L179.202 121.589V102.37L122.649 69.7539L65.9619 102.371Z" fill="#54DF6C"/>
<path d="M180.202 101.793V102.467L122.65 135.66L64.9619 102.467V101.793L122.65 68.5999L180.202 101.793Z" fill="white"/>
<path fill-rule="evenodd" clip-rule="evenodd" d="M122.151 67.7331C122.46 67.5553 122.84 67.5555 123.149 67.7336L180.702 100.926C181.012 101.105 181.202 101.435 181.202 101.793V102.467C181.202 102.825 181.012 103.155 180.702 103.334L123.149 136.526C122.84 136.704 122.46 136.705 122.151 136.527L64.4632 103.334C64.1531 103.156 63.9619 102.825 63.9619 102.467V101.793C63.9619 101.435 64.1531 101.104 64.4632 100.926L122.151 67.7331ZM66.3808 102.13L122.649 134.506L178.786 102.13L122.649 69.7539L66.3808 102.13Z" fill="#54DF6C"/>
<path fill-rule="evenodd" clip-rule="evenodd" d="M122.65 135.604C123.202 135.604 123.65 136.052 123.65 136.604V194.085C123.65 194.637 123.202 195.085 122.65 195.085C122.097 195.085 121.65 194.637 121.65 194.085V136.604C121.65 136.052 122.097 135.604 122.65 135.604Z" fill="#54DF6C"/>
<path fill-rule="evenodd" clip-rule="evenodd" d="M152.152 85.2283C152.433 85.7041 152.274 86.3171 151.799 86.5975L95.2786 119.905V139.033C95.2786 139.033 95.2786 139.033 94.2786 139.033C93.2786 139.033 93.2786 139.033 93.2786 139.033V119.334C93.2786 118.979 93.4658 118.652 93.7709 118.472L150.783 84.8745C151.259 84.5941 151.872 84.7525 152.152 85.2283ZM94.2786 139.033L93.2786 139.033C93.2786 139.585 93.7263 140.033 94.2786 140.033C94.8308 140.033 95.2786 139.585 95.2786 139.033L94.2786 139.033Z" fill="#54DF6C"/>
<path d="M96.7104 141.327C96.9806 144.161 96.7104 179.108 96.7104 179.108Z" fill="white"/>
<path fill-rule="evenodd" clip-rule="evenodd" d="M96.6156 140.331C97.1654 140.279 97.6536 140.682 97.706 141.232C97.7792 141.999 97.8119 144.779 97.8245 148.422C97.8372 152.1 97.8287 156.737 97.8118 161.283C97.7949 165.83 97.7696 170.288 97.7485 173.609C97.7379 175.27 97.7284 176.646 97.7216 177.607L97.7105 179.115C97.7105 179.115 97.7105 179.115 96.7105 179.107C95.7105 179.1 95.7105 179.099 95.7106 179.099L95.7216 177.593C95.7285 176.632 95.738 175.256 95.7485 173.596C95.7696 170.276 95.795 165.82 95.8118 161.276C95.8287 156.731 95.8372 152.1 95.8245 148.429C95.8117 144.722 95.777 142.071 95.715 141.422C95.6626 140.872 96.0658 140.384 96.6156 140.331ZM96.7028 180.107C96.1505 180.103 95.7063 179.652 95.7106 179.099L96.7105 179.107L97.7105 179.115C97.7062 179.667 97.2551 180.112 96.7028 180.107Z" fill="#54DF6C"/>
<path fill-rule="evenodd" clip-rule="evenodd" d="M93.6888 85.2256C93.9707 84.7507 94.5842 84.5942 95.0591 84.8761L151.666 118.474C151.97 118.654 152.156 118.981 152.156 119.334V137.684C152.156 137.684 152.156 137.684 151.156 137.684C150.71 137.684 150.463 137.684 150.326 137.684C150.156 137.684 150.156 137.684 150.156 137.684V119.903L94.0383 86.5959C93.5634 86.3141 93.4069 85.7005 93.6888 85.2256ZM151.156 138.684C150.603 138.684 150.156 138.236 150.156 137.684L151.156 137.684L152.156 137.684C152.156 138.236 151.708 138.684 151.156 138.684Z" fill="#54DF6C"/>
<path d="M148.724 141.327C148.454 144.161 148.724 179.108 148.724 179.108Z" fill="white"/>
<path fill-rule="evenodd" clip-rule="evenodd" d="M148.819 140.331C149.369 140.384 149.772 140.872 149.72 141.422C149.658 142.071 149.623 144.722 149.61 148.429C149.597 152.1 149.606 156.731 149.623 161.276C149.64 165.82 149.665 170.276 149.686 173.596C149.697 175.256 149.706 176.632 149.713 177.593L149.724 179.099C149.724 179.099 149.724 179.1 148.726 179.107L149.724 179.099C149.728 179.652 149.284 180.103 148.732 180.107C148.18 180.112 147.728 179.667 147.724 179.115L148.724 179.107C147.724 179.115 147.724 179.115 147.724 179.115L147.713 177.607C147.706 176.646 147.697 175.27 147.686 173.609C147.665 170.288 147.64 165.83 147.623 161.283C147.606 156.737 147.597 152.1 147.61 148.422C147.623 144.779 147.655 141.999 147.729 141.232C147.781 140.682 148.269 140.279 148.819 140.331Z" fill="#54DF6C"/>
<path d="M154.533 90.8634C153.452 92.6175 152.101 94.1017 150.48 95.0463L130.756 106.38C130.756 101.523 132.647 95.9908 135.619 91.2682C136.025 90.7285 136.295 90.1888 136.7 89.784C136.97 89.5141 137.105 89.1093 137.376 88.8395C137.781 88.4347 138.051 87.895 138.456 87.4902C138.727 87.0854 139.132 86.8155 139.402 86.4108C139.942 85.871 140.483 85.3313 141.023 84.9265C141.158 84.7916 141.429 84.6567 141.564 84.5217C141.834 84.2519 142.104 84.1169 142.239 83.8471C143.05 83.1724 143.86 82.6327 144.671 82.2279C144.806 82.2279 144.806 82.093 144.941 82.093C148.589 80.069 151.831 79.7992 154.263 81.0136L154.668 81.2834C157.235 82.7676 156.695 87.2203 154.533 90.8634Z" fill="#E0F7FF"/>
<path fill-rule="evenodd" clip-rule="evenodd" d="M153.763 81.8818C151.735 80.8964 148.877 81.0529 145.426 82.9673C145.405 82.9792 145.383 82.9903 145.361 83.0006C145.333 83.0212 145.301 83.043 145.265 83.0645C145.191 83.109 145.105 83.1493 145.007 83.1788C144.351 83.5174 143.683 83.9599 143.004 84.513C142.866 84.7106 142.712 84.8501 142.602 84.944C142.533 85.0032 142.483 85.0443 142.442 85.078C142.375 85.1321 142.332 85.1675 142.27 85.2292C142.183 85.3163 142.093 85.3852 142.029 85.432C141.966 85.4779 141.9 85.5214 141.854 85.5525L141.848 85.5564C141.793 85.5925 141.76 85.6148 141.733 85.6344C141.726 85.6399 141.721 85.6438 141.717 85.6463C141.688 85.6751 141.656 85.702 141.623 85.7268C141.168 86.0673 140.699 86.529 140.171 87.0559C139.994 87.3003 139.796 87.498 139.655 87.6385C139.649 87.6451 139.642 87.6516 139.636 87.658C139.456 87.8376 139.359 87.9386 139.288 88.0453C139.251 88.1001 139.21 88.1511 139.163 88.1977C139.029 88.3316 138.907 88.4982 138.729 88.7465C138.724 88.7541 138.718 88.7618 138.713 88.7695C138.554 88.9912 138.344 89.2853 138.082 89.547C138.049 89.5797 138.009 89.6373 137.895 89.8266C137.89 89.8347 137.885 89.8431 137.88 89.8519C137.788 90.0049 137.631 90.2672 137.407 90.4915C137.278 90.6204 137.154 90.7873 136.991 91.0306C136.958 91.0813 136.921 91.1369 136.882 91.196C136.757 91.3863 136.608 91.6136 136.445 91.8341C133.921 95.8536 132.227 100.435 131.84 104.604L149.977 94.1821C149.978 94.1817 149.978 94.1812 149.979 94.1807C151.415 93.3433 152.657 92.001 153.678 90.3459C154.692 88.6331 155.3 86.7695 155.375 85.2157C155.451 83.6404 154.987 82.6229 154.168 82.149C154.15 82.1385 154.132 82.1274 154.114 82.1157L153.763 81.8818ZM144.582 81.1494C148.35 79.0934 151.909 78.72 154.71 80.1188C154.747 80.1374 154.783 80.1582 154.817 80.1811L155.198 80.4346C156.922 81.4498 157.465 83.3898 157.373 85.3119C157.279 87.2641 156.537 89.4453 155.393 91.3736L155.385 91.3879C154.245 93.2368 152.787 94.8597 150.984 95.9102L150.978 95.9133L150.978 95.9132L131.254 107.247C130.944 107.425 130.564 107.425 130.255 107.246C129.946 107.067 129.756 106.737 129.756 106.38C129.756 101.288 131.728 95.5735 134.773 90.7355C134.788 90.7123 134.803 90.6896 134.82 90.6677C134.952 90.4917 135.061 90.3249 135.185 90.1367C135.23 90.0679 135.277 89.9962 135.328 89.9203C135.503 89.6577 135.717 89.3523 135.993 89.0764C136.026 89.0437 136.067 88.9861 136.181 88.7967C136.185 88.7887 136.19 88.7802 136.196 88.7714C136.287 88.6185 136.444 88.3561 136.669 88.1319C136.803 87.9979 136.925 87.8313 137.103 87.5831C137.108 87.5755 137.113 87.5678 137.119 87.56C137.264 87.3577 137.451 87.095 137.682 86.8516C137.86 86.6041 138.061 86.4041 138.203 86.2623C138.21 86.2557 138.216 86.2492 138.223 86.2428C138.402 86.0632 138.499 85.9622 138.57 85.8555C138.607 85.8007 138.649 85.7497 138.695 85.7031L138.723 85.6752C139.23 85.1687 139.797 84.6031 140.378 84.1603C140.445 84.1005 140.509 84.0519 140.558 84.0162C140.621 83.9702 140.687 83.9267 140.733 83.8956L140.739 83.8917C140.793 83.8556 140.827 83.8334 140.854 83.8138C140.861 83.8086 140.866 83.8049 140.869 83.8024C140.961 83.7111 141.049 83.635 141.122 83.5738C141.153 83.5476 141.185 83.5219 141.211 83.5002C141.216 83.4962 141.221 83.4922 141.225 83.4884C141.256 83.4629 141.28 83.443 141.302 83.4247C141.332 83.3985 141.35 83.3817 141.359 83.3728C141.419 83.2602 141.501 83.1603 141.599 83.0784C142.46 82.3623 143.334 81.7775 144.224 81.3332C144.233 81.3287 144.242 81.3244 144.251 81.3202C144.279 81.2996 144.311 81.2778 144.347 81.2562C144.415 81.2154 144.493 81.178 144.582 81.1494Z" fill="#54DF6C"/>
<path d="M154.263 81.0133C151.831 79.799 148.589 80.0688 144.941 82.0928C144.806 82.0928 144.806 82.2277 144.671 82.2277C143.86 82.7674 143.05 83.3071 142.239 83.8469C141.969 83.9818 141.699 84.2516 141.563 84.5215C141.428 84.6564 141.158 84.7914 141.023 84.9263C140.483 85.466 139.942 85.8708 139.402 86.4105C138.997 86.8153 138.726 87.0852 138.456 87.49C138.051 87.8947 137.781 88.2995 137.375 88.8393C137.105 89.1091 136.835 89.5139 136.7 89.7838C136.295 90.3235 136.024 90.8632 135.619 91.268C132.647 95.9905 130.755 101.388 130.755 106.38C130.755 106.11 130.755 105.84 130.755 105.436C130.755 105.166 130.755 105.031 130.755 104.761C130.755 104.491 130.755 104.221 130.62 104.086C130.62 103.816 130.62 103.682 130.485 103.412C130.215 102.062 129.81 100.848 129.134 99.7686C128.999 99.6336 128.999 99.4987 128.864 99.3638C128.729 99.2289 128.594 98.959 128.459 98.8241C128.324 98.6891 128.189 98.5542 128.189 98.4193C128.053 98.2843 127.918 98.1494 127.783 98.0145C127.513 97.7446 127.243 97.6097 126.973 97.3398C126.702 97.2049 126.432 97.07 126.162 96.935C126.162 96.935 126.162 96.935 126.027 96.935L120.758 93.9666C122.379 88.1646 125.892 82.4976 130.215 78.5846C130.62 78.1798 131.161 77.775 131.566 77.5051C132.377 76.9654 133.052 76.4257 133.863 76.0209C137.781 73.7271 141.293 73.5922 143.86 75.0764L154.263 81.0133Z" fill="#E0F7FF"/>
<path fill-rule="evenodd" clip-rule="evenodd" d="M143.36 75.9422C141.2 74.6935 138.085 74.708 134.368 76.884C134.349 76.8952 134.329 76.9058 134.31 76.9157C133.804 77.168 133.388 77.4597 132.885 77.812C132.654 77.9738 132.405 78.1483 132.12 78.3376C131.744 78.588 131.263 78.9516 130.922 79.2922C130.91 79.3038 130.898 79.3151 130.886 79.3261C126.891 82.9424 123.598 88.127 121.942 93.4858L126.518 96.0639L126.162 96.6954V96.9352L126.609 96.0405L127.42 96.4453C127.516 96.4933 127.603 96.5565 127.679 96.6324C127.758 96.7104 127.838 96.7725 127.978 96.8769L127.99 96.8865C128.121 96.984 128.304 97.1214 128.49 97.3071L128.619 97.4359L128.895 97.7118C129.001 97.817 129.08 97.9432 129.13 98.0805C129.14 98.091 129.152 98.1028 129.166 98.1166C129.253 98.2038 129.322 98.2935 129.369 98.3578C129.415 98.421 129.458 98.4863 129.489 98.533L129.493 98.5389C129.529 98.593 129.552 98.6261 129.571 98.653C129.577 98.6603 129.58 98.6653 129.583 98.6685C129.759 98.8489 129.851 99.033 129.888 99.1079C129.89 99.1109 129.891 99.1138 129.892 99.1165C129.925 99.1547 129.955 99.1954 129.982 99.2382C130.201 99.5883 130.394 99.9488 130.563 100.319C131.413 97.0121 132.888 93.7309 134.773 90.7355C134.813 90.6721 134.86 90.6134 134.913 90.5606C135.042 90.4317 135.165 90.2648 135.328 90.0214C135.362 89.9708 135.398 89.9152 135.437 89.8561C135.555 89.6756 135.696 89.4619 135.849 89.2522C136.022 88.9298 136.304 88.5117 136.614 88.1877C136.673 88.1093 136.73 88.0308 136.788 87.9522C137.061 87.5816 137.334 87.2103 137.68 86.8528C137.988 86.4092 138.304 86.0939 138.668 85.7302L138.695 85.7031C138.989 85.4096 139.28 85.155 139.545 84.9237L139.555 84.9155C139.828 84.6768 140.073 84.4616 140.317 84.2188C140.404 84.1317 140.494 84.0628 140.558 84.0161C140.621 83.9702 140.686 83.9267 140.733 83.8956L140.739 83.8916C140.761 83.8769 140.78 83.8645 140.796 83.8536C141.027 83.4988 141.364 83.1831 141.729 82.9855L144.117 81.3954C144.16 81.3668 144.205 81.3417 144.251 81.3202C144.279 81.2995 144.311 81.2777 144.347 81.2562C144.415 81.2153 144.493 81.178 144.582 81.1493C146.258 80.2344 147.894 79.6527 149.44 79.412L143.365 75.945L143.36 75.9422ZM129.754 104.585C129.754 104.588 129.754 104.59 129.754 104.593C129.755 104.64 129.756 104.691 129.756 104.761V106.38C129.756 106.933 130.203 107.38 130.756 107.38C131.308 107.38 131.756 106.933 131.756 106.38C131.756 101.655 133.542 96.4759 136.411 91.8877C136.647 91.636 136.834 91.3668 136.991 91.1318C137.042 91.0558 137.089 90.9842 137.134 90.9154C137.258 90.7272 137.367 90.5603 137.5 90.3844C137.536 90.3364 137.567 90.2852 137.594 90.2315C137.69 90.0405 137.901 89.7282 138.082 89.5469C138.116 89.5135 138.147 89.4777 138.175 89.4398C138.275 89.307 138.363 89.1882 138.442 89.08C138.718 88.7072 138.9 88.4602 139.163 88.1976C139.21 88.1511 139.251 88.1 139.288 88.0453C139.495 87.7347 139.696 87.5303 140.109 87.1182C140.352 86.8754 140.597 86.6603 140.871 86.4215L140.88 86.4134C141.141 86.1851 141.428 85.9341 141.718 85.6455C141.721 85.6431 141.726 85.6393 141.733 85.6343C141.76 85.6147 141.793 85.5925 141.848 85.5564L141.853 85.5525C141.9 85.5213 141.966 85.4778 142.029 85.4319C142.093 85.3852 142.183 85.3163 142.27 85.2292C142.346 85.1532 142.41 85.0654 142.458 84.9693C142.496 84.8931 142.609 84.78 142.686 84.7416C142.723 84.7231 142.759 84.7023 142.793 84.6793L145.09 83.1502C145.154 83.1253 145.213 83.0959 145.265 83.0645C145.301 83.043 145.333 83.0212 145.361 83.0005C145.383 82.9903 145.405 82.9792 145.426 82.9673C148.907 81.036 151.785 80.8937 153.816 81.9081C154.301 82.15 154.89 81.9624 155.145 81.4848C155.4 81.0073 155.229 80.4133 154.759 80.1449L144.361 74.2108C144.36 74.2104 144.359 74.2099 144.358 74.2094C141.391 72.4951 137.493 72.746 133.386 75.1417C132.752 75.4616 132.161 75.8755 131.613 76.2591C131.406 76.4036 131.206 76.5437 131.012 76.6729C130.583 76.9585 129.993 77.3969 129.527 77.8592C125.07 81.8997 121.464 87.7238 119.795 93.6976C119.671 94.1411 119.866 94.6119 120.267 94.8379L125.536 97.8064C125.653 97.8721 125.781 97.9135 125.913 97.9287L126.394 98.1688C126.534 98.2946 126.666 98.3931 126.766 98.468L126.779 98.4776C126.918 98.5821 126.999 98.6441 127.077 98.7222L127.1 98.7451L127.312 98.9571C127.368 99.0755 127.431 99.1654 127.473 99.2223C127.568 99.3488 127.682 99.4616 127.741 99.5202C127.741 99.5202 127.741 99.5202 127.741 99.5202C127.743 99.5234 127.747 99.5283 127.752 99.5351C127.771 99.562 127.794 99.595 127.83 99.6492L127.834 99.6551C127.865 99.7018 127.908 99.7671 127.954 99.8303C127.992 99.8818 128.044 99.9498 128.108 100.02C128.109 100.021 128.11 100.023 128.11 100.025C128.141 100.086 128.208 100.221 128.329 100.368C128.895 101.296 129.255 102.363 129.505 103.608C129.522 103.695 129.551 103.78 129.591 103.859C129.608 103.892 129.615 103.91 129.618 103.918C129.618 103.922 129.619 103.931 129.619 103.944C129.62 103.975 129.62 104.014 129.62 104.086C129.62 104.263 129.667 104.435 129.754 104.585Z" fill="#54DF6C"/>
<path d="M130.756 106.515L111.031 117.984C105.762 120.818 103.06 115.286 106.708 108.944C106.978 108.539 107.248 107.999 107.518 107.595C109.004 105.301 110.626 103.142 112.517 101.523C113.868 100.308 115.219 99.229 116.57 98.4195C117.516 97.8797 118.597 97.34 119.407 97.0702C119.677 96.9352 119.812 96.9352 120.083 96.9352C122.244 96.3955 124.136 96.3955 125.757 97.0702C125.757 97.0702 125.892 97.2051 126.027 97.2051C126.027 97.2051 126.027 97.2051 126.162 97.2051L126.973 97.6099C127.243 97.7448 127.513 98.0147 127.783 98.2845C127.918 98.4195 128.054 98.5544 128.189 98.6893C128.324 98.8243 128.459 98.9592 128.459 99.0941C128.594 99.229 128.729 99.364 128.864 99.6338C128.999 99.7688 128.999 99.9037 129.134 100.039C129.81 100.983 130.215 102.197 130.485 103.682C130.485 103.952 130.62 104.087 130.62 104.356C130.62 104.626 130.62 104.896 130.756 105.031C130.756 105.301 130.756 105.436 130.756 105.706C130.756 105.841 130.756 106.245 130.756 106.515Z" fill="#E0F7FF"/>
<path fill-rule="evenodd" clip-rule="evenodd" d="M125.249 97.9436C123.917 97.4279 122.301 97.4121 120.325 97.9054C120.246 97.9252 120.164 97.9352 120.083 97.9352C120.01 97.9352 119.972 97.9354 119.94 97.9366C119.926 97.9371 119.918 97.9377 119.913 97.9381C119.906 97.9408 119.887 97.9481 119.854 97.9648C119.812 97.9859 119.768 98.004 119.723 98.0189C119.009 98.2567 118 98.7552 117.075 99.2826C115.805 100.045 114.511 101.075 113.186 102.267L113.167 102.282C111.385 103.808 109.826 105.872 108.358 108.138L108.35 108.15C108.238 108.318 108.12 108.522 107.981 108.766L107.972 108.781C107.849 108.997 107.707 109.246 107.559 109.47C105.839 112.474 105.749 115.065 106.426 116.471C106.752 117.145 107.241 117.543 107.848 117.685C108.475 117.832 109.374 117.737 110.543 117.111L129.756 105.94V105.294C129.689 105.133 129.662 104.985 129.648 104.886C129.621 104.7 129.62 104.506 129.621 104.386C129.617 104.375 129.612 104.359 129.604 104.336C129.603 104.331 129.601 104.326 129.6 104.321C129.568 104.227 129.504 104.038 129.489 103.792C129.236 102.435 128.879 101.422 128.354 100.667C128.217 100.51 128.143 100.36 128.11 100.295C128.109 100.292 128.108 100.289 128.106 100.286C128.053 100.224 128.007 100.155 127.97 100.081C127.934 100.01 127.905 99.968 127.881 99.9385C127.853 99.9032 127.823 99.872 127.752 99.8016C127.647 99.6965 127.568 99.5703 127.518 99.433C127.508 99.4225 127.496 99.4107 127.482 99.3969L127.077 98.9921C126.767 98.6822 126.619 98.5512 126.526 98.5045L125.916 98.2C125.605 98.1714 125.377 98.03 125.287 97.97C125.274 97.9611 125.261 97.9523 125.249 97.9436ZM126.268 96.2107C126.227 96.1865 126.185 96.1652 126.141 96.1469C124.287 95.3753 122.201 95.3934 119.96 95.9356C119.853 95.9369 119.719 95.9426 119.581 95.9656C119.383 95.9986 119.205 96.0596 119.028 96.1427C118.134 96.4493 117.016 97.0136 116.074 97.5509L116.056 97.5617C114.63 98.4161 113.228 99.5397 111.858 100.771C109.862 102.482 108.183 104.73 106.683 107.045C106.53 107.275 106.382 107.534 106.254 107.757L106.245 107.773C106.106 108.016 105.988 108.221 105.876 108.389C105.864 108.407 105.852 108.426 105.841 108.445C103.928 111.771 103.548 115.105 104.625 117.339C105.178 118.486 106.123 119.336 107.392 119.633C108.636 119.924 110.046 119.65 111.505 118.865C111.514 118.86 111.524 118.854 111.534 118.849L131.258 107.38C131.566 107.201 131.756 106.871 131.756 106.515V105.031C131.756 104.854 131.709 104.683 131.622 104.532C131.622 104.53 131.622 104.527 131.622 104.524C131.621 104.478 131.621 104.427 131.621 104.356C131.621 104.057 131.543 103.825 131.506 103.717C131.505 103.712 131.503 103.707 131.502 103.702C131.493 103.678 131.488 103.661 131.485 103.651C131.483 103.601 131.478 103.552 131.469 103.503C131.187 101.954 130.747 100.574 129.948 99.4569C129.93 99.4325 129.912 99.409 129.892 99.3864C129.891 99.3837 129.89 99.3808 129.888 99.3778C129.86 99.3209 129.8 99.2008 129.696 99.0672C129.575 98.8513 129.452 98.6929 129.342 98.5702C129.285 98.445 129.219 98.3503 129.174 98.2912C129.079 98.1647 128.966 98.0519 128.907 97.9933C128.903 97.9892 128.899 97.9853 128.895 97.9817L128.49 97.577C128.476 97.5633 128.462 97.5489 128.447 97.534C128.213 97.2991 127.84 96.9251 127.42 96.7152L126.609 96.3104C126.502 96.257 126.387 96.2233 126.268 96.2107Z" fill="#54DF6C"/>
<path d="M106.438 118.119L95.6296 112.047C95.7647 112.182 106.032 117.984 106.438 118.119Z" fill="#E0F7FF"/>
<path fill-rule="evenodd" clip-rule="evenodd" d="M94.8325 111.443C95.1343 111.045 95.6838 110.931 96.1194 111.175L106.927 117.247C107.377 117.5 107.561 118.052 107.352 118.524C107.144 118.995 106.611 119.231 106.122 119.068C106.012 119.031 105.875 118.961 105.804 118.925L105.795 118.92C105.689 118.866 105.551 118.793 105.389 118.706C105.064 118.531 104.625 118.291 104.113 118.007C103.088 117.441 101.76 116.697 100.441 115.954C99.123 115.212 97.8122 114.468 96.8219 113.902C96.3271 113.619 95.9105 113.379 95.6122 113.205C95.4637 113.118 95.3412 113.046 95.252 112.992C95.2081 112.966 95.1672 112.941 95.1333 112.919C95.117 112.909 95.0959 112.895 95.0742 112.88C95.0636 112.873 95.0472 112.861 95.0283 112.847L95.0279 112.846C95.0159 112.837 94.9719 112.804 94.923 112.755C94.5694 112.402 94.5308 111.842 94.8325 111.443Z" fill="#54DF6C"/>
<path d="M95.4945 111.912C93.7382 110.428 93.6031 106.785 95.7647 102.872C97.6561 99.4988 100.223 96.3954 103.06 94.2365C104.006 93.5619 104.816 92.8872 105.762 92.3475C109.95 89.9188 113.598 89.9188 116.165 91.6729L116.435 91.8078L120.623 94.2365L125.892 97.205C125.892 97.205 125.757 97.205 125.622 97.0701C124.001 96.3954 122.109 96.2605 119.948 96.9351C119.677 96.9351 119.542 97.0701 119.272 97.0701C118.326 97.3399 117.381 97.7447 116.435 98.4194C115.084 99.229 113.598 100.308 112.382 101.523C112.382 101.523 101.574 111.238 106.167 118.119L95.4945 111.912Z" fill="#E0F7FF"/>
<path fill-rule="evenodd" clip-rule="evenodd" d="M115.601 92.4985C113.455 91.0321 110.242 90.9055 106.264 93.2126L106.258 93.216C105.65 93.563 105.129 93.9515 104.532 94.3966C104.26 94.5994 103.972 94.8139 103.654 95.0415C100.949 97.1032 98.4718 100.09 96.6385 103.358C95.6227 105.198 95.1751 106.925 95.1603 108.314C95.1458 109.672 95.5387 110.599 96.081 111.097L104.16 115.795C103.567 112.576 105.067 109.24 106.713 106.697C107.817 104.989 109.065 103.514 110.031 102.469C110.515 101.946 110.932 101.527 111.229 101.237C111.378 101.092 111.497 100.98 111.579 100.902C111.621 100.864 111.653 100.834 111.676 100.813L111.692 100.798C112.966 99.5296 114.5 98.4161 115.887 97.5818C116.93 96.844 117.973 96.4009 118.998 96.1084C119.077 96.0857 119.159 96.073 119.242 96.0705C119.252 96.0674 119.269 96.0622 119.294 96.0538C119.298 96.0523 119.303 96.0507 119.308 96.049C119.394 96.0203 119.556 95.966 119.768 95.9444C120.21 95.8114 120.644 95.7089 121.069 95.6353L120.121 95.1017L115.96 92.6885L115.718 92.5675C115.677 92.5472 115.638 92.5241 115.601 92.4985ZM125.108 97.9409C125.239 98.0345 125.371 98.0968 125.492 98.1369C125.58 98.1663 125.66 98.1833 125.727 98.1929C125.761 98.1977 125.792 98.2007 125.819 98.2025C125.833 98.2034 125.846 98.2041 125.858 98.2044L125.876 98.2049L125.884 98.205L125.888 98.205L125.89 98.205C125.89 98.205 125.892 98.205 125.892 97.205L125.892 98.205C126.347 98.205 126.744 97.8985 126.859 97.4588C126.975 97.0191 126.779 96.5569 126.383 96.3338L121.119 93.3684L116.937 90.9427C116.919 90.9323 116.9 90.9224 116.882 90.9132L116.671 90.8077C113.689 88.8076 109.632 88.9486 105.263 91.4807C104.546 91.8905 103.872 92.3926 103.23 92.8713C102.975 93.0611 102.725 93.2472 102.479 93.4225C102.471 93.4284 102.463 93.4345 102.455 93.4407C99.4908 95.6959 96.839 98.9112 94.8924 102.383L94.8893 102.389C93.7445 104.461 93.1794 106.511 93.1604 108.292C93.1416 110.056 93.6652 111.676 94.849 112.676C94.8935 112.714 94.9413 112.747 94.9917 112.777L105.665 118.984C106.067 119.218 106.577 119.143 106.896 118.804C107.215 118.465 107.257 117.951 106.999 117.564C105.073 114.679 106.282 111.045 108.392 107.784C109.415 106.203 110.582 104.819 111.499 103.827C111.957 103.333 112.348 102.939 112.624 102.67C112.762 102.536 112.871 102.433 112.944 102.365C112.981 102.33 113.008 102.305 113.026 102.288L113.046 102.271L113.05 102.267C113.063 102.255 113.076 102.243 113.089 102.23C114.233 101.088 115.649 100.056 116.949 99.2771C116.972 99.2635 116.994 99.2489 117.016 99.2334C117.819 98.6601 118.623 98.3052 119.443 98.0617C119.659 98.0407 119.825 97.9853 119.911 97.9562C119.916 97.9545 119.921 97.9529 119.926 97.9514C119.951 97.943 119.968 97.9378 119.978 97.9347C120.069 97.9319 120.159 97.9168 120.246 97.8897C122.137 97.2994 123.744 97.4068 125.108 97.9409Z" fill="#54DF6C"/>
</svg>
