<svg width="375" height="543" viewBox="0 0 375 543" fill="none" xmlns="http://www.w3.org/2000/svg">
<mask id="mask0" mask-type="alpha" maskUnits="userSpaceOnUse" x="0" y="40" width="375" height="502">
<rect y="40" width="375" height="502" fill="white"/>
</mask>
<g mask="url(#mask0)">
<rect x="-42" y="171.383" width="20" height="590.835" transform="rotate(-45 -42 171.383)" fill="#F2F3F7"/>
<rect x="281.984" y="214" width="20" height="468.082" rx="10" transform="rotate(45 281.984 214)" fill="#F2F3F7"/>
<rect x="348.034" y="-71" width="20" height="628.101" transform="rotate(45 348.034 -71)" fill="#F2F3F7"/>
<rect x="-14" y="38.9597" width="20" height="673.84" transform="rotate(-45 -14 38.9597)" fill="#F2F3F7"/>
<rect x="196" y="-46.8579" width="20" height="548.67" transform="rotate(-45 196 -46.8579)" fill="#F2F3F7"/>
</g>
<rect width="375" height="210" fill="url(#paint0_linear)"/>
<rect x="375" y="543" width="375" height="210" transform="rotate(-180 375 543)" fill="url(#paint1_linear)"/>
<circle opacity="0.5" cx="269.5" cy="242" r="21" fill="#54DF6C"/>
<circle cx="269.5" cy="242" r="14" fill="#54DF6C"/>
<path d="M271.186 232L263.5 242.8H267.872L266.814 250L274.5 239.2H270.128L271.186 232Z" fill="white"/>
<circle opacity="0.5" cx="94" cy="207" r="14" fill="#54DF6C"/>
<circle cx="94" cy="207" r="9" fill="#54DF6C"/>
<path d="M95.5024 200L90 208.4H93.1298L92.3726 214L97.875 205.6H94.7452L95.5024 200Z" fill="white"/>
<circle opacity="0.5" cx="81" cy="308" r="17" fill="#54DF6C"/>
<circle cx="81" cy="308" r="11" fill="#54DF6C"/>
<path d="M82.5024 301L77 309.4H80.1298L79.3726 315L84.875 306.6H81.7452L82.5024 301Z" fill="white"/>
<circle opacity="0.5" cx="300" cy="369" r="17" fill="#54DF6C"/>
<circle cx="300" cy="369" r="11" fill="#54DF6C"/>
<path d="M301.502 362L296 370.4H299.13L298.373 376L303.875 367.6H300.745L301.502 362Z" fill="white"/>
<path d="M213 413.5L159.536 360.036C157.583 358.083 157.583 354.917 159.536 352.964L255 257.5" stroke="url(#paint2_linear)" stroke-width="4"/>
<circle opacity="0.2" cx="214.5" cy="414" r="14" fill="#89DF54"/>
<circle cx="214.5" cy="414" r="9.05882" fill="#89DF54"/>
<defs>
<linearGradient id="paint0_linear" x1="187.5" y1="0" x2="187.5" y2="210" gradientUnits="userSpaceOnUse">
<stop stop-color="white"/>
<stop offset="1" stop-color="white" stop-opacity="0"/>
</linearGradient>
<linearGradient id="paint1_linear" x1="562.5" y1="543" x2="562.5" y2="753" gradientUnits="userSpaceOnUse">
<stop stop-color="white"/>
<stop offset="1" stop-color="white" stop-opacity="0"/>
</linearGradient>
<linearGradient id="paint2_linear" x1="233.5" y1="450.5" x2="238.5" y2="257" gradientUnits="userSpaceOnUse">
<stop stop-color="#89DF54"/>
<stop offset="1" stop-color="#54DF6C"/>
</linearGradient>
</defs>
</svg>
