<svg width="16" height="14" viewBox="0 0 16 14" fill="none" xmlns="http://www.w3.org/2000/svg">
<path fill-rule="evenodd" clip-rule="evenodd" d="M0 1C0 0.447715 0.447715 0 1 0H15C15.5523 0 16 0.447715 16 1C16 1.55228 15.5523 2 15 2H1C0.447715 2 0 1.55228 0 1ZM0 7C0 6.44772 0.447715 6 1 6H7C7.55228 6 8 6.44772 8 7C8 7.55228 7.55228 8 7 8H1C0.447715 8 0 7.55228 0 7ZM0 13C0 12.4477 0.447715 12 1 12H11C11.5523 12 12 12.4477 12 13C12 13.5523 11.5523 14 11 14H1C0.447715 14 0 13.5523 0 13Z" fill="#28272C"/>
</svg>
