<svg width="23" height="23" viewBox="0 0 23 23" fill="none" xmlns="http://www.w3.org/2000/svg">
<path fill-rule="evenodd" clip-rule="evenodd" d="M12.3931 6.07811C9.13536 5.41352 6.2998 7.91429 6.2998 10.9997C6.2998 13.1529 7.71001 14.988 9.62833 15.6552C10.0304 15.795 10.2998 16.174 10.2998 16.5997V19.9997C10.2998 20.5474 10.7521 20.9997 11.2998 20.9997C11.8475 20.9997 12.2998 20.5474 12.2998 19.9997V16.6997C12.2998 16.2693 12.5752 15.8871 12.9836 15.751C15.2006 15.012 16.719 12.6075 16.2202 10.001C15.7952 8.06656 14.2806 6.49094 12.3931 6.07811ZM4.2998 10.9997C4.2998 6.68692 8.26088 3.18884 12.8007 4.12009L12.8122 4.12245L12.8122 4.12252C15.5184 4.71082 17.599 6.92871 18.177 9.58726L18.1816 9.60967C18.8251 12.9345 17.0871 16.0883 14.2998 17.3772V19.9997C14.2998 21.652 12.9521 22.9997 11.2998 22.9997C9.64752 22.9997 8.2998 21.652 8.2998 19.9997V17.27C5.96408 16.1696 4.2998 13.7862 4.2998 10.9997Z" fill="#54DF6C"/>
<path fill-rule="evenodd" clip-rule="evenodd" d="M11.2998 0C11.8521 0 12.2998 0.447715 12.2998 1V2C12.2998 2.55228 11.8521 3 11.2998 3C10.7475 3 10.2998 2.55228 10.2998 2V1C10.2998 0.447715 10.7475 0 11.2998 0Z" fill="#54DF6C"/>
<path fill-rule="evenodd" clip-rule="evenodd" d="M2.5927 3.29289C2.98322 2.90237 3.61639 2.90237 4.00691 3.29289L5.00691 4.29289C5.39744 4.68342 5.39744 5.31658 5.00691 5.70711C4.61639 6.09763 3.98322 6.09763 3.5927 5.70711L2.5927 4.70711C2.20217 4.31658 2.20217 3.68342 2.5927 3.29289Z" fill="#54DF6C"/>
<path fill-rule="evenodd" clip-rule="evenodd" d="M20.0069 3.29289C20.3974 3.68342 20.3974 4.31658 20.0069 4.70711L19.0069 5.70711C18.6164 6.09763 17.9832 6.09763 17.5927 5.70711C17.2022 5.31658 17.2022 4.68342 17.5927 4.29289L18.5927 3.29289C18.9832 2.90237 19.6164 2.90237 20.0069 3.29289Z" fill="#54DF6C"/>
<path fill-rule="evenodd" clip-rule="evenodd" d="M19.2002 11C19.2002 10.4477 19.6479 10 20.2002 10H21.6002C22.1525 10 22.6002 10.4477 22.6002 11C22.6002 11.5523 22.1525 12 21.6002 12H20.2002C19.6479 12 19.2002 11.5523 19.2002 11Z" fill="#54DF6C"/>
<path fill-rule="evenodd" clip-rule="evenodd" d="M0 11C0 10.4477 0.447715 10 1 10H2.4C2.95228 10 3.4 10.4477 3.4 11C3.4 11.5523 2.95228 12 2.4 12H1C0.447715 12 0 11.5523 0 11Z" fill="#54DF6C"/>
</svg>
