<svg width="58" height="58" viewBox="0 0 58 58" fill="none" xmlns="http://www.w3.org/2000/svg">
<g filter="url(#filter0_d)">
<circle cx="29" cy="25" r="25" fill="white"/>
</g>
<path d="M29 26C28.5 26 28 25.5 28 25M29 26C29.5 26 30 25.5 30 25M29 26C29.5523 26 30 25.5523 30 25M29 26C28.4477 26 28 25.5523 28 25M29 26V25M28 25C28 24.5 28.5 24 29 24M28 25C28 24.4477 28.4477 24 29 24M28 25H29M29 24C29.5 24 30 24.5 30 25M29 24C29.5523 24 30 24.4477 30 25M29 24V25M30 25H29M40 25H38M20 25H18M29 36V34M29 16V14M29 19C25.7 19 23 21.7 23 25C23 28.3 25.7 31 29 31C32.3 31 35 28.3 35 25C35 21.7 32.3 19 29 19Z" stroke="#54DF6C" stroke-width="2" stroke-miterlimit="10" stroke-linecap="round" stroke-linejoin="round"/>
<defs>
<filter id="filter0_d" x="0" y="0" width="58" height="58" filterUnits="userSpaceOnUse" color-interpolation-filters="sRGB">
<feFlood flood-opacity="0" result="BackgroundImageFix"/>
<feColorMatrix in="SourceAlpha" type="matrix" values="0 0 0 0 0 0 0 0 0 0 0 0 0 0 0 0 0 0 127 0"/>
<feOffset dy="4"/>
<feGaussianBlur stdDeviation="2"/>
<feColorMatrix type="matrix" values="0 0 0 0 0 0 0 0 0 0 0 0 0 0 0 0 0 0 0.25 0"/>
<feBlend mode="normal" in2="BackgroundImageFix" result="effect1_dropShadow"/>
<feBlend mode="normal" in="SourceGraphic" in2="effect1_dropShadow" result="shape"/>
</filter>
</defs>
</svg>
