<svg width="227" height="205" viewBox="0 0 227 205" fill="none" xmlns="http://www.w3.org/2000/svg">
<path d="M27.0312 60.8418C24.3995 59.5587 21.2121 60.6472 20.0681 63.3423C15.0293 75.2135 12.2925 87.952 12.0222 100.878C11.7149 115.573 14.6027 130.159 20.4861 143.628C26.3694 157.098 35.1079 169.128 46.0973 178.889C55.7637 187.474 66.9688 194.123 79.1019 198.494C81.8565 199.486 84.821 197.887 85.6681 195.084C86.5152 192.282 84.9232 189.338 82.1747 188.329C71.509 184.413 61.6565 178.527 53.1383 170.961C43.2969 162.22 35.4713 151.446 30.2025 139.384C24.9338 127.322 22.3476 114.259 22.6228 101.099C22.861 89.709 25.238 78.4809 29.6134 67.9955C30.7409 65.2934 29.663 62.125 27.0312 60.8418Z" fill="#F0F2F6"/>
<path d="M34.8457 24.3456C33.9608 23.4607 32.5243 23.4592 31.6572 24.3616C21.863 34.5548 14.0544 46.4931 8.63972 59.5654C3.22501 72.6377 0.304862 86.6009 0.0226675 100.734C-0.00231501 101.985 1.01455 103 2.26601 103C3.51746 103 4.52951 101.985 4.55553 100.734C4.83708 87.1961 7.63971 73.8221 12.8267 61.2997C18.0136 48.7773 25.4887 37.3387 34.8624 27.5668C35.7287 26.6637 35.7306 25.2305 34.8457 24.3456Z" fill="url(#paint0_linear)"/>
<path d="M222.594 124.713C223.822 124.957 225.017 124.161 225.237 122.929C228.342 105.518 227.338 87.6122 222.29 70.6413C217.242 53.6703 208.297 38.126 196.181 25.2432C195.324 24.3315 193.887 24.3176 192.993 25.193C192.098 26.0684 192.085 27.5015 192.942 28.4139C204.542 40.7693 213.108 55.6689 217.946 71.9333C222.784 88.1977 223.753 105.357 220.791 122.044C220.572 123.276 221.367 124.469 222.594 124.713Z" fill="#F0F2F6"/>
<path d="M168.026 48.474C169.021 47.4787 169.024 45.8617 167.998 44.8987C161.318 38.6339 153.609 33.5675 145.208 29.9225C143.917 29.3622 142.434 30.0063 141.915 31.3148C141.396 32.6234 142.039 34.1005 143.329 34.6636C151.084 38.0488 158.207 42.7296 164.391 48.5051C165.42 49.4658 167.031 49.4693 168.026 48.474Z" fill="#F0F2F6"/>
<path d="M206.858 79.7957C209.699 79.0894 211.444 76.2084 210.59 73.4076C206.83 61.0716 200.749 49.5489 192.656 39.4663C183.456 28.0037 171.876 18.6761 158.717 12.1283C145.558 5.58043 131.134 1.96865 116.442 1.54265C103.519 1.16793 90.6594 3.26595 78.5517 7.70637C75.8029 8.71451 74.5568 11.8436 75.707 14.5361C76.8573 17.2286 79.9681 18.4632 82.723 17.4719C93.4136 13.6249 104.746 11.8109 116.134 12.1411C129.292 12.5226 142.209 15.7571 153.993 21.6209C165.778 27.4848 176.148 35.838 184.387 46.1032C191.519 54.9881 196.906 65.122 200.285 75.9697C201.156 78.7651 204.017 80.5019 206.858 79.7957Z" fill="#F0F2F6"/>
<path d="M177.25 171.75C177.25 171.75 168.833 179.481 162.5 183C155.898 186.668 144.375 189.75 144.375 189.75C141.408 189.75 118.711 168.9 116.52 166.883L102.778 154.463C100.587 152.492 94.013 149.283 88.5804 146.854C86.3434 145.846 84.2891 144.471 82.5087 142.821C80.1347 140.575 78.2174 137.825 77.0304 134.663L115.835 37.5875L126.426 42.9042C127.111 43.225 127.75 43.5917 128.389 44.0042C133.593 47.2125 137.611 52.1167 139.665 57.9834L149.343 85.5292C152.859 95.5209 153.361 106.338 150.759 116.65L149.435 121.967C147.837 128.292 149.709 134.983 154.274 139.567L179.2 164.592C181.163 166.563 180.875 169.25 177.25 171.75Z" fill="#E1E4EE"/>
<path d="M128.389 44.0042V131.729C128.389 137.871 123.778 142.821 118.117 142.821H82.5087C80.1347 140.575 78.2174 137.825 77.0304 134.663L115.835 37.5875L126.426 42.9042C127.065 43.225 127.75 43.5917 128.389 44.0042Z" fill="#B9BFD8"/>
<path d="M124.389 19.7583L118.044 65.3625L124.389 114.817V123.617C124.389 129.758 119.778 134.708 114.117 134.708H61.1609C55.5 134.708 50.8892 129.758 50.8892 123.617V114.679L57.6457 65.3625L50.8892 19.6667V11.1875C50.8892 5.04583 55.5 0.0958252 61.1609 0.0958252H114.117C119.778 0.0958252 124.389 5.04583 124.389 11.1875V19.7583Z" fill="#47C05C"/>
<path d="M111.835 11.1875V123.571C111.835 129.712 107.224 134.662 101.563 134.662H61.1609C55.5 134.662 50.8892 129.712 50.8892 123.571V114.633L57.6457 65.3167L50.8892 19.6667V11.1875C50.8892 5.04583 55.5 0.0958252 61.1609 0.0958252H101.563C107.224 0.141659 111.835 5.09166 111.835 11.1875Z" fill="#54DF6C"/>
<path d="M124.389 19.6666H50.8892V114.633H124.389V19.6666Z" fill="#F0F2F7"/>
<path d="M111.835 19.6666H50.8892V114.633H111.835V19.6666Z" fill="#F5F6F9"/>
<path d="M90.863 95.7042C93.7391 92.8167 98.3499 92.4958 101.591 95.0167L143.135 121.096V155.792L90.863 107.254C87.713 104.046 87.713 98.8667 90.863 95.7042Z" fill="#E1E4EE"/>
<path d="M94.2588 127.192H80.974C79.5131 127.192 78.3262 126 78.3262 124.533C78.3262 123.067 79.5131 121.875 80.974 121.875H94.2588C95.7196 121.875 96.9066 123.067 96.9066 124.533C96.9066 126 95.7196 127.192 94.2588 127.192Z" fill="white" fill-opacity="0.4"/>
<path d="M92.3412 12.5625H82.8912C81.4304 12.5625 80.2434 11.3709 80.2434 9.90418C80.2434 8.43752 81.4304 7.24585 82.8912 7.24585H92.3869C93.8478 7.24585 95.0347 8.43752 95.0347 9.90418C94.9891 11.3709 93.8021 12.5625 92.3412 12.5625Z" fill="white" fill-opacity="0.4"/>
<path d="M109.735 9.90417C109.735 11.4625 108.457 12.7 106.95 12.7C105.398 12.7 104.165 11.4167 104.165 9.90417C104.165 8.34583 105.444 7.0625 106.95 7.0625C108.502 7.0625 109.735 8.34583 109.735 9.90417Z" fill="#54DF6C"/>
<path d="M104.511 198.778C104.237 201.693 106.379 204.292 109.304 204.413C122.189 204.946 135.075 203.02 147.267 198.718C161.128 193.829 173.762 185.987 184.295 175.735C194.827 165.483 203.008 153.066 208.271 139.343C212.9 127.271 215.174 114.442 214.99 101.547C214.948 98.6196 212.407 96.4084 209.486 96.6031C206.564 96.7978 204.37 99.3249 204.394 102.253C204.487 113.614 202.45 124.909 198.371 135.546C193.658 147.836 186.332 158.956 176.899 168.137C167.467 177.318 156.153 184.34 143.74 188.719C132.996 192.51 121.65 194.241 110.296 193.841C107.37 193.737 104.784 195.863 104.511 198.778Z" fill="url(#paint1_linear)"/>
<path fill-rule="evenodd" clip-rule="evenodd" d="M111.622 43.7786C112.793 44.9502 112.793 46.8496 111.622 48.0212L89.6218 70.0212C88.4502 71.1928 86.5507 71.1928 85.3792 70.0212L74.3792 59.0212C73.2076 57.8496 73.2076 55.9502 74.3792 54.7786C75.5507 53.607 77.4502 53.607 78.6218 54.7786L87.5005 63.6573L107.379 43.7786C108.551 42.607 110.45 42.607 111.622 43.7786Z" fill="#54DF6C"/>
<path d="M98.926 42.6051C99.7296 41.2774 99.3096 39.534 97.9019 38.8806C93.6119 36.8896 88.8358 36.1172 84.1029 36.678C78.436 37.3495 73.1555 39.894 69.0991 43.9078C65.0427 47.9217 62.4426 53.175 61.7113 58.8345C60.98 64.4941 62.1593 70.2358 65.0622 75.1489C67.9651 80.062 72.4254 83.8651 77.7355 85.9551C83.0456 88.045 88.9015 88.3021 94.3744 86.6855C99.8472 85.0689 104.624 81.6713 107.946 77.0315C110.721 73.1565 112.348 68.6004 112.674 63.8821C112.781 62.3338 111.457 61.1248 109.906 61.1881C108.355 61.2513 107.17 62.565 107.015 64.1093C106.669 67.5727 105.422 70.9031 103.376 73.7595C100.783 77.3813 97.0544 80.0336 92.7823 81.2955C88.5101 82.5574 83.9389 82.3567 79.7938 80.7253C75.6487 79.0939 72.167 76.1251 69.9009 72.2899C67.6349 68.4547 66.7143 63.9727 67.2852 59.5548C67.856 55.1369 69.8857 51.0361 73.0522 47.9029C76.2186 44.7696 80.3406 42.7834 84.7643 42.2592C88.253 41.8458 91.7718 42.3604 94.9727 43.7277C96.4 44.3373 98.1225 43.9329 98.926 42.6051Z" fill="#54DF6C"/>
<defs>
<linearGradient id="paint0_linear" x1="0.0222168" y1="63.3417" x2="35.5108" y2="63.3417" gradientUnits="userSpaceOnUse">
<stop stop-color="#54DF6C"/>
<stop offset="1" stop-color="#54DF83"/>
</linearGradient>
<linearGradient id="paint1_linear" x1="104.487" y1="150.546" x2="215" y2="150.546" gradientUnits="userSpaceOnUse">
<stop stop-color="#54DF6C"/>
<stop offset="1" stop-color="#54DF83"/>
</linearGradient>
</defs>
</svg>
