<svg width="165" height="41" viewBox="0 0 165 41" fill="none" xmlns="http://www.w3.org/2000/svg">
<path d="M23.9003 16.6485C23.9003 15.406 24.7903 14.7434 25.7612 14.7434H30.2113C33.4477 14.7434 35.6323 16.8141 35.6323 19.8788C35.6323 22.2808 34.1759 24.103 31.9104 24.5171L35.0659 28.0788C35.5514 28.6586 35.875 29.0727 35.875 29.7353C35.875 30.2323 35.3895 31.4747 34.0141 31.4747C33.0431 31.4747 32.7195 31.1434 32.234 30.5636L27.7031 24.7656H27.6221V29.4868C27.6221 30.8121 26.813 31.4747 25.7612 31.4747C24.7094 31.4747 23.9003 30.8121 23.9003 29.4868V16.6485ZM27.5412 21.8666H29.9685C31.1822 21.8666 31.8295 21.0384 31.8295 20.0444C31.8295 18.9677 31.0204 18.2222 29.9685 18.2222H27.5412V21.8666Z" fill="#231F20"/>
<path d="M40.1632 26.2566C40.1632 27.002 40.7296 28.2444 42.9951 28.2444C44.7751 28.2444 45.8269 27.0848 46.636 27.0848C47.4451 27.0848 48.0924 27.7475 48.0924 28.6586C48.0924 30.398 45.1796 31.5576 42.5096 31.5576C38.7068 31.5576 36.3604 28.6586 36.3604 25.0141C36.3604 21.5354 38.9495 18.4707 42.5096 18.4707C45.9887 18.4707 48.2542 21.4525 48.2542 24.6C48.2542 25.8424 47.6879 26.1737 46.5551 26.1737H40.1632V26.2566ZM44.6942 23.7717C44.6942 22.9434 43.8042 21.6182 42.4287 21.6182C41.0532 21.6182 40.1632 23.0263 40.1632 23.7717H44.6942Z" fill="#231F20"/>
<path d="M54.8889 18.5535C56.5071 18.5535 59.0963 19.0504 59.0963 20.9555C59.0963 21.9494 58.449 22.6121 57.6399 22.6121C56.7499 22.6121 56.5071 22.0323 55.1317 22.0323C53.3516 22.0323 52.5425 23.4403 52.5425 25.0969C52.5425 26.7535 53.4326 28.1616 54.9698 28.1616C56.5071 28.1616 57.1544 27.4989 57.7208 27.4989C58.5299 27.4989 59.1772 28.3272 59.1772 29.0727C59.1772 30.8949 56.4262 31.5575 54.9698 31.5575C51.4098 31.5575 48.9825 28.6585 48.9825 25.0141C48.9825 21.3696 51.3289 18.5535 54.8889 18.5535Z" fill="#231F20"/>
<path d="M59.9053 15.2404C59.9053 14.1636 60.6335 13.3353 61.6854 13.3353C62.7372 13.3353 63.4654 14.1636 63.4654 15.2404V19.3818H63.5463C64.2745 18.8848 65.1645 18.4707 66.54 18.4707C68.9673 18.4707 70.9091 19.7959 70.9091 22.7778V29.4868C70.9091 30.5636 70.1809 31.3919 69.1291 31.3919C68.0773 31.3919 67.3491 30.5636 67.3491 29.4868V23.7717C67.3491 22.5293 66.6209 21.6182 65.4072 21.6182C64.1936 21.6182 63.4654 22.5293 63.4654 23.7717V29.4868C63.4654 30.5636 62.7372 31.3919 61.6854 31.3919C60.6335 31.3919 59.9053 30.5636 59.9053 29.4868V15.2404Z" fill="#231F20"/>
<path d="M83.9357 29.4868C83.9357 30.5636 83.2075 31.3919 82.1557 31.3919C81.2656 31.3919 80.7802 30.8121 80.5374 30.2323C79.7283 31.2262 78.8383 31.6403 77.4629 31.6403C74.3883 31.6403 72.0419 28.7413 72.0419 25.0969C72.0419 21.4525 74.3883 18.5535 77.4629 18.5535C78.8383 18.5535 79.7283 18.9676 80.5374 19.9615C80.7802 19.3818 81.3465 18.802 82.1557 18.802C83.2075 18.802 83.9357 19.6302 83.9357 20.707V29.4868ZM75.6019 25.0969C75.6019 26.7535 76.4919 28.1615 78.0292 28.1615C79.5665 28.1615 80.4565 26.7535 80.4565 25.0969C80.4565 23.4403 79.5665 22.0323 78.0292 22.0323C76.4919 22.0323 75.6019 23.4403 75.6019 25.0969Z" fill="#231F20"/>
<path d="M85.473 20.6242C85.473 19.5475 86.2012 18.7192 87.253 18.7192C88.224 18.7192 88.7903 19.3818 89.0331 19.8788C89.5994 19.1333 90.4895 18.4707 91.4604 18.4707C92.3504 18.4707 93.2404 19.2162 93.2404 20.3758C93.2404 21.6182 92.3504 21.9495 91.0558 22.3636C89.5185 22.8606 89.0331 23.2747 89.0331 25.097V29.4869C89.0331 30.5636 88.3049 31.3919 87.253 31.3919C86.2012 31.3919 85.473 30.5636 85.473 29.4869V20.6242Z" fill="#231F20"/>
<path d="M104.891 30.0667C104.891 34.705 101.979 36.4444 98.4996 36.4444C96.6386 36.4444 93.2404 35.699 93.2404 33.7939C93.2404 32.9656 94.0495 32.2202 94.6968 32.2202C95.7486 32.2202 96.3959 33.297 98.4187 33.297C100.603 33.297 101.331 32.1374 101.331 30.0667H101.251C100.441 31.1434 99.2278 31.4747 98.0141 31.4747C94.6159 31.4747 92.9167 28.4101 92.9167 25.1798C92.9167 21.5353 95.2632 18.6364 98.3377 18.6364C99.7132 18.6364 100.603 19.0505 101.412 20.0444C101.655 19.4646 102.221 18.8848 103.031 18.8848C104.082 18.8848 104.811 19.7131 104.811 20.7899V30.0667H104.891ZM98.985 22.0323C97.4477 22.0323 96.5577 23.4404 96.5577 25.097C96.5577 26.8364 97.4477 28.2444 98.985 28.2444C100.522 28.2444 101.412 26.9192 101.412 25.097C101.412 23.4404 100.522 22.0323 98.985 22.0323Z" fill="#231F20"/>
<path d="M109.827 26.2566C109.827 27.002 110.393 28.2444 112.659 28.2444C114.439 28.2444 115.491 27.0848 116.3 27.0848C117.109 27.0848 117.756 27.7475 117.756 28.6586C117.756 30.398 114.843 31.5576 112.173 31.5576C108.371 31.5576 106.024 28.6586 106.024 25.0141C106.024 21.5354 108.613 18.4707 112.173 18.4707C115.652 18.4707 117.918 21.4525 117.918 24.6C117.918 25.8424 117.352 26.1737 116.219 26.1737H109.827V26.2566ZM114.358 23.7717C114.358 22.9434 113.468 21.6182 112.092 21.6182C110.717 21.6182 109.827 23.0263 109.827 23.7717H114.358Z" fill="#231F20"/>
<path d="M119.132 16.5656C119.132 15.2404 119.941 14.5778 120.993 14.5778C121.964 14.5778 122.287 14.9919 123.501 16.5656L129.569 24.3515H129.65V16.5656C129.65 15.2404 130.459 14.5778 131.511 14.5778C132.563 14.5778 133.372 15.2404 133.372 16.5656V29.404C133.372 30.7293 132.563 31.3919 131.511 31.3919C130.54 31.3919 130.135 30.9778 129.003 29.404L122.934 21.6182H122.854V29.4868C122.854 30.8121 122.044 31.4747 120.993 31.4747C119.941 31.4747 119.132 30.8121 119.132 29.4868V16.5656Z" fill="#54DF6C"/>
<path d="M146.479 25.0969C146.479 28.7413 144.133 31.6403 140.492 31.6403C136.851 31.6403 134.505 28.7413 134.505 25.0969C134.505 21.4525 136.851 18.5535 140.492 18.5535C144.133 18.5535 146.479 21.4525 146.479 25.0969ZM138.065 25.0969C138.065 26.7535 138.955 28.1615 140.492 28.1615C142.029 28.1615 142.919 26.7535 142.919 25.0969C142.919 23.4403 142.029 22.0323 140.492 22.0323C138.955 22.0323 138.065 23.4403 138.065 25.0969Z" fill="#54DF6C"/>
<path d="M147.208 22.5293C146.884 21.701 146.722 21.1212 146.641 20.5414C146.641 19.6303 147.288 18.802 148.421 18.802C149.23 18.802 149.878 19.299 150.12 20.0444L151.819 25.9252H151.9L153.519 20.8727C153.842 19.9616 154.166 18.802 155.46 18.802C156.755 18.802 157.079 19.8788 157.402 20.8727L159.02 25.9252H159.101L160.8 20.0444C161.043 19.2161 161.61 18.802 162.5 18.802C163.713 18.802 164.28 19.6303 164.28 20.5414C164.199 21.204 164.037 21.7838 163.713 22.5293L161.205 29.5697C160.8 30.7293 160.234 31.3919 159.02 31.3919C157.726 31.3919 157.321 30.7293 156.917 29.4868L155.541 25.1798H155.46L154.085 29.4868C153.68 30.7293 153.276 31.3919 151.981 31.3919C150.768 31.3919 150.201 30.8121 149.797 29.5697L147.208 22.5293Z" fill="#54DF6C"/>
<path d="M20.9874 41H7.15179C3.75355 41 0.921692 38.1839 0.921692 34.6223V9.77377C0.921692 6.29499 3.67264 3.396 7.15179 3.396H20.9874C24.3857 3.396 27.2175 6.21216 27.2175 9.77377C27.2175 10.6849 26.4893 11.4303 25.5993 11.4303C24.7093 11.4303 23.9811 10.6849 23.9811 9.77377C23.9811 8.11721 22.6866 6.70913 20.9874 6.70913H7.15179C5.53358 6.70913 4.1581 8.03438 4.1581 9.77377V34.6223C4.1581 36.2788 5.45267 37.6869 7.15179 37.6869H20.9874C21.8775 37.6869 23.9811 37.4384 23.9811 35.4505C23.9811 34.5394 24.7093 33.794 25.5993 33.794C26.4893 33.794 27.2175 34.5394 27.2175 35.4505C27.1366 38.7637 24.6284 41 20.9874 41Z" fill="#54DF6C"/>
<path d="M18.8838 5.79798H9.17456V2.31919C9.17456 1.07677 10.2264 0 11.44 0H16.5374C17.832 0 18.8029 1.07677 18.8029 2.31919V5.79798H18.8838Z" fill="#54DF6C"/>
<path d="M16.6183 12.4242L7.79907 24.103H12.8155L11.6019 31.8888L20.4211 20.2101H15.4046L16.6183 12.4242Z" fill="#54DF6C"/>
</svg>
