<svg width="22" height="18" viewBox="0 0 22 18" fill="none" xmlns="http://www.w3.org/2000/svg">
<path fill-rule="evenodd" clip-rule="evenodd" d="M0 3C0 1.34772 1.34772 0 3 0H19C20.6523 0 22 1.34772 22 3V6C22 6.55228 21.5523 7 21 7C19.8523 7 19 7.85228 19 9C19 10.1477 19.8523 11 21 11C21.5523 11 22 11.4477 22 12V15C22 16.6523 20.6523 18 19 18H3C1.34772 18 0 16.6523 0 15V12C0 11.4477 0.447715 11 1 11C2.14772 11 3 10.1477 3 9C3 7.85228 2.14772 7 1 7C0.447715 7 0 6.55228 0 6V3ZM3 2C2.45228 2 2 2.45228 2 3V5.11978C3.74908 5.55019 5 7.09452 5 9C5 10.9055 3.74908 12.4498 2 12.8802V15C2 15.5477 2.45228 16 3 16H19C19.5477 16 20 15.5477 20 15V12.8802C18.2509 12.4498 17 10.9055 17 9C17 7.09452 18.2509 5.55019 20 5.11978V3C20 2.45228 19.5477 2 19 2H3Z" fill="#2F2F2F"/>
<path fill-rule="evenodd" clip-rule="evenodd" d="M7 5C7 4.44772 7.44772 4 8 4H14C14.5523 4 15 4.44772 15 5C15 5.55228 14.5523 6 14 6H8C7.44772 6 7 5.55228 7 5Z" fill="#2F2F2F"/>
</svg>
