<svg width="24" height="24" viewBox="0 0 24 24" fill="none" xmlns="http://www.w3.org/2000/svg">
<path fill-rule="evenodd" clip-rule="evenodd" d="M13.0579 0.159745C13.4781 -0.11133 14.0339 -0.0303936 14.3593 0.34925L16.4922 2.83758L19.6831 3.1035C20.1707 3.14413 20.5572 3.53157 20.5968 4.01923L20.8625 7.29651L23.3348 9.32732C23.7164 9.64079 23.812 10.1859 23.5599 10.6106L21.87 13.4567L22.6702 16.6575C22.7938 17.1518 22.5259 17.66 22.0482 17.8375L18.9779 18.9779L17.8375 22.0482C17.66 22.5259 17.1518 22.7938 16.6575 22.6702L13.4567 21.87L10.6106 23.5599C10.1859 23.812 9.64079 23.7164 9.32732 23.3348L7.29651 20.8625L4.01923 20.5968C3.53157 20.5572 3.14413 20.1707 3.1035 19.6831L2.83758 16.4922L0.34925 14.3593C-0.0303936 14.0339 -0.11133 13.4781 0.159745 13.0579L1.92478 10.3221L1.1299 7.14258C1.00954 6.66116 1.26044 6.1643 1.71929 5.97536L4.73401 4.73401L5.97536 1.71929C6.1643 1.26044 6.66116 1.00954 7.14258 1.1299L10.3221 1.92478L13.0579 0.159745ZM13.4088 2.31349L11.0422 3.84034C10.8098 3.99024 10.5258 4.03725 10.2575 3.97018L7.49574 3.27974L6.42472 5.88079C6.32319 6.12737 6.12737 6.32319 5.88079 6.42472L3.27974 7.49574L3.97018 10.2575C4.03725 10.5258 3.99024 10.8098 3.84034 11.0422L2.31349 13.4088L4.45083 15.2408C4.65052 15.412 4.77475 15.6549 4.79659 15.917L5.02616 18.6719L7.88086 18.9033C8.15102 18.9252 8.40072 19.0559 8.57277 19.2653L10.3278 21.4018L12.7895 19.9402C13.0162 19.8056 13.2868 19.766 13.5426 19.8299L16.2743 20.5128L17.2626 17.8519C17.3639 17.5791 17.5791 17.3639 17.8519 17.2626L20.5128 16.2743L19.8299 13.5426C19.766 13.2868 19.8056 13.0162 19.9402 12.7895L21.4018 10.3278L19.2653 8.57277C19.0559 8.40072 18.9252 8.15102 18.9033 7.88086L18.6719 5.02616L15.917 4.79659C15.6549 4.77475 15.412 4.65052 15.2408 4.45083L13.4088 2.31349Z" fill="#2F2F2F"/>
<path fill-rule="evenodd" clip-rule="evenodd" d="M11.8999 7.8999C9.69076 7.8999 7.8999 9.69076 7.8999 11.8999C7.8999 14.109 9.69076 15.8999 11.8999 15.8999C14.109 15.8999 15.8999 14.109 15.8999 11.8999C15.8999 9.69076 14.109 7.8999 11.8999 7.8999ZM5.8999 11.8999C5.8999 8.58619 8.58619 5.8999 11.8999 5.8999C15.2136 5.8999 17.8999 8.58619 17.8999 11.8999C17.8999 15.2136 15.2136 17.8999 11.8999 17.8999C8.58619 17.8999 5.8999 15.2136 5.8999 11.8999Z" fill="#2F2F2F"/>
</svg>
