<svg width="22" height="22" viewBox="0 0 22 22" fill="none" xmlns="http://www.w3.org/2000/svg">
<path fill-rule="evenodd" clip-rule="evenodd" d="M11 2C6.02944 2 2 6.02944 2 11C2 15.9706 6.02944 20 11 20C15.9706 20 20 15.9706 20 11C20 6.02944 15.9706 2 11 2ZM0 11C0 4.92487 4.92487 0 11 0C17.0751 0 22 4.92487 22 11C22 17.0751 17.0751 22 11 22C4.92487 22 0 17.0751 0 11Z" fill="#2F2F2F"/>
<path fill-rule="evenodd" clip-rule="evenodd" d="M11 8C9.34315 8 8 9.34315 8 11C8 12.6569 9.34315 14 11 14C12.6569 14 14 12.6569 14 11C14 9.34315 12.6569 8 11 8ZM6 11C6 8.23858 8.23858 6 11 6C13.7614 6 16 8.23858 16 11C16 13.7614 13.7614 16 11 16C8.23858 16 6 13.7614 6 11Z" fill="#2F2F2F"/>
<path fill-rule="evenodd" clip-rule="evenodd" d="M8.2072 13.7929C8.59773 14.1834 8.59773 14.8166 8.2072 15.2071L5.3072 18.1071C4.91668 18.4976 4.28352 18.4976 3.89299 18.1071C3.50247 17.7166 3.50247 17.0834 3.89299 16.6929L6.79299 13.7929C7.18352 13.4024 7.81668 13.4024 8.2072 13.7929Z" fill="#2F2F2F"/>
<path fill-rule="evenodd" clip-rule="evenodd" d="M18.1071 3.89299C18.4976 4.28352 18.4976 4.91668 18.1071 5.3072L15.2071 8.2072C14.8166 8.59773 14.1834 8.59773 13.7929 8.2072C13.4024 7.81668 13.4024 7.18352 13.7929 6.79299L16.6929 3.89299C17.0834 3.50247 17.7166 3.50247 18.1071 3.89299Z" fill="#2F2F2F"/>
<path fill-rule="evenodd" clip-rule="evenodd" d="M3.89299 3.89299C4.28352 3.50247 4.91668 3.50247 5.3072 3.89299L8.2072 6.79299C8.59773 7.18352 8.59773 7.81668 8.2072 8.2072C7.81668 8.59773 7.18352 8.59773 6.79299 8.2072L3.89299 5.3072C3.50247 4.91668 3.50247 4.28352 3.89299 3.89299Z" fill="#2F2F2F"/>
<path fill-rule="evenodd" clip-rule="evenodd" d="M13.7929 13.7929C14.1834 13.4024 14.8166 13.4024 15.2071 13.7929L18.1071 16.6929C18.4976 17.0834 18.4976 17.7166 18.1071 18.1071C17.7166 18.4976 17.0834 18.4976 16.6929 18.1071L13.7929 15.2071C13.4024 14.8166 13.4024 14.1834 13.7929 13.7929Z" fill="#2F2F2F"/>
</svg>
