<svg width="22" height="22" viewBox="0 0 22 22" fill="none" xmlns="http://www.w3.org/2000/svg">
<path fill-rule="evenodd" clip-rule="evenodd" d="M2.19295 3.19282C6.49636 -1.11059 13.5296 -0.9847 17.8072 3.29282C22.0977 7.58334 22.0977 14.5165 17.8072 18.807C17.8011 18.8131 17.795 18.819 17.7888 18.8249C15.6093 20.8955 12.865 21.9999 10.0001 21.9999C9.44777 21.9999 9.00006 21.5522 9.00006 20.9999C9.00006 20.4476 9.44777 19.9999 10.0001 19.9999C12.3312 19.9999 14.5832 19.1074 16.402 17.3838C19.9024 13.8736 19.8994 8.21349 16.393 4.70703C12.8863 1.20036 7.15549 1.11117 3.65439 4.56015C3.50042 4.7611 3.34938 4.93731 3.21639 5.09246L3.20932 5.10072C3.05708 5.27833 2.92767 5.42977 2.80006 5.59992C2.46869 6.04175 1.84189 6.1313 1.40006 5.79992C0.958231 5.46855 0.868688 4.84175 1.20006 4.39992C1.3697 4.17373 1.53761 3.97785 1.68373 3.80738L1.6908 3.79913C1.84304 3.62152 1.97244 3.47008 2.10006 3.29992C2.12845 3.26207 2.15949 3.22628 2.19295 3.19282Z" fill="#2F2F2F"/>
<path fill-rule="evenodd" clip-rule="evenodd" d="M10 6C10.5523 6 11 6.44772 11 7V12H14C14.5523 12 15 12.4477 15 13C15 13.5523 14.5523 14 14 14H10C9.44772 14 9 13.5523 9 13V7C9 6.44772 9.44772 6 10 6Z" fill="#2F2F2F"/>
<path fill-rule="evenodd" clip-rule="evenodd" d="M1 1C1.55228 1 2 1.44772 2 2V5H5C5.55228 5 6 5.44772 6 6C6 6.55228 5.55228 7 5 7H1C0.447715 7 0 6.55228 0 6V2C0 1.44772 0.447715 1 1 1Z" fill="#2F2F2F"/>
</svg>
