<svg width="22" height="22" viewBox="0 0 22 22" fill="none" xmlns="http://www.w3.org/2000/svg">
<path fill-rule="evenodd" clip-rule="evenodd" d="M11 2C6.02944 2 2 6.02944 2 11C2 15.9706 6.02944 20 11 20C15.9706 20 20 15.9706 20 11C20 6.02944 15.9706 2 11 2ZM0 11C0 4.92487 4.92487 0 11 0C17.0751 0 22 4.92487 22 11C22 17.0751 17.0751 22 11 22C4.92487 22 0 17.0751 0 11Z" fill="#2F2F2F"/>
<path fill-rule="evenodd" clip-rule="evenodd" d="M11.3397 5.98709C10.0805 5.7909 9 6.78305 9 8C9 8.55228 8.55228 9 8 9C7.44772 9 7 8.55228 7 8C7 5.61833 9.11702 3.61135 11.656 4.01223L11.6644 4.01357L11.6644 4.0136C13.2805 4.28296 14.6074 5.60534 14.8837 7.21953C15.2809 9.24589 14.0561 10.9652 12.4906 11.6206C12.2202 11.7381 12 12.0318 12 12.5V14C12 14.5523 11.5523 15 11 15C10.4477 15 10 14.5523 10 14V12.5C10 11.3701 10.578 10.2643 11.7061 9.78085L11.7154 9.77687L11.7154 9.77692C12.543 9.43207 13.1123 8.56037 12.9194 7.59611C12.9173 7.58557 12.9154 7.575 12.9136 7.5644C12.7841 6.78725 12.1165 6.11852 11.3397 5.98709Z" fill="#2F2F2F"/>
<path d="M11 18C10.9 18 10.7 18 10.6 17.9C10.5 17.9 10.4 17.8 10.3 17.7C10.1 17.5 10 17.3 10 17C10 16.7 10.1 16.5 10.3 16.3C10.7 15.9 11.3 15.9 11.7 16.3C11.8 16.4 11.9 16.5 11.9 16.6C11.9 16.7 12 16.9 12 17C12 17.3 11.9 17.5 11.7 17.7C11.5 17.9 11.3 18 11 18Z" fill="black"/>
<path fill-rule="evenodd" clip-rule="evenodd" d="M10.6 17.9C10.5 17.9 10.4 17.8 10.3 17.7C10.1 17.5 10 17.3 10 17C10 16.7 10.1 16.5 10.3 16.3C10.7 15.9 11.3 15.9 11.7 16.3C11.8 16.4 11.9 16.5 11.9 16.6C11.9 16.65 11.925 16.725 11.95 16.8C11.975 16.875 12 16.95 12 17C12 17.3 11.9 17.5 11.7 17.7C11.5 17.9 11.3 18 11 18C10.9 18 10.7 18 10.6 17.9Z" fill="#2F2F2F"/>
</svg>
