<svg width="20" height="24" viewBox="0 0 20 24" fill="none" xmlns="http://www.w3.org/2000/svg">
<path fill-rule="evenodd" clip-rule="evenodd" d="M10 0C10.4061 0 10.7718 0.245542 10.9256 0.621367L19.9256 22.6214C20.0863 23.0143 19.9814 23.466 19.6639 23.7478C19.3464 24.0297 18.8855 24.0803 18.5144 23.8742L10 19.144L1.48569 23.8742C1.11455 24.0803 0.653662 24.0297 0.336155 23.7478C0.0186476 23.466 -0.0862589 23.0143 0.0744977 22.6214L9.0745 0.621367C9.22824 0.245542 9.59399 0 10 0ZM3.00389 20.7428L9.5144 17.1258C9.81642 16.9581 10.1837 16.9581 10.4857 17.1258L16.9962 20.7428L10 3.64108L3.00389 20.7428Z" fill="#54DF6C"/>
</svg>
