<svg width="68" height="228" viewBox="0 0 68 228" fill="none" xmlns="http://www.w3.org/2000/svg">
<path d="M66.6089 223.614H1.03937C0.519662 223.614 0.129883 223.184 0.129883 222.711V1.03196C0.129883 0.51593 0.562971 0.128906 1.03937 0.128906H66.6089C67.1286 0.128906 67.5184 0.558933 67.5184 1.03196V222.711C67.5184 223.184 67.1286 223.614 66.6089 223.614Z" fill="#2D2D2D"/>
<path d="M66.609 223.7H1.03941C0.476397 223.7 0 223.227 0 222.668V1.03206C0 0.473029 0.476397 0 1.03941 0H66.609C67.172 0 67.6484 0.473029 67.6484 1.03206V222.711C67.6484 223.27 67.172 223.7 66.609 223.7ZM1.03941 0.215013C0.606324 0.215013 0.216544 0.559035 0.216544 1.03206V222.711C0.216544 223.141 0.563015 223.528 1.03941 223.528H66.609C67.0421 223.528 67.4318 223.184 67.4318 222.711V1.03206C67.4318 0.602037 67.0854 0.215013 66.609 0.215013H1.03941Z" fill="#1D1D1B"/>
<path d="M67.2152 223.614H0.433045C0.259809 223.614 0.129883 223.743 0.129883 223.915V227.613C0.129883 227.785 0.259809 227.914 0.433045 227.914H67.2586C67.4318 227.914 67.5617 227.785 67.5617 227.613V223.915C67.5184 223.743 67.3885 223.614 67.2152 223.614Z" fill="#2D2D2D"/>
<path d="M67.2153 228H0.433088C0.216544 228 0 227.828 0 227.57V223.872C0 223.657 0.173235 223.442 0.433088 223.442H67.2586C67.4751 223.442 67.6917 223.614 67.6917 223.872V227.57C67.6484 227.828 67.4751 228 67.2153 228ZM0.433088 223.7C0.303162 223.7 0.216544 223.786 0.216544 223.915V227.613C0.216544 227.742 0.303162 227.828 0.433088 227.828H67.2586C67.3885 227.828 67.4751 227.742 67.4751 227.613V223.915C67.4751 223.786 67.3885 223.7 67.2586 223.7H0.433088Z" fill="#1D1D1B"/>
<path d="M67.5184 188.524H0.129926C0.0866176 188.524 0 188.481 0 188.395V126.772C0 126.729 0.0433088 126.643 0.129926 126.643H67.5618C67.6051 126.643 67.6917 126.686 67.6917 126.772V188.395C67.6484 188.481 67.6051 188.524 67.5184 188.524ZM0.216544 188.309H67.4318V126.901H0.216544V188.309Z" fill="#1D1D1B"/>
<path d="M63.7075 3.31128H3.94128C3.59481 3.31128 3.33496 3.5693 3.33496 3.91332V110.001C3.33496 110.345 3.59481 110.603 3.94128 110.603H63.7075C64.0539 110.603 64.3138 110.345 64.3138 110.001V3.91332C64.3138 3.5693 64.0539 3.31128 63.7075 3.31128Z" fill="#F2F3F7"/>
<path d="M15.9377 131.674H9.52798C8.87835 131.674 8.35864 131.158 8.35864 130.513C8.35864 129.868 8.87835 129.352 9.52798 129.352H15.8944C16.544 129.352 17.0637 129.868 17.0637 130.513C17.0637 131.158 16.544 131.674 15.9377 131.674Z" fill="#54DF6C"/>
<path d="M27.8043 131.674H21.4379C20.7883 131.674 20.2686 131.158 20.2686 130.513C20.2686 129.868 20.7883 129.352 21.4379 129.352H27.8043C28.4539 129.352 28.9736 129.868 28.9736 130.513C28.9303 131.158 28.4539 131.674 27.8043 131.674Z" fill="#54DF6C"/>
<path d="M15.9377 136.146H9.52798C8.87835 136.146 8.35864 135.63 8.35864 134.985C8.35864 134.34 8.87835 133.824 9.52798 133.824H15.8944C16.544 133.824 17.0637 134.34 17.0637 134.985C17.0637 135.63 16.544 136.146 15.9377 136.146Z" fill="#54DF6C"/>
<path d="M27.8043 136.146H21.4379C20.7883 136.146 20.2686 135.63 20.2686 134.985C20.2686 134.34 20.7883 133.824 21.4379 133.824H27.8043C28.4539 133.824 28.9736 134.34 28.9736 134.985C28.9303 135.63 28.4539 136.146 27.8043 136.146Z" fill="#54DF6C"/>
<path d="M15.9377 140.619H9.52798C8.87835 140.619 8.35864 140.103 8.35864 139.458C8.35864 138.813 8.87835 138.297 9.52798 138.297H15.8944C16.544 138.297 17.0637 138.813 17.0637 139.458C17.0637 140.103 16.544 140.619 15.9377 140.619Z" fill="#54DF6C"/>
<path d="M27.8043 140.576H21.4379C20.7883 140.576 20.2686 140.06 20.2686 139.414C20.2686 138.769 20.7883 138.253 21.4379 138.253H27.8043C28.4539 138.253 28.9736 138.769 28.9736 139.414C28.9303 140.06 28.4539 140.576 27.8043 140.576Z" fill="#54DF6C"/>
<path d="M15.9377 145.091H9.52798C8.87835 145.091 8.35864 144.575 8.35864 143.93C8.35864 143.285 8.87835 142.769 9.52798 142.769H15.8944C16.544 142.769 17.0637 143.285 17.0637 143.93C17.0637 144.575 16.544 145.091 15.9377 145.091Z" fill="#54DF6C"/>
<path d="M27.8043 145.048H21.4379C20.7883 145.048 20.2686 144.532 20.2686 143.887C20.2686 143.242 20.7883 142.726 21.4379 142.726H27.8043C28.4539 142.726 28.9736 143.242 28.9736 143.887C28.9303 144.575 28.4539 145.048 27.8043 145.048Z" fill="#54DF6C"/>
<path d="M15.9377 149.52H9.52798C8.87835 149.52 8.35864 149.004 8.35864 148.359C8.35864 147.714 8.87835 147.198 9.52798 147.198H15.8944C16.544 147.198 17.0637 147.714 17.0637 148.359C17.0637 149.004 16.544 149.52 15.9377 149.52Z" fill="#54DF6C"/>
<path d="M27.8043 149.52H21.4379C20.7883 149.52 20.2686 149.004 20.2686 148.359C20.2686 147.714 20.7883 147.198 21.4379 147.198H27.8043C28.4539 147.198 28.9736 147.714 28.9736 148.359C28.9303 149.004 28.4539 149.52 27.8043 149.52Z" fill="#54DF6C"/>
<path d="M15.9377 153.992H9.52798C8.87835 153.992 8.35864 153.476 8.35864 152.831C8.35864 152.186 8.87835 151.67 9.52798 151.67H15.8944C16.544 151.67 17.0637 152.186 17.0637 152.831C17.0637 153.519 16.544 153.992 15.9377 153.992Z" fill="#54DF6C"/>
<path d="M27.8043 153.992H21.4379C20.7883 153.992 20.2686 153.476 20.2686 152.831C20.2686 152.186 20.7883 151.67 21.4379 151.67H27.8043C28.4539 151.67 28.9736 152.186 28.9736 152.831C28.9303 153.476 28.4539 153.992 27.8043 153.992Z" fill="#54DF6C"/>
<path d="M46.0806 131.674H39.7143C39.0646 131.674 38.5449 131.158 38.5449 130.513C38.5449 129.868 39.0646 129.352 39.7143 129.352H46.0806C46.7303 129.352 47.25 129.868 47.25 130.513C47.2067 131.158 46.7303 131.674 46.0806 131.674Z" fill="#54DF6C"/>
<path d="M57.9474 131.674H51.581C50.9313 131.674 50.4116 131.158 50.4116 130.513C50.4116 129.868 50.9313 129.352 51.581 129.352H57.9474C58.597 129.352 59.1167 129.868 59.1167 130.513C59.1167 131.158 58.597 131.674 57.9474 131.674Z" fill="#54DF6C"/>
<path d="M46.0806 136.146H39.7143C39.0646 136.146 38.5449 135.63 38.5449 134.985C38.5449 134.34 39.0646 133.824 39.7143 133.824H46.0806C46.7303 133.824 47.25 134.34 47.25 134.985C47.2067 135.63 46.7303 136.146 46.0806 136.146Z" fill="#54DF6C"/>
<path d="M57.9474 136.146H51.581C50.9313 136.146 50.4116 135.63 50.4116 134.985C50.4116 134.34 50.9313 133.824 51.581 133.824H57.9474C58.597 133.824 59.1167 134.34 59.1167 134.985C59.1167 135.63 58.597 136.146 57.9474 136.146Z" fill="#54DF6C"/>
<path d="M46.0806 140.619H39.7143C39.0646 140.619 38.5449 140.103 38.5449 139.458C38.5449 138.813 39.0646 138.297 39.7143 138.297H46.0806C46.7303 138.297 47.25 138.813 47.25 139.458C47.2067 140.103 46.7303 140.619 46.0806 140.619Z" fill="#54DF6C"/>
<path d="M57.9474 140.576H51.581C50.9313 140.576 50.4116 140.06 50.4116 139.414C50.4116 138.769 50.9313 138.253 51.581 138.253H57.9474C58.597 138.253 59.1167 138.769 59.1167 139.414C59.1167 140.06 58.597 140.576 57.9474 140.576Z" fill="#54DF6C"/>
<path d="M46.0806 145.091H39.7143C39.0646 145.091 38.5449 144.575 38.5449 143.93C38.5449 143.285 39.0646 142.769 39.7143 142.769H46.0806C46.7303 142.769 47.25 143.285 47.25 143.93C47.2067 144.575 46.7303 145.091 46.0806 145.091Z" fill="#54DF6C"/>
<path d="M57.9474 145.048H51.581C50.9313 145.048 50.4116 144.532 50.4116 143.887C50.4116 143.242 50.9313 142.726 51.581 142.726H57.9474C58.597 142.726 59.1167 143.242 59.1167 143.887C59.1167 144.575 58.597 145.048 57.9474 145.048Z" fill="#54DF6C"/>
<path d="M46.0806 149.52H39.7143C39.0646 149.52 38.5449 149.004 38.5449 148.359C38.5449 147.714 39.0646 147.198 39.7143 147.198H46.0806C46.7303 147.198 47.25 147.714 47.25 148.359C47.2067 149.004 46.7303 149.52 46.0806 149.52Z" fill="#54DF6C"/>
<path d="M57.9474 149.52H51.581C50.9313 149.52 50.4116 149.004 50.4116 148.359C50.4116 147.714 50.9313 147.198 51.581 147.198H57.9474C58.597 147.198 59.1167 147.714 59.1167 148.359C59.1167 149.004 58.597 149.52 57.9474 149.52Z" fill="#54DF6C"/>
<path d="M46.0806 153.992H39.7143C39.0646 153.992 38.5449 153.476 38.5449 152.831C38.5449 152.186 39.0646 151.67 39.7143 151.67H46.0806C46.7303 151.67 47.25 152.186 47.25 152.831C47.2067 153.519 46.7303 153.992 46.0806 153.992Z" fill="#54DF6C"/>
<path d="M57.9474 153.992H51.581C50.9313 153.992 50.4116 153.476 50.4116 152.831C50.4116 152.186 50.9313 151.67 51.581 151.67H57.9474C58.597 151.67 59.1167 152.186 59.1167 152.831C59.1167 153.476 58.597 153.992 57.9474 153.992Z" fill="#54DF6C"/>
<path d="M15.9377 163.496H9.52798C8.87835 163.496 8.35864 162.98 8.35864 162.335C8.35864 161.69 8.87835 161.174 9.52798 161.174H15.8944C16.544 161.174 17.0637 161.69 17.0637 162.335C17.0637 162.98 16.544 163.496 15.9377 163.496Z" fill="#54DF6C"/>
<path d="M27.8043 163.496H21.4379C20.7883 163.496 20.2686 162.98 20.2686 162.335C20.2686 161.69 20.7883 161.174 21.4379 161.174H27.8043C28.4539 161.174 28.9736 161.69 28.9736 162.335C28.9303 162.98 28.4539 163.496 27.8043 163.496Z" fill="#54DF6C"/>
<path d="M15.9377 167.968H9.52798C8.87835 167.968 8.35864 167.452 8.35864 166.807C8.35864 166.162 8.87835 165.646 9.52798 165.646H15.8944C16.544 165.646 17.0637 166.162 17.0637 166.807C17.0637 167.452 16.544 167.968 15.9377 167.968Z" fill="#54DF6C"/>
<path d="M27.8043 167.968H21.4379C20.7883 167.968 20.2686 167.452 20.2686 166.807C20.2686 166.162 20.7883 165.646 21.4379 165.646H27.8043C28.4539 165.646 28.9736 166.162 28.9736 166.807C28.9303 167.452 28.4539 167.968 27.8043 167.968Z" fill="#54DF6C"/>
<path d="M15.9377 172.441H9.52798C8.87835 172.441 8.35864 171.925 8.35864 171.279C8.35864 170.634 8.87835 170.118 9.52798 170.118H15.8944C16.544 170.118 17.0637 170.634 17.0637 171.279C17.0637 171.925 16.544 172.441 15.9377 172.441Z" fill="#54DF6C"/>
<path d="M27.8043 172.398H21.4379C20.7883 172.398 20.2686 171.882 20.2686 171.237C20.2686 170.591 20.7883 170.075 21.4379 170.075H27.8043C28.4539 170.075 28.9736 170.591 28.9736 171.237C28.9303 171.882 28.4539 172.398 27.8043 172.398Z" fill="#54DF6C"/>
<path d="M15.9377 176.913H9.52798C8.87835 176.913 8.35864 176.397 8.35864 175.752C8.35864 175.107 8.87835 174.591 9.52798 174.591H15.8944C16.544 174.591 17.0637 175.107 17.0637 175.752C17.0637 176.397 16.544 176.913 15.9377 176.913Z" fill="#54DF6C"/>
<path d="M27.8043 176.87H21.4379C20.7883 176.87 20.2686 176.354 20.2686 175.709C20.2686 175.064 20.7883 174.548 21.4379 174.548H27.8043C28.4539 174.548 28.9736 175.064 28.9736 175.709C28.9303 176.397 28.4539 176.87 27.8043 176.87Z" fill="#54DF6C"/>
<path d="M15.9377 181.342H9.52798C8.87835 181.342 8.35864 180.826 8.35864 180.181C8.35864 179.536 8.87835 179.02 9.52798 179.02H15.8944C16.544 179.02 17.0637 179.536 17.0637 180.181C17.0637 180.826 16.544 181.342 15.9377 181.342Z" fill="#54DF6C"/>
<path d="M27.8043 181.342H21.4379C20.7883 181.342 20.2686 180.826 20.2686 180.181C20.2686 179.536 20.7883 179.02 21.4379 179.02H27.8043C28.4539 179.02 28.9736 179.536 28.9736 180.181C28.9303 180.826 28.4539 181.342 27.8043 181.342Z" fill="#54DF6C"/>
<path d="M15.9377 185.815H9.52798C8.87835 185.815 8.35864 185.299 8.35864 184.653C8.35864 184.008 8.87835 183.492 9.52798 183.492H15.8944C16.544 183.492 17.0637 184.008 17.0637 184.653C17.0637 185.342 16.544 185.815 15.9377 185.815Z" fill="#54DF6C"/>
<path d="M27.8043 185.815H21.4379C20.7883 185.815 20.2686 185.299 20.2686 184.653C20.2686 184.008 20.7883 183.492 21.4379 183.492H27.8043C28.4539 183.492 28.9736 184.008 28.9736 184.653C28.9303 185.299 28.4539 185.815 27.8043 185.815Z" fill="#54DF6C"/>
<path d="M46.0806 163.496H39.7143C39.0646 163.496 38.5449 162.98 38.5449 162.335C38.5449 161.69 39.0646 161.174 39.7143 161.174H46.0806C46.7303 161.174 47.25 161.69 47.25 162.335C47.2067 162.98 46.7303 163.496 46.0806 163.496Z" fill="#54DF6C"/>
<path d="M57.9474 163.496H51.581C50.9313 163.496 50.4116 162.98 50.4116 162.335C50.4116 161.69 50.9313 161.174 51.581 161.174H57.9474C58.597 161.174 59.1167 161.69 59.1167 162.335C59.1167 162.98 58.597 163.496 57.9474 163.496Z" fill="#54DF6C"/>
<path d="M46.0806 167.968H39.7143C39.0646 167.968 38.5449 167.452 38.5449 166.807C38.5449 166.162 39.0646 165.646 39.7143 165.646H46.0806C46.7303 165.646 47.25 166.162 47.25 166.807C47.2067 167.452 46.7303 167.968 46.0806 167.968Z" fill="#54DF6C"/>
<path d="M57.9474 167.968H51.581C50.9313 167.968 50.4116 167.452 50.4116 166.807C50.4116 166.162 50.9313 165.646 51.581 165.646H57.9474C58.597 165.646 59.1167 166.162 59.1167 166.807C59.1167 167.452 58.597 167.968 57.9474 167.968Z" fill="#54DF6C"/>
<path d="M46.0806 172.441H39.7143C39.0646 172.441 38.5449 171.925 38.5449 171.279C38.5449 170.634 39.0646 170.118 39.7143 170.118H46.0806C46.7303 170.118 47.25 170.634 47.25 171.279C47.2067 171.925 46.7303 172.441 46.0806 172.441Z" fill="#54DF6C"/>
<path d="M57.9474 172.398H51.581C50.9313 172.398 50.4116 171.882 50.4116 171.237C50.4116 170.591 50.9313 170.075 51.581 170.075H57.9474C58.597 170.075 59.1167 170.591 59.1167 171.237C59.1167 171.882 58.597 172.398 57.9474 172.398Z" fill="#54DF6C"/>
<path d="M46.0806 176.913H39.7143C39.0646 176.913 38.5449 176.397 38.5449 175.752C38.5449 175.107 39.0646 174.591 39.7143 174.591H46.0806C46.7303 174.591 47.25 175.107 47.25 175.752C47.2067 176.397 46.7303 176.913 46.0806 176.913Z" fill="#54DF6C"/>
<path d="M57.9474 176.87H51.581C50.9313 176.87 50.4116 176.354 50.4116 175.709C50.4116 175.064 50.9313 174.548 51.581 174.548H57.9474C58.597 174.548 59.1167 175.064 59.1167 175.709C59.1167 176.397 58.597 176.87 57.9474 176.87Z" fill="#54DF6C"/>
<path d="M46.0806 181.342H39.7143C39.0646 181.342 38.5449 180.826 38.5449 180.181C38.5449 179.536 39.0646 179.02 39.7143 179.02H46.0806C46.7303 179.02 47.25 179.536 47.25 180.181C47.2067 180.826 46.7303 181.342 46.0806 181.342Z" fill="#54DF6C"/>
<path d="M57.9474 181.342H51.581C50.9313 181.342 50.4116 180.826 50.4116 180.181C50.4116 179.536 50.9313 179.02 51.581 179.02H57.9474C58.597 179.02 59.1167 179.536 59.1167 180.181C59.1167 180.826 58.597 181.342 57.9474 181.342Z" fill="#54DF6C"/>
<path d="M46.0806 185.815H39.7143C39.0646 185.815 38.5449 185.299 38.5449 184.653C38.5449 184.008 39.0646 183.492 39.7143 183.492H46.0806C46.7303 183.492 47.25 184.008 47.25 184.653C47.2067 185.342 46.7303 185.815 46.0806 185.815Z" fill="#54DF6C"/>
<path d="M57.9474 185.815H51.581C50.9313 185.815 50.4116 185.299 50.4116 184.653C50.4116 184.008 50.9313 183.492 51.581 183.492H57.9474C58.597 183.492 59.1167 184.008 59.1167 184.653C59.1167 185.299 58.597 185.815 57.9474 185.815Z" fill="#54DF6C"/>
<path d="M18.7961 132.061C19.0353 132.061 19.2292 131.869 19.2292 131.631C19.2292 131.394 19.0353 131.201 18.7961 131.201C18.5569 131.201 18.363 131.394 18.363 131.631C18.363 131.869 18.5569 132.061 18.7961 132.061Z" fill="#686868"/>
<path d="M18.7961 142.554C19.0353 142.554 19.2292 142.361 19.2292 142.124C19.2292 141.886 19.0353 141.694 18.7961 141.694C18.5569 141.694 18.363 141.886 18.363 142.124C18.363 142.361 18.5569 142.554 18.7961 142.554Z" fill="#686868"/>
<path d="M18.7961 151.455C19.0353 151.455 19.2292 151.263 19.2292 151.025C19.2292 150.788 19.0353 150.595 18.7961 150.595C18.5569 150.595 18.363 150.788 18.363 151.025C18.363 151.263 18.5569 151.455 18.7961 151.455Z" fill="#686868"/>
<path d="M48.9389 132.061C49.1781 132.061 49.372 131.869 49.372 131.631C49.372 131.394 49.1781 131.201 48.9389 131.201C48.6998 131.201 48.5059 131.394 48.5059 131.631C48.5059 131.869 48.6998 132.061 48.9389 132.061Z" fill="#686868"/>
<path d="M48.9389 142.554C49.1781 142.554 49.372 142.361 49.372 142.124C49.372 141.886 49.1781 141.694 48.9389 141.694C48.6998 141.694 48.5059 141.886 48.5059 142.124C48.5059 142.361 48.6998 142.554 48.9389 142.554Z" fill="#686868"/>
<path d="M48.9389 151.455C49.1781 151.455 49.372 151.263 49.372 151.025C49.372 150.788 49.1781 150.595 48.9389 150.595C48.6998 150.595 48.5059 150.788 48.5059 151.025C48.5059 151.263 48.6998 151.455 48.9389 151.455Z" fill="#686868"/>
<path d="M18.7961 164.012C19.0353 164.012 19.2292 163.82 19.2292 163.582C19.2292 163.345 19.0353 163.152 18.7961 163.152C18.5569 163.152 18.363 163.345 18.363 163.582C18.363 163.82 18.5569 164.012 18.7961 164.012Z" fill="#686868"/>
<path d="M18.7961 174.462C19.0353 174.462 19.2292 174.269 19.2292 174.032C19.2292 173.794 19.0353 173.602 18.7961 173.602C18.5569 173.602 18.363 173.794 18.363 174.032C18.363 174.269 18.5569 174.462 18.7961 174.462Z" fill="#686868"/>
<path d="M18.7961 183.406C19.0353 183.406 19.2292 183.214 19.2292 182.976C19.2292 182.739 19.0353 182.546 18.7961 182.546C18.5569 182.546 18.363 182.739 18.363 182.976C18.363 183.214 18.5569 183.406 18.7961 183.406Z" fill="#686868"/>
<path d="M48.9389 164.012C49.1781 164.012 49.372 163.82 49.372 163.582C49.372 163.345 49.1781 163.152 48.9389 163.152C48.6998 163.152 48.5059 163.345 48.5059 163.582C48.5059 163.82 48.6998 164.012 48.9389 164.012Z" fill="#686868"/>
<path d="M48.9389 174.462C49.1781 174.462 49.372 174.269 49.372 174.032C49.372 173.794 49.1781 173.602 48.9389 173.602C48.6998 173.602 48.5059 173.794 48.5059 174.032C48.5059 174.269 48.6998 174.462 48.9389 174.462Z" fill="#686868"/>
<path d="M48.9389 183.406C49.1781 183.406 49.372 183.214 49.372 182.976C49.372 182.739 49.1781 182.546 48.9389 182.546C48.6998 182.546 48.5059 182.739 48.5059 182.976C48.5059 183.214 48.6998 183.406 48.9389 183.406Z" fill="#686868"/>
<path d="M22.9969 118.171C22.9969 117.956 23.1701 117.827 23.3434 117.827H24.1662C24.7726 117.827 25.2056 118.214 25.2056 118.773C25.2056 119.203 24.9458 119.547 24.5127 119.633L25.119 120.278C25.2056 120.364 25.2923 120.45 25.2923 120.579C25.2923 120.665 25.2056 120.88 24.9458 120.88C24.7726 120.88 24.6859 120.837 24.5993 120.708L23.7331 119.633V120.493C23.7331 120.751 23.5599 120.88 23.3867 120.88C23.1701 120.88 23.0402 120.751 23.0402 120.493V118.171H22.9969ZM23.6898 119.117H24.1662C24.3828 119.117 24.5127 118.945 24.5127 118.773C24.5127 118.558 24.3395 118.429 24.1662 118.429H23.6898V119.117Z" fill="white"/>
<path d="M26.0719 119.934C26.0719 120.063 26.1585 120.321 26.5916 120.321C26.9381 120.321 27.1113 120.106 27.2845 120.106C27.4578 120.106 27.5444 120.235 27.5444 120.407C27.5444 120.708 26.9814 120.923 26.505 120.923C25.7687 120.923 25.3356 120.407 25.3356 119.719C25.3356 119.074 25.812 118.515 26.505 118.515C27.1546 118.515 27.5877 119.074 27.5877 119.633C27.5877 119.848 27.5011 119.934 27.2845 119.934H26.0719ZM26.8947 119.461C26.8947 119.289 26.7215 119.074 26.4617 119.074C26.2018 119.074 26.0286 119.332 26.0286 119.461H26.8947Z" fill="white"/>
<path d="M28.8436 118.515C29.1467 118.515 29.6231 118.601 29.6231 118.945C29.6231 119.117 29.4932 119.246 29.3633 119.246C29.19 119.246 29.1467 119.16 28.8869 119.16C28.5404 119.16 28.4105 119.418 28.4105 119.719C28.4105 120.02 28.5837 120.278 28.8869 120.278C29.19 120.278 29.2767 120.149 29.4066 120.149C29.5798 120.149 29.6664 120.321 29.6664 120.45C29.6664 120.794 29.1467 120.923 28.8869 120.923C28.2372 120.923 27.7608 120.407 27.7608 119.719C27.7175 119.031 28.1506 118.515 28.8436 118.515Z" fill="white"/>
<path d="M29.753 117.913C29.753 117.698 29.8829 117.569 30.0995 117.569C30.316 117.569 30.4459 117.741 30.4459 117.913V118.687C30.5759 118.601 30.7491 118.515 31.0089 118.515C31.4853 118.515 31.8318 118.773 31.8318 119.289V120.536C31.8318 120.751 31.7019 120.88 31.4853 120.88C31.2688 120.88 31.1389 120.708 31.1389 120.536V119.461C31.1389 119.246 31.0089 119.074 30.7924 119.074C30.5759 119.074 30.4459 119.246 30.4459 119.461V120.536C30.4459 120.751 30.316 120.88 30.0995 120.88C29.8829 120.88 29.753 120.708 29.753 120.536V117.913V117.913Z" fill="white"/>
<path d="M34.3006 120.536C34.3006 120.751 34.1707 120.88 33.9541 120.88C33.7809 120.88 33.6943 120.794 33.6509 120.665C33.4777 120.837 33.3478 120.923 33.0879 120.923C32.5249 120.923 32.0485 120.407 32.0485 119.719C32.0485 119.031 32.4816 118.515 33.0879 118.515C33.3478 118.515 33.521 118.601 33.6509 118.773C33.6943 118.687 33.8242 118.558 33.9541 118.558C34.1707 118.558 34.3006 118.73 34.3006 118.902V120.536ZM32.7415 119.719C32.7415 120.02 32.9147 120.278 33.2179 120.278C33.521 120.278 33.6943 120.02 33.6943 119.719C33.6943 119.418 33.521 119.16 33.2179 119.16C32.9147 119.16 32.7415 119.418 32.7415 119.719Z" fill="white"/>
<path d="M34.5604 118.902C34.5604 118.687 34.6903 118.558 34.9068 118.558C35.0801 118.558 35.21 118.687 35.2533 118.773C35.3399 118.644 35.5132 118.515 35.7297 118.515C35.9029 118.515 36.0762 118.644 36.0762 118.859C36.0762 119.074 35.9029 119.16 35.6864 119.246C35.3832 119.332 35.2966 119.418 35.2966 119.762V120.579C35.2966 120.794 35.1667 120.923 34.9501 120.923C34.7336 120.923 34.6037 120.751 34.6037 120.579V118.902H34.5604Z" fill="white"/>
<path d="M38.2416 120.665C38.2416 121.526 37.6786 121.827 37.0289 121.827C36.6825 121.827 36.0328 121.698 36.0328 121.354C36.0328 121.182 36.2061 121.052 36.2927 121.052C36.5092 121.052 36.5959 121.268 36.9856 121.268C37.3754 121.268 37.5486 121.052 37.5486 120.665C37.3754 120.88 37.1589 120.923 36.9423 120.923C36.2927 120.923 35.9895 120.364 35.9895 119.762C35.9895 119.074 36.4226 118.558 37.0289 118.558C37.2888 118.558 37.462 118.644 37.592 118.816C37.6353 118.73 37.7652 118.601 37.8951 118.601C38.1117 118.601 38.2416 118.773 38.2416 118.945V120.665ZM37.1156 119.16C36.8124 119.16 36.6392 119.418 36.6392 119.719C36.6392 120.02 36.8124 120.321 37.1156 120.321C37.4187 120.321 37.592 120.063 37.592 119.719C37.592 119.418 37.4187 119.16 37.1156 119.16Z" fill="white"/>
<path d="M39.151 119.934C39.151 120.063 39.2376 120.321 39.6707 120.321C40.0172 120.321 40.1904 120.106 40.3637 120.106C40.5369 120.106 40.6235 120.235 40.6235 120.407C40.6235 120.708 40.0605 120.923 39.5841 120.923C38.8479 120.923 38.4148 120.407 38.4148 119.719C38.4148 119.074 38.8912 118.515 39.5841 118.515C40.2337 118.515 40.6668 119.074 40.6668 119.633C40.6668 119.848 40.5802 119.934 40.3637 119.934H39.151ZM40.0172 119.461C40.0172 119.289 39.844 119.074 39.5841 119.074C39.3243 119.074 39.151 119.332 39.151 119.461H40.0172Z" fill="white"/>
<path d="M40.9268 118.171C40.9268 117.913 41.1001 117.784 41.2733 117.784C41.4465 117.784 41.5331 117.87 41.7497 118.171L42.8757 119.59V118.171C42.8757 117.913 43.0489 117.784 43.2222 117.784C43.3954 117.784 43.5686 117.913 43.5686 118.171V120.536C43.5686 120.794 43.3954 120.923 43.2222 120.923C43.0489 120.923 42.9623 120.837 42.7458 120.536L41.6198 119.117V120.579C41.6198 120.837 41.4465 120.966 41.2733 120.966C41.0567 120.966 40.9268 120.837 40.9268 120.579V118.171Z" fill="#54DF6C"/>
<path d="M46.0372 119.719C46.0372 120.407 45.6041 120.923 44.9112 120.923C44.2182 120.923 43.7852 120.407 43.7852 119.719C43.7852 119.031 44.2182 118.515 44.9112 118.515C45.6041 118.515 46.0372 119.074 46.0372 119.719ZM44.4781 119.719C44.4781 120.02 44.6513 120.278 44.9545 120.278C45.2576 120.278 45.4309 120.02 45.4309 119.719C45.4309 119.418 45.2576 119.16 44.9545 119.16C44.6513 119.16 44.4781 119.418 44.4781 119.719Z" fill="#54DF6C"/>
<path d="M46.2105 119.246C46.1672 119.074 46.1239 118.988 46.1239 118.859C46.1239 118.687 46.2538 118.558 46.4704 118.558C46.6436 118.558 46.7302 118.644 46.7735 118.773L47.0767 119.848L47.3799 118.902C47.4232 118.73 47.5098 118.515 47.7263 118.515C47.9862 118.515 48.0295 118.73 48.0728 118.902L48.376 119.848L48.6791 118.773C48.7224 118.601 48.8524 118.558 48.9823 118.558C49.1988 118.558 49.3288 118.73 49.3288 118.859C49.3288 118.988 49.2854 119.074 49.2421 119.246L48.7657 120.536C48.6791 120.751 48.5925 120.88 48.376 120.88C48.1161 120.88 48.0728 120.751 47.9862 120.536L47.7263 119.762L47.4665 120.536C47.3799 120.751 47.2932 120.88 47.0767 120.88C46.8601 120.88 46.7302 120.794 46.6869 120.536L46.2105 119.246Z" fill="#54DF6C"/>
<path d="M22.4339 122.644H19.8354C19.1857 122.644 18.666 122.127 18.666 121.482V116.881C18.666 116.236 19.1857 115.72 19.8354 115.72H22.4339C23.0835 115.72 23.6032 116.236 23.6032 116.881C23.6032 117.053 23.4733 117.182 23.3001 117.182C23.1268 117.182 22.9969 117.053 22.9969 116.881C22.9969 116.58 22.737 116.322 22.4339 116.322H19.8354C19.5322 116.322 19.2723 116.58 19.2723 116.881V121.482C19.2723 121.783 19.5322 122.041 19.8354 122.041H22.4339C22.6071 122.041 22.9969 121.998 22.9969 121.611C22.9969 121.439 23.1268 121.31 23.3001 121.31C23.4733 121.31 23.6032 121.439 23.6032 121.611C23.6032 122.256 23.1268 122.644 22.4339 122.644Z" fill="#54DF6C"/>
<path d="M22.044 116.15H20.225V115.505C20.225 115.29 20.4416 115.075 20.6581 115.075H21.6109C21.8708 115.075 22.044 115.29 22.044 115.505V116.15Z" fill="#54DF6C"/>
<path d="M21.611 117.397L19.9653 119.547H20.9181L20.7015 120.966L22.3473 118.816H21.3945L21.611 117.397Z" fill="#54DF6C"/>
<path d="M63.4907 122.343H58.2936C57.8172 122.343 57.4707 121.955 57.4707 121.525V116.365C57.4707 115.892 57.8605 115.548 58.2936 115.548H63.4907C63.9671 115.548 64.3135 115.935 64.3135 116.365V121.525C64.3135 121.955 63.9671 122.343 63.4907 122.343Z" fill="white"/>
<path d="M59.9393 116.365H58.3369V117.956H59.9393V116.365ZM59.5928 117.655H58.64V116.709H59.5928V117.655Z" fill="#2D2D2D"/>
<path d="M59.9395 117.999H58.2505V116.322H59.9395V117.999ZM58.3371 117.913H59.8962V116.365H58.3371V117.913ZM59.6363 117.655H58.5969V116.623H59.6363V117.655ZM58.6835 117.612H59.593V116.709H58.6835V117.612Z" fill="#2D2D2D"/>
<path d="M59.2465 117.01H58.9434V117.311H59.2465V117.01Z" fill="#2D2D2D"/>
<path d="M59.2899 117.354H58.9001V116.967H59.2899V117.354ZM58.9867 117.311H59.2466V117.053H58.9867V117.311Z" fill="#2D2D2D"/>
<path d="M61.8449 116.365V117.956H63.4473V116.365H61.8449ZM63.1441 117.655H62.1914V116.709H63.1441V117.655Z" fill="#2D2D2D"/>
<path d="M63.4906 117.999H61.8016V116.322H63.4906V117.999ZM61.8882 117.913H63.4473V116.365H61.8882V117.913ZM63.1875 117.655H62.148V116.623H63.1875V117.655ZM62.1914 117.612H63.1008V116.709H62.1914V117.612Z" fill="#2D2D2D"/>
<path d="M62.7977 117.01H62.4945V117.311H62.7977V117.01Z" fill="#2D2D2D"/>
<path d="M62.841 117.354H62.4512V116.967H62.841V117.354ZM62.5378 117.311H62.7977V117.053H62.5378V117.311Z" fill="#2D2D2D"/>
<path d="M58.2937 121.482H59.8962V119.891H58.2937V121.482ZM58.6402 120.192H59.593V121.138H58.6402V120.192Z" fill="#2D2D2D"/>
<path d="M59.9395 121.525H58.2505V119.848H59.9395V121.525ZM58.3371 121.439H59.8962V119.891H58.3371V121.439ZM59.6363 121.181H58.5969V120.149H59.6363V121.181ZM58.6835 121.138H59.593V120.235H58.6835V121.138Z" fill="#2D2D2D"/>
<path d="M59.2465 120.536H58.9434V120.837H59.2465V120.536Z" fill="#2D2D2D"/>
<path d="M59.2899 120.88H58.9001V120.493H59.2899V120.88ZM58.9867 120.794H59.2466V120.536H58.9867V120.794Z" fill="#2D2D2D"/>
<path d="M61.5419 116.365H60.8923V116.666H61.5419V116.365Z" fill="#2D2D2D"/>
<path d="M61.542 116.709H60.849V116.322H61.542V116.709ZM60.9356 116.666H61.4987V116.408H60.9356V116.666Z" fill="#2D2D2D"/>
<path d="M60.8923 117.655H61.1954V117.311H61.5419V117.01H60.5458V116.666H60.2426V117.01V117.182V117.311H60.8923V117.655Z" fill="#2D2D2D"/>
<path d="M61.2387 117.655H60.849V117.354H60.1993V116.666H60.5891V116.967H61.5419V117.354H61.2387V117.655ZM60.9356 117.612H61.1954V117.311H61.4986V117.053H60.5458V116.752H60.286V117.311H60.9356V117.612Z" fill="#2D2D2D"/>
<path d="M60.5458 117.655H60.2426V117.956H60.5458V117.655Z" fill="#2D2D2D"/>
<path d="M60.5891 117.999H60.1993V117.612H60.5891V117.999ZM60.286 117.913H60.5458V117.655H60.286V117.913Z" fill="#2D2D2D"/>
<path d="M61.5419 117.956H61.1954V118.3H60.2426V118.601H61.5419V117.956Z" fill="#2D2D2D"/>
<path d="M61.5419 118.644H60.1993V118.257H61.1521V117.956H61.5419V118.644ZM60.286 118.558H61.4986V117.999H61.2387V118.3H60.286V118.558V118.558Z" fill="#2D2D2D"/>
<path d="M58.6402 119.246H58.9434V118.902H58.6402V118.3H58.2937V119.547H58.6402V119.246Z" fill="#2D2D2D"/>
<path d="M58.6835 119.59H58.2937V118.257H58.6835V118.902H58.9867V119.289H58.6835V119.59ZM58.337 119.547H58.5969V119.246H58.9001V118.988H58.5969V118.343H58.337V119.547Z" fill="#2D2D2D"/>
<path d="M59.2465 118.3H58.9434V118.601H59.2465V118.3Z" fill="#2D2D2D"/>
<path d="M59.2899 118.644H58.9001V118.257H59.2899V118.644ZM58.9867 118.558H59.2466V118.3H58.9867V118.558Z" fill="#2D2D2D"/>
<path d="M60.2428 119.547H60.8925V119.246H60.546V118.902H59.9397V118.3H59.5932V118.902H59.29V119.547H59.5932V119.246H59.7664H59.9397H60.2428V119.547Z" fill="#2D2D2D"/>
<path d="M60.9358 119.59H60.1996V119.289H59.6366V119.59H59.2468V118.902H59.55V118.257H59.9397V118.902H60.5894V119.203H60.8925V119.59H60.9358ZM60.2862 119.547H60.8492V119.289H60.5461V118.988H59.8964V118.343H59.6366V118.988H59.3334V119.547H59.5933V119.246H60.2862V119.547V119.547Z" fill="#2D2D2D"/>
<path d="M61.4984 118.902H61.1952V119.547H61.4984V118.902Z" fill="#2D2D2D"/>
<path d="M61.5417 119.59H61.1519V118.902H61.5417V119.59ZM61.2386 119.547H61.4984V118.988H61.2386V119.547Z" fill="#2D2D2D"/>
<path d="M61.1954 119.891H60.2426V120.192H60.8923V121.138H60.2426V121.482H61.1954V121.138H61.8451V120.837H61.1954V119.891Z" fill="#2D2D2D"/>
<path d="M61.2388 121.525H60.1993V121.138H60.849V120.235H60.1993V119.848H61.2388V120.794H61.8884V121.181H61.2388V121.525ZM60.286 121.439H61.1954V121.138H61.8451V120.88H61.1954V119.934H60.286V120.192H60.9356V121.224H60.286V121.439Z" fill="#2D2D2D"/>
<path d="M60.5458 120.536H60.2426V120.837H60.5458V120.536Z" fill="#2D2D2D"/>
<path d="M60.5891 120.88H60.1993V120.493H60.5891V120.88ZM60.286 120.794H60.5458V120.536H60.286V120.794Z" fill="#2D2D2D"/>
<path d="M61.8451 119.891H61.5419V120.536H61.8451V119.891Z" fill="#2D2D2D"/>
<path d="M61.8884 120.536H61.4986V119.848H61.8884V120.536ZM61.5419 120.493H61.8018V119.934H61.5419V120.493Z" fill="#2D2D2D"/>
<path d="M63.1443 120.536H62.1915V121.482H62.4947V120.837H63.1443V120.536Z" fill="#2D2D2D"/>
<path d="M62.5381 121.525H62.1483V120.493H63.1877V120.88H62.5381V121.525ZM62.1916 121.439H62.4514V120.794H63.1011V120.536H62.1916V121.439Z" fill="#2D2D2D"/>
<path d="M63.4475 121.138H62.7979V121.439H63.4475V121.138Z" fill="#2D2D2D"/>
<path d="M63.4908 121.525H62.7979V121.138H63.4908V121.525ZM62.8412 121.439H63.4042V121.181H62.8412V121.439Z" fill="#2D2D2D"/>
<path d="M63.4474 119.891H63.1442V120.192H63.4474V119.891Z" fill="#2D2D2D"/>
<path d="M63.4908 120.235H63.101V119.848H63.4908V120.235ZM63.1876 120.192H63.4475V119.934H63.1876V120.192Z" fill="#2D2D2D"/>
<path d="M62.1918 120.192H62.4949V119.246H61.8453V119.547H62.1918V120.192Z" fill="#2D2D2D"/>
<path d="M62.5382 120.235H62.1485V119.59H61.8453V119.203H62.5382V120.235ZM62.1918 120.192H62.4516V119.289H61.8886V119.547H62.1918V120.192V120.192Z" fill="#2D2D2D"/>
<path d="M62.7981 118.601H62.4949V118.3H62.1918V118.601H61.8453V118.902H63.1446V118.601H63.4477V118.3H62.7981V118.601Z" fill="#2D2D2D"/>
<path d="M63.1879 118.945H61.8453V118.558H62.1485V118.257H62.5382V118.558H62.7981V118.257H63.491V118.644H63.1879V118.945ZM61.8886 118.902H63.1013V118.601H63.4044V118.343H62.8414V118.644H62.4516V118.343H62.1918V118.644H61.8886V118.902Z" fill="#2D2D2D"/>
<path d="M63.4475 119.246H62.7979V119.547H63.4475V119.246Z" fill="#2D2D2D"/>
<path d="M63.4908 119.59H62.7979V119.203H63.4908V119.59ZM62.8412 119.547H63.4042V119.289H62.8412V119.547Z" fill="#2D2D2D"/>
<path d="M9.44131 122.343H4.24425C3.76786 122.343 3.42139 121.955 3.42139 121.525V116.365C3.42139 115.892 3.81117 115.548 4.24425 115.548H9.44131C9.91771 115.548 10.2642 115.935 10.2642 116.365V121.525C10.3075 121.955 9.91771 122.343 9.44131 122.343Z" fill="white"/>
<path d="M5.89002 116.365H4.2876V117.956H5.89002V116.365V116.365ZM5.54355 117.655H4.59076V116.709H5.54355V117.655Z" fill="#2D2D2D"/>
<path d="M5.93343 117.999H4.24438V116.322H5.93343V117.999V117.999ZM4.28769 117.913H5.84681V116.365H4.28769V117.913ZM5.58696 117.655H4.54755V116.623H5.58696V117.655ZM4.63416 117.612H5.54365V116.709H4.63416V117.612Z" fill="#2D2D2D"/>
<path d="M5.24042 117.01H4.93726V117.311H5.24042V117.01Z" fill="#2D2D2D"/>
<path d="M5.28382 117.354H4.89404V116.967H5.28382V117.354ZM4.93735 117.311H5.19721V117.053H4.93735V117.311Z" fill="#2D2D2D"/>
<path d="M7.79578 116.365V117.956H9.3982V116.365H7.79578ZM9.09504 117.655H8.14225V116.709H9.09504V117.655Z" fill="#2D2D2D"/>
<path d="M9.44151 117.999H7.79578V116.322H9.48482V117.999H9.44151ZM7.83909 117.913H9.3982V116.365H7.83909V117.913ZM9.13835 117.655H8.09894V116.623H9.13835V117.655ZM8.18556 117.612H9.09504V116.709H8.18556V117.612Z" fill="#2D2D2D"/>
<path d="M8.74835 117.01H8.44519V117.311H8.74835V117.01Z" fill="#2D2D2D"/>
<path d="M8.79175 117.354H8.40198V116.967H8.79175V117.354ZM8.4886 117.311H8.74845V117.053H8.4886V117.311Z" fill="#2D2D2D"/>
<path d="M4.2876 121.482H5.89002V119.891H4.2876V121.482ZM4.59076 120.192H5.54355V121.138H4.59076V120.192V120.192Z" fill="#2D2D2D"/>
<path d="M5.93343 121.525H4.24438V119.848H5.93343V121.525V121.525ZM4.28769 121.439H5.84681V119.891H4.28769V121.439ZM5.58696 121.181H4.54755V120.149H5.58696V121.181ZM4.63416 121.138H5.54365V120.235H4.63416V121.138Z" fill="#2D2D2D"/>
<path d="M5.24042 120.536H4.93726V120.837H5.24042V120.536Z" fill="#2D2D2D"/>
<path d="M5.28382 120.88H4.89404V120.493H5.28382V120.88ZM4.93735 120.794H5.19721V120.536H4.93735V120.794Z" fill="#2D2D2D"/>
<path d="M7.49253 116.365H6.8429V116.666H7.49253V116.365Z" fill="#2D2D2D"/>
<path d="M7.53584 116.709H6.8429V116.322H7.53584V116.709ZM6.8862 116.666H7.44922V116.408H6.8862V116.666V116.666Z" fill="#2D2D2D"/>
<path d="M6.84293 117.655H7.1894V117.311H7.49256V117.01H6.53977V116.666H6.1933V117.01V117.182V117.311H6.84293V117.655Z" fill="#2D2D2D"/>
<path d="M7.1895 117.655H6.79972V117.354H6.15009V116.666H6.53986V116.967H7.49266V117.354H7.1895V117.655ZM6.88633 117.612H7.14619V117.311H7.44935V117.053H6.49656V116.752H6.2367V117.311H6.88633V117.612Z" fill="#2D2D2D"/>
<path d="M6.49646 117.655H6.1933V117.956H6.49646V117.655Z" fill="#2D2D2D"/>
<path d="M6.53987 117.999H6.15009V117.612H6.53987V117.999ZM6.2367 117.913H6.49656V117.655H6.2367V117.913Z" fill="#2D2D2D"/>
<path d="M7.49256 117.956H7.1894V118.3H6.1933V118.601H7.49256V117.956Z" fill="#2D2D2D"/>
<path d="M7.53587 118.644H6.1933V118.257H7.14609V117.956H7.53587V118.644ZM6.23661 118.558H7.44925V117.999H7.1894V118.3H6.23661V118.558V118.558Z" fill="#2D2D2D"/>
<path d="M4.59076 119.246H4.93723V118.902H4.59076V118.3H4.2876V119.547H4.59076V119.246Z" fill="#2D2D2D"/>
<path d="M4.63416 119.59H4.24438V118.257H4.63416V118.902H4.93733V119.289H4.63416V119.59V119.59ZM4.28769 119.547H4.54755V119.246H4.85071V118.988H4.54755V118.343H4.28769V119.547Z" fill="#2D2D2D"/>
<path d="M5.24042 118.3H4.93726V118.601H5.24042V118.3Z" fill="#2D2D2D"/>
<path d="M5.28382 118.644H4.89404V118.257H5.28382V118.644ZM4.93735 118.558H5.19721V118.3H4.93735V118.558Z" fill="#2D2D2D"/>
<path d="M6.19321 119.547H6.84284V119.246H6.53968V118.902H5.89005V118.3H5.54358V118.902H5.24042V119.547H5.54358V119.246H5.71681H5.89005H6.19321V119.547Z" fill="#2D2D2D"/>
<path d="M6.88625 119.59H6.19331V119.289H5.63029V119.59H5.1972V118.902H5.50037V118.257H5.89015V118.902H6.53978V119.203H6.84294V119.59H6.88625ZM6.23662 119.547H6.79963V119.289H6.49647V118.988H5.84684V118.343H5.58698V118.988H5.28382V119.547H5.54368V119.246H6.23662V119.547Z" fill="#2D2D2D"/>
<path d="M7.49255 118.902H7.18939V119.547H7.49255V118.902Z" fill="#2D2D2D"/>
<path d="M7.53596 119.59H7.14618V118.902H7.53596V119.59ZM7.18949 119.547H7.44934V118.988H7.18949V119.547Z" fill="#2D2D2D"/>
<path d="M7.1894 119.891H6.1933V120.192H6.84293V121.138H6.1933V121.482H7.1894V121.138H7.79572V120.837H7.1894V119.891Z" fill="#2D2D2D"/>
<path d="M7.1895 121.525H6.15009V121.138H6.79972V120.235H6.15009V119.848H7.1895V120.794H7.83913V121.181H7.1895V121.525ZM6.2367 121.439H7.14619V121.138H7.79582V120.88H7.14619V119.934H6.2367V120.192H6.88633V121.224H6.2367V121.439Z" fill="#2D2D2D"/>
<path d="M6.49646 120.536H6.1933V120.837H6.49646V120.536Z" fill="#2D2D2D"/>
<path d="M6.53987 120.88H6.15009V120.493H6.53987V120.88ZM6.2367 120.794H6.49656V120.536H6.2367V120.794Z" fill="#2D2D2D"/>
<path d="M7.79572 119.891H7.49255V120.536H7.79572V119.891Z" fill="#2D2D2D"/>
<path d="M7.83912 120.536H7.44934V119.848H7.83912V120.536ZM7.53596 120.493H7.79581V119.934H7.53596V120.493Z" fill="#2D2D2D"/>
<path d="M9.09501 120.536H8.14221V121.482H8.44537V120.837H9.09501V120.536Z" fill="#2D2D2D"/>
<path d="M8.48878 121.525H8.099V120.493H9.13841V120.88H8.48878V121.525ZM8.18562 121.439H8.44547V120.794H9.0951V120.536H8.18562V121.439Z" fill="#2D2D2D"/>
<path d="M9.44144 121.138H8.79181V121.439H9.44144V121.138Z" fill="#2D2D2D"/>
<path d="M9.44154 121.525H8.7486V121.138H9.44154V121.525ZM8.7919 121.439H9.35492V121.181H8.7919V121.439Z" fill="#2D2D2D"/>
<path d="M9.39819 119.891H9.09503V120.192H9.39819V119.891Z" fill="#2D2D2D"/>
<path d="M9.4415 120.235H9.09503V119.848H9.48481V120.235H9.4415ZM9.13834 120.192H9.39819V119.934H9.13834V120.192Z" fill="#2D2D2D"/>
<path d="M8.14225 120.192H8.44541V119.246H7.79578V119.547H8.14225V120.192Z" fill="#2D2D2D"/>
<path d="M8.48872 120.235H8.09894V119.59H7.79578V119.203H8.48872V120.235ZM8.18556 120.192H8.44541V119.289H7.88239V119.547H8.18556V120.192Z" fill="#2D2D2D"/>
<path d="M8.79188 118.601H8.44541V118.3H8.14225V118.601H7.79578V118.902H9.09504V118.601H9.44151V118.3H8.79188V118.601Z" fill="#2D2D2D"/>
<path d="M9.13835 118.945H7.79578V118.558H8.09894V118.257H8.48872V118.558H8.74857V118.257H9.44151V118.644H9.13835V118.945ZM7.83909 118.902H9.09504V118.601H9.3982V118.343H8.83519V118.644H8.44541V118.343H8.18556V118.644H7.88239V118.902H7.83909Z" fill="#2D2D2D"/>
<path d="M9.44144 119.246H8.79181V119.547H9.44144V119.246Z" fill="#2D2D2D"/>
<path d="M9.44154 119.59H8.7486V119.203H9.44154V119.59ZM8.7919 119.547H9.35492V119.289H8.7919V119.547Z" fill="#2D2D2D"/>
</svg>
