<svg width="17" height="19" viewBox="0 0 17 19" fill="none" xmlns="http://www.w3.org/2000/svg">
<path d="M4.57227 18.3709L4.88477 16.2947H4.13477H0.697266L3.07227 0.817892C3.07227 0.754978 3.13477 0.692064 3.13477 0.692064C3.19727 0.692064 3.25977 0.62915 3.25977 0.62915H9.13477C11.0723 0.62915 12.4473 1.06955 13.1348 1.88743C13.4473 2.26491 13.6973 2.6424 13.7598 3.08279C13.8848 3.52319 13.8848 4.08942 13.7598 4.71855V4.78147V5.22187L14.0723 5.41061C14.3223 5.53644 14.5723 5.72518 14.7598 5.91392C15.0723 6.22849 15.1973 6.66889 15.3223 7.10928C15.3848 7.61259 15.3848 8.17882 15.2598 8.87087C15.1348 9.62584 14.8848 10.3179 14.5098 10.8841C14.1973 11.3874 13.8223 11.8278 13.3848 12.1424C12.9473 12.457 12.4473 12.7086 11.8223 12.8344C11.2598 12.9603 10.6348 13.0861 9.88477 13.0861H9.44727C9.13477 13.0861 8.82227 13.2119 8.57227 13.4007C8.32227 13.5894 8.13477 13.904 8.13477 14.2186L8.07227 14.4073L7.50977 18.1192V18.245C7.50977 18.308 7.50977 18.308 7.44727 18.308H7.38477C7.38477 18.3709 4.57227 18.3709 4.57227 18.3709Z" fill="#253B80"/>
<path d="M14.3847 4.84448C14.3847 4.9074 14.3847 5.03322 14.3847 5.15905C13.6347 9.18554 10.9472 10.5067 7.57221 10.5067H5.82221C5.38471 10.5067 5.07221 10.8213 5.00971 11.1988L4.13471 16.7981L3.88471 18.371C3.82221 18.6226 4.07221 18.8743 4.32221 18.8743H7.38471C7.75971 18.8743 8.07221 18.6226 8.13471 18.2451V18.1193L8.69721 14.4703L8.75971 14.2816C8.82221 13.9041 9.13471 13.6524 9.50971 13.6524H9.94721C12.8847 13.6524 15.1972 12.4571 15.8847 8.93389C16.1972 7.48687 16.0097 6.22859 15.2597 5.41071C15.0097 5.22197 14.7597 4.97031 14.3847 4.84448Z" fill="#179BD7"/>
<path d="M13.6348 4.5299C13.5098 4.46699 13.3848 4.40407 13.2598 4.40407C13.1348 4.40407 13.0098 4.34116 12.8848 4.34116C12.4473 4.27825 11.8848 4.21533 11.3848 4.21533H6.75977C6.63477 4.21533 6.50977 4.21533 6.44727 4.27825C6.19727 4.40407 6.07227 4.59282 6.00977 4.84447L5.00977 11.0729V11.2617C5.07227 10.8213 5.44727 10.5696 5.82227 10.5696H7.57227C10.9473 10.5696 13.5723 9.18553 14.3848 5.22195C14.3848 5.03321 14.3848 4.90739 14.3848 4.84447C14.1973 4.71864 13.9473 4.65573 13.7598 4.59282C13.6973 4.5299 13.6348 4.5299 13.6348 4.5299Z" fill="#222D65"/>
<path d="M6.00964 4.84437C6.07214 4.59272 6.19714 4.40397 6.44714 4.27815C6.57214 4.21523 6.63464 4.21523 6.75964 4.21523H11.3846C11.9471 4.21523 12.4471 4.27815 12.8846 4.34106C13.0096 4.34106 13.1346 4.40397 13.2596 4.40397C13.3846 4.40397 13.5096 4.46689 13.6346 4.5298C13.6971 4.5298 13.7596 4.59272 13.8221 4.59272C14.0721 4.65563 14.2596 4.78146 14.4471 4.84437C14.6971 3.39735 14.4471 2.39073 13.6346 1.44702C12.7596 0.440397 11.1971 0 9.13464 0H3.25964C2.88464 0 2.50964 0.31457 2.44714 0.692053L0.00964133 16.2947C-0.0528587 16.6093 0.197141 16.8609 0.509641 16.8609H4.13464L5.00964 11.0728L6.00964 4.84437Z" fill="#253B80"/>
</svg>
