<svg width="50" height="61" viewBox="0 0 50 61" fill="none" xmlns="http://www.w3.org/2000/svg">
<path d="M50 25C50 38.8071 38.8071 50 25 50C11.1929 50 0 38.8071 0 25C0 11.1929 11.1929 0 25 0C38.8071 0 50 11.1929 50 25Z" fill="#2F2F2F"/>
<path d="M25 61L16.3397 46H33.6603L25 61Z" fill="#2F2F2F"/>
<g clip-path="url(#clip0)">
<path fill-rule="evenodd" clip-rule="evenodd" d="M24.4997 14.1341C24.8093 13.9553 25.1907 13.9553 25.5003 14.1341L34.5003 19.3341C34.8095 19.5128 35 19.8428 35 20.2V30.6C35 30.9572 34.8095 31.2872 34.5003 31.4659L25.5003 36.6659C25.1907 36.8447 24.8093 36.8447 24.4997 36.6659L15.4997 31.4659C15.1905 31.2872 15 30.9572 15 30.6V20.2C15 19.8428 15.1905 19.5128 15.4997 19.3341L24.4997 14.1341ZM17 20.7771V30.0229L25 34.6451L33 30.0229V20.7771L25 16.1549L17 20.7771Z" fill="#54DF6C"/>
<path fill-rule="evenodd" clip-rule="evenodd" d="M24.4997 14.1341C24.8093 13.9553 25.1907 13.9553 25.5003 14.1341L34.5003 19.3341C34.8095 19.5128 35 19.8428 35 20.2V20.6C35 20.9572 34.8095 21.2872 34.5003 21.4659L25.5003 26.6659C25.1907 26.8447 24.8093 26.8447 24.4997 26.6659L15.4997 21.4659C15.1905 21.2872 15 20.9572 15 20.6V20.2C15 19.8428 15.1905 19.5128 15.4997 19.3341L24.4997 14.1341ZM17.6527 20.4L25 24.6451L32.3473 20.4L25 16.1549L17.6527 20.4Z" fill="#54DF6C"/>
<path fill-rule="evenodd" clip-rule="evenodd" d="M25 25.3999C25.5523 25.3999 26 25.8476 26 26.3999V34.3999C26 34.9522 25.5523 35.3999 25 35.3999C24.4477 35.3999 24 34.9522 24 34.3999V26.3999C24 25.8476 24.4477 25.3999 25 25.3999Z" fill="#54DF6C"/>
</g>
<defs>
<clipPath id="clip0">
<rect x="15" y="14" width="20" height="22.8" fill="white"/>
</clipPath>
</defs>
</svg>
