<svg width="50" height="61" viewBox="0 0 50 61" fill="none" xmlns="http://www.w3.org/2000/svg">
<path d="M50 25C50 38.8071 38.8071 50 25 50C11.1929 50 0 38.8071 0 25C0 11.1929 11.1929 0 25 0C38.8071 0 50 11.1929 50 25Z" fill="#2F2F2F"/>
<path d="M25 61L16.3397 46H33.6603L25 61Z" fill="#2F2F2F"/>
<g clip-path="url(#clip0)">
<path fill-rule="evenodd" clip-rule="evenodd" d="M17.4943 15.1373C17.8005 14.9578 18.1789 14.9541 18.4886 15.1275L23.4853 17.9256L27.4819 20.1238C27.8015 20.2995 28 20.6353 28 21V37C28 37.3543 27.8125 37.6822 27.5071 37.8619C27.2017 38.0416 26.8241 38.0462 26.5144 37.8742L17.5144 32.8742C17.1969 32.6978 17 32.3632 17 32V16C17 15.6451 17.1881 15.3167 17.4943 15.1373ZM19 17.7061V31.4116L26 35.3005V21.5913L22.5114 19.6725L19 17.7061Z" fill="#54DF6C"/>
<path fill-rule="evenodd" clip-rule="evenodd" d="M17.1274 26.5113C17.3973 26.0295 18.0067 25.8576 18.4885 26.1274L23.4852 28.9256L27.4819 31.1237C27.9658 31.3899 28.1423 31.9979 27.8762 32.4819C27.61 32.9658 27.0019 33.1423 26.518 32.8762L22.5113 30.6725L17.5113 27.8724C17.0295 27.6026 16.8576 26.9932 17.1274 26.5113Z" fill="#54DF6C"/>
<path fill-rule="evenodd" clip-rule="evenodd" d="M22.1258 12.5143C22.394 12.0315 23.0028 11.8576 23.4856 12.1258L32.4856 17.1258C32.803 17.3022 32.9999 17.6368 32.9999 17.9999V33.9999C32.9999 34.5522 32.5522 34.9999 31.9999 34.9999C31.4477 34.9999 30.9999 34.5522 30.9999 33.9999V18.5883L22.5143 13.8741C22.0315 13.6059 21.8576 12.9971 22.1258 12.5143Z" fill="#54DF6C"/>
<path fill-rule="evenodd" clip-rule="evenodd" d="M32.8574 33.4854C33.1415 33.959 32.988 34.5733 32.5144 34.8574L27.5144 37.8574C27.0408 38.1415 26.4266 37.988 26.1424 37.5144C25.8583 37.0408 26.0118 36.4266 26.4854 36.1424L31.4854 33.1424C31.959 32.8583 32.5733 33.0118 32.8574 33.4854Z" fill="#54DF6C"/>
<path fill-rule="evenodd" clip-rule="evenodd" d="M23.8574 12.4854C24.1415 12.959 23.988 13.5733 23.5144 13.8574L18.5144 16.8574C18.0408 17.1415 17.4266 16.988 17.1424 16.5144C16.8583 16.0408 17.0118 15.4266 17.4854 15.1424L22.4854 12.1424C22.959 11.8583 23.5733 12.0118 23.8574 12.4854Z" fill="#54DF6C"/>
<path fill-rule="evenodd" clip-rule="evenodd" d="M32.8574 17.4854C33.1415 17.959 32.988 18.5733 32.5144 18.8574L27.5144 21.8574C27.0408 22.1415 26.4266 21.988 26.1424 21.5144C25.8583 21.0408 26.0118 20.4266 26.4854 20.1424L31.4854 17.1424C31.959 16.8583 32.5733 17.0118 32.8574 17.4854Z" fill="#54DF6C"/>
<path fill-rule="evenodd" clip-rule="evenodd" d="M32.8574 28.4854C33.1415 28.959 32.988 29.5733 32.5144 29.8574L27.5144 32.8574C27.0408 33.1415 26.4266 32.988 26.1424 32.5144C25.8583 32.0408 26.0118 31.4266 26.4854 31.1424L31.4854 28.1424C31.959 27.8583 32.5733 28.0118 32.8574 28.4854Z" fill="#54DF6C"/>
</g>
<defs>
<clipPath id="clip0">
<rect x="17" y="12" width="16" height="26" fill="white"/>
</clipPath>
</defs>
</svg>
