<svg width="50" height="61" viewBox="0 0 50 61" fill="none" xmlns="http://www.w3.org/2000/svg">
<path d="M50 25C50 38.8071 38.8071 50 25 50C11.1929 50 0 38.8071 0 25C0 11.1929 11.1929 0 25 0C38.8071 0 50 11.1929 50 25Z" fill="#2F2F2F"/>
<path d="M25 61L16.3397 46H33.6603L25 61Z" fill="#2F2F2F"/>
<path fill-rule="evenodd" clip-rule="evenodd" d="M19.4943 16.1373C19.8005 15.9578 20.1789 15.9541 20.4886 16.1275L25.4886 18.9275C25.8044 19.1043 26 19.438 26 19.8V35.8C26 36.1549 25.8119 36.4833 25.5057 36.6627C25.1995 36.8422 24.8211 36.8459 24.5114 36.6725L19.5114 33.8725C19.1956 33.6957 19 33.362 19 33V17C19 16.6451 19.1881 16.3167 19.4943 16.1373ZM21 18.7061V32.4139L24 34.0939V20.3861L21 18.7061Z" fill="#54DF6C"/>
<path fill-rule="evenodd" clip-rule="evenodd" d="M24.1274 13.5113C24.3973 13.0295 25.0067 12.8576 25.4885 13.1274L30.4885 15.9274C30.8043 16.1043 30.9999 16.438 30.9999 16.7999V32.7999C30.9999 33.3522 30.5522 33.7999 29.9999 33.7999C29.4477 33.7999 28.9999 33.3522 28.9999 32.7999V17.3861L24.5113 14.8724C24.0295 14.6026 23.8576 13.9932 24.1274 13.5113Z" fill="#54DF6C"/>
<path fill-rule="evenodd" clip-rule="evenodd" d="M30.8574 32.2855C31.1415 32.759 30.988 33.3733 30.5144 33.6574L25.5144 36.6574C25.0408 36.9416 24.4266 36.788 24.1424 36.3145C23.8583 35.8409 24.0118 35.2266 24.4854 34.9425L29.4854 31.9425C29.959 31.6583 30.5733 31.8119 30.8574 32.2855Z" fill="#54DF6C"/>
<path fill-rule="evenodd" clip-rule="evenodd" d="M30.8574 16.2855C31.1415 16.759 30.988 17.3733 30.5144 17.6574L25.5144 20.6574C25.0408 20.9416 24.4266 20.788 24.1424 20.3145C23.8583 19.8409 24.0118 19.2266 24.4854 18.9425L29.4854 15.9425C29.959 15.6583 30.5733 15.8119 30.8574 16.2855Z" fill="#54DF6C"/>
<path fill-rule="evenodd" clip-rule="evenodd" d="M25.8724 13.5113C26.1423 13.9932 25.9704 14.6026 25.4885 14.8724L20.4885 17.6724C20.0067 17.9423 19.3973 17.7704 19.1274 17.2885C18.8576 16.8067 19.0295 16.1973 19.5113 15.9274L24.5113 13.1274C24.9932 12.8576 25.6026 13.0295 25.8724 13.5113Z" fill="#54DF6C"/>
</svg>
