<svg width="18" height="22" viewBox="0 0 18 22" fill="none" xmlns="http://www.w3.org/2000/svg">
<path fill-rule="evenodd" clip-rule="evenodd" d="M2.66191 2.39938C4.31794 0.829001 6.57331 0 9 0C11.4267 0 13.6821 0.829001 15.3381 2.39938C17.0023 3.9775 18 6.24707 18 9C18 10.6065 17.4203 12.2133 16.629 13.6721C15.8329 15.1399 14.7842 16.5283 13.7564 17.7167C12.7259 18.9082 11.6984 19.9193 10.9299 20.6318C10.5449 20.9886 10.2233 21.2721 9.99649 21.4675C9.88306 21.5653 9.79324 21.6411 9.73097 21.6931C9.69983 21.7191 9.67557 21.7392 9.65868 21.7531L9.63893 21.7693L9.63331 21.7739L9.63159 21.7753C9.63137 21.7755 9.63059 21.7761 9 21C8.36941 21.7761 8.36922 21.776 8.369 21.7758L8.36669 21.7739L8.36107 21.7693L8.34132 21.7531C8.32443 21.7392 8.30017 21.7191 8.26903 21.6931C8.20676 21.6411 8.11694 21.5653 8.00351 21.4675C7.77672 21.2721 7.45508 20.9886 7.07014 20.6318C6.30157 19.9193 5.27412 18.9082 4.24364 17.7167C3.21584 16.5283 2.16705 15.1399 1.37097 13.6721C0.579748 12.2133 0 10.6065 0 9C0 6.24707 0.9977 3.9775 2.66191 2.39938ZM9 21L8.369 21.7758C8.7364 22.0743 9.26319 22.0746 9.63059 21.7761L9 21ZM9 19.6822C9.16491 19.536 9.35701 19.3627 9.57014 19.1651C10.3016 18.487 11.2741 17.5293 12.2436 16.4083C13.2158 15.2842 14.1671 14.0164 14.871 12.7185C15.5797 11.4117 16 10.1435 16 9C16 6.75293 15.1977 5.0225 13.9619 3.85062C12.7179 2.671 10.9733 2 9 2C7.02669 2 5.28206 2.671 4.03809 3.85062C2.8023 5.0225 2 6.75293 2 9C2 10.1435 2.42025 11.4117 3.12903 12.7185C3.83295 14.0164 4.78416 15.2842 5.75636 16.4083C6.72588 17.5293 7.69843 18.487 8.42986 19.1651C8.64299 19.3627 8.83509 19.536 9 19.6822Z" fill="#54DF6C"/>
<path fill-rule="evenodd" clip-rule="evenodd" d="M9 6C7.89543 6 7 6.89543 7 8C7 9.10457 7.89543 10 9 10C10.1046 10 11 9.10457 11 8C11 6.89543 10.1046 6 9 6ZM5 8C5 5.79086 6.79086 4 9 4C11.2091 4 13 5.79086 13 8C13 10.2091 11.2091 12 9 12C6.79086 12 5 10.2091 5 8Z" fill="#54DF6C"/>
</svg>
