<svg width="13" height="16" viewBox="0 0 13 16" fill="none" xmlns="http://www.w3.org/2000/svg">
<path fill-rule="evenodd" clip-rule="evenodd" d="M1.92103 1.7681C3.123 0.607576 4.75552 0 6.5 0C8.24448 0 9.877 0.607576 11.079 1.7681C12.2878 2.9352 13 4.60288 13 6.6C13 7.78984 12.5793 8.96295 12.0232 10.0069C11.4625 11.0594 10.7272 12.0494 10.0122 12.8911C9.29455 13.736 8.57988 14.452 8.0458 14.9561C7.77812 15.2088 7.55419 15.4098 7.3958 15.5487C7.31657 15.6182 7.25362 15.6723 7.20968 15.7097L7.15832 15.7531L7.14394 15.7651L7.1383 15.7698C7.1381 15.7699 7.13742 15.7705 6.5 15C5.86258 15.7705 5.8624 15.7704 5.8622 15.7702L5.85606 15.7651L5.84168 15.7531L5.79032 15.7097C5.74638 15.6723 5.68343 15.6182 5.6042 15.5487C5.44581 15.4098 5.22188 15.2088 4.9542 14.9561C4.42012 14.452 3.70545 13.736 2.98784 12.8911C2.27281 12.0494 1.53747 11.0594 0.976786 10.0069C0.420707 8.96295 0 7.78984 0 6.6C0 4.60288 0.712244 2.9352 1.92103 1.7681ZM6.5 15L5.8622 15.7702C6.23207 16.0762 6.76756 16.0765 7.13742 15.7705L6.5 15ZM6.5 13.6634C6.55495 13.6125 6.61271 13.5586 6.67295 13.5017C7.17012 13.0324 7.83045 12.3703 8.48784 11.5964C9.14781 10.8194 9.78747 9.94996 10.258 9.06657C10.7332 8.17455 11 7.33516 11 6.6C11 5.09712 10.4747 3.9648 9.68978 3.2069C8.898 2.44242 7.78052 2 6.5 2C5.21948 2 4.102 2.44242 3.31022 3.2069C2.52526 3.9648 2 5.09712 2 6.6C2 7.33516 2.26679 8.17455 2.74196 9.06657C3.21253 9.94996 3.85219 10.8194 4.51216 11.5964C5.16955 12.3703 5.82988 13.0324 6.32705 13.5017C6.38729 13.5586 6.44504 13.6125 6.5 13.6634Z" fill="#54DF6C"/>
<path fill-rule="evenodd" clip-rule="evenodd" d="M6.5 6C6.22386 6 6 6.22386 6 6.5C6 6.77614 6.22386 7 6.5 7C6.77614 7 7 6.77614 7 6.5C7 6.22386 6.77614 6 6.5 6ZM4 6.5C4 5.11929 5.11929 4 6.5 4C7.88071 4 9 5.11929 9 6.5C9 7.88071 7.88071 9 6.5 9C5.11929 9 4 7.88071 4 6.5Z" fill="#54DF6C"/>
</svg>
