<svg width="113" height="79" viewBox="0 0 113 79" fill="none" xmlns="http://www.w3.org/2000/svg">
<path d="M99.1 33.6999L109 39.3999C112.6 41.4999 112.6 44.8999 109 46.9999L56.4 77.3999C52.8 79.4999 46.9 79.4999 43.2 77.3999L33.3 71.6999C38.8 68.5999 38.8 63.3999 33.3 60.2999C27.8 57.1999 19 57.1999 13.6 60.2999L3.7 54.5999C0.0999999 52.4999 0.0999999 49.0999 3.7 46.9999L56.4 16.5999C60 14.4999 65.9 14.4999 69.6 16.5999L79.5 22.2999C74 25.4999 74 30.4999 79.5 33.6999C84.9 36.7999 93.7 36.7999 99.1 33.6999Z" fill="#BDBDBD"/>
<path d="M99.1 19.6999L109 25.3999C112.6 27.4999 112.6 30.8999 109 32.9999L56.4 63.3999C52.8 65.4999 46.9 65.4999 43.2 63.3999L33.3 57.6999C38.8 54.5999 38.8 49.3999 33.3 46.2999C27.8 43.1999 19 43.1999 13.6 46.2999L3.7 40.5999C0.0999999 38.4999 0.0999999 35.0999 3.7 32.9999L56.4 2.5999C60 0.499902 65.9 0.499902 69.6 2.5999L79.5 8.2999C74 11.4999 74 16.4999 79.5 19.6999C84.9 22.7999 93.7 22.7999 99.1 19.6999Z" fill="white"/>
<path fill-rule="evenodd" clip-rule="evenodd" d="M62.9625 2.0249C60.7033 2.0249 58.5137 2.52461 56.9039 3.46368L56.8997 3.46612L4.20387 33.8637C4.2032 33.8641 4.20254 33.8645 4.20187 33.8648C2.5873 34.8073 2 35.9037 2 36.7999C2 37.696 2.58714 38.7922 4.20121 39.7346C4.2021 39.7351 4.20298 39.7356 4.20387 39.7361L13.6124 45.1531C16.4226 43.6847 19.9368 42.9749 23.4125 42.9749C27.1029 42.9749 30.8569 43.775 33.791 45.4287C36.73 47.0853 38.425 49.4399 38.425 51.9999C38.425 54.1145 37.2685 56.0889 35.2098 57.6456L43.6936 62.5302C43.6945 62.5307 43.6954 62.5312 43.6963 62.5317C45.3618 63.4762 47.5808 63.9749 49.8375 63.9749C52.0967 63.9749 54.2863 63.4752 55.8961 62.5361L55.8996 62.5341L108.496 32.1361C108.497 32.1357 108.497 32.1354 108.498 32.135C110.113 31.1925 110.7 30.0961 110.7 29.1999C110.7 28.3038 110.113 27.2075 108.499 26.2651C108.498 26.2646 108.497 26.2642 108.496 26.2637L99.0876 20.8467C96.2776 22.315 92.7642 23.0249 89.3 23.0249C85.6227 23.0249 81.8901 22.225 79.0021 20.5672L78.9971 20.5643C76.0763 18.8649 74.375 16.5402 74.375 13.9999C74.375 11.8951 75.543 9.93837 77.6048 8.36265L69.1064 3.46959C69.1056 3.46913 69.1048 3.46868 69.104 3.46822C67.4385 2.52366 65.2193 2.0249 62.9625 2.0249ZM62.9625 0.0249023C65.4796 0.0249023 68.0594 0.575666 70.0936 1.73022L70.099 1.73326L79.999 7.43328C80.3082 7.61135 80.4992 7.94075 80.5 8.29763C80.5008 8.65451 80.3114 8.98478 80.0029 9.16425C77.4237 10.6649 76.375 12.4402 76.375 13.9999C76.375 15.5592 77.4231 17.3338 80.0005 18.8342C82.5123 20.2753 85.8785 21.0249 89.3 21.0249C92.7227 21.0249 96.0901 20.2748 98.6021 18.8327C98.9108 18.6554 99.2905 18.6557 99.599 18.8333L109.504 24.5361C111.488 25.6934 112.7 27.3465 112.7 29.1999C112.7 31.0533 111.488 32.7064 109.504 33.8637L109.5 33.8657L56.9039 64.2637C56.9031 64.2642 56.9022 64.2646 56.9014 64.2651C54.9116 65.4251 52.3523 65.9749 49.8375 65.9749C47.3204 65.9749 44.7406 65.4241 42.7064 64.2696L42.701 64.2665L32.801 58.5665C32.4896 58.3872 32.2984 58.0546 32.3 57.6953C32.3017 57.336 32.496 57.0052 32.809 56.8288C35.37 55.3853 36.425 53.5899 36.425 51.9999C36.425 50.4099 35.37 48.6145 32.809 47.1711C30.2431 45.7248 26.8471 44.9749 23.4125 44.9749C19.977 44.9749 16.6097 45.7252 14.0979 47.1672C13.7892 47.3444 13.4095 47.3441 13.101 47.1665L3.20104 41.4665L3.19613 41.4637C1.21221 40.3064 0 38.6533 0 36.7999C0 34.9465 1.21221 33.2934 3.19613 32.1361L3.20033 32.1337L55.8961 1.73612C55.8968 1.73571 55.8976 1.73529 55.8983 1.73487C57.8881 0.574798 60.4476 0.0249023 62.9625 0.0249023Z" fill="#EBEBEB"/>
<path d="M57.2001 41.5C57.0001 41.6 56.7001 41.7001 56.3001 41.7001C55.6001 41.7001 55.1001 41.4 55.1001 41V23C55.1001 22.6 55.6001 22.3 56.3001 22.3C57.0001 22.3 57.5001 22.6 57.5001 23V41C57.6001 41.2 57.5001 41.3 57.2001 41.5Z" fill="#EBEBEB"/>
<path d="M49.4002 34C47.5002 35.1 44.4002 35.1 42.5002 34C40.6002 32.9 40.6002 31.1 42.5002 30C44.4002 28.9 47.5002 28.9 49.4002 30C51.3002 31.1 51.3002 32.9 49.4002 34ZM44.2002 31C43.2002 31.6 43.2002 32.4 44.2002 33C45.2002 33.6 46.7002 33.6 47.7002 33C48.7002 32.4 48.7002 31.6 47.7002 31C46.8002 30.4 45.2002 30.4 44.2002 31Z" fill="#EBEBEB"/>
<path d="M70.2002 34C68.3002 35.1 65.2002 35.1 63.3002 34C61.4002 32.9 61.4002 31.1 63.3002 30C65.2002 28.9 68.3002 28.9 70.2002 30C72.1002 31.1 72.1002 32.9 70.2002 34ZM65.0002 31C64.0002 31.6 64.0002 32.4 65.0002 33C66.0002 33.6 67.5002 33.6 68.5002 33C69.5002 32.4 69.5002 31.6 68.5002 31C67.5002 30.4 66.0002 30.4 65.0002 31Z" fill="#EBEBEB"/>
</svg>
