<svg width="20" height="20" viewBox="0 0 20 20" fill="none" xmlns="http://www.w3.org/2000/svg">
<path fill-rule="evenodd" clip-rule="evenodd" d="M0 1C0 0.447715 0.447715 0 1 0H8C8.55228 0 9 0.447715 9 1V8C9 8.55228 8.55228 9 8 9H1C0.447715 9 0 8.55228 0 8V1ZM2 2V7H7V2H2Z" fill="#ffffff"/>
<path fill-rule="evenodd" clip-rule="evenodd" d="M0 12C0 11.4477 0.447715 11 1 11H8C8.55228 11 9 11.4477 9 12V19C9 19.5523 8.55228 20 8 20H1C0.447715 20 0 19.5523 0 19V12ZM2 13V18H7V13H2Z" fill="#ffffff"/>
<path fill-rule="evenodd" clip-rule="evenodd" d="M11 1C11 0.447715 11.4477 0 12 0H19C19.5523 0 20 0.447715 20 1V8C20 8.55228 19.5523 9 19 9H12C11.4477 9 11 8.55228 11 8V1ZM13 2V7H18V2H13Z" fill="#ffffff"/>
<path fill-rule="evenodd" clip-rule="evenodd" d="M12 11C12.5523 11 13 11.4477 13 12V16C13 16.5523 12.5523 17 12 17C11.4477 17 11 16.5523 11 16V12C11 11.4477 11.4477 11 12 11Z" fill="#ffffff"/>
<path fill-rule="evenodd" clip-rule="evenodd" d="M18 15C18.5523 15 19 15.4477 19 16V19C19 19.5523 18.5523 20 18 20C17.4477 20 17 19.5523 17 19V16C17 15.4477 17.4477 15 18 15Z" fill="#ffffff"/>
<path fill-rule="evenodd" clip-rule="evenodd" d="M12 15C12 14.4477 12.4477 14 13 14H14C14.5523 14 15 14.4477 15 15C15 15.5523 14.5523 16 14 16H13C12.4477 16 12 15.5523 12 15Z" fill="#ffffff"/>
<path fill-rule="evenodd" clip-rule="evenodd" d="M11 19C11 18.4477 11.4477 18 12 18H14C14.5523 18 15 18.4477 15 19C15 19.5523 14.5523 20 14 20H12C11.4477 20 11 19.5523 11 19Z" fill="#ffffff"/>
<path fill-rule="evenodd" clip-rule="evenodd" d="M15 12C15 11.4477 15.4477 11 16 11H18C18.5523 11 19 11.4477 19 12C19 12.5523 18.5523 13 18 13H16C15.4477 13 15 12.5523 15 12Z" fill="#ffffff"/>
</svg>
