<svg width="122" height="203" viewBox="0 0 122 203" fill="none" xmlns="http://www.w3.org/2000/svg">
<path d="M96.5 51.8154L88.1686 111.69L96.5 176.62V188.174C96.5 196.237 90.4463 202.736 83.014 202.736H13.486C6.05373 202.736 0 196.237 0 188.174V176.439L8.87081 111.69L0 51.695V40.5625C0 32.499 6.05373 26 13.486 26H83.014C90.4463 26 96.5 32.499 96.5 40.5625V51.8154Z" fill="#47C05C"/>
<path d="M80.0171 40.5625V188.113C80.0171 196.177 73.9633 202.676 66.5311 202.676H13.486C6.05373 202.676 0 196.177 0 188.113V176.379L8.87081 111.63L0 51.695V40.5625C0 32.499 6.05373 26 13.486 26H66.5311C73.9633 26.0602 80.0171 32.5592 80.0171 40.5625Z" fill="#54DF6C"/>
<path d="M96.5 51.6949H0V176.379H96.5V51.6949Z" fill="#E2E4ED"/>
<path d="M80.0171 51.6949H0V176.379H80.0171V51.6949Z" fill="#F2F3F7"/>
<path d="M56.9413 192.867H39.4993C37.5813 192.867 36.0229 191.303 36.0229 189.377C36.0229 187.452 37.5813 185.887 39.4993 185.887H56.9413C58.8593 185.887 60.4177 187.452 60.4177 189.377C60.4177 191.303 58.8593 192.867 56.9413 192.867Z" fill="white" fill-opacity="0.4"/>
<path d="M54.4236 42.3678H42.0164C40.0984 42.3678 38.54 40.8033 38.54 38.8776C38.54 36.952 40.0984 35.3875 42.0164 35.3875H54.4835C56.4015 35.3875 57.9599 36.952 57.9599 38.8776C57.9 40.8033 56.3416 42.3678 54.4236 42.3678Z" fill="white" fill-opacity="0.4"/>
<path d="M28.5 112L44.5 128L73.5 99" stroke="#848490" stroke-width="8" stroke-linecap="round" stroke-linejoin="round"/>
<path d="M94.3758 14.732C93.6352 15.1595 92.7736 15.2634 91.8688 15.0643C90.08 14.5884 89.0575 12.8174 89.5398 11.0304L91.4823 3.67758C91.9646 1.89053 93.7419 0.8644 95.5306 1.34029C97.291 1.76698 98.3419 3.58717 97.8596 5.37422L95.9171 12.727C95.6865 13.5817 95.1163 14.3044 94.3758 14.732Z" fill="#54DF6C"/>
<path d="M118.538 39.4227C117.794 39.8526 116.878 39.9862 116.019 39.7584L108.645 37.762C106.848 37.2856 105.872 35.4796 106.308 33.7137C106.823 31.9684 108.609 30.9368 110.378 31.3638L117.751 33.3602C119.499 33.8653 120.525 35.6426 120.089 37.4085C119.807 38.2955 119.233 39.0216 118.538 39.4227Z" fill="#54DF6C"/>
<path d="M116.604 18.064L110.132 21.8011C108.586 22.6935 106.546 22.0599 105.58 20.3875C104.615 18.7152 105.086 16.6313 106.632 15.7389L113.153 11.974C114.699 11.0815 116.739 11.7152 117.704 13.3875C118.622 15.0877 118.15 17.1716 116.604 18.064Z" fill="#54DF6C"/>
</svg>
