<svg width="26" height="21" viewBox="0 0 26 21" fill="none" xmlns="http://www.w3.org/2000/svg">
<path fill-rule="evenodd" clip-rule="evenodd" d="M14 10C13.4477 10 13 10.4477 13 11V15C13 15.5523 13.4477 16 14 16H19C19.5523 16 20 15.5523 20 15V11C20 10.4477 19.5523 10 19 10H14ZM15 14V12H18V14H15Z" fill="#2F2F2F"/>
<path fill-rule="evenodd" clip-rule="evenodd" d="M0.140101 7.51046C0.320263 7.81395 0.647063 8 1 8H3V20C3 20.5523 3.44772 21 4 21H22C22.5523 21 23 20.5523 23 20V8H25C25.3529 8 25.6797 7.81395 25.8599 7.51046C26.0401 7.20697 26.0469 6.83099 25.8779 6.52115L22.6052 0.521148C22.4299 0.199887 22.0932 0 21.7273 0H4.27273C3.90678 0 3.57007 0.199887 3.39483 0.521148L0.122105 6.52115C-0.0468999 6.83099 -0.0400604 7.20697 0.140101 7.51046ZM6.21922 6H2.68454L4.86636 2H7.21922L6.21922 6ZM8.28077 6H12V2H9.28077L8.28077 6ZM14 6H17.7192L16.7192 2H14V6ZM19.7808 6L18.7808 2H21.1336L23.3155 6H19.7808ZM5 19V8H21V19H12V11C12 10.4477 11.5523 10 11 10H7C6.44772 10 6 10.4477 6 11V19H5ZM10 19H8V12H10V19Z" fill="#2F2F2F"/>
</svg>
