<svg width="115" height="120" viewBox="0 0 115 120" fill="none" xmlns="http://www.w3.org/2000/svg">
<path d="M114.156 114.102V6.02101C114.156 5.16085 113.787 4.42356 113.296 3.80916L110.715 1.22868C110.101 0.614275 109.364 0.368515 108.503 0.368515H6.02127C5.16111 0.245634 4.42383 0.614275 3.80942 1.22868L1.22894 3.80916C0.614535 4.42356 0.368774 5.16085 0.368774 6.02101V114.102C0.368774 114.962 0.737415 115.699 1.22894 116.313L3.80942 118.894C4.42383 119.508 5.16111 119.754 6.02127 119.754H108.503C109.364 119.754 110.101 119.385 110.715 118.894L113.296 116.313C113.787 115.699 114.156 114.839 114.156 114.102Z" fill="#2D2D2D"/>
<path d="M108.503 120H6.02114C5.16097 120 4.30081 119.631 3.56353 119.017L0.983043 116.436C0.368641 115.822 0 114.962 0 113.979V6.02114C0 5.16097 0.368641 4.30081 0.983043 3.56353L3.56353 0.983043C4.17793 0.368641 5.03809 0 6.02114 0H108.503C109.363 0 110.224 0.368641 110.961 0.983043L113.541 3.56353C114.156 4.17793 114.524 5.03809 114.524 6.02114V114.102C114.524 114.962 114.156 115.822 113.541 116.559L110.961 119.14C110.224 119.631 109.363 120 108.503 120ZM6.02114 0.614402C5.28385 0.614402 4.54657 0.860162 4.05505 1.47456L1.47456 4.05505C0.983043 4.54657 0.614402 5.28385 0.614402 6.02114V114.102C0.614402 114.839 0.860162 115.576 1.47456 116.068L4.05505 118.648C4.54657 119.14 5.28385 119.508 6.02114 119.508H108.503C109.241 119.508 109.978 119.263 110.469 118.648L113.05 116.068C113.541 115.576 113.91 114.839 113.91 114.102V6.02114C113.91 5.28385 113.664 4.54657 113.05 4.05505L110.469 1.47456C109.978 0.983043 109.241 0.614402 108.503 0.614402H6.02114Z" fill="#1D1D1B"/>
<path d="M7.12712 5.40658L5.16104 7.37267C4.42376 8.10995 4.05511 8.97011 4.05511 9.95315V30.4742C4.05511 31.4572 4.42376 32.4403 5.16104 33.0547L7.12712 35.0207C7.86441 35.758 8.72457 36.1267 9.70761 36.1267H104.694C105.677 36.1267 106.66 35.758 107.275 35.0207L109.241 33.0547C109.978 32.3174 110.347 31.4572 110.347 30.4742V9.95315C110.347 8.97011 109.978 7.98707 109.241 7.37267L107.275 5.40658C106.537 4.6693 105.677 4.30066 104.694 4.30066H9.70761C8.72457 4.42354 7.74153 4.79218 7.12712 5.40658Z" fill="#2D2D2D"/>
<path d="M104.694 36.3725H9.70748C8.60155 36.3725 7.61851 36.0039 6.88123 35.1437L4.91514 33.3005C4.17786 32.5632 3.68634 31.5802 3.68634 30.4743V9.95327C3.68634 8.84734 4.05498 7.8643 4.91514 7.12702L6.88123 5.16093C7.61851 4.42365 8.60155 3.93213 9.70748 3.93213H104.694C105.8 3.93213 106.783 4.30077 107.52 5.16093L109.486 7.12702C110.224 7.8643 110.715 8.84734 110.715 9.95327V30.4743C110.715 31.5802 110.346 32.5632 109.486 33.3005L107.52 35.2666C106.783 36.0039 105.8 36.3725 104.694 36.3725ZM9.70748 4.66941C8.84731 4.66941 7.98715 5.03805 7.37275 5.65245L5.40667 7.61854C4.79226 8.23294 4.42362 9.0931 4.42362 9.95327V30.4743C4.42362 31.3344 4.79226 32.1946 5.40667 32.809L7.37275 34.7751C7.98715 35.3895 8.84731 35.7581 9.70748 35.7581H104.694C105.554 35.7581 106.414 35.3895 107.029 34.7751L108.995 32.809C109.609 32.1946 109.978 31.3344 109.978 30.4743V9.95327C109.978 9.0931 109.609 8.23294 108.995 7.61854L107.029 5.65245C106.414 5.03805 105.554 4.66941 104.694 4.66941H9.70748Z" fill="#1D1D1B"/>
<path d="M55.0504 51.6095C55.6612 51.6095 56.1563 51.1144 56.1563 50.5036C56.1563 49.8928 55.6612 49.3977 55.0504 49.3977C54.4396 49.3977 53.9445 49.8928 53.9445 50.5036C53.9445 51.1144 54.4396 51.6095 55.0504 51.6095Z" fill="#686868"/>
<path d="M60.8257 51.6095C61.4365 51.6095 61.9316 51.1144 61.9316 50.5036C61.9316 49.8928 61.4365 49.3977 60.8257 49.3977C60.2149 49.3977 59.7198 49.8928 59.7198 50.5036C59.7198 51.1144 60.2149 51.6095 60.8257 51.6095Z" fill="#686868"/>
<path d="M55.0504 69.0588C55.6612 69.0588 56.1563 68.5636 56.1563 67.9528C56.1563 67.3421 55.6612 66.8469 55.0504 66.8469C54.4396 66.8469 53.9445 67.3421 53.9445 67.9528C53.9445 68.5636 54.4396 69.0588 55.0504 69.0588Z" fill="#686868"/>
<path d="M60.8257 69.0588C61.4365 69.0588 61.9316 68.5636 61.9316 67.9528C61.9316 67.3421 61.4365 66.8469 60.8257 66.8469C60.2149 66.8469 59.7198 67.3421 59.7198 67.9528C59.7198 68.5636 60.2149 69.0588 60.8257 69.0588Z" fill="#686868"/>
<path d="M55.0504 86.6306C55.6612 86.6306 56.1563 86.1354 56.1563 85.5246C56.1563 84.9138 55.6612 84.4187 55.0504 84.4187C54.4396 84.4187 53.9445 84.9138 53.9445 85.5246C53.9445 86.1354 54.4396 86.6306 55.0504 86.6306Z" fill="#686868"/>
<path d="M60.8257 86.6306C61.4365 86.6306 61.9316 86.1354 61.9316 85.5246C61.9316 84.9138 61.4365 84.4187 60.8257 84.4187C60.2149 84.4187 59.7198 84.9138 59.7198 85.5246C59.7198 86.1354 60.2149 86.6306 60.8257 86.6306Z" fill="#686868"/>
<path d="M55.0504 104.08C55.6612 104.08 56.1563 103.585 56.1563 102.974C56.1563 102.363 55.6612 101.868 55.0504 101.868C54.4396 101.868 53.9445 102.363 53.9445 102.974C53.9445 103.585 54.4396 104.08 55.0504 104.08Z" fill="#686868"/>
<path d="M60.8257 104.08C61.4365 104.08 61.9316 103.585 61.9316 102.974C61.9316 102.363 61.4365 101.868 60.8257 101.868C60.2149 101.868 59.7198 102.363 59.7198 102.974C59.7198 103.585 60.2149 104.08 60.8257 104.08Z" fill="#686868"/>
<path d="M22.1182 54.559C19.9064 54.559 18.0632 52.7157 18.0632 50.5039C18.0632 48.2921 19.9064 46.4489 22.1182 46.4489H45.3426C47.5545 46.4489 49.3977 48.2921 49.3977 50.5039C49.3977 52.7157 47.5545 54.559 45.3426 54.559H22.1182Z" fill="#54DF6C"/>
<path d="M45.3434 46.9402C47.3095 46.9402 48.7841 48.5377 48.7841 50.3809C48.7841 52.2241 47.1866 53.8215 45.3434 53.8215H22.119C20.153 53.8215 18.6784 52.2241 18.6784 50.3809C18.6784 48.4148 20.2758 46.9402 22.119 46.9402H45.3434ZM45.3434 45.7114H22.119C19.5386 45.7114 17.4496 47.8004 17.4496 50.3809C17.4496 52.9614 19.5386 55.0503 22.119 55.0503H45.3434C47.9239 55.0503 50.0129 52.9614 50.0129 50.3809C50.0129 47.8004 47.9239 45.7114 45.3434 45.7114Z" fill="#141414"/>
<path d="M70.1645 54.559C67.9526 54.559 66.1094 52.7157 66.1094 50.5039C66.1094 48.2921 67.9526 46.4489 70.1645 46.4489H93.3889C95.6007 46.4489 97.4439 48.2921 97.4439 50.5039C97.4439 52.7157 95.6007 54.559 93.3889 54.559H70.1645Z" fill="#54DF6C"/>
<path d="M93.2659 46.9402C95.232 46.9402 96.7066 48.5377 96.7066 50.3809C96.7066 52.2241 95.1092 53.8215 93.2659 53.8215H70.1644C68.1984 53.8215 66.7238 52.2241 66.7238 50.3809C66.7238 48.4148 68.3212 46.9402 70.1644 46.9402H93.2659ZM93.2659 45.7114H70.1644C67.584 45.7114 65.495 47.8004 65.495 50.3809C65.495 52.9614 67.584 55.0503 70.1644 55.0503H93.3888C95.9693 55.0503 98.0583 52.9614 98.0583 50.3809C98.0583 47.8004 95.9693 45.7114 93.2659 45.7114Z" fill="#141414"/>
<path d="M22.1182 72.1307C19.9064 72.1307 18.0632 70.2875 18.0632 68.0756C18.0632 65.8638 19.9064 63.8977 22.1182 63.8977H45.3426C47.5545 63.8977 49.3977 65.7409 49.3977 67.9528C49.3977 70.1646 47.5545 72.0078 45.3426 72.0078H22.1182V72.1307Z" fill="#54DF6C"/>
<path d="M45.3427 64.512C47.3088 64.512 48.7833 66.1094 48.7833 67.9527C48.7833 69.9187 47.1859 71.3933 45.3427 71.3933H22.1183C20.1522 71.3933 18.6777 69.7959 18.6777 67.9527C18.6777 66.1094 20.2751 64.512 22.1183 64.512H45.3427ZM45.3427 63.2832H22.1183C19.5378 63.2832 17.4489 65.3722 17.4489 67.9527C17.4489 70.5331 19.5378 72.6221 22.1183 72.6221H45.3427C47.9232 72.6221 50.0121 70.5331 50.0121 67.9527C50.0121 65.3722 47.9232 63.2832 45.3427 63.2832Z" fill="#141414"/>
<path d="M70.1645 72.1306C67.9526 72.1306 66.1094 70.2874 66.1094 68.0756C66.1094 65.8637 67.9526 64.0205 70.1645 64.0205H93.3889C95.6007 64.0205 97.4439 65.8637 97.4439 68.0756C97.4439 70.2874 95.6007 72.1306 93.3889 72.1306H70.1645Z" fill="#54DF6C"/>
<path d="M93.2659 64.512C95.232 64.512 96.7066 66.1094 96.7066 67.9527C96.7066 69.9187 95.1092 71.3933 93.2659 71.3933H70.1644C68.1984 71.3933 66.7238 69.7959 66.7238 67.9527C66.7238 66.1094 68.3212 64.512 70.1644 64.512H93.2659ZM93.2659 63.2832H70.1644C67.584 63.2832 65.495 65.3722 65.495 67.9527C65.495 70.5331 67.584 72.6221 70.1644 72.6221H93.3888C95.9693 72.6221 98.0583 70.5331 98.0583 67.9527C98.0583 65.3722 95.9693 63.2832 93.2659 63.2832Z" fill="#141414"/>
<path d="M22.1182 89.5798C19.9064 89.5798 18.0632 87.7366 18.0632 85.5248C18.0632 83.3129 19.9064 81.4697 22.1182 81.4697H45.3426C47.5545 81.4697 49.3977 83.3129 49.3977 85.5248C49.3977 87.7366 47.5545 89.5798 45.3426 89.5798H22.1182Z" fill="#54DF6C"/>
<path d="M45.3427 81.9612C47.3088 81.9612 48.7833 83.5587 48.7833 85.4019C48.7833 87.2451 47.1859 88.8425 45.3427 88.8425H22.1183C20.1522 88.8425 18.6777 87.2451 18.6777 85.4019C18.6777 83.4358 20.2751 81.9612 22.1183 81.9612H45.3427ZM45.3427 80.7324H22.1183C19.5378 80.7324 17.4489 82.8214 17.4489 85.4019C17.4489 87.9824 19.5378 90.0713 22.1183 90.0713H45.3427C47.9232 90.0713 50.0121 87.9824 50.0121 85.4019C50.0121 82.8214 47.9232 80.7324 45.3427 80.7324Z" fill="#141414"/>
<path d="M70.1645 89.5798C67.9526 89.5798 66.1094 87.7366 66.1094 85.5248C66.1094 83.3129 67.9526 81.4697 70.1645 81.4697H93.3889C95.6007 81.4697 97.4439 83.3129 97.4439 85.5248C97.4439 87.7366 95.6007 89.5798 93.3889 89.5798H70.1645Z" fill="#54DF6C"/>
<path d="M93.2659 81.9612C95.232 81.9612 96.7066 83.5587 96.7066 85.4019C96.7066 87.2451 95.1092 88.8425 93.2659 88.8425H70.1644C68.1984 88.8425 66.7238 87.2451 66.7238 85.4019C66.7238 83.4358 68.3212 81.9612 70.1644 81.9612H93.2659ZM93.2659 80.7324H70.1644C67.584 80.7324 65.495 82.8214 65.495 85.4019C65.495 87.9824 67.584 90.0713 70.1644 90.0713H93.3888C95.9693 90.0713 98.0583 87.9824 98.0583 85.4019C98.0583 82.8214 95.9693 80.7324 93.2659 80.7324Z" fill="#141414"/>
<path d="M22.1182 107.152C19.9064 107.152 18.0632 105.309 18.0632 103.097C18.0632 100.885 19.9064 99.0416 22.1182 99.0416H45.3426C47.5545 99.0416 49.3977 100.885 49.3977 103.097C49.3977 105.309 47.5545 107.152 45.3426 107.152H22.1182Z" fill="#54DF6C"/>
<path d="M45.3427 99.533C47.3088 99.533 48.7833 101.13 48.7833 102.974C48.7833 104.94 47.1859 106.414 45.3427 106.414H22.1183C20.1522 106.414 18.6777 104.817 18.6777 102.974C18.6777 101.13 20.2751 99.533 22.1183 99.533H45.3427ZM45.3427 98.3042H22.1183C19.5378 98.3042 17.4489 100.393 17.4489 102.974C17.4489 105.554 19.5378 107.643 22.1183 107.643H45.3427C47.9232 107.643 50.0121 105.554 50.0121 102.974C50.0121 100.393 47.9232 98.3042 45.3427 98.3042Z" fill="#141414"/>
<path d="M70.1645 107.152C67.9526 107.152 66.1094 105.309 66.1094 103.097C66.1094 100.885 67.9526 99.0416 70.1645 99.0416H93.3889C95.6007 99.0416 97.4439 100.885 97.4439 103.097C97.4439 105.309 95.6007 107.152 93.3889 107.152H70.1645Z" fill="#54DF6C"/>
<path d="M93.2659 99.533C95.232 99.533 96.7066 101.13 96.7066 102.974C96.7066 104.94 95.1092 106.414 93.2659 106.414H70.1644C68.1984 106.414 66.7238 104.817 66.7238 102.974C66.7238 101.13 68.3212 99.533 70.1644 99.533H93.2659ZM93.2659 98.3042H70.1644C67.584 98.3042 65.495 100.393 65.495 102.974C65.495 105.554 67.584 107.643 70.1644 107.643H93.3888C95.9693 107.643 98.0583 105.554 98.0583 102.974C98.0583 100.393 95.9693 98.3042 93.2659 98.3042Z" fill="#141414"/>
<path d="M37.6017 19.5379C37.6017 19.1692 37.8475 18.9235 38.2161 18.9235H39.6907C40.7966 18.9235 41.5339 19.6607 41.5339 20.6438C41.5339 21.3811 41.0424 21.9955 40.3051 22.1184L41.411 23.3472C41.5339 23.5929 41.6568 23.7158 41.6568 23.8387C41.6568 23.9616 41.5339 24.4531 41.0424 24.4531C40.6738 24.4531 40.5509 24.3302 40.428 24.2073L38.8305 22.1184V23.7158C38.8305 24.2073 38.5848 24.3302 38.2161 24.3302C37.8475 24.3302 37.6017 24.0844 37.6017 23.7158V19.5379ZM38.7077 21.2582H39.5678C39.9365 21.2582 40.1822 21.0124 40.1822 20.6438C40.1822 20.2751 39.9365 20.0294 39.5678 20.0294H38.7077V21.2582V21.2582Z" fill="white"/>
<path d="M43.0083 22.6099C43.0083 22.8556 43.254 23.2243 43.9913 23.2243C44.6057 23.2243 44.9744 22.8556 45.2201 22.8556C45.4659 22.8556 45.7117 23.1014 45.7117 23.3471C45.7117 23.9615 44.7286 24.3302 43.8684 24.3302C42.6396 24.3302 41.7795 23.3471 41.7795 22.1183C41.7795 21.0124 42.6396 19.9065 43.8684 19.9065C44.9744 19.9065 45.8345 20.8895 45.8345 21.8726C45.8345 22.2412 45.5888 22.3641 45.2201 22.3641L43.0083 22.6099ZM44.4828 21.8726C44.4828 21.6268 44.2371 21.1353 43.7456 21.1353C43.254 21.1353 43.0083 21.6268 43.0083 21.8726H44.4828Z" fill="white"/>
<path d="M47.9236 20.1522C48.4151 20.1522 49.2753 20.2751 49.2753 20.8895C49.2753 21.2581 49.0295 21.381 48.7838 21.381C48.538 21.381 48.4151 21.1353 47.9236 21.1353C47.3092 21.1353 47.0634 21.6268 47.0634 22.1183C47.0634 22.6098 47.3092 23.1013 47.9236 23.1013C48.538 23.1013 48.6609 22.8556 48.7838 22.8556C49.0295 22.8556 49.2753 23.1013 49.2753 23.3471C49.2753 23.9615 48.4151 24.2073 47.9236 24.2073C46.6948 24.2073 45.9575 23.2242 45.9575 21.9954C45.9575 21.0124 46.6948 20.1522 47.9236 20.1522Z" fill="white"/>
<path d="M49.521 19.0464C49.521 18.6778 49.7668 18.432 50.1354 18.432C50.504 18.432 50.7498 18.6778 50.7498 19.0464V20.3981C50.9956 20.2752 51.2413 20.1523 51.7328 20.1523C52.593 20.1523 53.2074 20.6439 53.2074 21.6269V23.8387C53.2074 24.2074 52.9616 24.4531 52.593 24.4531C52.2244 24.4531 51.9786 24.2074 51.9786 23.8387V21.9955C51.9786 21.6269 51.7328 21.2583 51.3642 21.2583C50.9956 21.2583 50.7498 21.504 50.7498 21.9955V23.8387C50.7498 24.2074 50.504 24.4531 50.1354 24.4531C49.7668 24.4531 49.521 24.2074 49.521 23.8387V19.0464Z" fill="white"/>
<path d="M57.5083 23.7157C57.5083 24.0843 57.2626 24.3301 56.8939 24.3301C56.6482 24.3301 56.4024 24.0843 56.4024 23.9615C56.1567 24.3301 55.788 24.453 55.4194 24.453C54.4363 24.453 53.5762 23.4699 53.5762 22.2411C53.5762 21.0123 54.3135 20.0293 55.4194 20.0293C55.9109 20.0293 56.1567 20.1522 56.4024 20.5208C56.5253 20.2751 56.6482 20.1522 56.8939 20.1522C57.2626 20.1522 57.5083 20.3979 57.5083 20.7666V23.7157ZM54.805 22.2411C54.805 22.7327 55.0507 23.2242 55.6651 23.2242C56.2795 23.2242 56.5253 22.7327 56.5253 22.2411C56.5253 21.7496 56.2795 21.2581 55.6651 21.2581C55.0507 21.2581 54.805 21.7496 54.805 22.2411Z" fill="white"/>
<path d="M58.1226 20.7666C58.1226 20.3979 58.3684 20.1522 58.737 20.1522C59.1057 20.1522 59.2285 20.3979 59.3514 20.5208C59.5972 20.2751 59.8429 20.0293 60.2116 20.0293C60.4573 20.0293 60.826 20.2751 60.826 20.6437C60.826 21.0123 60.5802 21.1352 60.0887 21.2581C59.5972 21.381 59.4743 21.5039 59.4743 22.1183V23.5928C59.4743 23.9615 59.2285 24.2072 58.8599 24.2072C58.4913 24.2072 58.2455 23.9615 58.2455 23.5928V20.7666H58.1226Z" fill="white"/>
<path d="M64.5124 23.9615C64.5124 25.4361 63.5294 26.0505 62.4235 26.0505C61.8091 26.0505 60.7031 25.8047 60.7031 25.1903C60.7031 24.9446 60.9489 24.6988 61.1947 24.6988C61.5633 24.6988 61.8091 25.0674 62.4235 25.0674C63.1607 25.0674 63.4065 24.6988 63.4065 23.9615C63.1607 24.3302 62.7921 24.453 62.3006 24.453C61.1947 24.453 60.5803 23.47 60.5803 22.3641C60.5803 21.1353 61.3175 20.1522 62.4235 20.1522C62.915 20.1522 63.1607 20.2751 63.4065 20.6437C63.5294 20.398 63.6523 20.2751 63.898 20.2751C64.2667 20.2751 64.5124 20.5209 64.5124 20.8895V23.9615ZM62.5463 21.2581C62.0548 21.2581 61.6862 21.7497 61.6862 22.2412C61.6862 22.8556 61.9319 23.2242 62.5463 23.2242C63.1608 23.2242 63.4065 22.7327 63.4065 22.2412C63.4065 21.7497 63.0379 21.2581 62.5463 21.2581Z" fill="white"/>
<path d="M66.2327 22.6099C66.2327 22.8556 66.4785 23.2243 67.2158 23.2243C67.8302 23.2243 68.1988 22.8556 68.4446 22.8556C68.6903 22.8556 68.9361 23.1014 68.9361 23.3471C68.9361 23.9615 67.953 24.3302 67.0929 24.3302C65.8641 24.3302 65.0039 23.3471 65.0039 22.1183C65.0039 21.0124 65.8641 19.9065 67.0929 19.9065C68.1988 19.9065 69.059 20.8895 69.059 21.8726C69.059 22.2412 68.8132 22.3641 68.4446 22.3641L66.2327 22.6099ZM67.7073 21.8726C67.7073 21.6268 67.4615 21.1353 66.97 21.1353C66.4785 21.1353 66.2327 21.6268 66.2327 21.8726H67.7073Z" fill="white"/>
<path d="M69.3047 19.4149C69.3047 18.9234 69.5505 18.8005 69.9192 18.8005C70.2878 18.8005 70.4107 18.9234 70.7793 19.4149L72.7454 21.9954V19.4149C72.7454 18.9234 72.9912 18.8005 73.3598 18.8005C73.7284 18.8005 73.9742 19.0463 73.9742 19.4149V23.5929C73.9742 24.0844 73.7284 24.2073 73.3598 24.2073C72.9912 24.2073 72.8683 24.0844 72.4996 23.5929L70.5336 21.0124V23.5929C70.5336 24.0844 70.2878 24.2073 69.9192 24.2073C69.5505 24.2073 69.3047 23.9615 69.3047 23.5929V19.4149Z" fill="#54DF6C"/>
<path d="M78.3979 22.2411C78.3979 23.4699 77.6606 24.453 76.4318 24.453C75.203 24.453 74.4657 23.4699 74.4657 22.2411C74.4657 21.0123 75.203 20.0293 76.4318 20.0293C77.6606 20.1522 78.3979 21.0123 78.3979 22.2411ZM75.5716 22.2411C75.5716 22.7327 75.8174 23.2242 76.4318 23.2242C76.9233 23.2242 77.2919 22.7327 77.2919 22.2411C77.2919 21.7496 77.0462 21.2581 76.4318 21.2581C75.9403 21.2581 75.5716 21.7496 75.5716 22.2411Z" fill="#54DF6C"/>
<path d="M78.6436 21.381C78.5208 21.1352 78.5208 20.8895 78.3979 20.7666C78.3979 20.5208 78.6437 20.1522 79.0123 20.1522C79.2581 20.1522 79.5038 20.2751 79.6267 20.5208L80.2411 22.4869L80.7326 20.7666C80.8555 20.5208 80.9784 20.0293 81.347 20.0293C81.7157 20.0293 81.8385 20.3979 81.9614 20.7666L82.4529 22.4869L83.0673 20.5208C83.1902 20.2751 83.3131 20.1522 83.6817 20.1522C84.0504 20.1522 84.2961 20.3979 84.2961 20.7666C84.2961 21.0123 84.1733 21.1352 84.0504 21.381L83.1902 23.7157C83.0673 24.0843 82.8216 24.3301 82.4529 24.3301C81.9614 24.3301 81.8385 24.0843 81.7157 23.7157L81.2241 22.2411L80.7326 23.7157C80.6097 24.0843 80.4869 24.3301 79.9953 24.3301C79.6267 24.3301 79.3809 24.0843 79.2581 23.7157L78.6436 21.381Z" fill="#54DF6C"/>
<path d="M36.6185 27.5252H31.9491C30.8432 27.5252 29.8601 26.5421 29.8601 25.4362V17.2032C29.8601 16.0973 30.7203 15.1143 31.9491 15.1143H36.6185C37.7244 15.1143 38.7075 16.0973 38.7075 17.2032C38.7075 17.449 38.4617 17.6947 38.216 17.6947C37.9702 17.6947 37.7244 17.449 37.7244 17.2032C37.7244 16.7117 37.2329 16.2202 36.7414 16.2202H31.9491C31.4576 16.2202 30.966 16.7117 30.966 17.2032V25.4362C30.966 25.9277 31.4576 26.4192 31.9491 26.4192H36.6185C36.8643 26.4192 37.6016 26.2964 37.6016 25.682C37.6016 25.4362 37.8473 25.1904 38.0931 25.1904C38.3389 25.1904 38.5846 25.4362 38.5846 25.682C38.5846 26.7879 37.8473 27.5252 36.6185 27.5252Z" fill="#54DF6C"/>
<path d="M35.8814 15.8515H32.6865V14.7456C32.6865 14.3769 33.0551 14.0083 33.4237 14.0083H35.1441C35.6356 14.0083 35.8814 14.3769 35.8814 14.7456V15.8515Z" fill="#54DF6C"/>
<path d="M35.1441 18.0635L32.1949 21.8728H33.9153L33.5466 24.4533L36.4958 20.644H34.7754L35.1441 18.0635Z" fill="#54DF6C"/>
<path d="M103.097 28.9997H90.8085C89.7026 28.9997 88.8424 28.1396 88.8424 27.0337V14.7456C88.8424 13.6397 89.7026 12.7795 90.8085 12.7795H103.097C104.202 12.7795 105.063 13.6397 105.063 14.7456V27.0337C105.063 28.0167 104.202 28.9997 103.097 28.9997Z" fill="white"/>
<path d="M94.6182 14.7462H90.809V18.5555H94.6182V14.7462ZM93.881 17.8182H91.5462V15.4835H93.881V17.8182Z" fill="#2D2D2D"/>
<path d="M94.7411 18.6784H90.809V14.7462H94.7411V18.6784ZM90.9318 18.4326H94.6182V14.7462H90.9318V18.4326ZM94.0038 17.8182H91.5462V15.3606H94.0038V17.8182ZM91.6691 17.6953H93.7581V15.6064H91.6691V17.6953Z" fill="#2D2D2D"/>
<path d="M93.1432 16.2202H92.4059V16.9575H93.1432V16.2202Z" fill="#2D2D2D"/>
<path d="M93.2661 17.0804H92.4059V16.2202H93.2661V17.0804ZM92.4059 16.9575H93.0203V16.3431H92.4059V16.9575Z" fill="#2D2D2D"/>
<path d="M99.1641 14.7457V18.555H102.973V14.7457H99.1641ZM102.236 17.8177H99.9014V15.483H102.236V17.8177Z" fill="#2D2D2D"/>
<path d="M103.096 18.6779H99.1641V14.7457H103.096V18.6779ZM99.287 18.4321H102.973V14.7457H99.287V18.4321ZM102.359 17.8177H99.9014V15.3601H102.359V17.8177ZM100.024 17.6949H102.113V15.6059H100.024V17.6949Z" fill="#2D2D2D"/>
<path d="M101.499 16.2202H100.762V16.9575H101.499V16.2202Z" fill="#2D2D2D"/>
<path d="M101.622 17.0804H100.762V16.2202H101.622V17.0804ZM100.762 16.9575H101.376V16.3431H100.762V16.9575Z" fill="#2D2D2D"/>
<path d="M90.8083 26.9109H94.6176V23.1016H90.8083V26.9109ZM91.6685 23.8388H94.0032V26.1736H91.6685V23.8388Z" fill="#2D2D2D"/>
<path d="M94.7405 27.0337H90.8083V23.1016H94.7405V27.0337ZM90.9312 26.788H94.6176V23.1016H90.9312V26.788ZM94.0032 26.1736H91.5456V23.716H94.0032V26.1736ZM91.6685 26.0507H93.7575V23.9617H91.6685V26.0507Z" fill="#2D2D2D"/>
<path d="M93.1432 24.5763H92.4059V25.3136H93.1432V24.5763Z" fill="#2D2D2D"/>
<path d="M93.2661 25.4365H92.4059V24.5763H93.2661V25.4365ZM92.4059 25.3136H93.0203V24.6992H92.4059V25.3136Z" fill="#2D2D2D"/>
<path d="M98.427 14.7457H96.9525V15.483H98.427V14.7457Z" fill="#2D2D2D"/>
<path d="M98.5499 15.6059H96.8296V14.7457H98.5499V15.6059ZM96.9525 15.483H98.3042V14.8686H96.9525V15.483Z" fill="#2D2D2D"/>
<path d="M96.9525 17.8178H97.6898V17.0805H98.427V16.2203H96.2152V15.483H95.355V16.2203V16.7118V17.0805H96.9525V17.8178Z" fill="#2D2D2D"/>
<path d="M97.8125 17.8178H96.9524V17.0806H95.4778V15.3602H96.338V16.0975H98.6727V16.9577H97.9354V17.8178H97.8125ZM96.9524 17.695H97.5668V16.9577H98.304V16.3433H95.9693V15.606H95.3549V16.9577H96.8295V17.695H96.9524Z" fill="#2D2D2D"/>
<path d="M96.0923 17.8177H95.355V18.555H96.0923V17.8177Z" fill="#2D2D2D"/>
<path d="M96.2151 18.6779H95.355V17.8177H96.2151V18.6779ZM95.4779 18.4322H96.0923V17.8177H95.4779V18.4322Z" fill="#2D2D2D"/>
<path d="M98.427 18.5549H97.6898V19.2922H95.355V20.0295H98.427V18.5549Z" fill="#2D2D2D"/>
<path d="M98.5498 20.1525H95.3549V19.2923H97.6896V18.4321H98.5498V20.1525V20.1525ZM95.4778 20.0296H98.4269V18.6779H97.8125V19.4152H95.4778V20.0296Z" fill="#2D2D2D"/>
<path d="M91.6684 21.627H92.4057V20.8897H91.6684V19.2922H90.8083V22.3642H91.6684V21.627Z" fill="#2D2D2D"/>
<path d="M91.6691 22.3643H90.809V19.1694H91.6691V20.644H92.4064V21.5042H91.6691V22.3643ZM90.9318 22.2414H91.5462V21.5042H92.2835V20.8898H91.5462V19.4152H90.9318V22.2414Z" fill="#2D2D2D"/>
<path d="M93.1432 19.2922H92.4059V20.0295H93.1432V19.2922Z" fill="#2D2D2D"/>
<path d="M93.2661 20.1524H92.4059V19.2922H93.2661V20.1524ZM92.4059 20.0295H93.0203V19.4151H92.4059V20.0295Z" fill="#2D2D2D"/>
<path d="M95.355 22.3642H96.9524V21.627H96.2151V20.8897H94.6177V19.2922H93.8804V20.8897H93.1431V22.3642H93.8804V21.627H94.249H94.6177H95.355V22.3642Z" fill="#2D2D2D"/>
<path d="M96.9524 22.3643H95.2321V21.627H93.8804V22.3643H93.0203V20.644H93.7576V19.1694H94.6177V20.644H96.0923V21.3813H96.8296V22.3643H96.9524ZM95.4779 22.2414H96.8296V21.627H96.0923V20.8898H94.6177V19.4152H94.0033V20.8898H93.266V22.2414H93.8804V21.5042H95.6008V22.2414H95.4779Z" fill="#2D2D2D"/>
<path d="M98.4269 20.8896H97.6896V22.3642H98.4269V20.8896Z" fill="#2D2D2D"/>
<path d="M98.5501 22.3642H97.6899V20.6439H98.5501V22.3642ZM97.8128 22.2414H98.4272V20.8897H97.8128V22.2414Z" fill="#2D2D2D"/>
<path d="M97.6897 23.1016H95.355V23.8388H96.9524V26.1736H95.355V26.9109H97.6897V26.1736H99.1643V25.4363H97.6897V23.1016Z" fill="#2D2D2D"/>
<path d="M97.8126 27.0337H95.355V26.1736H96.8296V24.0846H95.355V23.2244H97.8126V25.5592H99.2872V26.4193H97.8126V27.0337ZM95.4779 26.788H97.5668V26.0507H99.0414V25.4363H97.5668V23.1016H95.4779V23.716H96.9524V26.1736H95.4779V26.788Z" fill="#2D2D2D"/>
<path d="M96.0923 24.5763H95.355V25.3136H96.0923V24.5763Z" fill="#2D2D2D"/>
<path d="M96.2151 25.4365H95.355V24.5763H96.2151V25.4365ZM95.4779 25.3136H96.0923V24.6992H95.4779V25.3136Z" fill="#2D2D2D"/>
<path d="M99.1641 23.1016H98.4268V24.5761H99.1641V23.1016Z" fill="#2D2D2D"/>
<path d="M99.2874 24.699H98.4272V22.9786H99.2874V24.699ZM98.5501 24.5761H99.1645V23.2244H98.5501V24.5761Z" fill="#2D2D2D"/>
<path d="M102.236 24.5762H100.024V26.9109H100.762V25.4363H102.236V24.5762Z" fill="#2D2D2D"/>
<path d="M100.762 27.034H99.9016V24.5764H102.359V25.4366H100.762V27.034ZM100.024 26.7883H100.639V25.3137H102.113V24.6993H100.024V26.7883Z" fill="#2D2D2D"/>
<path d="M102.973 26.1736H101.499V26.9109H102.973V26.1736Z" fill="#2D2D2D"/>
<path d="M103.096 27.0348H101.376V26.1747H103.096V27.0348ZM101.622 26.7891H102.973V26.1747H101.622V26.7891Z" fill="#2D2D2D"/>
<path d="M102.973 23.1016H102.236V23.8388H102.973V23.1016Z" fill="#2D2D2D"/>
<path d="M103.096 23.9617H102.236V23.1016H103.096V23.9617ZM102.359 23.8388H102.973V23.2244H102.359V23.8388Z" fill="#2D2D2D"/>
<path d="M100.024 23.8388H100.762V21.627H99.1641V22.3642H100.024V23.8388Z" fill="#2D2D2D"/>
<path d="M100.762 23.9617H99.9014V22.4871H99.1641V21.627H100.762V23.9617ZM100.024 23.8388H100.639V21.7498H99.287V22.3642H100.024V23.8388Z" fill="#2D2D2D"/>
<path d="M101.499 20.0295H100.762V19.2922H100.024V20.0295H99.1641V20.8897H102.236V20.0295H102.973V19.2922H101.499V20.0295Z" fill="#2D2D2D"/>
<path d="M102.359 20.8897H99.1641V20.0295H99.9014V19.2922H100.762V20.0295H101.376V19.2922H103.096V20.1524H102.359V20.8897V20.8897ZM99.287 20.7668H102.236V20.0295H102.973V19.4151H101.622V20.1524H100.762V19.4151H100.147V20.1524H99.4099V20.7668H99.287Z" fill="#2D2D2D"/>
<path d="M102.973 21.627H101.499V22.3642H102.973V21.627Z" fill="#2D2D2D"/>
<path d="M103.096 22.3643H101.376V21.5042H103.096V22.3643ZM101.622 22.2414H102.973V21.627H101.622V22.2414Z" fill="#2D2D2D"/>
<path d="M23.593 28.9997H11.305C10.199 28.9997 9.33887 28.1396 9.33887 27.0337V14.7456C9.33887 13.6397 10.199 12.7795 11.305 12.7795H23.593C24.6989 12.7795 25.5591 13.6397 25.5591 14.7456V27.0337C25.5591 28.0167 24.6989 28.9997 23.593 28.9997Z" fill="white"/>
<path d="M15.1148 14.7458H11.3055V18.5551H15.1148V14.7458V14.7458ZM14.3775 17.8179H12.1657V15.4831H14.5004V17.8179H14.3775Z" fill="#2D2D2D"/>
<path d="M15.2377 18.678H11.3055V14.7458H15.2377V18.678V18.678ZM11.4284 18.4323H15.1148V14.7458H11.4284V18.4323ZM14.5004 17.8179H12.0428V15.3603H14.5004V17.8179ZM12.1657 17.695H14.2547V15.606H12.1657V17.695Z" fill="#2D2D2D"/>
<path d="M13.6395 16.2202H12.9022V16.9575H13.6395V16.2202Z" fill="#2D2D2D"/>
<path d="M13.6395 17.0805H12.7793V16.2203H13.6395V17.0805ZM12.9022 16.9576H13.5166V16.3432H12.9022V16.9576Z" fill="#2D2D2D"/>
<path d="M19.6608 14.7457V18.555H23.4701V14.7457H19.6608ZM22.7328 17.8177H20.398V15.483H22.7328V17.8177Z" fill="#2D2D2D"/>
<path d="M23.5929 18.6779H19.6608V14.7457H23.5929V18.6779ZM19.7836 18.4321H23.4701V14.7457H19.7836V18.4321ZM22.8557 17.8177H20.398V15.3601H22.8557V17.8177ZM20.5209 17.6949H22.6099V15.6059H20.5209V17.6949Z" fill="#2D2D2D"/>
<path d="M21.9953 16.2202H21.2581V16.9575H21.9953V16.2202Z" fill="#2D2D2D"/>
<path d="M21.9954 17.0805H21.1352V16.2203H21.9954V17.0805ZM21.2581 16.9576H21.8725V16.3432H21.2581V16.9576Z" fill="#2D2D2D"/>
<path d="M11.3049 26.9109H15.1142V23.1016H11.3049V26.9109ZM12.165 23.8388H14.4998V26.1736H12.165V23.8388Z" fill="#2D2D2D"/>
<path d="M15.237 27.0337H11.3049V23.1016H15.237V27.0337V27.0337ZM11.4278 26.788H15.1142V23.1016H11.4278V26.788ZM14.4998 26.1736H12.0422V23.716H14.4998V26.1736ZM12.165 26.0507H14.254V23.9617H12.165V26.0507Z" fill="#2D2D2D"/>
<path d="M13.6395 24.5762H12.9022V25.3135H13.6395V24.5762Z" fill="#2D2D2D"/>
<path d="M13.6395 25.4366H12.7793V24.5764H13.6395V25.4366ZM12.9022 25.3137H13.5166V24.6993H12.9022V25.3137Z" fill="#2D2D2D"/>
<path d="M18.9234 14.7457H17.4489V15.483H18.9234V14.7457Z" fill="#2D2D2D"/>
<path d="M19.0464 15.6059H17.326V14.7457H19.0464V15.6059ZM17.4489 15.483H18.8006V14.8686H17.4489V15.483Z" fill="#2D2D2D"/>
<path d="M17.4487 17.8178H18.186V17.0805H18.9233V16.2203H16.7114V15.483H15.8513V16.2203V16.7118V17.0805H17.4487V17.8178Z" fill="#2D2D2D"/>
<path d="M18.3088 17.8178H17.4487V17.0806H15.9741V15.3602H16.8343V16.0975H19.169V16.9577H18.4317V17.8178H18.3088ZM17.4487 17.695H18.0631V16.9577H18.8004V16.3433H16.4656V15.606H15.9741V16.9577H17.4487V17.695Z" fill="#2D2D2D"/>
<path d="M16.5886 17.8177H15.8513V18.555H16.5886V17.8177Z" fill="#2D2D2D"/>
<path d="M16.7115 18.6779H15.8513V17.8177H16.7115V18.6779ZM15.9742 18.4322H16.5886V17.8177H15.9742V18.4322Z" fill="#2D2D2D"/>
<path d="M18.9233 18.5549H18.186V19.2922H15.8513V20.0295H18.9233V18.5549Z" fill="#2D2D2D"/>
<path d="M19.0463 20.1525H15.8514V19.2923H18.1862V18.4321H19.0463V20.1525ZM15.9743 20.0296H18.9234V18.6779H18.309V19.4152H15.9743V20.0296Z" fill="#2D2D2D"/>
<path d="M12.165 21.627H12.9023V20.8897H12.165V19.2922H11.3049V22.3642H12.165V21.627Z" fill="#2D2D2D"/>
<path d="M12.1654 22.3643H11.3052V19.1694H12.1654V20.644H12.9027V21.5042H12.1654V22.3643ZM11.4281 22.2414H12.0425V21.5042H12.7798V20.8898H12.0425V19.4152H11.4281V22.2414Z" fill="#2D2D2D"/>
<path d="M13.6395 19.2922H12.9022V20.0295H13.6395V19.2922Z" fill="#2D2D2D"/>
<path d="M13.6395 20.1531H12.7793V19.293H13.6395V20.1531ZM12.9022 20.0303H13.5166V19.4158H12.9022V20.0303Z" fill="#2D2D2D"/>
<path d="M15.8512 22.3642H17.4487V21.627H16.7114V20.8897H15.114V19.2922H14.3767V20.8897H13.6394V22.3642H14.3767V21.627H14.7453H15.114H15.8512V22.3642Z" fill="#2D2D2D"/>
<path d="M17.4488 22.3643H15.7285V21.627H14.3768V22.3643H13.5167V20.644H14.2539V19.1694H15.1141V20.644H16.5887V21.3813H17.326V22.3643H17.4488ZM15.9743 22.2414H17.326V21.627H16.5887V20.8898H15.1141V19.4152H14.4997V20.8898H13.7624V22.2414H14.3768V21.5042H15.9743V22.2414Z" fill="#2D2D2D"/>
<path d="M18.9234 20.8896H18.1861V22.3642H18.9234V20.8896Z" fill="#2D2D2D"/>
<path d="M19.0463 22.3642H18.1862V20.6439H19.0463V22.3642ZM18.309 22.2414H18.9234V20.8897H18.309V22.2414Z" fill="#2D2D2D"/>
<path d="M18.186 23.1016H15.8513V23.8388H17.4488V26.1736H15.8513V26.9109H18.186V26.1736H19.6606V25.4363H18.186V23.1016Z" fill="#2D2D2D"/>
<path d="M18.3089 27.0337H15.8513V26.1736H17.3259V24.0846H15.8513V23.2244H18.3089V25.5592H19.7835V26.4193H18.3089V27.0337V27.0337ZM15.9742 26.788H18.0632V26.0507H19.6606V25.4363H18.186V23.1016H15.9742V23.716H17.4488V26.1736H15.9742V26.788Z" fill="#2D2D2D"/>
<path d="M16.5886 24.5763H15.8513V25.3136H16.5886V24.5763Z" fill="#2D2D2D"/>
<path d="M16.7115 25.4365H15.8513V24.5763H16.7115V25.4365ZM15.9742 25.3136H16.5886V24.6992H15.9742V25.3136Z" fill="#2D2D2D"/>
<path d="M19.6607 23.1016H18.9235V24.5761H19.6607V23.1016Z" fill="#2D2D2D"/>
<path d="M19.7837 24.699H18.9236V22.9786H19.7837V24.699ZM19.0465 24.5761H19.6609V23.2244H19.0465V24.5761Z" fill="#2D2D2D"/>
<path d="M22.7327 24.5762H20.5209V26.9109H21.2582V25.4363H22.7327V24.5762Z" fill="#2D2D2D"/>
<path d="M21.2581 27.034H20.3979V24.5764H22.8556V25.4366H21.381V27.034H21.2581ZM20.5208 26.7883H21.1352V25.3137H22.6098V24.6993H20.5208V26.7883Z" fill="#2D2D2D"/>
<path d="M23.4699 26.1736H21.9953V26.9109H23.4699V26.1736Z" fill="#2D2D2D"/>
<path d="M23.5928 27.0348H21.8725V26.1747H23.5928V27.0348ZM21.9954 26.7891H23.3471V26.1747H21.9954V26.7891Z" fill="#2D2D2D"/>
<path d="M23.4699 23.1016H22.7327V23.8388H23.4699V23.1016Z" fill="#2D2D2D"/>
<path d="M23.5928 23.9617H22.7327V23.1016H23.5928V23.9617ZM22.8555 23.8388H23.4699V23.2244H22.8555V23.8388Z" fill="#2D2D2D"/>
<path d="M20.5209 23.8388H21.2582V21.627H19.6608V22.3642H20.5209V23.8388Z" fill="#2D2D2D"/>
<path d="M21.2582 23.9617H20.398V22.4871H19.6608V21.627H21.3811V23.9617H21.2582ZM20.5209 23.8388H21.1353V21.7498H19.7836V22.3642H20.5209V23.8388Z" fill="#2D2D2D"/>
<path d="M21.9955 20.0295H21.2582V19.2922H20.5209V20.0295H19.6608V20.8897H22.7328V20.0295H23.4701V19.2922H21.9955V20.0295Z" fill="#2D2D2D"/>
<path d="M22.8557 20.8897H19.6608V20.0295H20.398V19.2922H21.2582V20.0295H21.8726V19.2922H23.5929V20.1524H22.8557V20.8897V20.8897ZM19.7836 20.7668H22.7328V20.0295H23.4701V19.4151H22.1184V20.1524H21.2582V19.4151H20.6438V20.1524H19.9065V20.7668H19.7836Z" fill="#2D2D2D"/>
<path d="M23.4699 21.627H21.9953V22.3642H23.4699V21.627Z" fill="#2D2D2D"/>
<path d="M23.5928 22.3643H21.8725V21.5042H23.5928V22.3643ZM21.9954 22.2414H23.3471V21.627H21.9954V22.2414Z" fill="#2D2D2D"/>
</svg>
