<svg width="86" height="78" viewBox="0 0 86 78" fill="none" xmlns="http://www.w3.org/2000/svg">
    <path d="M43.0389 0C36.9783 0 31.3427 3.06383 28.1223 8.43113L2.60526 50.8551C0.950339 53.6059 0.0781535 56.7368 0.100517 59.8901C0.122881 65.9507 3.34326 71.6087 8.50928 74.7396C11.2153 76.3722 14.3239 77.2443 17.5442 77.2443H68.5559C71.7763 77.2443 74.8848 76.3722 77.5909 74.7396C82.7569 71.6087 85.9549 65.9507 85.9996 59.8901C86.022 56.7368 85.1498 53.6059 83.4949 50.8551L57.9555 8.43113C54.7799 3.15329 49.2113 0 43.0389 0Z" fill="#FF8188"/>
    <path d="M8.82238 59.8901C8.82238 56.7368 9.6722 53.6059 11.3271 50.8551L36.8441 8.43113C39.2818 4.38329 43.0836 1.63255 47.3998 0.53673C45.9909 0.17891 44.5373 0 43.0389 0C36.9783 0 31.3427 3.06383 28.1223 8.43113L2.60526 50.8551C0.950339 53.6059 0.0781535 56.7368 0.100517 59.8901C0.122881 65.9507 3.34326 71.6087 8.50928 74.7396C11.2153 76.3722 14.3239 77.2443 17.5442 77.2443H26.2661C23.0457 77.2443 19.9372 76.3722 17.2311 74.7396C12.0651 71.6087 8.84474 65.9507 8.82238 59.8901Z" fill="#FF656F"/>
    <path d="M43.0389 7.22351C46.4158 7.22351 49.7927 8.87843 51.7608 12.1659L77.2778 54.5899C81.3703 61.3885 76.4727 70.0209 68.5559 70.0209H17.5219C9.60511 70.0209 4.70745 61.3885 8.80002 54.5899L34.317 12.1659C36.285 8.87843 39.662 7.22351 43.0389 7.22351Z" fill="#FF656F"/>
    <path d="M17.5219 54.5899L43.0389 12.1659C44.1347 10.332 45.6778 9.01258 47.3998 8.20749C46.0356 7.55894 44.5373 7.24585 43.0389 7.24585C39.662 7.24585 36.285 8.90077 34.317 12.1882L8.80002 54.5899C4.70745 61.3885 9.60511 70.0209 17.5219 70.0209H26.2437C18.327 70.0209 13.4517 61.3885 17.5219 54.5899Z" fill="#FF4756"/>
    <path d="M43.0388 22.9229C39.1475 22.9229 38.4319 26.5681 38.6332 30.3252L39.237 43.6093C40.0868 47.7466 46.0132 47.7466 46.8407 43.6093L47.4445 30.3252C47.6458 26.255 46.9301 22.9229 43.0388 22.9229Z" fill="#DFEBFA"/>
    <path d="M47.3103 56.1106C47.3103 58.4811 45.387 60.3821 43.0388 60.3821C40.6683 60.3821 38.7673 58.4588 38.7673 56.1106C38.7673 53.74 40.6906 51.8391 43.0388 51.8391C45.4094 51.8391 47.3103 53.74 47.3103 56.1106Z" fill="#DFEBFA"/>
    <path d="M43.8439 43.587L43.2401 30.3029C43.0836 27.4404 43.4638 24.6449 45.3647 23.482C44.7609 23.1242 43.9781 22.9005 43.0165 22.9005C39.1252 22.9005 38.4096 26.5458 38.6108 30.3029L39.2147 43.587C39.8408 46.6508 43.2625 47.4559 45.32 45.9575C44.6267 45.4432 44.0676 44.6604 43.8439 43.587Z" fill="#B1DBFC"/>
    <path d="M43.3743 56.1106C43.3743 54.5898 44.157 53.2704 45.3423 52.51C44.6714 52.0851 43.8886 51.8391 43.0388 51.8391C40.6683 51.8391 38.7673 53.7624 38.7673 56.1106C38.7673 58.4811 40.6906 60.3821 43.0388 60.3821C43.8886 60.3821 44.6714 60.1361 45.3423 59.7111C44.157 58.9508 43.3743 57.6313 43.3743 56.1106Z" fill="#B1DBFC"/>
</svg>
