<?xml version="1.0" encoding="utf-8"?>
<!-- Generator: Adobe Illustrator 25.0.0, SVG Export Plug-In . SVG Version: 6.00 Build 0)  -->
<svg version="1.1" id="Layer_1" xmlns="http://www.w3.org/2000/svg" xmlns:xlink="http://www.w3.org/1999/xlink" x="0px" y="0px"
	 viewBox="0 0 18 18" style="enable-background:new 0 0 18 18;" xml:space="preserve">
<style type="text/css">
	.st0{fill:#54DF6C;}
</style>
<g>
	<path class="st0" d="M4,9c0-2.4,1.8-4.5,4.1-4.9L7.2,5.4C6.9,5.9,7,6.5,7.4,6.8C7.6,6.9,7.8,7,8,7c0.3,0,0.6-0.2,0.8-0.4l2-3
		c0.3-0.5,0.2-1.1-0.2-1.4l-3-2C7.1-0.1,6.5,0,6.2,0.4S6,1.5,6.4,1.8l0.7,0.4C4.2,3.1,2,5.8,2,9c0,1.9,0.8,3.7,2.1,5
		c0.2,0.2,0.4,0.3,0.7,0.3c0.3,0,0.5-0.1,0.7-0.3c0.4-0.4,0.4-1,0-1.4C4.5,11.6,4,10.4,4,9z"/>
	<path class="st0" d="M16,9c0-1.9-0.8-3.7-2.1-5c-0.4-0.4-1-0.4-1.4,0s-0.4,1,0,1.4c1,1,1.5,2.2,1.5,3.6c0,2.4-1.8,4.5-4.1,4.9
		l0.9-1.4c0.3-0.5,0.2-1.1-0.3-1.4c-0.5-0.3-1.1-0.2-1.4,0.3l-2,3c-0.3,0.5-0.2,1.1,0.3,1.4l3,2c0.2,0.1,0.4,0.2,0.6,0.2
		c0.3,0,0.6-0.2,0.8-0.4c0.3-0.5,0.2-1.1-0.3-1.4l-0.7-0.4C13.8,14.9,16,12.2,16,9z"/>
</g>
</svg>
