<svg width="17" height="16" viewBox="0 0 17 16" fill="none" xmlns="http://www.w3.org/2000/svg">
<path fill-rule="evenodd" clip-rule="evenodd" d="M8.49994 0C8.93316 0 9.31712 0.27896 9.45099 0.690983L10.9103 5.18237H15.6329C16.0661 5.18237 16.45 5.46133 16.5839 5.87336C16.7178 6.28538 16.5711 6.73675 16.2206 6.99139L12.4 9.76722L13.8594 14.2586C13.9933 14.6706 13.8466 15.122 13.4961 15.3766C13.1456 15.6313 12.671 15.6313 12.3205 15.3766L8.49994 12.6008L4.67933 15.3766C4.32884 15.6313 3.85425 15.6313 3.50376 15.3766C3.15327 15.122 3.00662 14.6706 3.14049 14.2586L4.59983 9.76722L0.779226 6.99139C0.428739 6.73675 0.282081 6.28538 0.415955 5.87336C0.549829 5.46133 0.933785 5.18237 1.36701 5.18237H6.08954L7.54888 0.690983C7.68275 0.27896 8.06671 0 8.49994 0ZM8.49994 4.23607L7.76714 6.49139C7.63326 6.90341 7.24931 7.18237 6.81608 7.18237H4.4447L6.36319 8.57624C6.71367 8.83088 6.86033 9.28225 6.72646 9.69427L5.99366 11.9496L7.91215 10.5557C8.26264 10.3011 8.73723 10.3011 9.08772 10.5557L11.0062 11.9496L10.2734 9.69427C10.1395 9.28225 10.2862 8.83088 10.6367 8.57624L12.5552 7.18237H10.1838C9.75056 7.18237 9.36661 6.90341 9.23273 6.49139L8.49994 4.23607Z" fill="#54DF6C"/>
</svg>
