<svg width="62" height="105" viewBox="0 0 62 105" fill="none" xmlns="http://www.w3.org/2000/svg">
<path fill-rule="evenodd" clip-rule="evenodd" d="M0.493043 13.0379C0.798518 12.8583 1.17626 12.8537 1.48599 13.0259L22.8835 24.9245L22.886 24.9259L40.0835 34.4245C40.4022 34.6006 40.6 34.9359 40.6 35.2999V103.9C40.6 104.254 40.4123 104.582 40.1067 104.762C39.801 104.942 39.4231 104.946 39.1134 104.774L0.513397 83.2735C0.196469 83.097 0 82.7627 0 82.3999V13.8999C0 13.5455 0.187569 13.2176 0.493043 13.0379ZM2 15.6002V81.8122L38.6 102.198V35.89L21.9165 26.6753L21.914 26.6739L2 15.6002Z" fill="white"/>
<path fill-rule="evenodd" clip-rule="evenodd" d="M0.125973 60.5139C0.394378 60.0313 1.00325 59.8576 1.48593 60.126L22.8834 72.0246L22.8859 72.026L40.0834 81.5246C40.5669 81.7916 40.7423 82.4 40.4753 82.8834C40.2083 83.3669 39.5999 83.5423 39.1165 83.2753L21.9165 73.7753L21.9139 73.7739L0.513948 61.8739C0.0312707 61.6055 -0.142432 60.9966 0.125973 60.5139Z" fill="white"/>
<path fill-rule="evenodd" clip-rule="evenodd" d="M21.5253 0.515066C21.793 0.0320459 22.4017 -0.142434 22.8847 0.125354L61.4847 21.5254C61.8026 21.7016 61.9998 22.0365 61.9998 22.3999V90.9999C61.9998 91.5522 61.5521 91.9999 60.9998 91.9999C60.4476 91.9999 59.9998 91.5522 59.9998 90.9999V22.9889L21.915 1.87452C21.4319 1.60674 21.2575 0.998085 21.5253 0.515066Z" fill="white"/>
<path fill-rule="evenodd" clip-rule="evenodd" d="M61.8564 90.4836C62.1416 90.9566 61.9893 91.5712 61.5163 91.8563L40.1163 104.756C39.6433 105.041 39.0287 104.889 38.7436 104.416C38.4584 103.943 38.6107 103.329 39.0837 103.043L60.4837 90.1435C60.9567 89.8584 61.5713 90.0107 61.8564 90.4836Z" fill="white"/>
<path fill-rule="evenodd" clip-rule="evenodd" d="M23.2563 0.483645C23.5415 0.956639 23.3892 1.57121 22.9162 1.85634L1.51617 14.7563C1.04317 15.0415 0.428596 14.8892 0.143473 14.4162C-0.141649 13.9432 0.0106506 13.3286 0.483645 13.0435L21.8836 0.143473C22.3566 -0.141649 22.9712 0.0106506 23.2563 0.483645Z" fill="white"/>
<path fill-rule="evenodd" clip-rule="evenodd" d="M61.8564 21.8835C62.1416 22.3565 61.9893 22.9711 61.5163 23.2562L40.1163 36.1562C39.6433 36.4414 39.0287 36.2891 38.7436 35.8161C38.4584 35.3431 38.6107 34.7285 39.0837 34.4434L60.4837 21.5434C60.9567 21.2583 61.5713 21.4106 61.8564 21.8835Z" fill="white"/>
<path fill-rule="evenodd" clip-rule="evenodd" d="M61.8582 69.0867C62.1417 69.5607 61.9873 70.1747 61.5133 70.4582L40.1133 83.2582C39.6394 83.5417 39.0253 83.3873 38.7418 82.9133C38.4583 82.4394 38.6127 81.8253 39.0867 81.5418L60.4867 68.7418C60.9607 68.4583 61.5747 68.6127 61.8582 69.0867Z" fill="white"/>
<path fill-rule="evenodd" clip-rule="evenodd" d="M16.4962 35.0319C16.8076 35.2099 16.9997 35.5412 16.9997 35.8999V43.8998L15.9997 43.8999L14.9997 43.8998V37.6483L14.8067 37.7618C14.3307 38.0419 13.7178 37.883 13.4378 37.4069C13.1578 36.9309 13.3167 36.318 13.7927 36.038L15.4927 35.038C15.8019 34.8561 16.1848 34.8538 16.4962 35.0319ZM15.9997 44.8999C15.4474 44.8999 14.9997 44.4521 14.9997 43.8998L15.9997 43.8999L16.9997 43.8998C16.9997 44.4521 16.552 44.8999 15.9997 44.8999Z" fill="#54DF6C"/>
<path fill-rule="evenodd" clip-rule="evenodd" d="M22.9315 39.9037C23.2055 39.4242 23.8164 39.2576 24.2959 39.5316L27.7959 41.5316C28.1074 41.7096 28.2997 42.041 28.2997 42.3998V46.3998C28.2997 46.7563 28.11 47.0858 27.8017 47.2647C27.4933 47.4437 27.1131 47.4449 26.8036 47.2681L24.7997 46.123V47.8195L27.7959 49.5316C28.2754 49.8056 28.442 50.4165 28.168 50.896C27.894 51.3755 27.2831 51.5421 26.8036 51.2681L23.3036 49.2681C22.992 49.09 22.7997 48.7587 22.7997 48.3998V44.3998C22.7997 44.0434 22.9895 43.7138 23.2978 43.5349C23.6061 43.356 23.9864 43.3547 24.2959 43.5316L26.2997 44.6766V42.9802L23.3036 41.2681C22.8241 40.9941 22.6575 40.3832 22.9315 39.9037Z" fill="#54DF6C"/>
<path fill-rule="evenodd" clip-rule="evenodd" d="M13.4378 46.3928C13.7178 45.9168 14.3307 45.7579 14.8067 46.0379L18.2067 48.0379C18.5122 48.2176 18.6997 48.5455 18.6997 48.8998V56.8998C18.6997 57.2585 18.5076 57.5898 18.1962 57.7679C17.8848 57.946 17.5019 57.9436 17.1927 57.7618L13.7927 55.7618C13.3167 55.4817 13.1578 54.8688 13.4378 54.3928C13.7178 53.9168 14.3307 53.7579 14.8067 54.0379L16.6997 55.1514V49.4718L13.7927 47.7618C13.3167 47.4817 13.1578 46.8688 13.4378 46.3928Z" fill="#54DF6C"/>
<path fill-rule="evenodd" clip-rule="evenodd" d="M13.4335 50.4001C13.7095 49.9217 14.3211 49.7577 14.7995 50.0336L17.3994 51.5336C17.8778 51.8096 18.0419 52.4212 17.7659 52.8995C17.4899 53.3779 16.8784 53.542 16.4 53.266L13.8 51.766C13.3216 51.49 13.1576 50.8785 13.4335 50.4001Z" fill="#54DF6C"/>
<path fill-rule="evenodd" clip-rule="evenodd" d="M23.7998 51.3999C24.3521 51.3999 24.7998 51.8476 24.7998 52.3999V55.8223L26.8995 57.0337C27.3779 57.3097 27.542 57.9212 27.266 58.3996C26.99 58.878 26.3785 59.0421 25.9001 58.7661L23.3001 57.2661C22.9905 57.0875 22.7998 56.7573 22.7998 56.3999V52.3999C22.7998 51.8476 23.2475 51.3999 23.7998 51.3999Z" fill="#54DF6C"/>
<path fill-rule="evenodd" clip-rule="evenodd" d="M27.2998 53.3999C27.8521 53.3999 28.2998 53.8476 28.2998 54.3999V62.3999C28.2998 62.9522 27.8521 63.3999 27.2998 63.3999C26.7475 63.3999 26.2998 62.9522 26.2998 62.3999V54.3999C26.2998 53.8476 26.7475 53.3999 27.2998 53.3999Z" fill="#54DF6C"/>
<path fill-rule="evenodd" clip-rule="evenodd" d="M13.4378 42.3928C13.7178 41.9168 14.3307 41.7579 14.8067 42.0379L18.2067 44.0379C18.6828 44.3179 18.8417 44.9308 18.5617 45.4068C18.2816 45.8829 17.6687 46.0418 17.1927 45.7618L13.7927 43.7618C13.3167 43.4817 13.1578 42.8688 13.4378 42.3928Z" fill="#54DF6C"/>
</svg>
