<svg width="58" height="228" viewBox="0 0 58 228" fill="none" xmlns="http://www.w3.org/2000/svg">
<path d="M56.8384 222.767H0.816748C0.43238 222.767 0.144104 222.479 0.144104 222.095V0.816062C0.144104 0.431982 0.43238 0.143921 0.816748 0.143921H56.8864C57.2708 0.143921 57.559 0.431982 57.559 0.816062V222.095C57.511 222.431 57.2227 222.767 56.8384 222.767Z" fill="#2D2D2D"/>
<path d="M56.8384 222.863H0.816782C0.384368 222.863 0 222.527 0 222.047V0.816172C0 0.336071 0.336322 0 0.816782 0H56.8864C57.3188 0 57.7032 0.336071 57.7032 0.816172V222.095C57.6552 222.527 57.2708 222.863 56.8384 222.863ZM0.816782 0.24005C0.48046 0.24005 0.24023 0.480101 0.24023 0.816172V222.095C0.24023 222.383 0.48046 222.671 0.816782 222.671H56.8864C57.1747 222.671 57.463 222.431 57.463 222.095V0.816172C57.463 0.528111 57.2228 0.24005 56.8864 0.24005H0.816782Z" fill="#1D1D1B"/>
<path d="M56.8384 222.767H0.816748C0.43238 222.767 0.144104 223.055 0.144104 223.439V227.232C0.144104 227.616 0.43238 227.904 0.816748 227.904H56.8864C57.2708 227.904 57.559 227.616 57.559 227.232V223.439C57.511 223.055 57.2227 222.767 56.8384 222.767Z" fill="#2D2D2D"/>
<path d="M56.8384 228H0.816782C0.384368 228 0 227.664 0 227.184V223.391C0 222.959 0.336322 222.575 0.816782 222.575H56.8864C57.3188 222.575 57.7032 222.911 57.7032 223.391V227.184C57.6552 227.664 57.2708 228 56.8384 228ZM0.816782 222.863C0.528506 222.863 0.24023 223.103 0.24023 223.439V227.232C0.24023 227.52 0.48046 227.808 0.816782 227.808H56.8864C57.1747 227.808 57.463 227.568 57.463 227.232V223.439C57.463 223.151 57.2228 222.863 56.8864 222.863H0.816782Z" fill="#1D1D1B"/>
<path d="M53.283 92.4675H4.37217C3.9878 92.4675 3.69952 92.1794 3.69952 91.7953V4.36892C3.69952 3.98484 3.9878 3.69678 4.37217 3.69678H53.283C53.6673 3.69678 53.9556 3.98484 53.9556 4.36892V91.7473C53.9556 92.1314 53.6673 92.4675 53.283 92.4675Z" fill="#F2F3F7"/>
<path d="M57.6552 168.083H0V100.581H57.6552V168.083ZM0.24023 167.843H57.4149V100.821H0.24023V167.843Z" fill="#1D1D1B"/>
<path d="M27.9147 104.326C28.1535 104.326 28.3471 104.133 28.3471 103.894C28.3471 103.655 28.1535 103.462 27.9147 103.462C27.6759 103.462 27.4823 103.655 27.4823 103.894C27.4823 104.133 27.6759 104.326 27.9147 104.326Z" fill="#686868"/>
<path d="M29.6924 104.326C29.9312 104.326 30.1248 104.133 30.1248 103.894C30.1248 103.655 29.9312 103.462 29.6924 103.462C29.4535 103.462 29.2599 103.655 29.2599 103.894C29.2599 104.133 29.4535 104.326 29.6924 104.326Z" fill="#686868"/>
<path d="M27.9147 109.271C28.1535 109.271 28.3471 109.078 28.3471 108.839C28.3471 108.6 28.1535 108.407 27.9147 108.407C27.6759 108.407 27.4823 108.6 27.4823 108.839C27.4823 109.078 27.6759 109.271 27.9147 109.271Z" fill="#686868"/>
<path d="M29.6924 109.271C29.9312 109.271 30.1248 109.078 30.1248 108.839C30.1248 108.6 29.9312 108.407 29.6924 108.407C29.4535 108.407 29.2599 108.6 29.2599 108.839C29.2599 109.078 29.4535 109.271 29.6924 109.271Z" fill="#686868"/>
<path d="M27.9147 114.264C28.1535 114.264 28.3471 114.071 28.3471 113.832C28.3471 113.593 28.1535 113.4 27.9147 113.4C27.6759 113.4 27.4823 113.593 27.4823 113.832C27.4823 114.071 27.6759 114.264 27.9147 114.264Z" fill="#686868"/>
<path d="M29.6924 114.264C29.9312 114.264 30.1248 114.071 30.1248 113.832C30.1248 113.593 29.9312 113.4 29.6924 113.4C29.4535 113.4 29.2599 113.593 29.2599 113.832C29.2599 114.071 29.4535 114.264 29.6924 114.264Z" fill="#686868"/>
<path d="M27.9147 119.161C28.1535 119.161 28.3471 118.968 28.3471 118.729C28.3471 118.49 28.1535 118.297 27.9147 118.297C27.6759 118.297 27.4823 118.49 27.4823 118.729C27.4823 118.968 27.6759 119.161 27.9147 119.161Z" fill="#686868"/>
<path d="M29.6924 119.161C29.9312 119.161 30.1248 118.968 30.1248 118.729C30.1248 118.49 29.9312 118.297 29.6924 118.297C29.4535 118.297 29.2599 118.49 29.2599 118.729C29.2599 118.968 29.4535 119.161 29.6924 119.161Z" fill="#686868"/>
<path d="M27.9147 124.202C28.1535 124.202 28.3471 124.009 28.3471 123.77C28.3471 123.531 28.1535 123.338 27.9147 123.338C27.6759 123.338 27.4823 123.531 27.4823 123.77C27.4823 124.009 27.6759 124.202 27.9147 124.202Z" fill="#686868"/>
<path d="M29.6924 124.202C29.9312 124.202 30.1248 124.009 30.1248 123.77C30.1248 123.531 29.9312 123.338 29.6924 123.338C29.4535 123.338 29.2599 123.531 29.2599 123.77C29.2599 124.009 29.4535 124.202 29.6924 124.202Z" fill="#686868"/>
<path d="M27.9147 129.195C28.1535 129.195 28.3471 129.002 28.3471 128.763C28.3471 128.524 28.1535 128.331 27.9147 128.331C27.6759 128.331 27.4823 128.524 27.4823 128.763C27.4823 129.002 27.6759 129.195 27.9147 129.195Z" fill="#686868"/>
<path d="M29.6924 129.195C29.9312 129.195 30.1248 129.002 30.1248 128.763C30.1248 128.524 29.9312 128.331 29.6924 128.331C29.4535 128.331 29.2599 128.524 29.2599 128.763C29.2599 129.002 29.4535 129.195 29.6924 129.195Z" fill="#686868"/>
<path d="M27.9147 139.998C28.1535 139.998 28.3471 139.804 28.3471 139.565C28.3471 139.327 28.1535 139.133 27.9147 139.133C27.6759 139.133 27.4823 139.327 27.4823 139.565C27.4823 139.804 27.6759 139.998 27.9147 139.998Z" fill="#686868"/>
<path d="M29.6924 139.998C29.9312 139.998 30.1248 139.804 30.1248 139.565C30.1248 139.327 29.9312 139.133 29.6924 139.133C29.4535 139.133 29.2599 139.327 29.2599 139.565C29.2599 139.804 29.4535 139.998 29.6924 139.998Z" fill="#686868"/>
<path d="M27.9147 144.942C28.1535 144.942 28.3471 144.749 28.3471 144.51C28.3471 144.272 28.1535 144.078 27.9147 144.078C27.6759 144.078 27.4823 144.272 27.4823 144.51C27.4823 144.749 27.6759 144.942 27.9147 144.942Z" fill="#686868"/>
<path d="M29.6924 144.942C29.9312 144.942 30.1248 144.749 30.1248 144.51C30.1248 144.272 29.9312 144.078 29.6924 144.078C29.4535 144.078 29.2599 144.272 29.2599 144.51C29.2599 144.749 29.4535 144.942 29.6924 144.942Z" fill="#686868"/>
<path d="M27.9147 149.935C28.1535 149.935 28.3471 149.742 28.3471 149.503C28.3471 149.265 28.1535 149.071 27.9147 149.071C27.6759 149.071 27.4823 149.265 27.4823 149.503C27.4823 149.742 27.6759 149.935 27.9147 149.935Z" fill="#686868"/>
<path d="M29.6924 149.935C29.9312 149.935 30.1248 149.742 30.1248 149.503C30.1248 149.265 29.9312 149.071 29.6924 149.071C29.4535 149.071 29.2599 149.265 29.2599 149.503C29.2599 149.742 29.4535 149.935 29.6924 149.935Z" fill="#686868"/>
<path d="M27.9147 154.833C28.1535 154.833 28.3471 154.639 28.3471 154.401C28.3471 154.162 28.1535 153.969 27.9147 153.969C27.6759 153.969 27.4823 154.162 27.4823 154.401C27.4823 154.639 27.6759 154.833 27.9147 154.833Z" fill="#686868"/>
<path d="M29.6924 154.833C29.9312 154.833 30.1248 154.639 30.1248 154.401C30.1248 154.162 29.9312 153.969 29.6924 153.969C29.4535 153.969 29.2599 154.162 29.2599 154.401C29.2599 154.639 29.4535 154.833 29.6924 154.833Z" fill="#686868"/>
<path d="M27.9147 159.874C28.1535 159.874 28.3471 159.68 28.3471 159.441C28.3471 159.203 28.1535 159.009 27.9147 159.009C27.6759 159.009 27.4823 159.203 27.4823 159.441C27.4823 159.68 27.6759 159.874 27.9147 159.874Z" fill="#686868"/>
<path d="M29.6924 159.874C29.9312 159.874 30.1248 159.68 30.1248 159.441C30.1248 159.203 29.9312 159.009 29.6924 159.009C29.4535 159.009 29.2599 159.203 29.2599 159.441C29.2599 159.68 29.4535 159.874 29.6924 159.874Z" fill="#686868"/>
<path d="M25.6093 103.078H18.7387C18.066 103.078 17.5375 103.606 17.5375 104.278C17.5375 104.95 18.066 105.478 18.7387 105.478H25.6093C26.2819 105.478 26.8104 104.95 26.8104 104.278C26.8104 103.606 26.2819 103.078 25.6093 103.078Z" fill="#54DF6C"/>
<path d="M31.9987 105.478H38.8693C39.5419 105.478 40.0704 104.95 40.0704 104.278C40.0704 103.606 39.5419 103.078 38.8693 103.078H31.9987C31.326 103.078 30.7975 103.606 30.7975 104.278C30.7495 104.95 31.326 105.478 31.9987 105.478Z" fill="#54DF6C"/>
<path d="M25.6085 108.071H18.738C18.0653 108.071 17.5368 108.599 17.5368 109.271C17.5368 109.943 18.0653 110.471 18.738 110.471H25.6085C26.2812 110.471 26.8097 109.943 26.8097 109.271C26.8097 108.599 26.2812 108.071 25.6085 108.071Z" fill="#54DF6C"/>
<path d="M38.8212 108.071H31.9987C31.3261 108.071 30.7975 108.599 30.7975 109.271C30.7975 109.943 31.3261 110.471 31.9987 110.471H38.8693C39.5419 110.471 40.0704 109.943 40.0704 109.271C40.0704 108.599 39.4939 108.071 38.8212 108.071Z" fill="#54DF6C"/>
<path d="M25.6085 113.016H18.738C18.0653 113.016 17.5368 113.544 17.5368 114.216C17.5368 114.888 18.0653 115.416 18.738 115.416H25.6085C26.2812 115.416 26.8097 114.888 26.8097 114.216C26.8097 113.544 26.2812 113.016 25.6085 113.016Z" fill="#54DF6C"/>
<path d="M38.8212 113.016H31.9987C31.3261 113.016 30.7975 113.544 30.7975 114.216C30.7975 114.888 31.3261 115.416 31.9987 115.416H38.8693C39.5419 115.416 40.0704 114.888 40.0704 114.216C40.0704 113.544 39.4939 113.016 38.8212 113.016Z" fill="#54DF6C"/>
<path d="M25.6085 117.913H18.738C18.0653 117.913 17.5368 118.441 17.5368 119.113C17.5368 119.785 18.0653 120.313 18.738 120.313H25.6085C26.2812 120.313 26.8097 119.785 26.8097 119.113C26.8097 118.441 26.2812 117.913 25.6085 117.913Z" fill="#54DF6C"/>
<path d="M38.8212 117.913H31.9987C31.3261 117.913 30.7975 118.441 30.7975 119.113C30.7975 119.785 31.3261 120.313 31.9987 120.313H38.8693C39.5419 120.313 40.0704 119.785 40.0704 119.113C40.0704 118.441 39.4939 117.913 38.8212 117.913Z" fill="#54DF6C"/>
<path d="M25.6085 122.954H18.738C18.0653 122.954 17.5368 123.482 17.5368 124.154C17.5368 124.826 18.0653 125.354 18.738 125.354H25.6085C26.2812 125.354 26.8097 124.826 26.8097 124.154C26.8097 123.482 26.2812 122.954 25.6085 122.954Z" fill="#54DF6C"/>
<path d="M38.8212 122.954H31.9987C31.3261 122.954 30.7975 123.482 30.7975 124.154C30.7975 124.826 31.3261 125.354 31.9987 125.354H38.8693C39.5419 125.354 40.0704 124.826 40.0704 124.154C40.0704 123.482 39.4939 122.954 38.8212 122.954Z" fill="#54DF6C"/>
<path d="M25.6085 127.995H18.738C18.0653 127.995 17.5368 128.523 17.5368 129.195C17.5368 129.867 18.0653 130.396 18.738 130.396H25.6085C26.2812 130.396 26.8097 129.867 26.8097 129.195C26.8097 128.523 26.2812 127.995 25.6085 127.995Z" fill="#54DF6C"/>
<path d="M38.8212 127.995H31.9987C31.3261 127.995 30.7975 128.523 30.7975 129.195C30.7975 129.867 31.3261 130.396 31.9987 130.396H38.8693C39.5419 130.396 40.0704 129.867 40.0704 129.195C40.0704 128.523 39.4939 127.995 38.8212 127.995Z" fill="#54DF6C"/>
<path d="M25.6085 138.749H18.738C18.0653 138.749 17.5368 139.277 17.5368 139.95C17.5368 140.622 18.0653 141.15 18.738 141.15H25.6085C26.2812 141.15 26.8097 140.622 26.8097 139.95C26.8097 139.277 26.2812 138.749 25.6085 138.749Z" fill="#54DF6C"/>
<path d="M38.8212 138.749H31.9987C31.3261 138.749 30.7975 139.277 30.7975 139.95C30.7975 140.622 31.3261 141.15 31.9987 141.15H38.8693C39.5419 141.15 40.0704 140.622 40.0704 139.95C40.0704 139.277 39.4939 138.749 38.8212 138.749Z" fill="#54DF6C"/>
<path d="M25.6085 143.694H18.738C18.0653 143.694 17.5368 144.222 17.5368 144.895C17.5368 145.567 18.0653 146.095 18.738 146.095H25.6085C26.2812 146.095 26.8097 145.567 26.8097 144.895C26.8097 144.27 26.2812 143.694 25.6085 143.694Z" fill="#54DF6C"/>
<path d="M38.8212 143.694H31.9987C31.3261 143.694 30.7975 144.222 30.7975 144.895C30.7975 145.567 31.3261 146.095 31.9987 146.095H38.8693C39.5419 146.095 40.0704 145.567 40.0704 144.895C40.0704 144.27 39.4939 143.694 38.8212 143.694Z" fill="#54DF6C"/>
<path d="M25.6085 148.687H18.738C18.0653 148.687 17.5368 149.215 17.5368 149.888C17.5368 150.56 18.0653 151.088 18.738 151.088H25.6085C26.2812 151.088 26.8097 150.56 26.8097 149.888C26.8097 149.215 26.2812 148.687 25.6085 148.687Z" fill="#54DF6C"/>
<path d="M38.8212 148.687H31.9987C31.3261 148.687 30.7975 149.215 30.7975 149.888C30.7975 150.56 31.3261 151.088 31.9987 151.088H38.8693C39.5419 151.088 40.0704 150.56 40.0704 149.888C40.0704 149.215 39.4939 148.687 38.8212 148.687Z" fill="#54DF6C"/>
<path d="M25.6085 153.584H18.738C18.0653 153.584 17.5368 154.112 17.5368 154.785C17.5368 155.457 18.0653 155.985 18.738 155.985H25.6085C26.2812 155.985 26.8097 155.457 26.8097 154.785C26.8097 154.112 26.2812 153.584 25.6085 153.584Z" fill="#54DF6C"/>
<path d="M38.8212 153.584H31.9987C31.3261 153.584 30.7975 154.112 30.7975 154.785C30.7975 155.457 31.3261 155.985 31.9987 155.985H38.8693C39.5419 155.985 40.0704 155.457 40.0704 154.785C40.0704 154.112 39.4939 153.584 38.8212 153.584Z" fill="#54DF6C"/>
<path d="M25.6085 158.625H18.738C18.0653 158.625 17.5368 159.153 17.5368 159.826C17.5368 160.498 18.0653 161.026 18.738 161.026H25.6085C26.2812 161.026 26.8097 160.498 26.8097 159.826C26.8097 159.153 26.2812 158.625 25.6085 158.625Z" fill="#54DF6C"/>
<path d="M38.8212 158.625H31.9987C31.3261 158.625 30.7975 159.153 30.7975 159.826C30.7975 160.498 31.3261 161.026 31.9987 161.026H38.8693C39.5419 161.026 40.0704 160.498 40.0704 159.826C40.0704 159.153 39.4939 158.625 38.8212 158.625Z" fill="#54DF6C"/>
<path d="M25.6085 163.619H18.738C18.0653 163.619 17.5368 164.147 17.5368 164.819C17.5368 165.491 18.0653 166.019 18.738 166.019H25.6085C26.2812 166.019 26.8097 165.491 26.8097 164.819C26.8097 164.147 26.2812 163.619 25.6085 163.619Z" fill="#54DF6C"/>
<path d="M38.8212 163.619H31.9987C31.3261 163.619 30.7975 164.147 30.7975 164.819C30.7975 165.491 31.3261 166.019 31.9987 166.019H38.8693C39.5419 166.019 40.0704 165.491 40.0704 164.819C40.0704 164.147 39.4939 163.619 38.8212 163.619Z" fill="#54DF6C"/>
<path d="M27.9147 164.867C28.1535 164.867 28.3471 164.673 28.3471 164.435C28.3471 164.196 28.1535 164.003 27.9147 164.003C27.6759 164.003 27.4823 164.196 27.4823 164.435C27.4823 164.673 27.6759 164.867 27.9147 164.867Z" fill="#686868"/>
<path d="M29.6924 164.867C29.9312 164.867 30.1248 164.673 30.1248 164.435C30.1248 164.196 29.9312 164.003 29.6924 164.003C29.4535 164.003 29.2599 164.196 29.2599 164.435C29.2599 164.673 29.4535 164.867 29.6924 164.867Z" fill="#686868"/>
<path d="M20.2753 96.1642C20.2753 95.9721 20.4194 95.8761 20.5636 95.8761H21.1882C21.6686 95.8761 21.9569 96.1642 21.9569 96.5962C21.9569 96.9323 21.7647 97.2204 21.4284 97.2684L21.9088 97.7965C21.9569 97.8925 22.0049 97.9405 22.0049 98.0366C22.0049 98.0846 21.9569 98.2766 21.7167 98.2766C21.5725 98.2766 21.5245 98.2286 21.4764 98.1326L20.8038 97.3164V97.9885C20.8038 98.1806 20.7077 98.2766 20.5155 98.2766C20.3233 98.2766 20.2272 98.1806 20.2272 97.9885V96.1642H20.2753ZM20.8038 96.9323H21.1401C21.3323 96.9323 21.4284 96.8363 21.4284 96.6923C21.4284 96.5482 21.3323 96.4522 21.1401 96.4522H20.8038V96.9323Z" fill="white"/>
<path d="M22.6295 97.5564C22.6295 97.6524 22.7256 97.8444 23.0619 97.8444C23.3022 97.8444 23.4944 97.7004 23.5904 97.7004C23.6865 97.7004 23.7826 97.7964 23.7826 97.9405C23.7826 98.1805 23.3502 98.3726 22.9659 98.3726C22.4373 98.3726 22.053 97.9405 22.053 97.4123C22.053 96.9322 22.4373 96.4521 22.9659 96.4521C23.4463 96.4521 23.7826 96.8842 23.7826 97.3163C23.7826 97.5084 23.6865 97.5564 23.5424 97.5564H22.6295ZM23.3022 97.2203C23.3022 97.1243 23.158 96.9322 22.9659 96.9322C22.7737 96.9322 22.6295 97.1243 22.6295 97.2203H23.3022Z" fill="white"/>
<path d="M24.7435 96.4521C24.9837 96.4521 25.3681 96.5002 25.3681 96.7882C25.3681 96.9323 25.272 97.0283 25.1759 97.0283C25.0318 97.0283 25.0318 96.9322 24.7915 96.9322C24.5513 96.9322 24.4072 97.1243 24.4072 97.3643C24.4072 97.6044 24.5513 97.7964 24.7435 97.7964C24.9837 97.7964 25.0798 97.7004 25.1279 97.7004C25.224 97.7004 25.3201 97.7964 25.3201 97.9405C25.3201 98.1805 24.9357 98.2765 24.6955 98.2765C24.167 98.2765 23.8306 97.8444 23.8306 97.3163C23.9267 96.8362 24.263 96.4521 24.7435 96.4521Z" fill="white"/>
<path d="M25.4642 95.9721C25.4642 95.8281 25.5603 95.6841 25.7045 95.6841C25.8486 95.6841 25.9447 95.7801 25.9447 95.9721V96.5483C26.0408 96.5003 26.1849 96.4042 26.3771 96.4042C26.7134 96.4042 27.0017 96.5963 27.0017 97.0284V97.9886C27.0017 98.1326 26.9056 98.2766 26.7615 98.2766C26.6173 98.2766 26.5212 98.1806 26.5212 97.9886V97.1724C26.5212 96.9803 26.4252 96.8843 26.233 96.8843C26.0408 96.8843 25.9447 97.0284 25.9447 97.1724V97.9886C25.9447 98.1326 25.8486 98.2766 25.7045 98.2766C25.5603 98.2766 25.4642 98.1806 25.4642 97.9886V95.9721V95.9721Z" fill="white"/>
<path d="M28.9716 98.0365C28.9716 98.1805 28.8755 98.3245 28.7314 98.3245C28.5872 98.3245 28.5392 98.2285 28.4911 98.1805C28.395 98.3245 28.2509 98.3726 28.0587 98.3726C27.6263 98.3726 27.29 97.9405 27.29 97.4123C27.29 96.8842 27.6263 96.4521 28.0587 96.4521C28.2509 96.4521 28.395 96.5002 28.4911 96.6442C28.5392 96.5482 28.5872 96.5002 28.7314 96.5002C28.8755 96.5002 28.9716 96.5962 28.9716 96.7882V98.0365ZM27.7704 97.4123C27.7704 97.6524 27.9146 97.8444 28.1068 97.8444C28.347 97.8444 28.4431 97.6524 28.4431 97.4123C28.4431 97.1723 28.2989 96.9803 28.1068 96.9803C27.8665 96.9323 27.7704 97.1723 27.7704 97.4123Z" fill="white"/>
<path d="M29.1638 96.7402C29.1638 96.5962 29.2599 96.4522 29.4041 96.4522C29.5482 96.4522 29.6443 96.5482 29.6443 96.5962C29.7404 96.5002 29.8365 96.4042 29.9806 96.4042C30.1247 96.4042 30.2208 96.5002 30.2208 96.6922C30.2208 96.8843 30.0767 96.9323 29.8845 96.9803C29.6443 97.0283 29.5962 97.1243 29.5962 97.3644V97.9885C29.5962 98.1325 29.5002 98.2766 29.356 98.2766C29.2119 98.2766 29.1158 98.1805 29.1158 97.9885V96.7402H29.1638Z" fill="white"/>
<path d="M31.9985 98.0846C31.9985 98.7567 31.5661 98.9968 31.0856 98.9968C30.7974 98.9968 30.3169 98.9007 30.3169 98.6127C30.3169 98.5167 30.413 98.3726 30.5091 98.3726C30.6532 98.3726 30.7493 98.5167 31.0376 98.5167C31.3739 98.5167 31.47 98.3726 31.47 98.0366C31.3739 98.1806 31.1817 98.2286 30.9895 98.2286C30.5091 98.2286 30.2689 97.7965 30.2689 97.3164C30.2689 96.7883 30.6052 96.3562 31.0376 96.3562C31.2298 96.3562 31.3739 96.4042 31.47 96.5482C31.5181 96.4522 31.5661 96.4042 31.7102 96.4042C31.8544 96.4042 31.9505 96.5002 31.9505 96.6923L31.9985 98.0846ZM31.1337 96.9323C30.8935 96.9323 30.7974 97.1244 30.7974 97.3644C30.7974 97.6045 30.9415 97.7965 31.1337 97.7965C31.3259 97.7965 31.47 97.6045 31.47 97.3644C31.5181 97.1724 31.3739 96.9323 31.1337 96.9323Z" fill="white"/>
<path d="M32.7192 97.5564C32.7192 97.6524 32.8153 97.8444 33.1516 97.8444C33.3918 97.8444 33.584 97.7004 33.6801 97.7004C33.7762 97.7004 33.8723 97.7964 33.8723 97.9405C33.8723 98.1805 33.4399 98.3726 33.0555 98.3726C32.527 98.3726 32.1426 97.9405 32.1426 97.4123C32.1426 96.9322 32.527 96.4521 33.0555 96.4521C33.536 96.4521 33.8723 96.8842 33.8723 97.3163C33.8723 97.5084 33.7762 97.5564 33.6321 97.5564H32.7192ZM33.3918 97.2203C33.3918 97.1243 33.2477 96.9322 33.0555 96.9322C32.8633 96.9322 32.7192 97.1243 32.7192 97.2203H33.3918Z" fill="white"/>
<path d="M34.0644 96.1642C34.0644 95.9721 34.1605 95.8761 34.3527 95.8761C34.4968 95.8761 34.5449 95.9241 34.737 96.1642L35.6019 97.2684V96.1642C35.6019 95.9721 35.698 95.8761 35.8901 95.8761C36.0343 95.8761 36.1784 95.9721 36.1784 96.1642V97.9885C36.1784 98.1806 36.0823 98.2766 35.8901 98.2766C35.746 98.2766 35.698 98.2286 35.5058 97.9885L34.6409 96.8843V97.9885C34.6409 98.1806 34.5449 98.2766 34.3527 98.2766C34.1605 98.2766 34.0644 98.1806 34.0644 97.9885V96.1642Z" fill="#54DF6C"/>
<path d="M38.0042 97.4123C38.0042 97.9405 37.6679 98.3726 37.1394 98.3726C36.6109 98.3726 36.2745 97.9405 36.2745 97.4123C36.2745 96.8842 36.6109 96.4521 37.1394 96.4521C37.6679 96.4521 38.0042 96.8842 38.0042 97.4123ZM36.803 97.4123C36.803 97.6524 36.9472 97.8444 37.1394 97.8444C37.3796 97.8444 37.4757 97.6524 37.4757 97.4123C37.4757 97.1723 37.3315 96.9803 37.1394 96.9803C36.9472 96.9323 36.803 97.1723 36.803 97.4123Z" fill="#54DF6C"/>
<path d="M38.1483 97.0284C38.1003 96.9323 38.1003 96.8363 38.0522 96.7403C38.0522 96.5963 38.1483 96.5002 38.2925 96.5002C38.3886 96.5002 38.4847 96.5483 38.5327 96.6923L38.7729 97.5565L39.0132 96.8363C39.0612 96.6923 39.1093 96.5483 39.3014 96.5483C39.4936 96.5483 39.5417 96.6923 39.5897 96.8363L39.8299 97.5565L40.0702 96.6923C40.1182 96.5963 40.1663 96.5002 40.3104 96.5002C40.5026 96.5002 40.5506 96.5963 40.5506 96.7403C40.5506 96.8363 40.5026 96.9323 40.4545 97.0284L40.0702 98.0366C40.0221 98.1806 39.926 98.2766 39.7339 98.2766C39.5417 98.2766 39.4936 98.1806 39.4456 97.9886L39.2534 97.3644L39.0612 97.9886C39.0132 98.1806 38.9651 98.2766 38.7729 98.2766C38.5808 98.2766 38.5327 98.1806 38.4366 98.0366L38.1483 97.0284Z" fill="#54DF6C"/>
<path d="M19.8429 99.6689H17.8249C17.3445 99.6689 16.912 99.2848 16.912 98.7567V95.2039C16.912 94.7238 17.2964 94.2917 17.8249 94.2917H19.8429C20.3233 94.2917 20.7557 94.6758 20.7557 95.2039C20.7557 95.348 20.6596 95.444 20.5155 95.444C20.3714 95.444 20.2753 95.348 20.2753 95.2039C20.2753 94.9639 20.0831 94.7718 19.8429 94.7718H17.8249C17.5847 94.7718 17.3925 94.9639 17.3925 95.2039V98.7567C17.3925 98.9967 17.5847 99.1888 17.8249 99.1888H19.8429C19.987 99.1888 20.2753 99.1408 20.2753 98.8527C20.2753 98.7087 20.3714 98.6127 20.5155 98.6127C20.6596 98.6127 20.7557 98.7087 20.7557 98.8527C20.7557 99.3328 20.3714 99.6689 19.8429 99.6689Z" fill="#54DF6C"/>
<path d="M19.5546 94.6278H18.1613V94.1477C18.1613 93.9557 18.3054 93.8116 18.4976 93.8116H19.2183C19.4105 93.8116 19.5546 93.9557 19.5546 94.1477V94.6278Z" fill="#54DF6C"/>
<path d="M19.2183 95.588L17.921 97.2684H18.6417L18.4495 98.3726L19.7468 96.6922H19.0261L19.2183 95.588Z" fill="#54DF6C"/>
<path d="M53.2349 99.6689H48.7666C48.3822 99.6689 48.0459 99.3328 48.0459 98.9488V94.4838C48.0459 94.0997 48.3822 93.7637 48.7666 93.7637H53.2349C53.6192 93.7637 53.9556 94.0997 53.9556 94.4838V98.9488C53.9556 99.3328 53.6673 99.6689 53.2349 99.6689Z" fill="white"/>
<path d="M50.1599 94.4839H48.7666V95.8762H50.1599V94.4839ZM49.9197 95.5881H49.1029V94.7719H49.9197V95.5881Z" fill="#2D2D2D"/>
<path d="M50.208 95.9242H48.7666V94.4839H50.208V95.9242ZM48.8146 95.8762H50.1599V94.5319H48.8146V95.8762ZM49.9197 95.6361H49.0549V94.7719H49.9197V95.6361ZM49.1029 95.5881H49.8717V94.82H49.1029V95.5881Z" fill="#2D2D2D"/>
<path d="M49.6314 95.0599H49.3431V95.348H49.6314V95.0599Z" fill="#2D2D2D"/>
<path d="M49.6314 95.348H49.2951V95.012H49.6314V95.348ZM49.3912 95.3H49.6314V95.06H49.3912V95.3Z" fill="#2D2D2D"/>
<path d="M51.8414 94.4839V95.8762H53.2348V94.4839H51.8414ZM52.9465 95.5881H52.1297V94.7719H52.9465V95.5881Z" fill="#2D2D2D"/>
<path d="M53.2348 95.9242H51.7935V94.4839H53.2348V95.9242ZM51.8415 95.8762H53.1868V94.5319H51.8415V95.8762ZM52.9946 95.6361H52.1298V94.7719H52.9946V95.6361ZM52.1298 95.5881H52.8985V94.82H52.1298V95.5881Z" fill="#2D2D2D"/>
<path d="M52.6583 95.0599H52.3701V95.348H52.6583V95.0599Z" fill="#2D2D2D"/>
<path d="M52.7064 95.348H52.3701V95.012H52.7064V95.348ZM52.4181 95.3H52.6583V95.06H52.4181V95.3Z" fill="#2D2D2D"/>
<path d="M48.8146 98.9008H50.2079V97.5085H48.8146V98.9008ZM49.0548 97.7966H49.8716V98.6128H49.0548V97.7966Z" fill="#2D2D2D"/>
<path d="M50.208 98.9489H48.7666V97.5085H50.208V98.9489ZM48.8146 98.9008H50.1599V97.5566H48.8146V98.9008ZM49.9197 98.6608H49.0549V97.7966H49.9197V98.6608ZM49.1029 98.6128H49.8717V97.8446H49.1029V98.6128Z" fill="#2D2D2D"/>
<path d="M49.6314 98.0846H49.3431V98.3726H49.6314V98.0846Z" fill="#2D2D2D"/>
<path d="M49.6314 98.3727H49.2951V98.0366H49.6314V98.3727ZM49.3912 98.3247H49.6314V98.0846H49.3912V98.3247Z" fill="#2D2D2D"/>
<path d="M51.6013 94.4839H51.0247V94.7719H51.6013V94.4839Z" fill="#2D2D2D"/>
<path d="M51.6012 94.82H50.9766V94.4839H51.6012V94.82ZM51.0247 94.7239H51.5051V94.4839H51.0247V94.7239Z" fill="#2D2D2D"/>
<path d="M51.0247 95.5881H51.265V95.3481H51.5532V95.06H50.7365V94.772H50.4482V95.06V95.2041V95.3481H51.0247V95.5881Z" fill="#2D2D2D"/>
<path d="M51.313 95.6362H50.9767V95.3481H50.4482V94.724H50.7845V95.0121H51.6013V95.3481H51.313V95.6362V95.6362ZM51.0247 95.5882H51.265V95.3001H51.5532V95.0601H50.7365V94.772H50.4962V95.2521H51.0728V95.5882H51.0247Z" fill="#2D2D2D"/>
<path d="M50.7365 95.5881H50.4482V95.8762H50.7365V95.5881Z" fill="#2D2D2D"/>
<path d="M50.7365 95.9242H50.4482V95.5881H50.7845V95.9242H50.7365ZM50.4962 95.8762H50.7365V95.6361H50.4962V95.8762Z" fill="#2D2D2D"/>
<path d="M51.5532 95.8762H51.265V96.1643H50.4482V96.4523H51.5532V95.8762Z" fill="#2D2D2D"/>
<path d="M51.6013 96.4523H50.4482V96.1162H51.265V95.8281H51.6013V96.4523ZM50.4962 96.4042H51.5532V95.9241H51.313V96.2122H50.4962V96.4042Z" fill="#2D2D2D"/>
<path d="M49.0548 96.9805H49.3431V96.6924H49.0548V96.1643H48.8146V97.2685H49.0548V96.9805Z" fill="#2D2D2D"/>
<path d="M49.1029 97.2685H48.7666V96.1162H49.1029V96.6923H49.3912V97.0284H49.1029V97.2685ZM48.8146 97.2205H49.0549V96.9804H49.3431V96.7403H49.0549V96.1642H48.8146V97.2205Z" fill="#2D2D2D"/>
<path d="M49.6314 96.1643H49.3431V96.4524H49.6314V96.1643Z" fill="#2D2D2D"/>
<path d="M49.6314 96.4523H49.2951V96.1162H49.6314V96.4523ZM49.3912 96.4043H49.6314V96.1642H49.3912V96.4043Z" fill="#2D2D2D"/>
<path d="M50.4482 97.2685H51.0248V96.9805H50.7365V96.6924H50.16V96.1643H49.9197V96.6924H49.6315V97.2685H49.9197V96.9805H50.0158H50.16H50.4482V97.2685Z" fill="#2D2D2D"/>
<path d="M51.0248 97.2685H50.4482V96.9804H49.9677V97.2685H49.6314V96.6444H49.9197V96.0682H50.256V96.6444H50.8326V96.9324H51.1208V97.2685H51.0248ZM50.4962 97.2205H50.9767V96.9804H50.6884V96.6924H50.1119V96.1162H49.8717V96.6924H49.5834V97.1725H49.8236V96.9804H50.4482V97.2205H50.4962Z" fill="#2D2D2D"/>
<path d="M51.5531 96.6924H51.2648V97.2685H51.5531V96.6924Z" fill="#2D2D2D"/>
<path d="M51.6018 97.2685H51.2655V96.6444H51.6018V97.2685ZM51.3136 97.2205H51.5538V96.7404H51.3136V97.2205Z" fill="#2D2D2D"/>
<path d="M51.265 97.5565H50.4482V97.7966H51.0247V98.6608H50.4482V98.9008H51.265V98.6608H51.8415V98.3727H51.265V97.5565Z" fill="#2D2D2D"/>
<path d="M51.313 98.9489H50.4482V98.6128H51.0247V97.8446H50.4482V97.5085H51.313V98.3247H51.8896V98.6608H51.313V98.9489ZM50.4962 98.9008H51.265V98.6128H51.8415V98.3727H51.265V97.5566H50.4962V97.7966H51.0728V98.6608H50.4962V98.9008Z" fill="#2D2D2D"/>
<path d="M50.7365 98.0846H50.4482V98.3726H50.7365V98.0846Z" fill="#2D2D2D"/>
<path d="M50.7365 98.3727H50.4482V98.0366H50.7845V98.3727H50.7365ZM50.4962 98.3247H50.7365V98.0846H50.4962V98.3247Z" fill="#2D2D2D"/>
<path d="M51.8414 97.5565H51.5531V98.1326H51.8414V97.5565Z" fill="#2D2D2D"/>
<path d="M51.8415 98.1327H51.5051V97.5085H51.8415V98.1327ZM51.6012 98.0847H51.8415V97.6046H51.6012V98.0847Z" fill="#2D2D2D"/>
<path d="M52.9465 98.0847H52.1298V98.9009H52.37V98.3728H52.9465V98.0847Z" fill="#2D2D2D"/>
<path d="M52.418 98.9489H52.0817V98.0847H52.9466V98.4208H52.37V98.9489H52.418ZM52.1298 98.9009H52.37V98.3248H52.9466V98.0847H52.1778V98.9009H52.1298Z" fill="#2D2D2D"/>
<path d="M53.235 98.6608H52.6584V98.9488H53.235V98.6608Z" fill="#2D2D2D"/>
<path d="M53.2348 98.9489H52.6102V98.6128H53.2348V98.9489ZM52.7063 98.9009H53.1868V98.6608H52.7063V98.9009Z" fill="#2D2D2D"/>
<path d="M53.2347 97.5565H52.9465V97.8446H53.2347V97.5565Z" fill="#2D2D2D"/>
<path d="M53.2349 97.8446H52.8986V97.5085H53.2349V97.8446ZM52.9947 97.7966H53.2349V97.5566H52.9947V97.7966Z" fill="#2D2D2D"/>
<path d="M52.1297 97.7965H52.3699V96.9803H51.8414V97.2684H52.1297V97.7965Z" fill="#2D2D2D"/>
<path d="M52.4181 97.8445H52.0817V97.2684H51.7935V96.9803H52.4181V97.8445ZM52.1298 97.7965H52.37V97.0284H51.8895V97.2684H52.1778V97.7965H52.1298Z" fill="#2D2D2D"/>
<path d="M52.6583 96.4524H52.37V96.1643H52.1298V96.4524H51.8415V96.6924H52.9465V96.4524H53.2348V96.1643H52.6583V96.4524Z" fill="#2D2D2D"/>
<path d="M52.9948 96.7403H51.8417V96.4043H52.1299V96.1162H52.4663V96.4043H52.7065V96.1162H53.3311V96.4523H53.0428V96.7403H52.9948ZM51.8417 96.6923H52.8987V96.4043H53.187V96.1642H52.7065V96.4523H52.3702V96.1642H52.1299V96.4523H51.8417V96.6923Z" fill="#2D2D2D"/>
<path d="M53.235 96.9803H52.6584V97.2684H53.235V96.9803Z" fill="#2D2D2D"/>
<path d="M53.2348 97.2684H52.6102V96.9803H53.2348V97.2684ZM52.7063 97.2204H53.1868V96.9803H52.7063V97.2204Z" fill="#2D2D2D"/>
<path d="M8.88849 99.6689H4.42021C4.03585 99.6689 3.69952 99.3328 3.69952 98.9488V94.4838C3.69952 94.0997 4.03585 93.7637 4.42021 93.7637H8.88849C9.27286 93.7637 9.60918 94.0997 9.60918 94.4838V98.9488C9.60918 99.3328 9.27286 99.6689 8.88849 99.6689Z" fill="white"/>
<path d="M5.8135 94.4839H4.42017V95.8762H5.8135V94.4839ZM5.52522 95.5881H4.70844V94.7719H5.52522V95.5881Z" fill="#2D2D2D"/>
<path d="M5.86155 95.9242H4.42017V94.4839H5.86155V95.9242ZM4.46821 95.8762H5.76545V94.5319H4.46821V95.8762ZM5.57327 95.6361H4.6604V94.7719H5.52522V95.6361H5.57327ZM4.70844 95.5881H5.47718V94.82H4.70844V95.5881Z" fill="#2D2D2D"/>
<path d="M5.2848 95.0599H4.99652V95.348H5.2848V95.0599Z" fill="#2D2D2D"/>
<path d="M5.28499 95.348H4.94867V95.012H5.28499V95.348ZM4.99672 95.3H5.23694V95.06H4.99672V95.3Z" fill="#2D2D2D"/>
<path d="M7.49512 94.4839V95.8762H8.88845V94.4839H7.49512ZM8.60017 95.5881H7.78339V94.7719H8.60017V95.5881Z" fill="#2D2D2D"/>
<path d="M8.88858 95.9242H7.4472V94.4839H8.88858V95.9242ZM7.49525 95.8762H8.84054V94.5319H7.49525V95.8762V95.8762ZM8.60031 95.6361H7.73548V94.7719H8.60031V95.6361ZM7.78353 95.5881H8.55226V94.82H7.78353V95.5881Z" fill="#2D2D2D"/>
<path d="M8.31196 95.0599H8.02368V95.348H8.31196V95.0599Z" fill="#2D2D2D"/>
<path d="M8.31197 95.348H7.97565V95.012H8.31197V95.348ZM8.07174 95.3H8.31197V95.06H8.07174V95.3Z" fill="#2D2D2D"/>
<path d="M4.42023 98.9008H5.81356V97.5085H4.42023V98.9008ZM4.7085 97.7966H5.52528V98.6128H4.7085V97.7966Z" fill="#2D2D2D"/>
<path d="M5.86161 98.9489H4.42023V97.5085H5.86161V98.9489ZM4.46827 98.9008H5.76551V97.5566H4.46827V98.9008ZM5.57333 98.6608H4.66046V97.7966H5.52528V98.6608H5.57333ZM4.7085 98.6128H5.47724V97.8446H4.7085V98.6128Z" fill="#2D2D2D"/>
<path d="M5.2848 98.0846H4.99652V98.3726H5.2848V98.0846Z" fill="#2D2D2D"/>
<path d="M5.28499 98.3727H4.94867V98.0366H5.28499V98.3727ZM4.99672 98.3247H5.23694V98.0846H4.99672V98.3247Z" fill="#2D2D2D"/>
<path d="M7.20692 94.4839H6.63037V94.7719H7.20692V94.4839Z" fill="#2D2D2D"/>
<path d="M7.20687 94.82H6.58228V94.4839H7.20687V94.82ZM6.67837 94.7239H7.15883V94.4839H6.67837V94.7239Z" fill="#2D2D2D"/>
<path d="M6.63025 95.588H6.91853V95.348H7.2068V95.0599H6.39002V94.7719H6.10175V95.0599V95.2039V95.348H6.63025V95.588Z" fill="#2D2D2D"/>
<path d="M6.96665 95.6361H6.63032V95.348H6.05377V94.7239H6.39009V95.0119H7.20688V95.348H6.9186V95.6361H6.96665ZM6.67837 95.5881H6.9186V95.3H7.20688V95.0599H6.39009V94.7719H6.14986V95.252H6.72642V95.5881H6.67837Z" fill="#2D2D2D"/>
<path d="M6.39002 95.5881H6.10175V95.8762H6.39002V95.5881Z" fill="#2D2D2D"/>
<path d="M6.39009 95.9242H6.05377V95.5881H6.39009V95.9242ZM6.10182 95.8762H6.34205V95.6361H6.10182V95.8762Z" fill="#2D2D2D"/>
<path d="M7.2068 95.8762H6.91853V96.1643H6.10175V96.4523H7.2068V95.8762Z" fill="#2D2D2D"/>
<path d="M7.20688 96.4523H6.05377V96.1162H6.87055V95.8281H7.20688V96.4523ZM6.10182 96.4042H7.15883V95.9241H6.9186V96.2122H6.10182V96.4042Z" fill="#2D2D2D"/>
<path d="M4.70856 96.9805H4.99684V96.6924H4.70856V96.1643H4.42029V97.2685H4.70856V96.9805Z" fill="#2D2D2D"/>
<path d="M4.7085 97.2685H4.42023V96.1162H4.75655V96.6923H5.04482V97.0284H4.7085V97.2685ZM4.46827 97.2205H4.7085V96.9804H4.99678V96.7403H4.66046V96.1642H4.46827V97.2205Z" fill="#2D2D2D"/>
<path d="M5.2848 96.1643H4.99652V96.4524H5.2848V96.1643Z" fill="#2D2D2D"/>
<path d="M5.28499 96.4523H4.94867V96.1162H5.28499V96.4523ZM4.99672 96.4043H5.23694V96.1642H4.99672V96.4043Z" fill="#2D2D2D"/>
<path d="M6.10171 97.2685H6.63021V96.9805H6.38998V96.6924H5.81343V96.1643H5.52515V96.6924H5.23688V97.2685H5.52515V96.9805H5.66929H5.81343H6.10171V97.2685Z" fill="#2D2D2D"/>
<path d="M6.67868 97.2685H6.05409V96.9804H5.57363V97.2685H5.2373V96.6444H5.52558V96.0682H5.8619V96.6444H6.43845V96.9324H6.72673V97.2685H6.67868ZM6.10213 97.2205H6.58259V96.9804H6.29432V96.6924H5.76581V96.1162H5.52558V96.6924H5.28535V97.1725H5.52558V96.9804H6.15018V97.2205H6.10213Z" fill="#2D2D2D"/>
<path d="M7.20673 96.6924H6.91846V97.2685H7.20673V96.6924Z" fill="#2D2D2D"/>
<path d="M7.20693 97.2685H6.87061V96.6444H7.20693V97.2685ZM6.9667 97.2205H7.20693V96.7404H6.9667V97.2205Z" fill="#2D2D2D"/>
<path d="M6.91865 97.5565H6.10187V97.7966H6.63037V98.6608H6.10187V98.9008H6.91865V98.6608H7.4952V98.3727H6.91865V97.5565Z" fill="#2D2D2D"/>
<path d="M6.96663 98.9489H6.10181V98.6128H6.67836V97.8446H6.10181V97.5085H6.96663V98.3247H7.54319V98.6608H6.96663V98.9489ZM6.10181 98.9008H6.87054V98.6128H7.44709V98.3727H6.87054V97.5566H6.10181V97.7966H6.67836V98.6608H6.10181V98.9008Z" fill="#2D2D2D"/>
<path d="M6.39002 98.0846H6.10175V98.3726H6.39002V98.0846Z" fill="#2D2D2D"/>
<path d="M6.39009 98.3727H6.05377V98.0366H6.39009V98.3727ZM6.10182 98.3247H6.34205V98.0846H6.10182V98.3247Z" fill="#2D2D2D"/>
<path d="M7.49506 97.5565H7.20679V98.1326H7.49506V97.5565Z" fill="#2D2D2D"/>
<path d="M7.49507 98.1327H7.15875V97.5085H7.49507V98.1327ZM7.2068 98.0847H7.44703V97.6046H7.2068V98.0847Z" fill="#2D2D2D"/>
<path d="M8.60018 98.0846H7.73535V98.9008H8.02363V98.3727H8.60018V98.0846Z" fill="#2D2D2D"/>
<path d="M8.07167 98.9488H7.73535V98.0846H8.60018V98.4207H8.02363V98.9488H8.07167ZM7.7834 98.9008H8.02363V98.3246H8.60018V98.0846H7.83144V98.9008H7.7834Z" fill="#2D2D2D"/>
<path d="M8.88832 98.6608H8.31177V98.9488H8.88832V98.6608Z" fill="#2D2D2D"/>
<path d="M8.88845 98.9489H8.26385V98.6128H8.88845V98.9489ZM8.3119 98.9009H8.79236V98.6608H8.3119V98.9009Z" fill="#2D2D2D"/>
<path d="M8.88831 97.5565H8.60004V97.8446H8.88831V97.5565Z" fill="#2D2D2D"/>
<path d="M8.88845 97.8446H8.55212V97.5085H8.88845V97.8446ZM8.60017 97.7966H8.8404V97.5566H8.60017V97.7966Z" fill="#2D2D2D"/>
<path d="M7.73535 97.7965H8.02362V96.9803H7.49512V97.2684H7.73535V97.7965Z" fill="#2D2D2D"/>
<path d="M8.0718 97.8445H7.73548V97.2684H7.4472V96.9803H8.0718V97.8445ZM7.78353 97.7965H8.02376V97.0284H7.5433V97.2684H7.83157V97.7965H7.78353Z" fill="#2D2D2D"/>
<path d="M8.3119 96.4524H8.02362V96.1643H7.73535V96.4524H7.49512V96.6924H8.60017V96.4524H8.8404V96.1643H8.3119V96.4524Z" fill="#2D2D2D"/>
<path d="M8.60031 96.7403H7.4472V96.4043H7.73548V96.1162H8.0718V96.4043H8.31203V96.1162H8.93663V96.4523H8.64835V96.7403H8.60031ZM7.49525 96.6923H8.55226V96.4043H8.84054V96.1642H8.36008V96.4523H8.02376V96.1642H7.78353V96.4523H7.49525V96.6923V96.6923Z" fill="#2D2D2D"/>
<path d="M8.88832 96.9803H8.31177V97.2684H8.88832V96.9803Z" fill="#2D2D2D"/>
<path d="M8.88845 97.2684H8.26385V96.9803H8.88845V97.2684ZM8.3119 97.2204H8.79236V96.9803H8.3119V97.2204Z" fill="#2D2D2D"/>
</svg>
