<svg width="17" height="22" viewBox="0 0 17 22" fill="none" xmlns="http://www.w3.org/2000/svg">
<path fill-rule="evenodd" clip-rule="evenodd" d="M3.38268 0.0761497C3.75636 0.230931 4 0.595567 4 1.00003V8.99995L3 9.00003L2 8.99995V3.41424L1.70711 3.70714C1.31658 4.09766 0.683417 4.09766 0.292893 3.70714C-0.0976311 3.31661 -0.0976311 2.68345 0.292893 2.29292L2.29289 0.292922C2.57889 0.00692445 3.00901 -0.0786313 3.38268 0.0761497ZM3 10C2.44772 10 2 9.55223 2 8.99995L3 9.00003L4 8.99995C4 9.55223 3.55228 10 3 10Z" fill="#54DF6C"/>
<path fill-rule="evenodd" clip-rule="evenodd" d="M11 1C11 0.447715 11.4477 0 12 0H16C16.5523 0 17 0.447715 17 1V5C17 5.55228 16.5523 6 16 6H13V8H16C16.5523 8 17 8.44772 17 9C17 9.55229 16.5523 10 16 10H12C11.4477 10 11 9.55229 11 9V5C11 4.44772 11.4477 4 12 4H15V2H12C11.4477 2 11 1.55228 11 1Z" fill="#54DF6C"/>
<path fill-rule="evenodd" clip-rule="evenodd" d="M0 13C0 12.4477 0.447715 12 1 12H5C5.55228 12 6 12.4477 6 13V21C6 21.5523 5.55228 22 5 22H1C0.447715 22 0 21.5523 0 21C0 20.4477 0.447715 20 1 20H4V14H1C0.447715 14 0 13.5523 0 13Z" fill="#54DF6C"/>
<path fill-rule="evenodd" clip-rule="evenodd" d="M0 17C0 16.4477 0.447715 16 1 16H4C4.55228 16 5 16.4477 5 17C5 17.5523 4.55228 18 4 18H1C0.447715 18 0 17.5523 0 17Z" fill="#54DF6C"/>
<path fill-rule="evenodd" clip-rule="evenodd" d="M12 12C12.5523 12 13 12.4477 13 13V16H15C15.5523 16 16 16.4477 16 17C16 17.5523 15.5523 18 15 18H12C11.4477 18 11 17.5523 11 17V13C11 12.4477 11.4477 12 12 12Z" fill="#54DF6C"/>
<path fill-rule="evenodd" clip-rule="evenodd" d="M16 12C16.5523 12 17 12.4477 17 13V21C17 21.5523 16.5523 22 16 22C15.4477 22 15 21.5523 15 21V13C15 12.4477 15.4477 12 16 12Z" fill="#54DF6C"/>
<path fill-rule="evenodd" clip-rule="evenodd" d="M0 9C0 8.44772 0.447715 8 1 8H5C5.55228 8 6 8.44772 6 9C6 9.55228 5.55228 10 5 10H1C0.447715 10 0 9.55228 0 9Z" fill="#54DF6C"/>
</svg>
