<svg width="375" height="543" viewBox="0 0 375 543" fill="none" xmlns="http://www.w3.org/2000/svg">
<mask id="mask0" mask-type="alpha" maskUnits="userSpaceOnUse" x="0" y="40" width="375" height="502">
<rect y="40" width="375" height="502" fill="white"/>
</mask>
<g mask="url(#mask0)">
<rect x="-42" y="171.383" width="20" height="590.835" transform="rotate(-45 -42 171.383)" fill="#F2F3F7"/>
<rect x="281.984" y="214" width="20" height="468.082" rx="10" transform="rotate(45 281.984 214)" fill="#F2F3F7"/>
<rect x="348.034" y="-71" width="20" height="628.101" transform="rotate(45 348.034 -71)" fill="#F2F3F7"/>
<rect x="-14" y="38.9597" width="20" height="673.84" transform="rotate(-45 -14 38.9597)" fill="#F2F3F7"/>
<rect x="196" y="-46.8579" width="20" height="548.67" transform="rotate(-45 196 -46.8579)" fill="#F2F3F7"/>
</g>
<rect width="375" height="210" fill="url(#paint0_linear)"/>
<rect x="375" y="543" width="375" height="210" transform="rotate(-180 375 543)" fill="url(#paint1_linear)"/>
<defs>
<linearGradient id="paint0_linear" x1="187.5" y1="0" x2="187.5" y2="210" gradientUnits="userSpaceOnUse">
<stop stop-color="white"/>
<stop offset="1" stop-color="white" stop-opacity="0"/>
</linearGradient>
<linearGradient id="paint1_linear" x1="562.5" y1="543" x2="562.5" y2="753" gradientUnits="userSpaceOnUse">
<stop stop-color="white"/>
<stop offset="1" stop-color="white" stop-opacity="0"/>
</linearGradient>
</defs>
</svg>
