<svg width="227" height="215" viewBox="0 0 227 215" fill="none" xmlns="http://www.w3.org/2000/svg">
<g clip-path="url(#clip0)">
<path d="M27.0312 71.3419C24.3995 70.0587 21.2121 71.1472 20.0681 73.8424C15.0293 85.7135 12.2925 98.452 12.0222 111.378C11.7149 126.073 14.6027 140.659 20.4861 154.128C26.3694 167.598 35.1079 179.628 46.0973 189.389C55.7637 197.974 66.9688 204.623 79.1019 208.994C81.8565 209.986 84.821 208.387 85.6681 205.585V205.585C86.5152 202.782 84.9233 199.838 82.1747 198.829C71.509 194.913 61.6565 189.027 53.1383 181.461C43.2969 172.72 35.4713 161.946 30.2025 149.884C24.9338 137.822 22.3476 124.759 22.6228 111.6C22.861 100.209 25.238 88.9809 29.6134 78.4956C30.7409 75.7935 29.663 72.625 27.0312 71.3419V71.3419Z" fill="#F0F2F6"/>
<path d="M34.8457 34.8457C33.9607 33.9608 32.5242 33.9592 31.6571 34.8616C21.863 45.0549 14.0544 56.9932 8.63967 70.0655C3.22496 83.1377 0.304813 97.1009 0.0226188 111.234C-0.00236369 112.485 1.01451 113.5 2.26596 113.5V113.5C3.51742 113.5 4.52946 112.485 4.55548 111.234C4.83703 97.6961 7.63967 84.3222 12.8266 71.7998C18.0136 59.2773 25.4886 47.8387 34.8624 38.0668C35.7287 37.1637 35.7306 35.7306 34.8457 34.8457V34.8457Z" fill="url(#paint0_linear)"/>
<path d="M222.594 135.213C223.822 135.457 225.017 134.661 225.237 133.429C228.342 116.018 227.337 98.1122 222.29 81.1413C217.242 64.1703 208.297 48.626 196.181 35.7432C195.324 34.8315 193.887 34.8176 192.993 35.693V35.693C192.098 36.5684 192.085 38.0015 192.942 38.9138C204.542 51.2693 213.108 66.1689 217.946 82.4333C222.783 98.6977 223.753 115.857 220.791 132.544C220.572 133.776 221.367 134.969 222.594 135.213V135.213Z" fill="#F0F2F6"/>
<path d="M168.026 58.9739C169.021 57.9786 169.024 56.3616 167.997 55.3987C161.318 49.1338 153.609 44.0674 145.208 40.4224C143.917 39.8621 142.434 40.5063 141.915 41.8148V41.8148C141.396 43.1233 142.039 44.6005 143.329 45.1636C151.084 48.5487 158.207 53.2295 164.391 59.005C165.42 59.9657 167.031 59.9692 168.026 58.9739V58.9739Z" fill="#F0F2F6"/>
<path d="M206.858 90.2957C209.7 89.5894 211.444 86.7083 210.59 83.9076C206.831 71.5716 200.749 60.0489 192.656 49.9663C183.456 38.5037 171.876 29.1761 158.717 22.6283C145.558 16.0804 131.134 12.4686 116.442 12.0426C103.519 11.6679 90.6595 13.7659 78.5518 18.2064C75.803 19.2145 74.5569 22.3436 75.7071 25.0361V25.0361C76.8574 27.7286 79.9682 28.9632 82.7231 27.9719C93.4137 24.1249 104.746 22.3109 116.135 22.6411C129.292 23.0226 142.209 26.2571 153.994 32.1209C165.778 37.9848 176.148 46.338 184.387 56.6032C191.519 65.4881 196.906 75.622 200.285 86.4696C201.156 89.2651 204.017 91.0019 206.858 90.2957V90.2957Z" fill="#F0F2F6"/>
<path d="M177.25 182.25C177.25 182.25 168.833 189.981 162.5 193.5C155.898 197.168 144.375 200.25 144.375 200.25C141.408 200.25 118.711 179.4 116.52 177.383L102.778 164.962C100.587 162.992 94.013 159.783 88.5804 157.354C86.3434 156.346 84.2891 154.971 82.5087 153.321C80.1347 151.075 78.2174 148.325 77.0304 145.162L115.835 48.0874L126.426 53.4041C127.111 53.7249 127.75 54.0916 128.389 54.5041C133.593 57.7124 137.611 62.6166 139.665 68.4832L149.343 96.0291C152.859 106.021 153.361 116.837 150.759 127.15L149.435 132.467C147.837 138.792 149.709 145.483 154.274 150.067L179.2 175.092C181.163 177.062 180.875 179.75 177.25 182.25Z" fill="#E1E4EE"/>
<path d="M128.389 54.5041V142.229C128.389 148.371 123.778 153.321 118.117 153.321H82.5087C80.1347 151.075 78.2174 148.325 77.0304 145.162L115.835 48.0874L126.426 53.4041C127.065 53.7249 127.75 54.0916 128.389 54.5041Z" fill="#B9BFD8"/>
<path d="M124.389 30.2582L118.044 75.8624L124.389 125.317V134.117C124.389 140.258 119.778 145.208 114.117 145.208H61.1609C55.5 145.208 50.8892 140.258 50.8892 134.117V125.179L57.6457 75.8624L50.8892 30.1665V21.6874C50.8892 15.5457 55.5 10.5957 61.1609 10.5957H114.117C119.778 10.5957 124.389 15.5457 124.389 21.6874V30.2582Z" fill="#47C05C"/>
<path d="M111.835 21.6874V134.071C111.835 140.212 107.224 145.162 101.563 145.162H61.1609C55.5 145.162 50.8892 140.212 50.8892 134.071V125.133L57.6457 75.8165L50.8892 30.1665V21.6874C50.8892 15.5457 55.5 10.5957 61.1609 10.5957H101.563C107.224 10.6415 111.835 15.5915 111.835 21.6874Z" fill="#54DF6C"/>
<path d="M124.389 30.1665H50.8892V125.133H124.389V30.1665Z" fill="#F0F2F7"/>
<path d="M111.835 30.1665H50.8892V125.133H111.835V30.1665Z" fill="#F5F6F9"/>
<path d="M90.863 106.204C93.7391 103.317 98.3499 102.996 101.591 105.517L143.135 131.596V166.292L90.863 117.754C87.713 114.546 87.713 109.367 90.863 106.204Z" fill="#E1E4EE"/>
<path d="M94.2587 137.692H80.9739C79.5131 137.692 78.3261 136.5 78.3261 135.033C78.3261 133.567 79.5131 132.375 80.9739 132.375H94.2587C95.7196 132.375 96.9065 133.567 96.9065 135.033C96.9065 136.5 95.7196 137.692 94.2587 137.692Z" fill="white" fill-opacity="0.4"/>
<path d="M92.3413 23.0624H82.8913C81.4304 23.0624 80.2435 21.8707 80.2435 20.4041C80.2435 18.9374 81.4304 17.7457 82.8913 17.7457H92.387C93.8478 17.7457 95.0348 18.9374 95.0348 20.4041C94.9891 21.8707 93.8022 23.0624 92.3413 23.0624Z" fill="white" fill-opacity="0.4"/>
<path d="M109.735 20.4041C109.735 21.9624 108.457 23.1999 106.95 23.1999C105.398 23.1999 104.165 21.9166 104.165 20.4041C104.165 18.8457 105.443 17.5624 106.95 17.5624C108.502 17.5624 109.735 18.8457 109.735 20.4041Z" fill="#54DF6C"/>
<path d="M104.511 209.278C104.237 212.193 106.379 214.792 109.304 214.913C122.189 215.446 135.075 213.52 147.268 209.218C161.128 204.329 173.762 196.487 184.295 186.235C194.827 175.983 203.008 163.566 208.271 149.843C212.9 137.771 215.174 124.942 214.99 112.047C214.948 109.12 212.407 106.908 209.486 107.103V107.103C206.564 107.298 204.37 109.825 204.394 112.753C204.487 124.114 202.45 135.409 198.371 146.046C193.658 158.336 186.332 169.456 176.899 178.637C167.467 187.818 156.153 194.84 143.74 199.219C132.996 203.01 121.651 204.741 110.296 204.341C107.37 204.237 104.784 206.363 104.511 209.278V209.278Z" fill="url(#paint1_linear)"/>
<path d="M76.5005 67.3999L87.5005 78.3999L109.5 56.3999" stroke="#54DF6C" stroke-width="6" stroke-linecap="round" stroke-linejoin="round"/>
<path d="M98.926 53.1051C99.7295 51.7773 99.3096 50.0339 97.9018 49.3806C93.6119 47.3895 88.8358 46.6171 84.1029 47.178C78.4359 47.8495 73.1555 50.394 69.099 54.4078C65.0426 58.4216 62.4425 63.675 61.7112 69.3345C60.9799 74.9941 62.1593 80.7358 65.0622 85.6488C67.9651 90.5619 72.4253 94.3651 77.7355 96.455C83.0456 98.545 88.9015 98.802 94.3744 97.1855C99.8472 95.5689 104.624 92.1712 107.946 87.5315C110.721 83.6564 112.348 79.1003 112.674 74.3821C112.781 72.8338 111.456 71.6248 109.906 71.688V71.688C108.355 71.7513 107.17 73.065 107.015 74.6092C106.668 78.0726 105.422 81.4031 103.376 84.2594C100.783 87.8813 97.0544 90.5336 92.7822 91.7955C88.5101 93.0574 83.9389 92.8567 79.7938 91.2253C75.6487 89.5938 72.1669 86.6251 69.9009 82.7899C67.6349 78.9547 66.7143 74.4726 67.2851 70.0547C67.856 65.6369 69.8856 61.5361 73.0521 58.4028C76.2186 55.2696 80.3406 53.2834 84.7643 52.7592C88.253 52.3458 91.7718 52.8604 94.9727 54.2277C96.3999 54.8373 98.1225 54.4329 98.926 53.1051V53.1051Z" fill="#54DF6C"/>
</g>
<defs>
<linearGradient id="paint0_linear" x1="7.04707e-08" y1="113.5" x2="227" y2="113.5" gradientUnits="userSpaceOnUse">
<stop stop-color="#54DF6C"/>
<stop offset="1" stop-color="#54DF83"/>
</linearGradient>
<linearGradient id="paint1_linear" x1="12" y1="113.5" x2="215" y2="113.5" gradientUnits="userSpaceOnUse">
<stop stop-color="#54DF6C"/>
<stop offset="1" stop-color="#54DF83"/>
</linearGradient>
<clipPath id="clip0">
<rect width="227" height="215" fill="white"/>
</clipPath>
</defs>
</svg>
