<svg width="100" height="100" viewBox="0 0 100 100" fill="none" xmlns="http://www.w3.org/2000/svg">
    <path d="M100 56.0417V65.5208C100 68.3854 97.6823 70.7031 94.8438 70.7031C94.8438 70.7031 94.6094 70.7031 94.1927 70.7031V92.8906C94.1927 96.6927 91.0938 99.7917 87.2917 99.7917H6.90104C3.09896 99.7917 0 96.6927 0 92.8906V28.6719C0 24.8698 3.09896 21.7708 6.90104 21.7708H14.0104V5.18229C14.0104 2.31771 16.3281 0 19.1927 0H48.2812C50.4427 0 52.2917 1.32813 53.0729 3.20312C62.0833 5.78125 70.9896 8.35938 79.8177 10.9115C82.5521 11.6927 84.1406 14.5573 83.3594 17.3177L82.0833 21.7708H87.2917C91.0938 21.7708 94.1927 24.8698 94.1927 28.6719V50.8594H94.8438C97.6823 50.8594 100 53.1771 100 56.0417Z" fill="#C6CADD"/>
    <path d="M53.4375 21.7708H14.0104V5.18229C14.0104 2.31771 16.3281 0 19.1927 0H48.2813C50.4427 0 52.2917 1.32812 53.0729 3.20312C53.5938 4.47917 53.4375 3.61979 53.4375 21.7708Z" fill="#54DF6C"/>
    <path d="M83.3594 17.3177L82.0833 21.7708H53.4375C53.4375 3.61975 53.5677 4.47913 53.0469 3.22913C62.0573 5.80725 70.9635 8.38538 79.7917 10.9375C82.5521 11.6927 84.1406 14.5833 83.3594 17.3177Z" fill="#42C75A"/>
    <path d="M100 56.0417V65.5208C100 68.3854 97.6823 70.7031 94.8437 70.7031C92.2916 70.7031 79.6875 70.7031 78.2552 70.7031C75.3906 70.7031 73.0729 68.3854 73.0729 65.5208V56.0417C73.0729 53.1771 75.3906 50.8594 78.2552 50.8594H94.8437C97.6823 50.8594 100 53.1771 100 56.0417Z" fill="#E2E4ED"/>
    <path d="M79.8177 10.9115C82.5521 11.6927 84.1406 14.5573 83.3594 17.3177L82.0833 21.7709H75.4687C71.9792 18.5156 71.6927 13.0729 74.8438 9.47919L79.8177 10.9115Z" fill="#42C75A"/>
    <path d="M82.9687 62.5001H80.3906C79.4271 62.5001 78.6719 61.7188 78.6719 60.7813C78.6719 59.8178 79.4531 59.0626 80.3906 59.0626H82.9687C83.9323 59.0626 84.6875 59.8438 84.6875 60.7813C84.6875 61.7188 83.9323 62.5001 82.9687 62.5001Z" fill="white"/>
    <path d="M94.1927 28.6719C94.1927 32.0052 91.4844 34.7135 88.151 34.7135H71.9792C39.375 34.6875 12.9427 61.1458 12.9427 93.75C12.9427 97.0833 10.2344 99.7916 6.90104 99.7916C3.09896 99.7916 0 96.6927 0 92.8906V28.6719C0 24.8698 3.09896 21.7708 6.90104 21.7708H87.2917C91.0938 21.7708 94.1927 24.8437 94.1927 28.6719Z" fill="#E2E4ED"/>
    <path d="M49.4271 8.61979H27.7865C24.9219 8.61979 22.6042 10.9375 22.6042 13.8021V21.7708H14.0104V5.18229C14.0104 2.31771 16.3281 0 19.1927 0H48.2813C50.3646 0 52.2656 1.25 53.0729 3.25521C54.1146 5.80729 52.2136 8.61979 49.4271 8.61979Z" fill="#68F280"/>
    <path d="M34.2708 0H25V21.7708H34.2708V0Z" fill="#42434D"/>
    <path d="M34.2708 0V8.61979H27.8125C26.7708 8.61979 25.8073 8.93229 25 9.45312V0H34.2708Z" fill="#4D4E59"/>
    <path d="M57.9167 21.7708H53.4375C53.4375 3.61975 53.5677 4.47913 53.0469 3.22913L57.8646 4.60933C57.9427 4.99996 57.9167 3.82808 57.9167 21.7708Z" fill="#42C75A"/>
</svg>
