<svg width="81" height="97" viewBox="0 0 81 97" fill="none" xmlns="http://www.w3.org/2000/svg">
<path fill-rule="evenodd" clip-rule="evenodd" d="M62.3743 2.02949C62.3529 2.01682 62.1407 1.91068 61.6285 2.20722L61.6093 2.21801L54.3372 6.21769C53.0273 6.9665 40.4426 14.2304 28.1697 21.3161C22.0233 24.8648 15.9564 28.3679 11.4262 30.9839L3.92637 35.3149C2.39927 36.3171 1.98319 37.2403 2.06672 37.9921C2.06817 38.0051 2.06936 38.0182 2.0703 38.0312C2.11235 38.62 2.48694 39.3537 3.52409 40.0202C3.66645 40.076 3.76797 40.1477 3.82024 40.1869C3.86218 40.2184 3.90158 40.252 3.93522 40.2824C5.33076 41.0768 7.13983 41.4701 9.00732 41.4701C10.891 41.4701 12.7626 40.9966 14.2064 40.2091C14.2117 40.2062 14.217 40.2034 14.2223 40.2006C14.2275 40.1979 14.2328 40.1952 14.238 40.1926L14.3567 40.1332L62.6024 12.2659V2.79766C62.6024 2.19538 62.4028 2.0464 62.3743 2.02949ZM3.40223 34.4628C2.90213 33.5968 2.90231 33.5967 2.90267 33.5965L2.90431 33.5956L10.426 29.252C14.9563 26.6359 21.0232 23.1327 27.1697 19.584C39.4607 12.4879 52.0755 5.20659 53.3519 4.47719L53.3662 4.46922L60.6366 0.470487C61.5053 -0.0292024 62.526 -0.204746 63.3929 0.308334C64.256 0.819174 64.6024 1.79849 64.6024 2.79766V12.8432C64.6024 13.2004 64.4119 13.5304 64.1026 13.7091L15.331 41.8801C15.3136 41.8902 15.2959 41.8997 15.278 41.9087L15.148 41.9736C13.3915 42.9278 11.1934 43.4701 9.00732 43.4701C6.84198 43.4701 4.61546 43.0085 2.8207 41.9479C2.76728 41.9164 2.71695 41.8799 2.67035 41.8391C2.64284 41.8256 2.61589 41.8108 2.5896 41.7947C1.09557 40.8817 0.185863 39.6148 0.0768368 38.1934C-0.120051 36.337 1.05896 34.7972 2.85596 33.6252C2.87109 33.6153 2.88703 33.6056 2.90267 33.5965L3.40223 34.4628Z" fill="#828282"/>
<path fill-rule="evenodd" clip-rule="evenodd" d="M75.3222 42.6348C75.8745 42.6348 76.3222 43.0825 76.3222 43.6348V56.3736C76.3222 57.3979 75.9572 58.4634 75.4297 59.3634C74.9017 60.2641 74.1523 61.099 73.2755 61.6066L73.2745 61.6072L17.8059 93.6363C17.3276 93.9125 16.716 93.7487 16.4398 93.2704C16.1637 92.7921 16.3275 92.1805 16.8058 91.9043L72.2734 59.8758C72.7797 59.5827 73.3041 59.0345 73.7043 58.352C74.1048 57.6687 74.3222 56.9508 74.3222 56.3736V43.6348C74.3222 43.0825 74.7699 42.6348 75.3222 42.6348Z" fill="#828282"/>
<path fill-rule="evenodd" clip-rule="evenodd" d="M73.2754 8.39455C73.2753 8.3946 73.2754 8.3945 73.2754 8.39455L15.3309 41.88C14.8527 42.1563 14.241 41.9925 13.9648 41.5143C13.6886 41.036 13.8523 40.4244 14.3306 40.1482L72.273 6.66386C73.1552 6.15309 74.1865 5.98961 75.0612 6.48695C75.9395 6.98641 76.3221 7.95931 76.3221 8.98499V26.0915C76.3221 26.6437 75.8744 27.0915 75.3221 27.0915C74.7698 27.0915 74.3221 26.6437 74.3221 26.0915V8.98499C74.3221 8.40922 74.1223 8.25382 74.0726 8.22553C74.0191 8.19513 73.776 8.10478 73.2754 8.39455Z" fill="#828282"/>
<path fill-rule="evenodd" clip-rule="evenodd" d="M80.0469 22.825C80.3547 23.0041 80.5441 23.3333 80.5441 23.6895V41.1599C80.5441 41.5194 80.3511 41.8513 80.0386 42.029L75.8225 44.4279L72.4806 46.3894C72.4803 46.3896 72.4809 46.3893 72.4806 46.3894M80.0469 22.825C79.739 22.646 79.3591 22.6442 79.0496 22.8203ZM75.8225 26.9575L72.4746 28.9225C70.588 30.0148 68.8083 31.9434 67.498 34.2084C66.1875 36.4735 65.4031 38.9768 65.4031 41.1599C65.4031 42.7096 65.7989 43.812 66.3623 44.5059C66.9097 45.1801 67.6745 45.5466 68.6251 45.5466C69.3708 45.5466 70.3623 45.3151 71.4666 44.6656L74.8275 42.6928L78.5441 40.5783V25.4089L75.8225 26.9575ZM79.0496 22.8203L74.8276 25.2225ZM74.8276 25.2225L74.8159 25.2292ZM74.8159 25.2292L71.4699 27.1932Z" fill="#828282"/>
<path fill-rule="evenodd" clip-rule="evenodd" d="M1 37.1025C1.55228 37.1025 2 37.5503 2 38.1025V90.5138C2 91.103 2.11606 91.5926 2.37149 92.0268C2.62923 92.465 3.0707 92.9177 3.83326 93.3625L3.83813 93.3653C5.24627 94.1975 7.09619 94.6094 9.00728 94.6094C10.886 94.6094 12.7527 94.1384 14.1949 93.3546L16.4396 92.0512C16.9172 91.7739 17.5292 91.9363 17.8066 92.4139C18.0839 92.8915 17.9215 93.5035 17.4439 93.7808L15.1873 95.0911C15.1796 95.0955 15.1718 95.0999 15.164 95.1042C13.4048 96.0637 11.2 96.6094 9.00728 96.6094C6.84274 96.6094 4.61708 96.1481 2.82267 95.0884C1.83965 94.5145 1.11736 93.8394 0.647619 93.0409C0.175118 92.2376 0 91.3805 0 90.5138V38.1025C0 37.5503 0.447715 37.1025 1 37.1025Z" fill="#828282"/>
<path d="M54.9913 37.7266C54.2842 38.4337 53.365 38.9287 52.3043 39.2822C50.3952 39.9186 48.0617 39.8479 45.304 39.0701C36.748 36.5952 27.7677 27.615 25.2929 19.059C24.515 16.3013 24.4443 13.9678 25.0807 12.0586C25.505 11.0687 26 10.1494 26.7071 9.44234C28.687 7.46244 32.0811 6.89675 36.3944 8.09883C44.9504 10.5737 53.9307 19.554 56.4056 28.11C57.5369 32.3526 56.9712 35.7467 54.9913 37.7266Z" fill="white"/>
<path fill-rule="evenodd" clip-rule="evenodd" d="M36.1213 9.06072C31.976 7.90658 29.0281 8.53542 27.4142 10.1494C26.8499 10.7136 26.4194 11.4801 26.0167 12.4134C25.4788 14.0612 25.5155 16.1629 26.2544 18.7841C27.4338 22.8588 30.1879 27.1006 33.7251 30.6378C37.2623 34.175 41.5042 36.9292 45.5789 38.1086C48.2205 38.8531 50.3346 38.8846 51.9881 38.3335C52.9527 38.012 53.7196 37.5841 54.2842 37.0194C55.9012 35.4024 56.5261 32.4515 55.442 28.3776C54.2615 24.3051 51.5085 20.0661 47.9733 16.531C44.4366 12.9943 40.1955 10.2404 36.1213 9.06072ZM49.3875 15.1168C53.0973 18.8265 56.0702 23.3516 57.3662 27.832L57.3718 27.8522C58.5468 32.2584 58.0399 36.0921 55.6985 38.4336C54.8489 39.2832 53.7774 39.8452 52.6206 40.2308C50.4564 40.9522 47.9047 40.8426 45.0325 40.0325L45.0261 40.0306C40.5458 38.7347 36.0207 35.7617 32.3109 32.052C28.6011 28.3422 25.6282 23.8171 24.3322 19.3368L24.3304 19.3304L24.3304 19.3304C23.5203 16.4582 23.4107 13.9064 24.132 11.7423C24.1408 11.716 24.1507 11.6901 24.1616 11.6646C24.6026 10.6357 25.1579 9.57726 26 8.73514C28.3452 6.38988 32.1839 5.88721 36.6629 7.13545L36.6723 7.13807L36.6723 7.13812C41.1527 8.43409 45.6778 11.407 49.3875 15.1168Z" fill="#54DF6C"/>
<path d="M54.9913 37.7264L50.7487 41.9691C50.0416 42.6762 49.1223 43.1711 48.0617 43.5247C46.1525 44.1611 43.819 44.0904 41.0613 43.3126C40.1421 43.1004 39.2228 42.7469 38.3743 42.3226C31.5861 39.3528 25.0807 32.8474 22.1108 26.0591C21.7573 25.1399 21.4037 24.2207 21.1209 23.3721C20.3431 20.6144 20.2724 18.281 20.9088 16.3718C21.2623 15.3111 21.7573 14.3919 22.4644 13.6848L26.707 9.44214C25.9999 10.1492 25.5049 11.0685 25.1514 12.1291C24.515 14.0383 24.5857 16.3718 25.3635 19.1295C27.8384 27.6855 36.8187 36.6657 45.3747 39.1406C48.1324 39.9184 50.4658 39.9892 52.375 39.3528C53.4357 38.9992 54.2842 38.4335 54.9913 37.7264Z" fill="#E0F7FF"/>
<path fill-rule="evenodd" clip-rule="evenodd" d="M27.4141 8.73518C27.8047 9.12571 27.8047 9.75887 27.4141 10.1494C26.8495 10.7141 26.4216 11.481 26.1001 12.4455C25.5489 14.0991 25.5804 16.2132 26.3251 18.855C27.5045 22.9297 30.2586 27.1714 33.7958 30.7085C37.333 34.2457 41.5747 36.9999 45.6494 38.1793C48.2911 38.9239 50.4052 38.9554 52.0588 38.4042C52.9588 38.1042 53.6765 37.6272 54.2842 37.0195C54.6747 36.6289 55.3079 36.6289 55.6984 37.0195C56.0889 37.41 56.0889 38.0431 55.6984 38.4337L51.4558 42.6763C50.6062 43.5258 49.5347 44.0879 48.3779 44.4735C46.2195 45.193 43.6756 45.0858 40.8127 44.2816C39.819 44.0499 38.8418 43.6726 37.9502 43.2287C30.94 40.1534 24.262 33.4711 21.1947 26.4601C21.1886 26.4463 21.1829 26.4324 21.1775 26.4183L21.1726 26.4057C20.8226 25.4954 20.4623 24.5587 20.1722 23.6885C20.1673 23.6737 20.1627 23.6588 20.1584 23.6438C19.3483 20.7716 19.2387 18.2198 19.9601 16.0557C20.3457 14.8989 20.9078 13.8274 21.7573 12.9778L25.9999 8.73518C26.3904 8.34466 27.0236 8.34466 27.4141 8.73518ZM23.7828 13.7807L23.1715 14.392C22.6068 14.9567 22.179 15.7236 21.8574 16.6882C21.3076 18.3377 21.3376 20.4456 22.077 23.0783C22.348 23.8888 22.6866 24.7706 23.036 25.679C25.9092 32.2294 32.2242 38.5406 38.7751 41.4066C38.7908 41.4134 38.8062 41.4207 38.8215 41.4283C39.6137 41.8244 40.4581 42.1472 41.2862 42.3383C41.3018 42.3419 41.3173 42.3459 41.3328 42.3503C43.976 43.0958 46.0912 43.1276 47.7454 42.5762C48.71 42.2546 49.4769 41.8268 50.0416 41.2621L50.5667 40.737C48.9126 40.8875 47.0841 40.662 45.1032 40.1032L45.0968 40.1014C40.6164 38.8054 36.0913 35.8325 32.3816 32.1227C28.6718 28.413 25.6989 23.8879 24.4029 19.4075L24.4011 19.4011L24.4011 19.4011C23.8246 17.3573 23.6029 15.4758 23.7828 13.7807Z" fill="#54DF6C"/>
<path d="M45.092 29.524C42.9706 28.9583 40.7786 27.332 39.2937 25.2814L43.3242 26.342C43.8899 26.4835 44.1727 26.2006 44.0313 25.6349C43.8899 25.0692 43.3242 24.5036 42.8292 24.4328L38.0209 23.1601C37.8795 22.8772 37.8088 22.5237 37.7381 22.1701C37.6673 21.8166 37.5966 21.463 37.5259 21.2509L42.3343 22.5237C42.8999 22.6651 43.1828 22.3822 43.0414 21.8166C42.8999 21.2509 42.2635 20.7559 41.7686 20.5438L37.7381 19.4831C38.233 17.9982 39.8594 17.3618 41.9807 17.9275C42.5464 18.0689 42.8292 17.786 42.6878 17.2204C42.5464 16.6547 41.9807 16.089 41.4857 16.0183C38.233 15.1698 36.041 16.3718 35.6167 18.9174L34.0611 18.4932C33.4954 18.3517 33.2126 18.6346 33.354 19.2003C33.4954 19.7659 34.0611 20.3316 34.5561 20.4023L35.546 20.6852C35.546 20.968 35.6167 21.3216 35.7582 21.6044C35.8289 21.958 35.9703 22.2408 36.041 22.5944L35.0511 22.3115C34.4854 22.1701 34.2025 22.453 34.3439 23.0186C34.4854 23.5843 35.0511 24.15 35.546 24.2207L37.1017 24.645C39.0109 27.827 42.2635 30.514 45.5162 31.3625C46.0819 31.5039 46.3648 31.2211 46.2233 30.6554C46.0819 30.0897 45.5869 29.7361 45.092 29.524Z" fill="#54DF6C"/>
</svg>
